/* XPM */
static char * unreadmail_xpm[] = {
"16 16 5 1",
" 	c None",
".	c #000000",
"+	c #AAAAAA",
"@	c #8B8B8B",
"#	c #404040",
"                ",
"                ",
"                ",
" .............. ",
" .++++++++++++. ",
" ..++++++++++.. ",
" .+.++++++++.+. ",
" .++.++++++.++. ",
" .++@.++++.@++. ",
" .+.++####++.+. ",
" .#++++++++++#. ",
" .............. ",
"                ",
"                ",
"                ",
"                "};
