/* XPM */
static char * frameABL_xpm[] = {
"5 5 6 1",
" 	c None",
".	c #000000",
"+	c #222222",
"@	c #1B1B1B",
"#	c #171717",
"$	c #121212",
" .+++",
" ..@@",
"  ..#",
"   .$",
"     "};
