/* XPM */
static char * frameATL_xpm[] = {
"5 27 19 1",
" 	c None",
".	c #000000",
"+	c #8F8F8F",
"@	c #868686",
"#	c #7C7C7C",
"$	c #767676",
"%	c #6A6A6A",
"&	c #636363",
"*	c #5C5C5C",
"=	c #535353",
"-	c #4A4A4A",
";	c #383838",
">	c #252525",
",	c #1A1A1A",
"'	c #121212",
")	c #0B0B0B",
"!	c #171717",
"~	c #1B1B1B",
"{	c #222222",
"     ",
"     ",
"     ",
"     ",
"     ",
"   ..",
"  .++",
" .@@@",
" .###",
".$$$$",
".%%%%",
".&&&&",
".****",
".====",
".----",
".;;;;",
".>>>>",
".,,,,",
".''''",
".))))",
".....",
".....",
".....",
".....",
".....",
".....",
".'!~{"};
