/* XPM */
static char * close_xpm[] = {
"28 44 29 1",
" 	c None",
".	c #8F8F8F",
"+	c #868686",
"@	c #7C7C7C",
"#	c #767676",
"$	c #707070",
"%	c #DEDEDE",
"&	c #6A6A6A",
"*	c #111111",
"=	c #636363",
"-	c #161616",
";	c #5C5C5C",
">	c #1D1D1D",
",	c #535353",
"'	c #252525",
")	c #4A4A4A",
"!	c #2F2F2F",
"~	c #383838",
"{	c #414141",
"]	c #616161",
"^	c #1A1A1A",
"/	c #8A8A8A",
"(	c #121212",
"_	c #A2A2A2",
":	c #0B0B0B",
"<	c #BCBCBC",
"[	c #000000",
"}	c #C4C4C4",
"|	c #222222",
"............................",
"++++++++++++++++++++++++++++",
"@@@@@@@@@@@@@@@@@@@@@@@@@@@@",
"############################",
"$$$$$$$$$$$$$%$$$$$$$$$$$$$$",
"&&&&&&&&&&&&%*%&&&&&&&&&&&&&",
"===========%---%============",
";;;;;;;;;;%>>>>>%;;;;;;;;;;;",
",,,,,,,,,%'''''''%,,,,,,,,,,",
"))))))))%!!!!!!!!!%)))))))))",
"~~~~~~~%{{{{{{{{{{{%~~~~~~~~",
"''''''''%]]]]]]]]]%'''''''''",
"^^^^^^^^^%///////%^^^^^^^^^^",
"((((((((((%_____%(((((((((((",
":::::::::::%<<<%::::::::::::",
"[[[[[[[[[[[[%}%[[[[[[[[[[[[[",
"[[[[[[[[[[[[[%[[[[[[[[[[[[[[",
"[[[[[[[[[[[[[[[[[[[[[[[[[[[[",
"[[[[[[[[[[[[[[[[[[[[[[[[[[[[",
"[[[[[[[[[[[[[[[[[[[[[[[[[[[[",
"[[[[[[[[[[[[[[[[[[[[[[[[[[[[",
"||||||||||||||||||||||||||||",
"............................",
"++++++++++++++++++++++++++++",
"@@@@@@@@@@@@@@@@@@@@@@@@@@@@",
"############################",
"$$$$$$$$$$$$$%$$$$$$$$$$$$$$",
"&&&&&&&&&&&&%*%&&&&&&&&&&&&&",
"===========%---%============",
";;;;;;;;;;%>>>>>%;;;;;;;;;;;",
",,,,,,,,,%'''''''%,,,,,,,,,,",
"))))))))%!!!!!!!!!%)))))))))",
"~~~~~~~%{{{{{{{{{{{%~~~~~~~~",
"''''''''%]]]]]]]]]%'''''''''",
"^^^^^^^^^%///////%^^^^^^^^^^",
"((((((((((%_____%(((((((((((",
":::::::::::%<<<%::::::::::::",
"[[[[[[[[[[[[%}%[[[[[[[[[[[[[",
"[[[[[[[[[[[[[%[[[[[[[[[[[[[[",
"[[[[[[[[[[[[[[[[[[[[[[[[[[[[",
"[[[[[[[[[[[[[[[[[[[[[[[[[[[[",
"[[[[[[[[[[[[[[[[[[[[[[[[[[[[",
"[[[[[[[[[[[[[[[[[[[[[[[[[[[[",
"||||||||||||||||||||||||||||"};
