/* XPM */
static char *dummy[]={
"6 20 3 1",
". c None",
"# c #000000",
"a c #ffffff",
"......",
"......",
"......",
"......",
"#.....",
"##....",
"#a#...",
"#aa#..",
"#aaa#.",
".#aaa#",
".#aaa#",
"#aaa#.",
"#aa#..",
"#a#...",
"##....",
"#.....",
"......",
"......",
"......",
"......"};
