/* XPM */
static char *accessories_text_editor[] = {
/* columns rows colors chars-per-pixel */
"16 16 104 2",
"   c #A13016",
".  c #A64628",
"X  c #A27C32",
"o  c #90785C",
"O  c #CB6963",
"+  c #AA9629",
"@  c #AB972A",
"#  c #AC9A37",
"$  c #AE9D37",
"%  c #A1913A",
"&  c #A3933C",
"*  c #A2923D",
"=  c #AF9D39",
"-  c #BF9037",
";  c #B09D37",
":  c #C49338",
">  c #A6894E",
",  c #AC8A4C",
"<  c #A19555",
"1  c #938567",
"2  c #988869",
"3  c #BC826F",
"4  c #B29B6E",
"5  c #B19D77",
"6  c #B6A26F",
"7  c #A9A175",
"8  c #AAA275",
"9  c #A8A177",
"0  c #ADA67F",
"q  c #C39849",
"w  c #C69F58",
"e  c #C1A477",
"r  c gray51",
"t  c #8D8D8D",
"y  c #8E8E8E",
"u  c gray56",
"i  c gray57",
"p  c #929292",
"a  c #939393",
"s  c #959595",
"d  c gray59",
"f  c #979797",
"g  c #989898",
"h  c #A5A080",
"j  c #A9A483",
"k  c #AFA980",
"l  c #A7A38D",
"z  c #AEA988",
"x  c #B5AD84",
"c  c #BEA880",
"v  c #BBAF93",
"b  c #AFAEA7",
"n  c #AAAAAA",
"m  c #B6B0A3",
"M  c #BCB3A1",
"N  c #BDB6A9",
"B  c #BFBCB5",
"V  c #BBBBBB",
"C  c #BFBEBB",
"Z  c gray",
"A  c #C1C0BF",
"S  c #C2C1BF",
"D  c #CEC5BA",
"F  c #D1CABB",
"G  c #C3C3C3",
"H  c #C8C8C8",
"J  c gray79",
"K  c #CBCBCB",
"L  c #CCCCCB",
"P  c #CFCECC",
"I  c #CECECE",
"U  c gray81",
"Y  c #D3CFC6",
"T  c #D2D0CD",
"R  c #D4D2CF",
"E  c LightGray",
"W  c gray83",
"Q  c #D5D5D5",
"!  c gray84",
"~  c #D7D7D7",
"^  c gray85",
"/  c #DADADA",
"(  c gray86",
")  c #DDDDDD",
"_  c gray87",
"`  c gray88",
"'  c #E1E1E1",
"]  c #E2E2E2",
"[  c gray89",
"{  c #E4E4E4",
"}  c gray90",
"|  c #E6E6E6",
" . c #E7E7E7",
".. c #E8E7E4",
"X. c gray91",
"o. c gray92",
"O. c #ECECEC",
"+. c gray93",
"@. c #EEEEEE",
"#. c #EFEFEF",
"$. c gray94",
"%. c #F1F1F1",
"&. c #F4F4F4",
"*. c None",
/* pixels */
"*.*.*.*.*.*.*.*.*.*.*.*.*.*.*.*.",
"*.*.*.*.*.*.*.*.*.*.*.*.*.*.*.*.",
"*.*.*.; & = # % @ + * $ < *.*.*.",
"*.*.b x z k 0 j 8 7 h 9 l *.*.*.",
"*.*.E &.#.@.@.+.+.O.O.o.X.*.*.*.",
"*.*.Q | ~ ~ ~ ! ! Q Q W } *.*.*.",
"*.*.! @.X. . .@.%.%.$...D 3 . *.",
"*.*.~ +.X.X.X.+.$.#.F c e O   *.",
"*.*./ ` E E E P M 4 q - , o *.*.",
"*.*._ } ) ) R v w : X 5 Y A *.*.",
"*.*.' / K S 1 6 > 2 C I } G *.*.",
"*.*.} ' ( T m N B L ^ ' { Z *.*.",
"*.*.X.| } } } { { [ [ [ ] V *.*.",
"*.*.U J J J J J H H H H H n *.*.",
"*.*.g d a i y t t u p s f r *.*.",
"*.*.*.*.*.*.*.*.*.*.*.*.*.*.*.*."
};
