/* XPM */
static char *oocalc[] = {
/* columns rows colors chars-per-pixel */
"16 16 197 2",
"   c #112B37",
".  c #122D38",
"X  c #13303C",
"o  c #1B383A",
"O  c #203E39",
"+  c #314C29",
"@  c #37562D",
"#  c #4E650A",
"$  c #546C0A",
"%  c #5C770C",
"&  c #49661C",
"*  c #54721A",
"=  c #56761E",
"-  c #4D6D24",
";  c #143341",
":  c #153342",
">  c #153441",
",  c #173A4A",
"<  c #223F4D",
"1  c #1B414F",
"2  c #1A4052",
"3  c #1C4457",
"4  c #23414F",
"5  c #2C434E",
"6  c #224251",
"7  c #254553",
"8  c #254654",
"9  c #274959",
"0  c #264B5D",
"q  c #294D5D",
"w  c #2C4F5D",
"e  c #2B5062",
"r  c #2C5264",
"t  c #54696F",
"y  c #576D73",
"u  c #5B7279",
"i  c #5C747B",
"p  c #67787E",
"a  c #6B8A0E",
"s  c #6D8B0E",
"d  c #6F8F0E",
"f  c #76970F",
"g  c #7C9F10",
"h  c #7D9F10",
"j  c #7CA010",
"k  c #6E912C",
"l  c #80A411",
"z  c #81A31A",
"x  c #83AB18",
"c  c #8BAE1C",
"v  c #8EB612",
"b  c #90B913",
"n  c #91BA13",
"m  c #92BA13",
"M  c #92BB13",
"N  c #97BE1D",
"B  c #92AF38",
"V  c #93AF39",
"C  c #91B53B",
"Z  c #9AB83E",
"A  c #98C213",
"S  c #9DC915",
"D  c #A1CB1F",
"F  c #9BC125",
"G  c #A3CC24",
"H  c #ABD038",
"J  c #889E44",
"K  c #9AB34E",
"L  c #9EB654",
"P  c #9CB05E",
"I  c #A1B859",
"U  c #A4BC59",
"Y  c #839271",
"T  c #9EA97C",
"R  c #A2B46B",
"E  c #A6B96A",
"W  c #A9BE68",
"Q  c #AEBF7A",
"!  c #A8C842",
"~  c #A8C943",
"^  c #A9C64E",
"/  c #AAC84A",
"(  c #B2D44B",
")  c #B3D54B",
"_  c #ACC854",
"`  c #AAC35A",
"'  c #AEC95B",
"]  c #B4D05B",
"[  c #B8D55C",
"{  c #B0C767",
"}  c #B0C46E",
"|  c #B5CE68",
" . c #B6CE69",
".. c #B9CE78",
"X. c #BBCE7C",
"o. c #BCCF7F",
"O. c #BFD774",
"+. c #BFD872",
"@. c #C1DA72",
"#. c #C4DE73",
"$. c #617981",
"%. c #667F88",
"&. c #688188",
"*. c #6B858E",
"=. c #788388",
"-. c #6D8891",
";. c #8F9395",
":. c #80949D",
">. c #8D9498",
",. c #8A9A9D",
"<. c #899C9F",
"1. c #AABD8F",
"2. c #8CA2A5",
"3. c #95A1A6",
"4. c #94A8AB",
"5. c #ABB5AD",
"6. c #A7B5BB",
"7. c #A6B6BA",
"8. c #AAB8BE",
"9. c #ADB8BD",
"0. c #B1B5B6",
"q. c #B1BFBF",
"w. c #BCCC89",
"e. c #BECE88",
"r. c #C2D685",
"t. c #C6DA87",
"y. c #C2D38A",
"u. c #C2D38B",
"i. c #C1D08D",
"p. c #C6D88A",
"a. c #C7DA8C",
"s. c #C7DB8C",
"d. c #C8DD88",
"f. c #CADD8D",
"g. c #CBDE8F",
"h. c #C2CE9C",
"j. c #C1D092",
"k. c #CADB93",
"l. c #C9D896",
"z. c #C6D39A",
"x. c #CDDD9A",
"c. c #CCDA9D",
"v. c #CBE287",
"b. c #CCE387",
"n. c #CBE08B",
"m. c #CCE388",
"M. c #CCE08D",
"N. c #D0E295",
"B. c #D0E296",
"V. c #D2E39A",
"C. c #C3CFA3",
"Z. c #D1DDA6",
"A. c #D1DDAE",
"S. c #C8D0B0",
"D. c #D2DAB9",
"F. c #D1E0A6",
"G. c #D7E6A4",
"H. c #D7E7A4",
"J. c #D9E9A4",
"K. c #DAE8AB",
"L. c #C2CCCD",
"P. c gray79",
"I. c #CED5CA",
"U. c #D2D6C6",
"Y. c #D8DFC0",
"T. c #DADFCA",
"R. c #DADFCB",
"E. c #C4CDD0",
"W. c #C5CFD4",
"Q. c #C9D3D7",
"!. c #D8DAD1",
"~. c #D0D6D8",
"^. c #D6DEDF",
"/. c #D8D8D8",
"(. c #DADDDE",
"). c #DCE4C3",
"_. c #DFE8C6",
"`. c #DFE3D2",
"'. c #DDE0D6",
"]. c #E3EDC3",
"[. c #E4EFC3",
"{. c #E3E9CF",
"}. c #E5F0C3",
"|. c #E7F1CA",
" X c #E9F2CA",
".X c #E1E4D7",
"XX c #E5E6DF",
"oX c #E6EADB",
"OX c #EAEEDF",
"+X c #DAE1E1",
"@X c #E0E3E0",
"#X c #E0E3E4",
"$X c #E7EAE0",
"%X c #EAEDE1",
"&X c #ECECEB",
"*X c #ECECEC",
"=X c None",
/* pixels */
"q.4.2.<.1.m.v.d.s.a.t.v.b.b.r.=X",
"^.Q.W.E.I._.{.OX.XT.).[.}.}.].D.",
"+X~.(.#X@X%X%X`.oX$X'.R. X X|.Y.",
"L.9.8.6.5.C.S.XX&XU.A.F.J.J.H.h.",
"7.:.3.0.P./.*X!.Q @.#.#.#.#.+.R ",
",.>.;.=.Y E T P ( ) ) ) ) ) / J ",
"p 5 0 6 k D D D D D D D D D c =X",
"-.r 3 ; C H H H H H H H G S h =X",
"*.e 2 O V.B.n.N.K.M.n.G.[ A s =X",
"%.q , @ g.~ N ! f.F N O.] v % =X",
"$.9 : - k. .^ | x._ ^ p.' l # =X",
"i 8 X = l.u.X.y.Z.o.X.c.` f =X=X",
"y 4 . * i.V g B e.z j } U s =X=X",
"t <   & j.W K W z.L K w.I a =X=X",
"u 7 > + { ..............Z j $ =X",
"&.w 1 o x M m m m n n n n b d =X"
};
