/* XPM */
static char * closeI_xpm[] = {
"21 46 43 1",
" 	c None",
".	c #FEFEFE",
"+	c #FBFBFB",
"@	c #F8F8F8",
"#	c #F9F9F9",
"$	c #727272",
"%	c #323232",
"&	c #373737",
"*	c #393939",
"=	c #383838",
"-	c #5D5D5D",
";	c #696969",
">	c #3F3F3F",
",	c #4C4C4C",
"'	c #181818",
")	c #000000",
"!	c #414141",
"~	c #575757",
"{	c #1C1C1C",
"]	c #A4A4A4",
"^	c #C3C3C3",
"/	c #E0E0E0",
"(	c #525252",
"_	c #6C6C6C",
":	c #6E6E6E",
"<	c #555555",
"[	c #F5F5F5",
"}	c #787878",
"|	c #808080",
"1	c #262626",
"2	c #5C5C5C",
"3	c #969696",
"4	c #7A7A7A",
"5	c #707070",
"6	c #888888",
"7	c #666666",
"8	c #2B2B2B",
"9	c #F4F4F4",
"0	c #818181",
"a	c #6B6B6B",
"b	c #7C7C7C",
"c	c #7D7D7D",
"d	c #898989",
".....................",
"+++++++++++++++++++++",
"@@@@@@@@@@@@@@@@@@@@@",
"@@@@@@@@@@@@@@@@@@@@@",
"#####################",
"#####################",
"@@@@@@@@@@@@@@@@@@@@@",
"@@@@@@@@@@@@@@@@@@@@@",
"##$%&***=*=*==***&---",
"#;>,='))))))))))'=,,,",
"@!~-{]^^^^^^^^^^]{---",
"/(_:)<<<<<<<<<<<<):::",
"[<}|12333333333321|||",
"[45678))))))))))87666",
"990a}bbccbccbccbb}ddd",
"999999999999999999999",
"[[[[[[[[[[[[[[[[[[[[[",
"[[[[[[[[[[[[[[[[[[[[[",
"999999999999999999999",
"999999999999999999999",
"[[[[[[[[[[[[[[[[[[[[[",
"[[[[[[[[[[[[[[[[[[[[[",
"999999999999999999999",
".....................",
"+++++++++++++++++++++",
"@@@@@@@@@@@@@@@@@@@@@",
"@@@@@@@@@@@@@@@@@@@@@",
"#####################",
"#####################",
"@@@@@@@@@@@@@@@@@@@@@",
"@@@@@@@@@@@@@@@@@@@@@",
"##$%&***=*=*==***&---",
"#;>,='))))))))))'=,,,",
"@!~-{]^^^^^^^^^^]{---",
"/(_:)<<<<<<<<<<<<):::",
"[<}|12333333333321|||",
"[45678))))))))))87666",
"990a}bbccbccbccbb}ddd",
"999999999999999999999",
"[[[[[[[[[[[[[[[[[[[[[",
"[[[[[[[[[[[[[[[[[[[[[",
"999999999999999999999",
"999999999999999999999",
"[[[[[[[[[[[[[[[[[[[[[",
"[[[[[[[[[[[[[[[[[[[[[",
"999999999999999999999"};
