/* XPM */
static char * rollupO_xpm[] = {
"21 46 50 1",
" 	c None",
".	c #FEFEFE",
"+	c #FBFBFB",
"@	c #F8F8F8",
"#	c #F9F9F9",
"$	c #BCBCBC",
"%	c #5C5C5C",
"&	c #393939",
"*	c #383838",
"=	c #B5B5B5",
"-	c #3F3F3F",
";	c #4C4C4C",
">	c #464646",
",	c #2F2F2F",
"'	c #303030",
")	c #606060",
"!	c #575757",
"~	c #5D5D5D",
"{	c #424242",
"]	c #9F9F9F",
"^	c #AFAFAF",
"/	c #AEAEAE",
"(	c #555555",
"_	c #6C6C6C",
":	c #6E6E6E",
"<	c #3E3E3E",
"[	c #808080",
"}	c #E0E0E0",
"|	c #717171",
"1	c #787878",
"2	c #8C8C8C",
"3	c #A9A9A9",
"4	c #F5F5F5",
"5	c #BBBBBB",
"6	c #707070",
"7	c #888888",
"8	c #7C7C7C",
"9	c #636363",
"0	c #505050",
"a	c #F4F4F4",
"b	c #BEBEBE",
"c	c #7D7D7D",
"d	c #323232",
"e	c #373737",
"f	c #696969",
"g	c #414141",
"h	c #525252",
"i	c #7A7A7A",
"j	c #818181",
"k	c #6B6B6B",
".....................",
"+++++++++++++++++++++",
"@@@@@@@@@@@@@@@@@@@@@",
"@@@@@@@@@@@@@@@@@@@@@",
"#####################",
"#####################",
"@@@@@@@@@@@@@@@@@@@@@",
"@@@@@@@@@@@@@@@@@@@@@",
"#$%&&&&*&*&**&&&&%$##",
"=-;>&,,,,,',,,,&>;-=#",
")!~{]^^^/^^^^^^]{~!)@",
"(_:<[[[[[[[[[[[[<:_(}",
"|1[!233333333332![1|4",
"567890000000000987654",
"ab7188cc8cc8cc8817baa",
"aaaaaaaaaaaaaaaaaaaaa",
"444444444444444444444",
"444444444444444444444",
"aaaaaaaaaaaaaaaaaaaaa",
"aaaaaaaaaaaaaaaaaaaaa",
"444444444444444444444",
"444444444444444444444",
"aaaaaaaaaaaaaaaaaaaaa",
".....................",
"+++++++++++++++++++++",
"@@@@@@@@@@@@@@@@@@@@@",
"@@@@@@@@@@@@@@@@@@@@@",
"#####################",
"#####################",
"@@@@@@@@@@@@@@@@@@@@@",
"@@@@@@@@@@@@@@@@@@@@@",
"#|de&&&*&*&**&&&ed|##",
"f-;>&,,,,,',,,,&>;-f#",
"g!~{]^^^/^^^^^^]{~!g@",
"h_:<[[[[[[[[[[[[<:_h}",
"(1[!233333333332![1(4",
"i678900000000009876i4",
"ajk188cc8cc8cc881kjaa",
"aaaaaaaaaaaaaaaaaaaaa",
"444444444444444444444",
"444444444444444444444",
"aaaaaaaaaaaaaaaaaaaaa",
"aaaaaaaaaaaaaaaaaaaaa",
"444444444444444444444",
"444444444444444444444",
"aaaaaaaaaaaaaaaaaaaaa"};
