/* XPM */
static char * titlebar_left_focused_xpm[] = {
"7 23 8 1",
" 	c None",
".	c #FEFEFE",
"+	c #FBFBFB",
"@	c #F8F8F8",
"#	c #F9F9F9",
"$	c #E0E0E0",
"%	c #F5F5F5",
"&	c #F4F4F4",
".......",
"+++++++",
"@@@@@@@",
"@@@@@@@",
"#######",
"#######",
"@@@@@@@",
"@@@@@@@",
"#######",
"#######",
"@@@@@@@",
"$$$$$$$",
"%%%%%%%",
"%%%%%%%",
"&&&&&&&",
"&&&&&&&",
"%%%%%%%",
"%%%%%%%",
"&&&&&&&",
"&&&&&&&",
"%%%%%%%",
"%%%%%%%",
"&&&&&&&"};
