/* XPM */
static char * desktop_xpm[] = {
"16 16 11 1",
" 	c None",
".	c #000000",
"+	c #FFFFFF",
"@	c #C9A77D",
"#	c #CDAC80",
"$	c #D0AF82",
"%	c #D1D1D1",
"&	c #D5B585",
"*	c #D9B988",
"=	c #DDBD8B",
"-	c #E6D2AD",
"                ",
"                ",
"   .........    ",
"   .+++++++.    ",
"   .+++++++.    ",
".........++.    ",
".@@@@@@@.++.    ",
".#######.++.... ",
".$$$$$$$.++.%%. ",
".&&&&&&&.++.%%. ",
".*******....%%. ",
".=======.%%%%%. ",
".-------.%%%%%. ",
".........%%%%%. ",
"      .%%%%%%%. ",
"      ......... "};
