/* XPM */
static char * start_menu_xpm[] = {
"80 32 771 2",
"  	c None",
". 	c #EFF2F8",
"+ 	c #EEF1F7",
"@ 	c #EDF0F7",
"# 	c #EDF1F7",
"$ 	c #EFF2F7",
"% 	c #F1F4FA",
"& 	c #F7FAFE",
"* 	c #FAFCFF",
"= 	c #F8FAFE",
"- 	c #F4F7FC",
"; 	c #F0F3F9",
"> 	c #F9FBFF",
", 	c #F8FBFE",
"' 	c #F4F7FD",
") 	c #F9FCFF",
"! 	c #F6F9FE",
"~ 	c #F0F3FA",
"{ 	c #F5F8FC",
"] 	c #F8FBFF",
"^ 	c #F7F9FE",
"/ 	c #EDF0F6",
"( 	c #F3F6FB",
"_ 	c #F5F7FD",
": 	c #F0F3F8",
"< 	c #F5F7F7",
"[ 	c #F6F7F6",
"} 	c #F5F6F8",
"| 	c #F2F5FA",
"1 	c #EEF1F8",
"2 	c #F1F3FA",
"3 	c #F5F7F8",
"4 	c #F6F7F7",
"5 	c #F7F7F7",
"6 	c #F5F6F6",
"7 	c #F5F6F5",
"8 	c #F5F5F5",
"9 	c #F3F6F7",
"0 	c #ECEFF7",
"a 	c #F4F7F9",
"b 	c #F6F8F8",
"c 	c #F3F5FA",
"d 	c #EFF2F9",
"e 	c #ECEFF6",
"f 	c #F3F6F8",
"g 	c #F6F8F7",
"h 	c #F5F6F7",
"i 	c #F4F5F8",
"j 	c #ECEFF5",
"k 	c #F1F4F8",
"l 	c #F2F4F9",
"m 	c #EEF1F9",
"n 	c #EBEEF6",
"o 	c #ECEEF7",
"p 	c #EAECF5",
"q 	c #DADCE4",
"r 	c #A8A9AE",
"s 	c #96989C",
"t 	c #A3A5A9",
"u 	c #C2C5CC",
"v 	c #DEE1E9",
"w 	c #D9DBE3",
"x 	c #A7A9AE",
"y 	c #9B9DA1",
"z 	c #9B9DA0",
"A 	c #A1A3A7",
"B 	c #BDBFC5",
"C 	c #E2E5ED",
"D 	c #F0F3FC",
"E 	c #A8AAAE",
"F 	c #989A9D",
"G 	c #959699",
"H 	c #919396",
"I 	c #909295",
"J 	c #929498",
"K 	c #A5A6AB",
"L 	c #E0E3EA",
"M 	c #F0F4FB",
"N 	c #DADDE4",
"O 	c #B3B5BA",
"P 	c #A6A8AD",
"Q 	c #BFC2C8",
"R 	c #DDE0E8",
"S 	c #E4E7EE",
"T 	c #BFC0C6",
"U 	c #A0A1A5",
"V 	c #9C9EA2",
"W 	c #BCBEC4",
"X 	c #E3E5ED",
"Y 	c #EFF2FA",
"Z 	c #D8DBE2",
"` 	c #98999E",
" .	c #ACAEB3",
"..	c #D4D7DE",
"+.	c #F2F5FC",
"@.	c #C9CCD2",
"#.	c #A1A3A6",
"$.	c #999B9E",
"%.	c #BCBEC3",
"&.	c #DDDFE6",
"*.	c #EAEEF5",
"=.	c #E7EAF5",
"-.	c #E7EAF4",
";.	c #E8EAF4",
">.	c #E9ECF6",
",.	c #DEE0EA",
"'.	c #B0B2B9",
").	c #393A3C",
"!.	c #202021",
"~.	c #3B3C3F",
"{.	c #75777D",
"].	c #C3C6CE",
"^.	c #E6E9F3",
"/.	c #DADCE6",
"(.	c #9EA0A6",
"_.	c #37383B",
":.	c #262728",
"<.	c #262628",
"[.	c #2F2F31",
"}.	c #77797E",
"|.	c #D3D6E0",
"1.	c #EDF0FC",
"2.	c #B0B1BA",
"3.	c #3A3A3D",
"4.	c #222324",
"5.	c #28292B",
"6.	c #2B2C2E",
"7.	c #292A2C",
"8.	c #2C2D2F",
"9.	c #535357",
"0.	c #D3D5DD",
"a.	c #EFF2FC",
"b.	c #B2B4BC",
"c.	c #505155",
"d.	c #2E2F31",
"e.	c #6C6D72",
"f.	c #BDBFC7",
"g.	c #EBEFF8",
"h.	c #CBCED6",
"i.	c #696A6F",
"j.	c #272728",
"k.	c #2D2E2F",
"l.	c #D3D6DF",
"m.	c #EEF1FB",
"n.	c #AFB2BA",
"o.	c #1B1B1C",
"p.	c #4E4F53",
"q.	c #AFB2B9",
"r.	c #F8F9FB",
"s.	c #E5E8EE",
"t.	c #8B8D94",
"u.	c #232425",
"v.	c #C6C8D1",
"w.	c #EAECF6",
"x.	c #E8EBF5",
"y.	c #E4E7F4",
"z.	c #E4E7F3",
"A.	c #E3E7F3",
"B.	c #E4E8F3",
"C.	c #E7ECF8",
"D.	c #E4E8F4",
"E.	c #C8CBD6",
"F.	c #84868C",
"G.	c #030404",
"H.	c #000000",
"I.	c #070708",
"J.	c #46474B",
"K.	c #AAADB6",
"L.	c #DADDE9",
"M.	c #B4B7C0",
"N.	c #4F5054",
"O.	c #101011",
"P.	c #6D6F75",
"Q.	c #CED1DC",
"R.	c #83858C",
"S.	c #020202",
"T.	c #191A1C",
"U.	c #45474B",
"V.	c #5F6164",
"W.	c #5D6064",
"X.	c #5D5F65",
"Y.	c #797B82",
"Z.	c #D8DCE6",
"`.	c #DADDE8",
" +	c #8A8C93",
".+	c #1C1C1E",
"++	c #333437",
"@+	c #9EA1A9",
"#+	c #E8ECF7",
"$+	c #A5A8B1",
"%+	c #323336",
"&+	c #0D0E0F",
"*+	c #6C6E74",
"=+	c #CED2DD",
"-+	c #DFE2EE",
";+	c #8B8E95",
">+	c #030304",
",+	c #A6A9B1",
"'+	c #F6F8FC",
")+	c #D8DCE3",
"!+	c #67696F",
"~+	c #606268",
"{+	c #C6C9D4",
"]+	c #EBEFFB",
"^+	c #E6E9F5",
"/+	c #E1E5F2",
"(+	c #E0E5F2",
"_+	c #E1E6F3",
":+	c #E6ECF9",
"<+	c #DDE2EF",
"[+	c #ADB1BB",
"}+	c #5B5E63",
"|+	c #0C0E0E",
"1+	c #0B0B0C",
"2+	c #3B3C40",
"3+	c #91949D",
"4+	c #BDC1CD",
"5+	c #80838B",
"6+	c #0A0B0B",
"7+	c #040405",
"8+	c #0E0E0F",
"9+	c #44464B",
"0+	c #9EA0AA",
"a+	c #D3D7E3",
"b+	c #B8BBC6",
"c+	c #5B5C62",
"d+	c #1B1C1D",
"e+	c #6B6E75",
"f+	c #C9CED9",
"g+	c #FBFFFF",
"h+	c #F2F8FF",
"i+	c #F0F5FF",
"j+	c #EBF0FD",
"k+	c #B6BAC4",
"l+	c #1D1D20",
"m+	c #212225",
"n+	c #868991",
"o+	c #DDE2EE",
"p+	c #797C84",
"q+	c #222325",
"r+	c #0B0C0C",
"s+	c #3F4044",
"t+	c #9B9FA7",
"u+	c #D4D9E6",
"v+	c #C4C9D5",
"w+	c #71747A",
"x+	c #0B0B0D",
"y+	c #111213",
"z+	c #5B5C61",
"A+	c #E9EFFC",
"B+	c #C4C9D4",
"C+	c #5F6166",
"D+	c #787B82",
"E+	c #D7DCE9",
"F+	c #EDF2FF",
"G+	c #E1E6F4",
"H+	c #DFE5F2",
"I+	c #DEE3F2",
"J+	c #DEE3F1",
"K+	c #DFE4F3",
"L+	c #E7ECFB",
"M+	c #D8DDEB",
"N+	c #9599A2",
"O+	c #353739",
"P+	c #060707",
"Q+	c #080809",
"R+	c #61646A",
"S+	c #7F838B",
"T+	c #53565B",
"U+	c #18191B",
"V+	c #151517",
"W+	c #5F6168",
"X+	c #BABECA",
"Y+	c #D5DAE7",
"Z+	c #9B9FA9",
"`+	c #333438",
" @	c #3A3B3F",
".@	c #9295A0",
"+@	c #DADEED",
"@@	c #F7FCFF",
"#@	c #F5FAFF",
"$@	c #EAEFFF",
"%@	c #E4E8F7",
"&@	c #EAEFFE",
"*@	c #9CA0AA",
"=@	c #46484C",
"-@	c #0E0F10",
";@	c #131314",
">@	c #6F7279",
",@	c #C7CCD8",
"'@	c #4F5157",
")@	c #0A0A0B",
"!@	c #121314",
"~@	c #5D5F66",
"{@	c #B8BCC7",
"]@	c #D7DDEA",
"^@	c #AFB4BF",
"/@	c #55585D",
"(@	c #050506",
"_@	c #71747B",
":@	c #C0C5D2",
"<@	c #DBE1EE",
"[@	c #A9ADB7",
"}@	c #4B4C51",
"|@	c #1A1A1C",
"1@	c #868992",
"2@	c #D6DBE8",
"3@	c #E9EEFD",
"4@	c #DDE2F1",
"5@	c #DAE0F1",
"6@	c #DAE0F0",
"7@	c #DBE2F2",
"8@	c #E6ECFD",
"9@	c #D2D8E7",
"0@	c #7D8189",
"a@	c #0D0D0E",
"b@	c #19191C",
"c@	c #2A2B2F",
"d@	c #25262A",
"e@	c #252629",
"f@	c #383A3D",
"g@	c #434449",
"h@	c #393A3F",
"i@	c #161718",
"j@	c #1E1E21",
"k@	c #7A7D86",
"l@	c #D6DCEB",
"m@	c #D5DCEB",
"n@	c #7F838C",
"o@	c #36373A",
"p@	c #525358",
"q@	c #58595E",
"r@	c #63646A",
"s@	c #8F929C",
"t@	c #CFD5E4",
"u@	c #E7EDFD",
"v@	c #838791",
"w@	c #26282B",
"x@	c #000101",
"y@	c #989CA6",
"z@	c #28292C",
"A@	c #D3D9E8",
"B@	c #D8E0EF",
"C@	c #999EA9",
"D@	c #3B3D41",
"E@	c #000001",
"F@	c #323437",
"G@	c #868B94",
"H@	c #C8CEDD",
"I@	c #CCD2E1",
"J@	c #8F939D",
"K@	c #383A3E",
"L@	c #323438",
"M@	c #9297A1",
"N@	c #D5DBE9",
"O@	c #E4E9F9",
"P@	c #DCE2F1",
"Q@	c #DBE0F0",
"R@	c #DBE1F0",
"S@	c #D7DDF0",
"T@	c #D7DEF0",
"U@	c #D9E0F2",
"V@	c #DFE6F8",
"W@	c #C2C8D8",
"X@	c #656971",
"Y@	c #3D3F44",
"Z@	c #505259",
"`@	c #27282C",
" #	c #010202",
".#	c #47494F",
"+#	c #6B6E77",
"@#	c #111113",
"##	c #292B2E",
"$#	c #9196A1",
"%#	c #E1E9FA",
"&#	c #C9D0E0",
"*#	c #666971",
"=#	c #131415",
"-#	c #232427",
";#	c #27292D",
">#	c #1F2024",
",#	c #2E2F34",
"'#	c #6F737C",
")#	c #C5CCDB",
"!#	c #D8DFEF",
"~#	c #6B6F77",
"{#	c #111214",
"]#	c #101112",
"^#	c #373A3E",
"/#	c #585B62",
"(#	c #2A2B2E",
"_#	c #9195A0",
":#	c #E3EBF9",
"<#	c #D7DFEE",
"[#	c #858A95",
"}#	c #1F2124",
"|#	c #44464C",
"1#	c #9EA3B0",
"2#	c #D2DAEB",
"3#	c #BFC6D5",
"4#	c #757983",
"5#	c #25272A",
"6#	c #030303",
"7#	c #4C4E54",
"8#	c #A0A5B1",
"9#	c #D4DBEB",
"0#	c #DEE6F6",
"a#	c #D8DFF0",
"b#	c #D7DEEF",
"c#	c #D8DEEF",
"d#	c #D4DBEE",
"e#	c #D6DDF0",
"f#	c #D7DEF1",
"g#	c #D1D8EA",
"h#	c #A6ACBA",
"i#	c #4F5259",
"j#	c #131315",
"k#	c #5F636B",
"l#	c #6B7078",
"m#	c #2D2E32",
"n#	c #1B1C1F",
"o#	c #595C64",
"p#	c #7C808B",
"q#	c #0E0E10",
"r#	c #3C3E43",
"s#	c #A2A8B6",
"t#	c #D8E0F3",
"u#	c #AEB4C3",
"v#	c #4F5158",
"w#	c #0D0D0F",
"x#	c #51545B",
"y#	c #828792",
"z#	c #8A909A",
"A#	c #7F848F",
"B#	c #858A97",
"C#	c #A4ABBA",
"D#	c #C8CFE0",
"E#	c #BBC2D2",
"F#	c #52555C",
"G#	c #1E2023",
"H#	c #26272C",
"I#	c #1C1D1F",
"J#	c #010101",
"K#	c #3C3E44",
"L#	c #A0A7B4",
"M#	c #E7F0FB",
"N#	c #D2DBE9",
"O#	c #747883",
"P#	c #060607",
"Q#	c #55575F",
"R#	c #B4BACA",
"S#	c #DCE4F7",
"T#	c #B2B8C8",
"U#	c #5A5D65",
"V#	c #686C75",
"W#	c #AEB5C4",
"X#	c #D2DAED",
"Y#	c #D8E1F4",
"Z#	c #D4DDEF",
"`#	c #D4DCEE",
" $	c #D1D9EE",
".$	c #D1D8ED",
"+$	c #D4DCF1",
"@$	c #D5DDF1",
"#$	c #C0C6D9",
"$$	c #858996",
"%$	c #36383D",
"&$	c #808692",
"*$	c #848996",
"=$	c #3F4247",
"-$	c #202024",
";$	c #4B4E55",
">$	c #737782",
",$	c #666A73",
"'$	c #09090B",
")$	c #131416",
"!$	c #5C5F68",
"~$	c #AFB5C7",
"{$	c #C6CDE0",
"]$	c #8B909E",
"^$	c #35373D",
"/$	c #2F3035",
"($	c #969CAC",
"_$	c #DEE7F5",
":$	c #EEF8FA",
"<$	c #E6EEF8",
"[$	c #E3ECFA",
"}$	c #DDE6F7",
"|$	c #C8D0E3",
"1$	c #969CAB",
"2$	c #393B41",
"3$	c #0C0C0D",
"4$	c #212326",
"5$	c #484B52",
"6$	c #494B52",
"7$	c #28292D",
"8$	c #1A1A1D",
"9$	c #5B5E67",
"0$	c #ACB3C3",
"a$	c #E3EBFD",
"b$	c #CDD4E5",
"c$	c #696D77",
"d$	c #5D6069",
"e$	c #BBC2D5",
"f$	c #D7DFF4",
"g$	c #989EAD",
"h$	c #36393D",
"i$	c #121214",
"j$	c #C1C8DB",
"k$	c #D2DAEF",
"l$	c #D3DCF0",
"m$	c #CDD6EC",
"n$	c #CDD6EB",
"o$	c #D2DCF2",
"p$	c #D3DCF2",
"q$	c #ADB3C6",
"r$	c #60636D",
"s$	c #51545C",
"t$	c #9CA3B3",
"u$	c #A0A6B7",
"v$	c #696D78",
"w$	c #60646F",
"x$	c #898E9D",
"y$	c #7E8390",
"z$	c #37393E",
"A$	c #2A2D31",
"B$	c #7B808D",
"C$	c #BCC4D8",
"D$	c #B1B8CB",
"E$	c #646773",
"F$	c #40434A",
"G$	c #9197A7",
"H$	c #C5CDDF",
"I$	c #D0D8E6",
"J$	c #CAD2E2",
"K$	c #CDD6E7",
"L$	c #D3DBEF",
"M$	c #C2C9DE",
"N$	c #6D717D",
"O$	c #1C1D20",
"P$	c #727682",
"Q$	c #6C717C",
"R$	c #373A3F",
"S$	c #303237",
"T$	c #777D89",
"U$	c #B8C0D3",
"V$	c #DEE7FD",
"W$	c #C9D0E6",
"X$	c #6F737F",
"Y$	c #494C53",
"Z$	c #A7AEBF",
"`$	c #6B6F7A",
" %	c #1A1C1E",
".%	c #34363C",
"+%	c #CFD7ED",
"@%	c #D1D9EF",
"#%	c #CFD6ED",
"$%	c #CED6EC",
"%%	c #CAD3EB",
"&%	c #C9D3EA",
"*%	c #D1DBF4",
"=%	c #D1DBF3",
"-%	c #9BA1B3",
";%	c #3C3E46",
">%	c #707581",
",%	c #B0B8CC",
"'%	c #BBC3D8",
")%	c #A3AABD",
"!%	c #A9B0C3",
"~%	c #B3BACF",
"{%	c #757A87",
"]%	c #090A0A",
"^%	c #3F424A",
"/%	c #99A1B3",
"(%	c #C8D2E9",
"_%	c #9DA4B7",
":%	c #40424A",
"<%	c #010001",
"[%	c #23262A",
"}%	c #464951",
"|%	c #595D68",
"1%	c #5D606C",
"2%	c #595D67",
"3%	c #6E727F",
"4%	c #A1A8BA",
"5%	c #BEC6DC",
"6%	c #464851",
"7%	c #0A0B0C",
"8%	c #555862",
"9%	c #98A0B1",
"0%	c #8F97A7",
"a%	c #474B53",
"b%	c #42464C",
"c%	c #939BAB",
"d%	c #C3CCE2",
"e%	c #D6DFF8",
"f%	c #C8D0E8",
"g%	c #8D93A3",
"h%	c #3A3C44",
"i%	c #0C0C0E",
"j%	c #232528",
"k%	c #44464E",
"l%	c #4D5059",
"m%	c #35383D",
"n%	c #212226",
"o%	c #373A40",
"p%	c #797E8C",
"q%	c #C1CAE0",
"r%	c #D1D9F1",
"s%	c #CDD6ED",
"t%	c #CAD3EA",
"u%	c #CBD3EB",
"v%	c #C7D1EA",
"w%	c #C7D0E9",
"x%	c #CFD8F2",
"y%	c #CED7F2",
"z%	c #979EB2",
"A%	c #3E414A",
"B%	c #0E0E11",
"C%	c #292B31",
"D%	c #9198AA",
"E%	c #BCC5DC",
"F%	c #CCD5EE",
"G%	c #D2DCF6",
"H%	c #D9E3FD",
"I%	c #C1CAE2",
"J%	c #727786",
"K%	c #121316",
"L%	c #0C0D0F",
"M%	c #606572",
"N%	c #B4BDD4",
"O%	c #CFDAF4",
"P%	c #98A0B4",
"Q%	c #42454E",
"R%	c #141518",
"S%	c #17181B",
"T%	c #121416",
"U%	c #0D0E10",
"V%	c #090A0C",
"W%	c #060708",
"X%	c #27292E",
"Y%	c #7C8392",
"Z%	c #C0C9E1",
"`%	c #454851",
" &	c #0F1013",
".&	c #282A30",
"+&	c #767C8B",
"@&	c #B6C0D7",
"#&	c #ADB7CC",
"$&	c #636975",
"%&	c #0B0C0D",
"&&	c #0B0C0E",
"*&	c #626772",
"=&	c #ADB6CB",
"-&	c #CAD4EC",
";&	c #CDD6EF",
">&	c #C8D1EA",
",&	c #B4BDD3",
"'&	c #8B92A3",
")&	c #454952",
"!&	c #202226",
"~&	c #111215",
"{&	c #151619",
"]&	c #2B2D32",
"^&	c #8E94A6",
"/&	c #C2CBE3",
"(&	c #C6D1E9",
"_&	c #C8D2EB",
":&	c #C8D2EA",
"<&	c #C7D1E9",
"[&	c #C4CFE9",
"}&	c #C4CEE9",
"|&	c #C5CFEA",
"1&	c #C5CEE9",
"2&	c #BCC6E0",
"3&	c #AFB8D1",
"4&	c #A9B1C8",
"5&	c #ACB5CD",
"6&	c #BCC5DF",
"7&	c #C2CCE6",
"8&	c #C5CFE9",
"9&	c #C7D1EC",
"0&	c #C3CDE7",
"a&	c #B7C1D9",
"b&	c #A9B2C9",
"c&	c #A8B2C8",
"d&	c #B5BFD7",
"e&	c #C2CBE5",
"f&	c #C6D0EA",
"g&	c #BCC7E0",
"h&	c #B0B9D1",
"i&	c #AAB3C9",
"j&	c #A9B3C8",
"k&	c #A8B1C8",
"l&	c #A8B0C7",
"m&	c #A7AFC7",
"n&	c #ACB4CC",
"o&	c #B9C2DB",
"p&	c #B0B9D2",
"q&	c #ACB5CC",
"r&	c #B8C1DA",
"s&	c #C1CBE6",
"t&	c #C0CAE4",
"u&	c #A8B2C7",
"v&	c #C4CFE8",
"w&	c #BBC5DE",
"x&	c #B1BAD2",
"y&	c #ABB4CB",
"z&	c #A9B3C9",
"A&	c #ACB6CD",
"B&	c #B3BCD4",
"C&	c #BCC6DE",
"D&	c #C3CEE8",
"E&	c #C1CCE7",
"F&	c #C1CDE7",
"G&	c #C1CDE8",
"H&	c #C1CCE8",
"I&	c #C1CBE7",
"J&	c #C3CEEA",
"K&	c #C7D2EF",
"L&	c #C9D4F1",
"M&	c #C8D3F0",
"N&	c #C3CFEB",
"O&	c #C1CBE8",
"P&	c #C2CCE8",
"Q&	c #C5D0EC",
"R&	c #C9D5F1",
"S&	c #C5D1ED",
"T&	c #C2CDE9",
"U&	c #C6D2EF",
"V&	c #C8D4F0",
"W&	c #C8D4F1",
"X&	c #C7D3F0",
"Y&	c #C4CFEB",
"Z&	c #C7D1EE",
"`&	c #C4D0EC",
" *	c #C1CDE9",
".*	c #C9D5F2",
"+*	c #C2CEE9",
"@*	c #C7D3EE",
"#*	c #C8D3EF",
"$*	c #C6D2EE",
"%*	c #BEC9E6",
"&*	c #BECAE6",
"**	c #BECAE7",
"=*	c #BECBE8",
"-*	c #C0CDEA",
";*	c #C2CEEC",
">*	c #C1CEEB",
",*	c #BFCBE8",
"'*	c #BEC9E7",
")*	c #C0CCE9",
"!*	c #C2CEEB",
"~*	c #C3CFEC",
"{*	c #C0CCEA",
"]*	c #BECAE8",
"^*	c #C0CBE9",
"/*	c #C1CDEA",
"(*	c #C3CEEC",
"_*	c #BFCBE9",
":*	c #BBC7E5",
"<*	c #BAC7E5",
"[*	c #BBC6E5",
"}*	c #BAC6E5",
"|*	c #B7C4E5",
"1*	c #B7C4E4",
"2*	c #B4C1E3",
"3*	c #B4C2E3",
"4*	c #B1BEE2",
"5*	c #B1BFE2",
"6*	c #AEBCE1",
". . . . . . . . . . . . . . . . . . . . . . . . . . . . . . . . . . . . . . . . . . . . . . . . . . . . . . . . . . . . . . . . . . . . . . . . . . . . . . . . ",
". . . . . . . . . . . . . . . . . . . . . . . . . . . . . . . . . . . . . . . . . . . . . . . . . . . . . . . . . . . . . . . . . . . . . . . . . . . . . . . . ",
". . . . . . . . . . . . . . . . . . . . . . . . . . . . . . . . . . . . . . . . . . . . . . . . . . . . . . . . . . . . . . . . . . . . . . . . . . . . . . . . ",
". . . . . . . . . . . . . . . . . . . . . . . . . . . . . . . . . . . . . . . . . . . . . . . . . . . . . . . . . . . . . . . . . . . . . . . . . . . . . . . . ",
". . . . . . . . . . . . . . . . . . . . . . . . . . . . . . . . . . . . . . . . . . . . . . . . . . . . . . . . . . . . . . . . . . . . . . . . . . . . . . . . ",
". . . . . . . . . . . . . . . . . . . . . . . . . . . . . . . . . . . . . . . . . . . . . . . . . . . . . . . . . . . . . . . . . . . . . . . . . . . . . . . . ",
". . . . . . . . . . . . . . . . . . . . . . . . . . . . . . . . . . . . . . . . . . . . . . . . . . . . . . . . . . . . . . . . . . . . . . . . . . . . . . . . ",
". . . . . . . . . . . . . . . . . . . . . . . . . . . . . . . . . . . . . . . . . . . . . . . . . . . . . . . . . . . . . . . . . . . . . . . . . . . . . . . . ",
". . . . . . . . . . . . . . . . . . . . . . . . . . . . . . . . . . . . . . . . . . . . . . . . . . . . . . . . . . . . . . . . . . . . . . . . . . . . . . . . ",
". . . . . . . . . . . . . . . + + @ # + + . $ + + # # # + + . + + # # # # # # + + . + + # + + . + + @ # + + . + + @ + + . . + # # + + . . . . . . . . . . . . . ",
"+ + + + + + + + + + + + + + . % & * = - ; + . % & > > , ' . + % & > > > > > ) & . @ % ! , ' ~ + ; { ] ] ' . + % & ) ^ % / + ( ] > _ ; + + + + + + + + + + + + + ",
"/ / / / / / / / / / / / / / + : < [ } | . / 1 2 3 4 5 < | + / : < 4 6 6 7 8 6 9 @ 0 . a b c d e . f g h | + / : < 4 i d j @ k g 5 l m / e / / / / / / / / / / / ",
"n n n n n n n n n n n n n o p q r s t u v n n w x y z A B C D q E z F G H I J K L M N O P Q R 0 S T U V W X Y Z x `  ...+.n @.#.$.%.&.*.0 n n n n n n n n n n n ",
"=.=.=.=.=.=.=.=.-.-.-.;.>.>.,.'.).!.~.{.].^./.(._.:.<.[.}.|.1.2.3.4.:.5.6.7.8.9.0.a.b.c.d.e.f.g.h.i.j.k.}.l.m.n.).o.p.q.r.s.t.:.u.}.v.>.w.x.-.-.-.-.-.-.-.-.-.-.",
"y.y.y.y.y.y.y.y.z.z.A.B.C.D.E.F.G.H.I.J.K.L.M.N.H.H.H.O.P.Q.L.R.S.H.T.U.V.W.X.Y.Z.`. +.+H.++@+#+$+%+H.&+*+=+-+;+>+H.%+,+'+)+!+H.H.~+{+]+^+B.A.z.z.z.z.z.z.z.z.z.",
"/+/+/+/+/+/+/+/+(+(+(+_+:+<+[+}+|+H.1+2+3+4+5+6+7+H.8+9+0+a+b+c+I.d+e+f+g+g+h+i+j+k+!+l+H.m+n+o+p+q+r+s+t+u+v+w+x+y+z+b+A+B+C+H.H.D+E+F+G+H+(+(+(+(+(+(+(+(+(+(+",
"I+I+I+I+I+I+I+I+I+I+J+K+L+M+N+O+P+H.Q+7.R+S+T+7+U+>+V+W+X+Y+Z+`+H. @.@+@@@#@$@%@&@*@=@-@H.;@>@,@'@)@!@~@{@]@^@/@(@4._@:@<@[@}@H.|@1@2@3@K+4@I+I+I+I+I+I+I+I+I+I+",
"5@5@5@5@5@5@5@5@5@5@6@7@8@9@0@a@H.b@c@d@e@f@g@h@i@H.j@k@l@m@n@a@H.;@o@p@q@r@s@t@u@v@w@x@H.6+T+y@z@H.l+k@A@B@C@D@E@F@G@H@I@J@K@H.L@M@N@O@P@Q@R@R@R@R@R@R@R@R@R@R@",
"S@S@S@S@S@S@S@S@S@S@T@U@V@W@X@H.H.Y@Z@`@ #y+.#+#@#H.##$#%#&#*#H.E@=#-#;#>#,#'#)#!#~#{#H.(@]#^#/#&+H.(#_#:#<#[#}#H.|#1#2#3#4#5#6#7#8#9#0#a#b#c#c#c#c#c#c#c#c#c#c#",
"d#d#d#d#d#d#d#d#d#d#e#f#g#h#i#H.j#k#l#m#6#n#o#p#q#H.r#s#t#u#v#H.w#x#y#z#A#B#C#D#E#F#)@I.G#H#d@I#J#E@K#L#M#N#O#P#H.Q#R#S#T#U#{#Q+V#W#X#Y#Z#`#`#`#`#`#`#`#`#`#`#`#",
" $ $ $ $ $ $ $ $ $.$+$@$#$$$%$H.L@&$*$=$-$;$>$,$'$)$!$~${$]$^$H./$($_$:$<$[$}$|$1$2$3$4$5$6$7$H.H.8$9$0$a$b$c$H.H.d$e$f$g$h$H.i$]$j$k$l$ $ $ $ $ $ $ $ $ $ $ $ $",
"m$m$m$m$m$m$m$m$m$n$o$p$q$r$b@6#s$t$u$v$w$x$y$z$J#A$B$C$D$E$8$S.F$G$H$I$J$K$L$M$N$O$3$K#P$Q$R$H.H.S$T$U$V$W$X$S.H.Y$1$Z$`$ %H..%q$+%@%#%$%$%$%$%$%$%$%$%$%$%$%$%",
"%%%%%%%%%%%%%%%%%%&%*%=%-%;%H.I.>%,%'%)%!%~%{%]%H.^%/%(%_%:%<%H.[%}%|%1%2%3%4%5%6%H.7%8%9%0%a%H.H.b%c%d%e%f%g%h%i%j%k%l%m%n%o%p%q%r%s%t%u%u%u%u%u%u%u%u%u%u%u%u%",
"v%v%v%v%v%v%v%v%v%w%x%y%z%A%B%C%D%E%F%G%H%I%J%K%L%M%N%O%P%Q%R%S%T%U%V%Q+W%X%Y%Z%`% &.&+&@&#&$&%&&&*&=&-&;&>&,&'&)&!&~&{&]&8%^&/&(&_&:&<&<&<&<&<&<&<&<&<&<&<&<&<&",
"[&[&[&[&[&[&[&[&[&}&|&1&2&3&4&5&6&7&8&|&9&0&a&b&c&d&e&f&g&h&b&i&j&k&l&m&m&n&o&0&p&k&q&r&s&t&d&u&u&d&t&[&8&v&e&w&x&y&b&z&A&B&C&D&[&[&[&[&[&[&[&[&[&[&[&[&[&[&[&[&",
"E&E&E&E&E&E&E&F&G&H&I&I&J&K&L&M&N&H&O&O&O&P&Q&L&R&S&T&E&J&U&L&V&V&W&W&W&W&X&Y&H&Z&L&M&`& *T&S&.*.*S&+*G&H&H&T&Y&@*V&W&V&#*$*Y&G&G&H&H&H&G&H&H&H&H&H&H&H&H&H&H&H&",
"%*%*%*%*%*%*&*&*****%*&*=*-*;*>*,***'*'*'***)*!*~*{*]*'*=*-*;*!*!*!*!*!*!*>*^***/*(*!*)***]*{*~*~*{*=***'*****_*/*>*>*>*>*-*,*******'*'***'*'*'*'*'*'*'*'*'*'*'*",
":*:*:*:*:*:*:*:*:*<*<*<*<*<*<*:*:*:*:*:*:*:*:*:*:*<*<*<*<*<*<*:*:*:*:*:*:*:*:*:*:*:*:*:*:*:*:*:*:*:*:*<*<*<*<*<*<*<*<*<*<*<*:*:*:*:*:*:*:*[*[*[*[*[*[*}*}*}*}*}*",
"|*1*1*1*|*|*|*|*|*|*|*|*|*|*|*|*|*|*|*|*|*|*|*|*|*|*|*|*|*|*|*|*|*|*|*|*|*|*|*|*|*|*1*1*1*1*1*1*1*1*1*1*1*1*|*|*|*|*|*|*|*|*|*|*|*1*1*1*1*1*1*|*|*|*|*|*|*|*|*|*",
"2*2*2*2*2*2*2*2*2*2*2*2*2*2*2*2*3*3*2*2*2*2*2*2*2*2*2*2*2*2*2*2*2*2*2*2*2*2*3*3*2*2*2*2*2*2*2*2*2*2*2*2*2*2*2*2*2*2*2*2*2*2*2*2*2*2*2*2*2*2*2*2*2*2*2*2*2*2*2*2*",
"4*4*4*4*4*4*4*4*4*4*4*4*4*4*4*4*5*5*5*4*4*4*4*4*4*4*4*4*4*4*4*4*4*4*4*4*4*5*5*5*4*4*4*4*4*4*4*4*4*4*4*4*4*4*4*4*4*4*4*4*4*4*4*4*4*4*4*4*4*4*4*4*4*4*4*4*4*4*4*4*",
"6*6*6*6*6*6*6*6*6*6*6*6*6*6*6*6*6*6*6*6*6*6*6*6*6*6*6*6*6*6*6*6*6*6*6*6*6*6*6*6*6*6*6*6*6*6*6*6*6*6*6*6*6*6*6*6*6*6*6*6*6*6*6*6*6*6*6*6*6*6*6*6*6*6*6*6*6*6*6*6*"};
