/* XPM */
static char * taskbuttonminimized_xpm[] = {
"12 36 72 1",
" 	c None",
".	c #EFF2F8",
"+	c #EEF1F7",
"@	c #ECEFF6",
"#	c #E9ECF6",
"$	c #E7EAF5",
"%	c #E6EAF4",
"&	c #E7EAF4",
"*	c #E4E8F4",
"=	c #E3E8F3",
"-	c #E4E9F3",
";	c #E4E8F3",
">	c #E1E5F2",
",	c #E0E5F2",
"'	c #E1E6F2",
")	c #E0E6F2",
"!	c #DFE4F3",
"~	c #DEE4F3",
"{	c #DFE5F3",
"]	c #DCE2F2",
"^	c #DBE2F2",
"/	c #DCE2F1",
"(	c #DBE2F1",
"_	c #DCE1F1",
":	c #DDE1F1",
"<	c #D9DFF1",
"[	c #D8DFF1",
"}	c #D9DFF0",
"|	c #D8DFF0",
"1	c #D9E0F0",
"2	c #D6DDEF",
"3	c #D6DEEF",
"4	c #D3DAEE",
"5	c #D2DAED",
"6	c #D2DBEE",
"7	c #D2DAEE",
"8	c #D3DAED",
"9	c #D0D8EE",
"0	c #D0D8ED",
"a	c #CDD6EC",
"b	c #CED6EC",
"c	c #CAD4EB",
"d	c #CAD3EB",
"e	c #CBD3EB",
"f	c #C7D1EA",
"g	c #C8D1EA",
"h	c #C7D1E9",
"i	c #C8D1E9",
"j	c #C5D0EA",
"k	c #C5CFEA",
"l	c #C2CDE8",
"m	c #C2CCE9",
"n	c #C2CDE9",
"o	c #BFCBE7",
"p	c #BFCBE8",
"q	c #BFCAE8",
"r	c #BDC9E6",
"s	c #BCC9E6",
"t	c #BDC8E6",
"u	c #BCC8E6",
"v	c #B9C6E4",
"w	c #B9C6E5",
"x	c #B9C5E5",
"y	c #B9C5E4",
"z	c #B8C6E5",
"A	c #B8C5E5",
"B	c #B6C3E4",
"C	c #B6C3E5",
"D	c #B4C1E3",
"E	c #B1BFE2",
"F	c #B1BEE2",
"G	c #AEBCE1",
"............",
"............",
"............",
"............",
"............",
"............",
"............",
"............",
"............",
"............",
"............",
"............",
"++++++++++++",
"@@@@@@@@@@@@",
"############",
"$%%$$%&&%%&%",
"*==**=--==;=",
">,,>>,'),,,,",
"!!~~!!!{{!!!",
"]^]/(__/(/:_",
"<[<}|1}}|}11",
"222223222233",
"445546748766",
"900009900000",
"aaaaababbaaa",
"ccccdeceeccc",
"fgggfhhigfhh",
"jkkkjkkjjjjj",
"lmmmnmmnnnnn",
"opppppppppqq",
"rsrrsrrssrtu",
"vwxwwxyvzwxA",
"BCCCCCBBCCBC",
"DDDDDDDDDDDD",
"EEEFFEEEEEEE",
"GGGGGGGGGGGG"};
