/* XPM */
static char * taskbarbg_xpm[] = {
"12 42 159 2",
"  	c None",
". 	c #EFF2F8",
"+ 	c #EEF1F7",
"@ 	c #EDF0F6",
"# 	c #ECEFF5",
"$ 	c #EBEEF4",
"% 	c #EAEDF3",
"& 	c #E9ECF2",
"* 	c #E8EBF1",
"= 	c #E7EAF0",
"- 	c #E5E8EE",
"; 	c #E2E5ED",
"> 	c #E1E5ED",
", 	c #E1E4ED",
"' 	c #E1E5EE",
") 	c #DEE1EC",
"! 	c #DDE1EC",
"~ 	c #DEE1ED",
"{ 	c #DDE1ED",
"] 	c #DDE1EE",
"^ 	c #DDE1EF",
"/ 	c #D9DFEB",
"( 	c #D9DEEC",
"_ 	c #D9DFEE",
": 	c #D9DEED",
"< 	c #D9E0EE",
"[ 	c #D9E0ED",
"} 	c #DAE2ED",
"| 	c #DBE2EE",
"1 	c #DAE0F0",
"2 	c #D9DFF1",
"3 	c #D8DFF1",
"4 	c #DEE1EB",
"5 	c #DDE0EF",
"6 	c #DCE2EE",
"7 	c #DBE3ED",
"8 	c #DBE3EF",
"9 	c #DCE3F0",
"0 	c #DEE3F2",
"a 	c #DEE2F2",
"b 	c #DCE0F2",
"c 	c #DDE0F2",
"d 	c #D9DFED",
"e 	c #D9DFEF",
"f 	c #D9E0F0",
"g 	c #D9DFF0",
"h 	c #D5DCEF",
"i 	c #D5DCEE",
"j 	c #D5DDEE",
"k 	c #D6DDEE",
"l 	c #D5DDEF",
"m 	c #D3DAEE",
"n 	c #D1DAED",
"o 	c #D1D9ED",
"p 	c #D3DAED",
"q 	c #D3DBED",
"r 	c #D2DAED",
"s 	c #D2D9ED",
"t 	c #D2DBED",
"u 	c #D0D7EC",
"v 	c #CFD7EB",
"w 	c #CED7EB",
"x 	c #D0D8EC",
"y 	c #CFD8EB",
"z 	c #CDD5EA",
"A 	c #CDD6EA",
"B 	c #CED5EB",
"C 	c #CED6EB",
"D 	c #CED5EA",
"E 	c #CCD6EA",
"F 	c #CBD3E9",
"G 	c #CBD4E9",
"H 	c #CCD3E9",
"I 	c #CCD4E9",
"J 	c #CCD3E8",
"K 	c #CAD4E9",
"L 	c #CBD4E8",
"M 	c #C9D1E8",
"N 	c #C9D2E8",
"O 	c #CAD2E8",
"P 	c #CAD1E8",
"Q 	c #C9D1E7",
"R 	c #CAD1E7",
"S 	c #C8D2E8",
"T 	c #C9D2E7",
"U 	c #C7CFE7",
"V 	c #C7D0E7",
"W 	c #C7CFE6",
"X 	c #C8D0E7",
"Y 	c #C6D0E7",
"Z 	c #C7D0E6",
"` 	c #C4CEE6",
" .	c #C5CEE6",
"..	c #C4CDE6",
"+.	c #C4CDE5",
"@.	c #C5CDE5",
"#.	c #C5CFE6",
"$.	c #C4CFE6",
"%.	c #C4CEE5",
"&.	c #C2CCE5",
"*.	c #C3CBE5",
"=.	c #C2CBE5",
"-.	c #C2CBE6",
";.	c #C1CAE4",
">.	c #C2CDE5",
",.	c #C2CDE6",
"'.	c #C2CBE4",
").	c #BFCAE4",
"!.	c #C0CAE4",
"~.	c #BFCBE4",
"{.	c #BFCAE5",
"].	c #BFC9E5",
"^.	c #C0CAE5",
"/.	c #C0CBE5",
"(.	c #BFCBE5",
"_.	c #BFC9E4",
":.	c #BFC9E3",
"<.	c #BCC8E4",
"[.	c #BDC9E4",
"}.	c #BCC9E4",
"|.	c #BCC7E4",
"1.	c #BCC8E3",
"2.	c #BDC7E3",
"3.	c #BAC6E3",
"4.	c #BAC8E3",
"5.	c #BAC7E3",
"6.	c #B9C7E3",
"7.	c #BAC6E2",
"8.	c #BAC5E2",
"9.	c #B8C4E2",
"0.	c #B8C6E2",
"a.	c #B8C5E2",
"b.	c #B7C5E2",
"c.	c #B8C3E2",
"d.	c #B6C3E0",
"e.	c #B6C4E0",
"f.	c #B6C4E1",
"g.	c #B6C3E1",
"h.	c #B5C3E1",
"i.	c #B6C2E1",
"j.	c #B5C1E1",
"k.	c #B4C1DF",
"l.	c #B4C1DE",
"m.	c #B3C0DF",
"n.	c #B3C1DF",
"o.	c #B4C0DF",
"p.	c #B2C0DF",
"q.	c #B1BEDD",
"r.	c #B1BDDD",
"s.	c #B0BDDD",
"t.	c #B0BEDD",
"u.	c #B1BFDD",
"v.	c #B2BEDD",
"w.	c #AFBCDC",
"x.	c #AFBBDC",
"y.	c #AEBBDC",
"z.	c #AEBCDC",
"A.	c #ABB8DA",
"B.	c #A6B4D9",
". . . . . . . . . . . . ",
". . . . . . . . . . . . ",
". . . . . . . . . . . . ",
". . . . . . . . . . . . ",
". . . . . . . . . . . . ",
". . . . . . . . . . . . ",
". . . . . . . . . . . . ",
". . . . . . . . . . . . ",
"+ + + + + + + + + + + + ",
"@ @ @ @ @ @ @ @ @ @ @ @ ",
"# # # # # # # # # # # # ",
"$ $ $ $ $ $ $ $ $ $ $ $ ",
"$ $ $ $ $ $ $ $ $ $ $ $ ",
"% % % % % % % % % % % % ",
"& & & & & & & & & & & & ",
"* * * * * * * * * * * * ",
"= = = = = = = = = = = = ",
"- - - - - - - - - - - - ",
"; > ; > , , , , , ' ' ' ",
") ! ~ ! { ! { ] ~ ] ^ ^ ",
"/ ( _ : < [ } | 1 2 3 2 ",
"4 ! ] 5 6 7 8 9 0 a b c ",
"d d e f e _ g g g g g f ",
"h i i j j j k j j i i l ",
"m n o p q q q r r r s t ",
"u v w u x x x u u v v y ",
"z z A z B C C B D A E A ",
"F G G F H I I H J G K L ",
"M N N M M O P Q R S S T ",
"U V V V V V U W X V Y Z ",
"`  . ...` ..+.@.#.$.` %.",
"&.*.=.&.-.=.;.=.>.,.&.'.",
").!.!.~.{.].].^./.(._.:.",
"<.[.[.}.}.|.|.[.[.}.1.2.",
"3.4.5.5.5.3.3.6.5.5.7.8.",
"9.0.0.a.a.a.b.b.a.a.9.c.",
"d.e.f.g.g.g.h.h.h.g.i.j.",
"k.l.k.k.k.m.m.m.n.n.o.p.",
"q.q.q.q.r.r.s.s.t.u.v.s.",
"w.x.x.x.y.y.y.y.y.z.x.y.",
"A.A.A.A.A.A.A.A.A.A.A.A.",
"B.B.B.B.B.B.B.B.B.B.B.B."};
