/* XPM */
static char * frameAT_xpm[] = {
"1 11 2 1",
" 	c None",
".	c #000000",
" ",
" ",
" ",
" ",
" ",
" ",
" ",
" ",
" ",
" ",
"."};
