/* XPM */
static char * titleAS_xpm[] = {
"16 21 17 1",
" 	c None",
".	c #5F5F5F",
"+	c #606060",
"@	c #616161",
"#	c #626262",
"$	c #585858",
"%	c #595959",
"&	c #5A5A5A",
"*	c #505050",
"=	c #515151",
"-	c #474747",
";	c #484848",
">	c #494949",
",	c #3F3F3F",
"'	c #404040",
")	c #414141",
"!	c #000000",
".++++++@@@@@@###",
"$$$%$$%$$$%%%%%&",
"****============",
"--;;;;;;;;;;;>>>",
",,,''''','''''')",
"!!!!!!!!!!!!!!!!",
"!!!!!!!!!!!!!!!!",
"!!!!!!!!!!!!!!!!",
"!!!!!!!!!!!!!!!!",
"!!!!!!!!!!!!!!!!",
"!!!!!!!!!!!!!!!!",
"!!!!!!!!!!!!!!!!",
"!!!!!!!!!!!!!!!!",
"!!!!!!!!!!!!!!!!",
"!!!!!!!!!!!!!!!!",
"!!!!!!!!!!!!!!!!",
"!!!!!!!!!!!!!!!!",
"!!!!!!!!!!!!!!!!",
"!!!!!!!!!!!!!!!!",
"!!!!!!!!!!!!!!!!",
"!!!!!!!!!!!!!!!!"};
