/* XPM */
static char * menuButtonA_xpm[] = {
"20 40 39 1",
" 	c None",
".	c #5A7142",
"+	c #5F6F48",
"@	c #192D19",
"#	c #5A6749",
"$	c #5B6B47",
"%	c #1F372A",
"&	c #626D4D",
"*	c #576848",
"=	c #22382B",
"-	c #6C7351",
";	c #546447",
">	c #243B2B",
",	c #747A56",
"'	c #4F6244",
")	c #7B8057",
"!	c #4C5F43",
"~	c #283D2A",
"{	c #848559",
"]	c #495B41",
"^	c #354731",
"/	c #8A8C5B",
"(	c #465840",
"_	c #384A34",
":	c #939361",
"<	c #42553F",
"[	c #3E5038",
"}	c #9C9B65",
"|	c #3F523C",
"1	c #3E4E34",
"2	c #A5A066",
"3	c #3B513C",
"4	c #415134",
"5	c #ADA76B",
"6	c #374E3A",
"7	c #B2AC72",
"8	c #324B38",
"9	c #F7F3BD",
"0	c #162E20",
"....................",
"....................",
"....................",
"++++++++++++++++++@@",
"++++++++++++++++++@#",
"$$$$$$$$$$$$$$$$$$%&",
"******************=-",
";;;;;;;;;;;;;;;;;;>,",
"''''''''''''''''''>)",
"!!!!!!!!!!!!!!!!!!~{",
"]]]]]]]]]]]]]]]]]]^/",
"((((((((((((((((((_:",
"<<<<<<<<<<<<<<<<<<[}",
"||||||||||||||||||12",
"33333333333333333345",
"66666666666666666667",
"88888888888888888889",
"88888888888888888888",
"88888888888888888888",
"00000000000000000000",
"....................",
"....................",
"....................",
"++++++++++++++++++@@",
"++++++++++++++++++@#",
"$$$$$$$$$$$$$$$$$$%&",
"******************=-",
";;;;;;;;;;;;;;;;;;>,",
"''''''''''''''''''>)",
"!!!!!!!!!!!!!!!!!!~{",
"]]]]]]]]]]]]]]]]]]^/",
"((((((((((((((((((_:",
"<<<<<<<<<<<<<<<<<<[}",
"||||||||||||||||||12",
"33333333333333333345",
"66666666666666666667",
"88888888888888888889",
"88888888888888888888",
"88888888888888888888",
"00000000000000000000"};
