/* XPM */
static char * menuButtonI_xpm[] = {
"20 40 38 1",
" 	c None",
".	c #5A7142",
"+	c #5F6F48",
"@	c #849673",
"#	c #4A5B3B",
"$	c #5B6B47",
"%	c #6E825F",
"&	c #415134",
"*	c #576848",
"=	c #6C825E",
"-	c #3E4E34",
";	c #546447",
">	c #6A7F60",
",	c #3E5038",
"'	c #4F6244",
")	c #667A5F",
"!	c #384A34",
"~	c #4C5F43",
"{	c #5E7559",
"]	c #354731",
"^	c #495B41",
"/	c #597056",
"(	c #283D2A",
"_	c #465840",
":	c #536952",
"<	c #42553F",
"[	c #4E644F",
"}	c #3F523C",
"|	c #475E4A",
"1	c #243B2B",
"2	c #3B513C",
"3	c #405848",
"4	c #22382B",
"5	c #374E3A",
"6	c #1F372A",
"7	c #324B38",
"8	c #142E23",
"9	c #162E20",
"....................",
"....................",
"....................",
"++++++++++++++++++@@",
"++++++++++++++++++@#",
"$$$$$$$$$$$$$$$$$$%&",
"******************=-",
";;;;;;;;;;;;;;;;;;>,",
"'''''''''''''''''')!",
"~~~~~~~~~~~~~~~~~~{]",
"^^^^^^^^^^^^^^^^^^/(",
"__________________:(",
"<<<<<<<<<<<<<<<<<<[(",
"}}}}}}}}}}}}}}}}}}|1",
"22222222222222222234",
"55555555555555555536",
"77777777777777777778",
"77777777777777777777",
"77777777777777777777",
"99999999999999999999",
"....................",
"....................",
"....................",
"++++++++++++++++++@@",
"++++++++++++++++++@#",
"$$$$$$$$$$$$$$$$$$%&",
"******************=-",
";;;;;;;;;;;;;;;;;;>,",
"'''''''''''''''''')!",
"~~~~~~~~~~~~~~~~~~{]",
"^^^^^^^^^^^^^^^^^^/(",
"__________________:(",
"<<<<<<<<<<<<<<<<<<[(",
"}}}}}}}}}}}}}}}}}}|1",
"22222222222222222234",
"55555555555555555536",
"77777777777777777778",
"77777777777777777777",
"77777777777777777777",
"99999999999999999999"};
