/* XPM */
static char * minimizeA_xpm[] = {
"20 40 43 1",
" 	c None",
".	c #5A7142",
"+	c #000000",
"@	c #8F7763",
"#	c #685648",
"$	c #5F6F48",
"%	c #675547",
"&	c #665346",
"*	c #8F7663",
"=	c #635145",
"-	c #615043",
";	c #FFFFFF",
">	c #8C7460",
",	c #876F5C",
"'	c #604F42",
")	c #836B59",
"!	c #5F4E41",
"~	c #DEDEDE",
"{	c #7E6655",
"]	c #5E4D40",
"^	c #C7C7C7",
"/	c #796251",
"(	c #5D4C3F",
"_	c #B9B9B9",
":	c #755D4D",
"<	c #5B4A3D",
"[	c #B4B4B4",
"}	c #6F5949",
"|	c #5A493C",
"1	c #BABABA",
"2	c #6B5546",
"3	c #57473B",
"4	c #D0D0D0",
"5	c #665042",
"6	c #554539",
"7	c #624B3D",
"8	c #544438",
"9	c #5D473A",
"0	c #524236",
"a	c #584236",
"b	c #504034",
"c	c #543E32",
"d	c #4F3F33",
"..........++++++++++",
".........+@@@@+@@@@@",
"........+@####+@####",
"$$++++++@%%%%%+@%%%%",
"$+@@@@@@&&&&&&+@&&&&",
"+*=-=========+;+@===",
"+>----------+;;;+@--",
"+,'''''''''+;;;;;+@'",
"+)!!!!!!+!+~~~~~+)!!",
"+{]]]]]+^+^^^^^+{]]]",
"+/(((((+______+/((((",
"+:<<<<<+[[[[[+:<<<<<",
"+}|||||+1111+}||||||",
"+233333+44444+233333",
"+5666666++++++566666",
"+788888+777777888888",
"+900000+900000000000",
"+abbbbb+abbbbbbbbbbb",
"+cddddd+cddddddddddd",
"++++++++++++++++++++",
"..........++++++++++",
".........+@@@@+@@@@@",
"........+@####+@####",
"$$++++++@%%%%%+@%%%%",
"$+@@@@@@&&&&&&+@&&&&",
"+*=-===========+@===",
"+>--------------+@--",
"+,'''''''''''''''+@'",
"+)!!!!!!!!!!!!!!+)!!",
"+{]]]]]]]]]]]]]+{]]]",
"+/((((((((((((+/((((",
"+:<<<<<<<<<<<+:<<<<<",
"+}||||||||||+}||||||",
"+233333333333+233333",
"+5666666++++++566666",
"+788888+777777888888",
"+900000+900000000000",
"+abbbbb+abbbbbbbbbbb",
"+cddddd+cddddddddddd",
"++++++++++++++++++++"};
