/* XPM */
static char * titleAJ_xpm[] = {
"1 20 15 1",
" 	c #5A7142",
".	c #5F6F48",
"+	c #5B6B47",
"@	c #576848",
"#	c #546447",
"$	c #4F6244",
"%	c #4C5F43",
"&	c #495B41",
"*	c #465840",
"=	c #42553F",
"-	c #3F523C",
";	c #3B513C",
">	c #374E3A",
",	c #324B38",
"'	c #162E20",
" ",
" ",
" ",
".",
".",
"+",
"@",
"#",
"$",
"%",
"&",
"*",
"=",
"-",
";",
">",
",",
",",
",",
"'"};
