/* XPM */
static char * newmail_xpm[] = {
"16 16 6 1",
" 	c None",
".	c #FFD800",
"+	c #000000",
"@	c #FFFFFF",
"#	c #8B8B8B",
"$	c #404040",
"                ",
"................",
"................",
".++++++++++++++.",
".+@@@@@@@@@@@@+.",
".++@@@@@@@@@@++.",
".+@+@@@@@@@@+@+.",
".+@@+@@@@@@+@@+.",
".+@@#+@@@@+#@@+.",
".+@+@@$$$$@@+@+.",
".+$@@@@@@@@@@$+.",
".++++++++++++++.",
"................",
"................",
"                ",
"                "};
