/* XPM */
static char * titleAB_xpm[] = {
"1 22 20 1",
" 	c None",
".	c #EFB073",
"+	c #EDAE71",
"@	c #EAA868",
"#	c #E8A666",
"$	c #E5A261",
"%	c #E4A05E",
"&	c #E29D5A",
"*	c #E19C59",
"=	c #DD9753",
"-	c #DB9551",
";	c #DA934E",
">	c #D8914C",
",	c #D78F49",
"'	c #D38C47",
")	c #CF8843",
"!	c #D0863E",
"~	c #D18337",
"{	c #D18235",
"]	c #D28030",
".",
".",
"+",
"@",
"#",
"$",
"%",
"&",
"*",
"=",
"-",
";",
">",
",",
"'",
")",
"!",
"~",
"{",
"]",
"]",
"]"};
