/* XPM */
static char * folder_16x16_xpm[] = {
"16 16 15 1",
" 	c None",
".	c #9C9E04",
"+	c #040204",
"@	c #FCFEA4",
"#	c #CCCE64",
"$	c #F5D092",
"%	c #343204",
"&	c #FCCECC",
"*	c #DEC77C",
"=	c #D1BA78",
"-	c #000000",
";	c #8C0000",
">	c #181120",
",	c #000000",
"'	c #2D4810",
"                ",
"  .....         ",
" .@@@@@.        ",
".#######....... ",
".@@@@@@@@@@@$@$#",
".@@@@@@@@@@$@$@#",
".@@@@@$$$@@@@@@#",
".@@@@$@@@@@@@$@#",
".@@@$@@@@@$$@$@#",
".@@$@@@@@@$$@$@#",
".@@@@@@@@@$$@$$#",
".@@@@@@$$@$@$$@#",
".$@@$@$@@@$&$$&*",
".$$$@@@@@@$@@$@#",
" %%%%%%%%%%%%%%%",
"                "};
