/* XPM */
static char * minimizeA_xpm[] = {
"20 44 49 1",
" 	c None",
".	c #C6D4D7",
"+	c #939BAF",
"@	c #C2D0D4",
"#	c #BECCD1",
"$	c #969DB0",
"%	c #BBC9CF",
"&	c #989FB2",
"*	c #B7C5CC",
"=	c #9DA4B5",
"-	c #B3C1CA",
";	c #9FA6B9",
">	c #AFBDC8",
",	c #A2A9BC",
"'	c #ACBAC5",
")	c #A5ACBF",
"!	c #A9B7C3",
"~	c #A8AFC2",
"{	c #9BA9B6",
"]	c #ABB2C5",
"^	c #8B99A7",
"/	c #AFB6C9",
"(	c #8B99A6",
"_	c #B2B9CC",
":	c #909EAB",
"<	c #B6BDD0",
"[	c #383838",
"}	c #97A4B2",
"|	c #B8BFD2",
"1	c #9EABB8",
"2	c #BCC3D4",
"3	c #A4B1BE",
"4	c #C0C7D8",
"5	c #AAB7C4",
"6	c #C4CBDC",
"7	c #B1BECA",
"8	c #CBD1E1",
"9	c #B7C4D0",
"0	c #BECBD7",
"a	c #C3D0DC",
"b	c #969EB0",
"c	c #A0A7B8",
"d	c #A6ADBE",
"e	c #A9B0C1",
"f	c #B2BACC",
"g	c #B7BECF",
"h	c #C8D7F8",
"i	c #B8C0D2",
"j	c #C5CCDB",
"....................",
"..++++++++++++++++..",
"@++++++++++++++++++@",
"#$$##############$$#",
"%&&%%%%%%%%%%%%%%&&%",
"*==**************==*",
"-;;--------------;;-",
">,,>>>>>>>>>>>>>>,,>",
"'))''''''''''''''))'",
"!~~!!!!!!!!!!!!!!~~!",
"{]]{{{{{{{{{{{{{{]]{",
"^//^^^^^^^^^^^^^^//^",
"(__((((((((((((((__(",
":<<:::[[[[[[[[:::<<:",
"}||}}}[[[[[[[[}}}||}",
"12211111111111111221",
"34433333333333333443",
"56666666666666666665",
"77888888888888888877",
"99999999999999999999",
"00000000000000000000",
"aaaaaaaaaaaaaaaaaaaa",
"....................",
"..++++++++++++++++..",
"@++++++++++++++++++@",
"#bb==============bb#",
"%&&==============&&%",
"*==================*",
"-cc==============cc-",
">,,==============,,>",
"'dd==============dd'",
"!ee==============ee!",
"{]]==============]]{",
"^//==============//^",
"(ff==============ff(",
":gg===hhhhhhhh===gg:",
"}ii===hhhhhhhh===ii}",
"122==============221",
"344==============443",
"5jjjjjjjjjjjjjjjjjj5",
"77888888888888888877",
"99999999999999999999",
"00000000000000000000",
"aaaaaaaaaaaaaaaaaaaa"};
