/* XPM */
static char * icewm_xpm[] = {
"29 21 84 1",
" 	c None",
".	c #F5F6F0",
"+	c #EEEFE8",
"@	c #E9E9E2",
"#	c #F3F4EE",
"$	c #EFEFE9",
"%	c #F0F1EA",
"&	c #C9C8C1",
"*	c #F0F0EA",
"=	c #635544",
"-	c #F0F0EB",
";	c #C5C2B9",
">	c #564228",
",	c #C3BFB6",
"'	c #948B7D",
")	c #574227",
"!	c #8E8474",
"~	c #F2F3ED",
"{	c #675742",
"]	c #604F38",
"^	c #F4F5EF",
"/	c #F1F2EB",
"(	c #D2D0C8",
"_	c #554128",
":	c #574228",
"<	c #C4C0B7",
"[	c #ECECE5",
"}	c #E0E0DA",
"|	c #A69E92",
"1	c #A2988A",
"2	c #7F7260",
"3	c #776956",
"4	c #A29989",
"5	c #A69E93",
"6	c #E8E8E2",
"7	c #D6D4CC",
"8	c #6D5D49",
"9	c #6A5A46",
"0	c #D4D1C9",
"a	c #EDEDE7",
"b	c #908678",
"c	c #574329",
"d	c #857A6A",
"e	c #EAE9E3",
"f	c #BCB8AD",
"g	c #5E4D37",
"h	c #5A472E",
"i	c #ACA59A",
"j	c #DFDED7",
"k	c #5F4F39",
"l	c #CBC8C0",
"m	c #E9E9E3",
"n	c #57442C",
"o	c #BFBCB3",
"p	c #B8B3A9",
"q	c #8A7F70",
"r	c #887D6C",
"s	c #63523D",
"t	c #C1BDB4",
"u	c #897F6F",
"v	c #5C4B35",
"w	c #EEEEE8",
"x	c #5E4C36",
"y	c #564227",
"z	c #7B6F5D",
"A	c #E3E2DB",
"B	c #B4AFA5",
"C	c #5D4B34",
"D	c #BEBBB2",
"E	c #57432B",
"F	c #A1998B",
"G	c #F2F2EC",
"H	c #DBDAD2",
"I	c #726452",
"J	c #897F70",
"K	c #9E998F",
"L	c #C4C1B8",
"M	c #A19B92",
"N	c #EFF0EA",
"O	c #EAEBE5",
"P	c #ECEDE7",
"Q	c #9B968C",
"R	c #E7E7E0",
"S	c #F1F1EB",
"...........+@#$%.............",
".............&...............",
"............*=-..............",
"............;>,..............",
"............')!..............",
"...........~{)]$.............",
"...^/......(_):<......[......",
"....}|111112)))31111456~.....",
"...#.78)))))))))))))90.#.....",
"......abc))))))))):de........",
"........fg)))))))hi^.........",
".........jk)))))_l...........",
".........mn))))):o...........",
".........p:)):)))q...........",
".........r))stu:)vw..........",
"........$xyzA.^BC:D..........",
"........;EFG....HIJ..........",
"......^.KL.......*MNN........",
"......*LO.........PQR........",
".......^^^........Se.........",
"............................."};
