/* XPM */
static char * rolldownI_xpm[] = {
"18 40 38 1",
" 	c None",
".	c #5A7142",
"+	c #849673",
"@	c #5F6F48",
"#	c #4A5B3B",
"$	c #415134",
"%	c #6E825F",
"&	c #5B6B47",
"*	c #3E4E34",
"=	c #6C825E",
"-	c #576848",
";	c #3E5038",
">	c #6A7F60",
",	c #546447",
"'	c #384A34",
")	c #667A5F",
"!	c #4F6244",
"~	c #354731",
"{	c #5E7559",
"]	c #4C5F43",
"^	c #283D2A",
"/	c #597056",
"(	c #495B41",
"_	c #536952",
":	c #465840",
"<	c #4E644F",
"[	c #42553F",
"}	c #243B2B",
"|	c #475E4A",
"1	c #3F523C",
"2	c #22382B",
"3	c #405848",
"4	c #3B513C",
"5	c #1F372A",
"6	c #374E3A",
"7	c #142E23",
"8	c #324B38",
"9	c #162E20",
"..................",
"..................",
"..................",
"++@@@@@@@@@@@@@@@@",
"#+@@@@@@@@@@@@@@@@",
"$%&&&&&&&&&&&&&&&&",
"*=----------------",
";>,,,,,,,,,,,,,,,,",
"')!!!!!!!!!!!!!!!!",
"~{]]]]]]]]]]]]]]]]",
"^/((((((((((((((((",
"^_::::::::::::::::",
"^<[[[[[[[[[[[[[[[[",
"}|1111111111111111",
"234444444444444444",
"536666666666666666",
"788888888888888888",
"888888888888888888",
"888888888888888888",
"999999999999999999",
"..................",
"..................",
"..................",
"++@@@@@@@@@@@@@@@@",
"#+@@@@@@@@@@@@@@@@",
"$%&&&&&&&&&&&&&&&&",
"*=----------------",
";>,,,,,,,,,,,,,,,,",
"')!!!!!!!!!!!!!!!!",
"~{]]]]]]]]]]]]]]]]",
"^/((((((((((((((((",
"^_::::::::::::::::",
"^<[[[[[[[[[[[[[[[[",
"}|1111111111111111",
"234444444444444444",
"536666666666666666",
"788888888888888888",
"888888888888888888",
"888888888888888888",
"999999999999999999"};
