/* XPM */
static char * rollupA_xpm[] = {
"18 40 39 1",
" 	c None",
".	c #5A7142",
"+	c #192D19",
"@	c #5F6F48",
"#	c #5A6749",
"$	c #626D4D",
"%	c #1F372A",
"&	c #5B6B47",
"*	c #6C7351",
"=	c #22382B",
"-	c #576848",
";	c #747A56",
">	c #243B2B",
",	c #546447",
"'	c #7B8057",
")	c #4F6244",
"!	c #848559",
"~	c #283D2A",
"{	c #4C5F43",
"]	c #8A8C5B",
"^	c #354731",
"/	c #495B41",
"(	c #939361",
"_	c #384A34",
":	c #465840",
"<	c #9C9B65",
"[	c #3E5038",
"}	c #42553F",
"|	c #A5A066",
"1	c #3E4E34",
"2	c #3F523C",
"3	c #ADA76B",
"4	c #415134",
"5	c #3B513C",
"6	c #B2AC72",
"7	c #374E3A",
"8	c #F7F3BD",
"9	c #324B38",
"0	c #162E20",
"..................",
"..................",
"..................",
"++++@@@@@@@@@@@@@@",
"###+@@@@@@@@@@@@@@",
"$$$%&&&&&&&&&&&&&&",
"***=--------------",
";;;>,,,,,,,,,,,,,,",
"'''>))))))))))))))",
"!!!~{{{{{{{{{{{{{{",
"]]]^//////////////",
"(((_::::::::::::::",
"<<<[}}}}}}}}}}}}}}",
"|||122222222222222",
"333455555555555555",
"666777777777777777",
"888999999999999999",
"999999999999999999",
"999999999999999999",
"000000000000000000",
"..................",
"..................",
"..................",
"++++@@@@@@@@@@@@@@",
"###+@@@@@@@@@@@@@@",
"$$$%&&&&&&&&&&&&&&",
"***=--------------",
";;;>,,,,,,,,,,,,,,",
"'''>))))))))))))))",
"!!!~{{{{{{{{{{{{{{",
"]]]^//////////////",
"(((_::::::::::::::",
"<<<[}}}}}}}}}}}}}}",
"|||122222222222222",
"333455555555555555",
"666777777777777777",
"888999999999999999",
"999999999999999999",
"999999999999999999",
"000000000000000000"};
