/* XPM */
static char * closeO_xpm[] = {
"27 32 145 2",
"  	c None",
". 	c #E3E3E3",
"+ 	c #9EB3B6",
"@ 	c #9FB4B9",
"# 	c #9EB3B8",
"$ 	c #9DB2B7",
"% 	c #9AB1B7",
"& 	c #A1B5B6",
"* 	c #8A9895",
"= 	c #47593B",
"- 	c #536D3A",
"; 	c #68854D",
"> 	c #637B4B",
", 	c #606F55",
"' 	c #8D9B99",
") 	c #A1B4B8",
"! 	c #9FB2B6",
"~ 	c #9DB0B4",
"{ 	c #9DB0B6",
"] 	c #A5B5B5",
"^ 	c #3D4D35",
"/ 	c #446424",
"( 	c #304818",
"_ 	c #283D14",
": 	c #4A6A2B",
"< 	c #293E14",
"[ 	c #334D19",
"} 	c #6E8B52",
"| 	c #687561",
"1 	c #A1B0B3",
"2 	c #A2B1B4",
"3 	c #A0B2B4",
"4 	c #9FB1B5",
"5 	c #3D4748",
"6 	c #3B4B33",
"7 	c #344F1A",
"8 	c #35501A",
"9 	c #506F30",
"0 	c #39561C",
"a 	c #324C19",
"b 	c #2C4316",
"c 	c #537234",
"d 	c #737F6C",
"e 	c #3C4648",
"f 	c #576163",
"g 	c #788385",
"h 	c #9EACAD",
"i 	c #A0AFB4",
"j 	c #262A2B",
"k 	c #434842",
"l 	c #3F5E1F",
"m 	c #4D6D2E",
"n 	c #557436",
"o 	c #517031",
"p 	c #5B7A3D",
"q 	c #5E7C3F",
"r 	c #2A3F15",
"s 	c #759159",
"t 	c #262B2A",
"u 	c #252B2B",
"v 	c #2D3235",
"w 	c #353D3F",
"x 	c #414B4C",
"y 	c #8E999D",
"z 	c #282A29",
"A 	c #2E3E24",
"B 	c #2C4216",
"C 	c #2E4517",
"D 	c #3E5D1F",
"E 	c #7C9761",
"F 	c #8CA473",
"G 	c #95AC7E",
"H 	c #96AD7F",
"I 	c #8DA575",
"J 	c #436323",
"K 	c #617258",
"L 	c #28292B",
"M 	c #252A2D",
"N 	c #40484B",
"O 	c #292929",
"P 	c #364E1F",
"Q 	c #243712",
"R 	c #79945E",
"S 	c #D3DDC8",
"T 	c #E9EEE4",
"U 	c #DCE4D3",
"V 	c #89A270",
"W 	c #70895A",
"X 	c #3C5A1E",
"Y 	c #4C6C2D",
"Z 	c #90A878",
"` 	c #E1E8DA",
" .	c #FBFCFA",
"..	c #EDF1E8",
"+.	c #A6BA92",
"@.	c #5D7B3E",
"#.	c #59783A",
"$.	c #708B54",
"%.	c #27282A",
"&.	c #374E20",
"*.	c #314918",
"=.	c #486828",
"-.	c #7A955F",
";.	c #C6D3B9",
">.	c #EBF0E6",
",.	c #D8E1CF",
"'.	c #36511B",
").	c #5E7746",
"!.	c #282828",
"~.	c #3F4E31",
"{.	c #324B19",
"].	c #2B4015",
"^.	c #587739",
"/.	c #7D9862",
"(.	c #98AE81",
"_.	c #617F43",
":.	c #416121",
"<.	c #59684D",
"[.	c #464B45",
"}.	c #4B6B2C",
"|.	c #406020",
"1.	c #4D514C",
"2.	c #2A2829",
"3.	c #242424",
"4.	c #414B37",
"5.	c #2F4717",
"6.	c #3A571D",
"7.	c #4B5640",
"8.	c #232323",
"9.	c #151515",
"0.	c #444F39",
"a.	c #466626",
"b.	c #3D5B1E",
"c.	c #46513B",
"d.	c #141414",
"e.	c #434640",
"f.	c #3E4B31",
"g.	c #2F411C",
"h.	c #2E3F1B",
"i.	c #3E4A31",
"j.	c #434540",
"k.	c #1F1F1F",
"l.	c #0E0E0E",
"m.	c #040404",
"n.	c #000000",
". . . . . . . . . . . . . . . . . . . . . . . . . . . ",
"+ + + + + + + + + + + + + + + + + + + + + + @ # $ $ % ",
"& & & & & * = - ; > , ' & & & & & & & & & & ) ! ~ { $ ",
"] ] ] ] ^ / ( _ : < [ } | ] ] ] ] ] ] ] ] ] 1 2 3 4 4 ",
"5 5 5 6 7 < ( 8 9 0 a b c d 5 5 5 5 5 5 5 5 e f g h i ",
"j j k [ < a l m n o p q r s t j j j j j j j u v w x y ",
"z z A B C D E F G H I J [ [ K z z z z z z z z L j M N ",
"O O P Q C : R S T U V c [ Q W O O O O O O O O O L L M ",
"O O X Y c o Z `  ...+.@.#.9 $.O O O O O O O O O O %.j ",
"O O &.< *.=.-.;.>.,.F n '.B ).O O O O O O O !.!.O O L ",
"O O ~.{.].X ^./.(.V _.:.C 7 <.O O O O O O O O O O O O ",
"O O [.7 ].C X }._.m |.( C =.1.O O O O O O O !.!.O O 2.",
"O O 3.4.[ ( b 5.c ( C *.6.7.8.O O O O O O O O O O O O ",
"O O O 9.0.C X 6.a.6.b.( c.9.O O O O O O O O O O O O O ",
"O O O O d.e.f.g.B h.i.j.d.O O O O O O O O O O O O O O ",
"O O O O O k.l.m.n.m.l.k.O O O O O O O O O O O O O O O ",
". . . . . . . . . . . . . . . . . . . . . . . . . . . ",
"+ + + + + + + + + + + + + + + + + + + + + + @ # $ $ % ",
"& & & & & * = - ; > , ' & & & & & & & & & & ) ! ~ { $ ",
"] ] ] ] ^ / ( _ : < [ } | ] ] ] ] ] ] ] ] ] 1 2 3 4 4 ",
"5 5 5 6 7 < ( 8 9 0 a b c d 5 5 5 5 5 5 5 5 e f g h i ",
"j j k [ < a l m n o p q r s t j j j j j j j u v w x y ",
"z z A B C D E F G H I J [ [ K z z z z z z z z L j M N ",
"O O P Q C : R S T U V c [ Q W O O O O O O O O O L L M ",
"O O X Y c o Z `  ...+.@.#.9 $.O O O O O O O O O O %.j ",
"O O &.< *.=.-.;.>.,.F n '.B ).O O O O O O O !.!.O O L ",
"O O ~.{.].X ^./.(.V _.:.C 7 <.O O O O O O O O O O O O ",
"O O [.7 ].C X }._.m |.( C =.1.O O O O O O O !.!.O O 2.",
"O O 3.4.[ ( b 5.c ( C *.6.7.8.O O O O O O O O O O O O ",
"O O O 9.0.C X 6.a.6.b.( c.9.O O O O O O O O O O O O O ",
"O O O O d.e.f.g.B h.i.j.d.O O O O O O O O O O O O O O ",
"O O O O O k.l.m.n.m.l.k.O O O O O O O O O O O O O O O "};
