/* XPM */
static char * frameAB_xpm[] = {
"1 6 7 1",
" 	c None",
".	c #2C3638",
"+	c #2B363A",
"@	c #A3B2B7",
"#	c #A0B1B8",
"$	c #9DB1B8",
"%	c #E3E3E3",
".",
"+",
"@",
"#",
"$",
"%"};
