/* XPM */
static char *restoreO_xpm[] = {
"19 32 104 2",
"  	c None",
"01	c #E3E3E3",
"02	c #9EB3B6",
"03	c #A1B5B6",
"04	c #4C6961",
"05	c #427568",
"06	c #4E8779",
"07	c #558478",
"08	c #6E8781",
"09	c #A5B5B5",
"0A	c #415853",
"0B	c #246454",
"0C	c #18483C",
"0D	c #143E33",
"0E	c #2B6B5B",
"0F	c #143E34",
"10	c #194D40",
"11	c #528C7E",
"12	c #7B8E89",
"13	c #3D4748",
"14	c #3D544E",
"15	c #1A5043",
"16	c #30705F",
"17	c #1C5648",
"18	c #164439",
"19	c #347263",
"1A	c #869893",
"1B	c #262A2B",
"1C	c #4B504F",
"1D	c #1F5F4E",
"1E	c #2E6E5E",
"1F	c #367465",
"20	c #317160",
"21	c #3D7B6C",
"22	c #3F7D6C",
"23	c #153F35",
"24	c #599183",
"25	c #282A29",
"26	c #2E4841",
"27	c #164237",
"28	c #17453A",
"29	c #1F5D4E",
"2A	c #61978A",
"2B	c #74A497",
"2C	c #7EACA1",
"2D	c #7FADA2",
"2E	c #75A599",
"2F	c #236353",
"30	c #718A83",
"31	c #292929",
"32	c #215043",
"33	c #12382E",
"34	c #5E9487",
"35	c #C9DDD8",
"36	c #E4EEEB",
"37	c #D4E4E0",
"38	c #70A296",
"39	c #639085",
"3A	c #1E5B4A",
"3B	c #2D6D5D",
"3C	c #78A89C",
"3D	c #DAE8E5",
"3E	c #FAFCFB",
"3F	c #E9F1EF",
"40	c #92BAB0",
"41	c #3E7C6B",
"42	c #3A7869",
"43	c #558C7F",
"44	c #184A3C",
"45	c #286858",
"46	c #5F9588",
"47	c #B9D3CD",
"48	c #E6F0ED",
"49	c #CFE1DC",
"4A	c #1B5144",
"4B	c #4C7D71",
"4C	c #36544C",
"4D	c #194B3F",
"4E	c #154135",
"4F	c #1E5A4B",
"50	c #397768",
"51	c #62988B",
"52	c #82AEA2",
"53	c #437F70",
"54	c #216151",
"55	c #5E7972",
"56	c #565B5A",
"57	c #2C6C5C",
"58	c #206050",
"59	c #606665",
"5A	c #364C46",
"5B	c #17473B",
"5C	c #1D5749",
"5D	c #475E59",
"5E	c #374D47",
"5F	c #266656",
"60	c #1E5C4B",
"61	c #3B524C",
"62	c #5B6160",
"63	c #2F4842",
"64	c #193E35",
"65	c #164136",
"66	c #183D33",
"67	c #5A605F",
"01010101010101010101010101010101010101",
"02020202020202020202020202020202020202",
"03030303030303030405060708030303030303",
"0909090909090A0B0C0D0E0F10111209090909",
"131313131314150F0C1516171018191A131313",
"1B1B1B1B1C100F101D1E1F20212223241B1B1B",
"25252525262728292A2B2C2D2E2F1010302525",
"313131313233280E3435363738191033393131",
"313131313A3B19203C3D3E3F40414216433131",
"31313131320F4445464748492B1F4A274B3131",
"313131314C4D4E4F5051523853542815553131",
"3131313156154E284F57531E580C2845593131",
"31313131315A100C185B190C28445C5D313131",
"3131313131315E284F5C5F5C600C6131313131",
"31313131313131626364656626673131313131",
"31313131313131313131313131313131313131",
"01010101010101010101010101010101010101",
"02020202020202020202020202020202020202",
"03030303030303030405060708030303030303",
"0909090909090A0B0C0D0E0F10111209090909",
"131313131314150F0C1516171018191A131313",
"1B1B1B1B1C100F101D1E1F20212223241B1B1B",
"25252525262728292A2B2C2D2E2F1010302525",
"313131313233280E3435363738191033393131",
"313131313A3B19203C3D3E3F40414216433131",
"31313131320F4445464748492B1F4A274B3131",
"313131314C4D4E4F5051523853542815553131",
"3131313156154E284F57531E580C2845593131",
"31313131315A100C185B190C28445C5D313131",
"3131313131315E284F5C5F5C600C6131313131",
"31313131313131626364656626673131313131",
"31313131313131313131313131313131313131"
};
