/* XPM */
static char * menubg_xpm[] = {
"1 25 11 1",
" 	c None",
".	c #000000",
"+	c #111111",
"@	c #191919",
"#	c #1D1D1D",
"$	c #232323",
"%	c #252525",
"&	c #2A2A2A",
"*	c #313131",
"=	c #353535",
"-	c #3A3A3A",
".",
".",
".",
"+",
"@",
"#",
"$",
"%",
"&",
"*",
"=",
"-",
"=",
"*",
"&",
"%",
"$",
"#",
"@",
"+",
".",
".",
".",
".",
"."};
