/* XPM */
static char * collapse_xpm[] = {
"17 24 64 1",
" 	c None",
".	c #080000",
"+	c #9B9E76",
"@	c #FFFFFF",
"#	c #9FA279",
"$	c #9EA179",
"%	c #A2A57B",
"&	c #A6A97E",
"*	c #AAAD81",
"=	c #A9AD81",
"-	c #949284",
";	c #ADB184",
">	c #ADB084",
",	c #000000",
"'	c #B1B486",
")	c #B1B487",
"!	c #908D80",
"~	c #8D8B7D",
"{	c #B5B889",
"]	c #B5B88A",
"^	c #B4B889",
"/	c #878478",
"(	c #737166",
"_	c #B9BC8C",
":	c #B8BC8C",
"<	c #7E7B6F",
"[	c #57554D",
"}	c #BCBF8E",
"|	c #BCBF8F",
"1	c #BCC08F",
"2	c #757267",
"3	c #494841",
"4	c #C0C392",
"5	c #C0C492",
"6	c #C0C391",
"7	c #6B685F",
"8	c #2E2D29",
"9	c #C3C794",
"0	c #C4C795",
"a	c #625F56",
"b	c #C7CB97",
"c	c #59554D",
"d	c #CBCF9A",
"e	c #CBCE9A",
"f	c #504C45",
"g	c #CFD29D",
"h	c #47433D",
"i	c #D3D6A0",
"j	c #D3D69F",
"k	c #3E3A35",
"l	c #D6DAA2",
"m	c #D6DAA3",
"n	c #34302C",
"o	c #DADEA6",
"p	c #DADEA5",
"q	c #DDE2A8",
"r	c #DEE2A8",
"s	c #E1E6AB",
"t	c #E2E5AB",
"u	c #E5EAAE",
"v	c #E5E9AE",
"w	c #E9EDB1",
"x	c #E9EDB0",
"y	c #ECF1B3",
".................",
".+++++++++++++++@",
".##$$$$$$$$$$$#$@",
".%%%%%%%%%%%%%%%@",
".&&&&&&&&&&&&&&&@",
".**===-======**=@",
".;;>>-,-;;;;;;;>@",
".''))!,,~'''''')@",
".{]^^/,,,({{{{]^@",
".__::<,,,,[____:@",
".}|112,,,,,3}}|1@",
".45667,,,,,,8456@",
".9900a,,,,,,9990@",
".bbbbc,,,,,bbbbb@",
".ddeef,,,,ddddde@",
".ggggh,,,ggggggg@",
".iijjk,,iiiiiiij@",
".lmlln,lllllllml@",
".opppooooooooopp@",
".qrrrqqqqqqqqqrr@",
".ssttsssssssssst@",
".uvuuuuuuuuuuuvu@",
".wxwwwwwwwwwwwxw@",
".yyyyyyyyyyyyyyy@"};
