/* XPM */
static char * frameITR_xpm[] = {
"6 21 39 1",
" 	c None",
".	c #E3E3E3",
"+	c #9DB1B8",
"@	c #9AAFB4",
"#	c #99B0B6",
"$	c #9DB0B6",
"%	c #9EB1B7",
"&	c #9EB3B8",
"*	c #9AB1B7",
"=	c #9FB1B5",
"-	c #9DB0B4",
";	c #9CAFB3",
">	c #9CB1B6",
",	c #A0AFB2",
"'	c #9EB0B2",
")	c #9BB0B5",
"!	c #899498",
"~	c #9FAEB1",
"{	c #9CAFB5",
"]	c #424A4D",
"^	c #9CAAAD",
"/	c #9FAEB3",
"(	c #9DAEB5",
"_	c #252A2D",
":	c #7D888C",
"<	c #A2AFB5",
"[	c #9EAFB6",
"}	c #262A2D",
"|	c #485254",
"1	c #A2B0B3",
"2	c #A1B0B5",
"3	c #28292B",
"4	c #293133",
"5	c #A2B1B6",
"6	c #232B2D",
"7	c #9EACAD",
"8	c #9EB0B4",
"9	c #A1ACAE",
"0	c #9EADB0",
"      ",
"      ",
"      ",
"      ",
"      ",
"      ",
"      ",
"...   ",
"+@#.  ",
"$%&*. ",
"=-;>. ",
",'-%).",
"!~={>.",
"]^/({.",
"_:<[{.",
"}|12[.",
"3415=.",
"367,8.",
"367,8.",
"367,8.",
"36908."};
