/* XPM */
static char * maximizeI_xpm[] = {
"19 32 78 1",
" 	c None",
".	c #E3E3E3",
"+	c #9EB3B6",
"@	c #A1B5B6",
"#	c #99A8A9",
"$	c #293330",
"%	c #151B19",
"&	c #111212",
"*	c #171C1B",
"=	c #353D3B",
"-	c #A5B5B5",
";	c #2B3634",
">	c #111111",
",	c #0E0E0E",
"'	c #0B0B0B",
")	c #48514E",
"!	c #3D4748",
"~	c #2C3835",
"{	c #141414",
"]	c #4F4F4F",
"^	c #656565",
"/	c #525B59",
"(	c #262A2B",
"_	c #404443",
":	c #191919",
"<	c #181818",
"[	c #5E5E5E",
"}	c #515151",
"|	c #414141",
"1	c #424242",
"2	c #565656",
"3	c #5F5F5F",
"4	c #212425",
"5	c #282A29",
"6	c #172320",
"7	c #0F0F0F",
"8	c #3B3B3B",
"9	c #343434",
"0	c #444444",
"a	c #101010",
"b	c #35403C",
"c	c #292929",
"d	c #2A322F",
"e	c #0A0A0A",
"f	c #3A3A3A",
"g	c #2B2B2B",
"h	c #2C2C2C",
"i	c #3C3C3C",
"j	c #353C3B",
"k	c #2B2D2C",
"l	c #2D2F2E",
"m	c #333434",
"n	c #212121",
"o	c #252525",
"p	c #090909",
"q	c #343635",
"r	c #373C3B",
"s	c #121212",
"t	c #161616",
"u	c #171717",
"v	c #3E4241",
"w	c #414343",
"x	c #080808",
"y	c #151515",
"z	c #464848",
"A	c #242424",
"B	c #464646",
"C	c #282828",
"D	c #232323",
"E	c #4B4B4B",
"F	c #3E3E3E",
"G	c #1A1A1A",
"H	c #0C0C0C",
"I	c #474747",
"J	c #4C4C4C",
"K	c #1F1F1F",
"L	c #040404",
"M	c #000000",
"...................",
"+++++++++++++++++++",
"@@@@@@@#$%&*=#@@@@@",
"------;>,''',>)----",
"!!!!!~>{]^^^]{>/!!!",
"((((_:<[}|1123::4((",
"5555678|9999908ab55",
"ccccdefgggggghiejcc",
"cccckefgggggghielcc",
"ccccmenooooooonpqcc",
"ccccrsatutttttasvcc",
"ccccw9xyuuuuuyx9zcc",
"ccccABCea{{{aeCBDcc",
"cccccyEFGHHHGFEyccc",
"cccccc{fIJJJIf{cccc",
"cccccccK,LML,Kccccc",
"...................",
"+++++++++++++++++++",
"@@@@@@@#$%&*=#@@@@@",
"------;>,''',>)----",
"!!!!!~>{]^^^]{>/!!!",
"((((_:<[}|1123::4((",
"5555678|9999908ab55",
"ccccdefgggggghiejcc",
"cccckefgggggghielcc",
"ccccmenooooooonpqcc",
"ccccrsatutttttasvcc",
"ccccw9xyuuuuuyx9zcc",
"ccccABCea{{{aeCBDcc",
"cccccyEFGHHHGFEyccc",
"cccccc{fIJJJIf{cccc",
"cccccccK,LML,Kccccc"};
