/* XPM */
static char * titleIJ_xpm[] = {
"10 16 32 1",
" 	c None",
".	c #E3E3E3",
"+	c #9AB1B7",
"@	c #9DB2B7",
"#	c #9EB3B8",
"$	c #9EB3B6",
"%	c #9DB0B6",
"&	c #9DB0B4",
"*	c #9FB2B6",
"=	c #A1B5B6",
"-	c #9FB1B5",
";	c #A0B2B4",
">	c #A2B1B4",
",	c #A5B5B5",
"'	c #A0AFB4",
")	c #9EACAD",
"!	c #788385",
"~	c #576163",
"{	c #3D4748",
"]	c #8E999D",
"^	c #414B4C",
"/	c #353D3F",
"(	c #2D3235",
"_	c #262A2B",
":	c #40484B",
"<	c #252A2D",
"[	c #28292B",
"}	c #282A29",
"|	c #292929",
"1	c #27282A",
"2	c #282828",
"3	c #2A2829",
"..........",
"+@@#$$$$$$",
"@%&*======",
"--;>,,,,,,",
"')!~{{{{{{",
"]^/(______",
":<_[}}}}}}",
"<[[|||||||",
"_1||||||||",
"[||2||||||",
"||||||||||",
"3||2||||||",
"||||||||||",
"||||||||||",
"||||||||||",
"||||||||||"};
