/* XPM */
static char * frameITR_xpm[] = {
"6 28 46 1",
" 	c None",
".	c #767574",
"+	c #555555",
"@	c #585858",
"#	c #5B5B5A",
"$	c #686867",
"%	c #4E4E4E",
"&	c #626261",
"*	c #4C4C4C",
"=	c #4D4D4D",
"-	c #626160",
";	c #4B4B4B",
">	c #606060",
",	c #4A4A4A",
"'	c #60605F",
")	c #484848",
"!	c #5F5E5E",
"~	c #474747",
"{	c #464646",
"]	c #5E5E5D",
"^	c #454545",
"/	c #5E5D5C",
"(	c #404040",
"_	c #414141",
":	c #5C5B5A",
"<	c #3B3B3B",
"[	c #3C3C3C",
"}	c #595858",
"|	c #383838",
"1	c #393939",
"2	c #3A3A3A",
"3	c #585857",
"4	c #373737",
"5	c #575656",
"6	c #363636",
"7	c #353535",
"8	c #565655",
"9	c #343434",
"0	c #333333",
"a	c #555454",
"b	c #323232",
"c	c #545454",
"d	c #303030",
"e	c #313131",
"f	c #545352",
"g	c #565554",
"      ",
"      ",
"      ",
"      ",
"      ",
"      ",
"....  ",
"++@#$ ",
"%%%%&.",
"%%%%&.",
"***=-.",
";;;;>.",
",,,,'.",
"))))!.",
"~~))!.",
"{{{{].",
"^^^^/.",
"(((_:.",
"<<[[}.",
"||123.",
"44||5.",
"664|5.",
"77668.",
"99768.",
"0099a.",
"bbb0c.",
"dddef.",
"7777g."};
