/* XPM */
static char * menuButtonI_xpm[] = {
"20 40 109 2",
"  	c None",
". 	c #EBDFD7",
"+ 	c #E8E4E0",
"@ 	c #A7A4A2",
"# 	c #EADED6",
"$ 	c #E9DED6",
"% 	c #EADDD6",
"& 	c #E9DDD6",
"* 	c #EADDD5",
"= 	c #E9DDD5",
"- 	c #EFE9E5",
"; 	c #A9A6A4",
"> 	c #E5DAD3",
", 	c #E6DAD3",
"' 	c #E5DAD2",
") 	c #E5D9D2",
"! 	c #E5D9D3",
"~ 	c #F4EFE9",
"{ 	c #AEABA8",
"] 	c #E1D6CF",
"^ 	c #E1D7CF",
"/ 	c #E1D5CF",
"( 	c #FBF4EF",
"_ 	c #B3AFAB",
": 	c #DDD2CC",
"< 	c #DDD3CC",
"[ 	c #DDD2CB",
"} 	c #DDD3CB",
"| 	c #DCD2CB",
"1 	c #DCD2CC",
"2 	c #FFFAF4",
"3 	c #B7B4AF",
"4 	c #D8CEC8",
"5 	c #D9CEC8",
"6 	c #D8CFC8",
"7 	c #FFFFF8",
"8 	c #BCB7B3",
"9 	c #D5CAC4",
"0 	c #D5CBC5",
"a 	c #D5CAC5",
"b 	c #D4CBC5",
"c 	c #D4CAC4",
"d 	c #D4CAC5",
"e 	c #FFFFFE",
"f 	c #C1BCB7",
"g 	c #D0C6C1",
"h 	c #D1C7C2",
"i 	c #D1C7C1",
"j 	c #D0C7C1",
"k 	c #D0C6C2",
"l 	c #D0C7C2",
"m 	c #FFFFFF",
"n 	c #C5C0BB",
"o 	c #CDC3BE",
"p 	c #CCC3BE",
"q 	c #CCC2BE",
"r 	c #CBC3BE",
"s 	c #C9C4BF",
"t 	c #C8BFBA",
"u 	c #C8BFBB",
"v 	c #C8BEBA",
"w 	c #C8BEBB",
"x 	c #C7BFBB",
"y 	c #C7BFBA",
"z 	c #CFC8C2",
"A 	c #C4BBB7",
"B 	c #C3BBB7",
"C 	c #C4BBB8",
"D 	c #C4BAB7",
"E 	c #D3CCC6",
"F 	c #C0B8B4",
"G 	c #C0B7B3",
"H 	c #BFB8B3",
"I 	c #C0B7B4",
"J 	c #C0B8B3",
"K 	c #BFB8B4",
"L 	c #BFB7B3",
"M 	c #BFB7B4",
"N 	c #D8D1CA",
"O 	c #BBB3B1",
"P 	c #BBB4B0",
"Q 	c #BBB4B1",
"R 	c #BBB3B0",
"S 	c #BCB3B0",
"T 	c #DCD5CD",
"U 	c #B7B0AD",
"V 	c #B7B0AE",
"W 	c #B8AFAD",
"X 	c #B8B0AD",
"Y 	c #B7AFAD",
"Z 	c #B6AFAD",
"` 	c #B7AFAC",
" .	c #E0DAD1",
"..	c #B3ACAA",
"+.	c #B3ABA9",
"@.	c #B3ABAA",
"#.	c #B2ABA9",
"$.	c #B3ACA9",
"%.	c #B2ABAA",
"&.	c #E5DED5",
"*.	c #AEA8A6",
"=.	c #AFA8A6",
"-.	c #AEA7A6",
";.	c #AFA7A6",
">.	c #AEA7A5",
",.	c #C4BAB3",
"'.	c #AAA7A5",
").	c #A4A1A0",
"!.	c #848180",
". . . . . . . . . . . . . . . . . . + @ ",
"# $ $ $ % # $ & * & $ = = = = # $ $ - ; ",
"> , > ' ) ' ) ! > , ) ' ' ! ' > , > ~ { ",
"] ^ ] ] ] ] ] ] ] ] ] ] ] / / ] ^ ] ( _ ",
": < [ [ } : [ [ : | 1 : 1 [ [ : < [ 2 3 ",
"4 5 4 4 5 6 5 5 5 4 5 5 4 4 4 4 5 4 7 8 ",
"9 0 0 a a a a a a b c d d d c 9 0 0 e f ",
"g h g i j i g k g l g g j k j g h g m n ",
"o p o o p p p q q q p q p r q o p o m s ",
"t t u t v t t w x u x y v t y t t u m z ",
"A B A A B C C D A B B B A D B A B A m E ",
"F G H I I J K L K L G L M L G F G H m N ",
"O P O O Q Q O Q R R S R R P R O P O m T ",
"U V W X U Y Y Y Y Z Y ` ` Z Y U V W m  .",
"..+.+.@...@.+...+.#.@.@.$.%.@...+.+.m &.",
"*.=.=.=.=.-.=.=.;.-.=.*.>.-.*.*.=.=.,.,.",
"'.'.'.'.'.'.'.'.'.'.'.'.'.'.'.'.'.'.'.'.",
"@ @ @ @ @ @ @ @ @ @ @ @ @ @ @ @ @ @ @ @ ",
").).).).).).).).).).).).).).).).).).).).",
"!.!.!.!.!.!.!.!.!.!.!.!.!.!.!.!.!.!.!.!.",
". . . . . . . . . . . . . . . . . . + @ ",
"# $ $ $ % # $ & * & $ = = = = # $ $ - ; ",
"> , > ' ) ' ) ! > , ) ' ' ! ' > , > ~ { ",
"] ^ ] ] ] ] ] ] ] ] ] ] ] / / ] ^ ] ( _ ",
": < [ [ } : [ [ : | 1 : 1 [ [ : < [ 2 3 ",
"4 5 4 4 5 6 5 5 5 4 5 5 4 4 4 4 5 4 7 8 ",
"9 0 0 a a a a a a b c d d d c 9 0 0 e f ",
"g h g i j i g k g l g g j k j g h g m n ",
"o p o o p p p q q q p q p r q o p o m s ",
"t t u t v t t w x u x y v t y t t u m z ",
"A B A A B C C D A B B B A D B A B A m E ",
"F G H I I J K L K L G L M L G F G H m N ",
"O P O O Q Q O Q R R S R R P R O P O m T ",
"U V W X U Y Y Y Y Z Y ` ` Z Y U V W m  .",
"..+.+.@...@.+...+.#.@.@.$.%.@...+.+.m &.",
"*.=.=.=.=.-.=.=.;.-.=.*.>.-.*.*.=.=.,.,.",
"'.'.'.'.'.'.'.'.'.'.'.'.'.'.'.'.'.'.'.'.",
"@ @ @ @ @ @ @ @ @ @ @ @ @ @ @ @ @ @ @ @ ",
").).).).).).).).).).).).).).).).).).).).",
"!.!.!.!.!.!.!.!.!.!.!.!.!.!.!.!.!.!.!.!."};
