/* XPM */
static char * linux_xpm[] = {
"48 20 631 2",
"  	c None",
". 	c #000000",
"+ 	c #FFFFFF",
"@ 	c #FBFDFE",
"# 	c #F7FBFD",
"$ 	c #F2F9FD",
"% 	c #EEF7FC",
"& 	c #EAF4FA",
"* 	c #E5F2F9",
"= 	c #E1EFF8",
"- 	c #DCECF6",
"; 	c #D8EAF4",
"> 	c #D2E6F2",
", 	c #CEE3F0",
"' 	c #C9DFEE",
") 	c #C4DCEC",
"! 	c #BFD8EA",
"~ 	c #BAD5E7",
"{ 	c #B5D0E4",
"] 	c #B0CCE2",
"^ 	c #AAC8DE",
"/ 	c #A4C3DA",
"( 	c #9FBFD8",
"_ 	c #9ABAD4",
": 	c #94B5D0",
"< 	c #8FB0CD",
"[ 	c #8AABC8",
"} 	c #84A6C4",
"| 	c #7EA1C0",
"1 	c #789BBB",
"2 	c #7395B7",
"3 	c #6D8FB2",
"4 	c #6689AC",
"5 	c #6083A7",
"6 	c #5B7CA2",
"7 	c #55779D",
"8 	c #4F7096",
"9 	c #496A91",
"0 	c #43648C",
"a 	c #3C5D85",
"b 	c #36557F",
"c 	c #305079",
"d 	c #2A4871",
"e 	c #24416B",
"f 	c #1E3B65",
"g 	c #17335D",
"h 	c #122C58",
"i 	c #0B2550",
"j 	c #F3F8FC",
"k 	c #2379C0",
"l 	c #2377BD",
"m 	c #2173BA",
"n 	c #2070B5",
"o 	c #1E6EB4",
"p 	c #1E6AB0",
"q 	c #1C68AC",
"r 	c #1C65A9",
"s 	c #1A63A5",
"t 	c #1A5FA2",
"u 	c #1A5C9F",
"v 	c #185A9B",
"w 	c #175697",
"x 	c #165494",
"y 	c #15518F",
"z 	c #144F8C",
"A 	c #144B89",
"B 	c #124886",
"C 	c #124681",
"D 	c #11437F",
"E 	c #10417B",
"F 	c #0F3E77",
"G 	c #0F3C73",
"H 	c #0F3970",
"I 	c #0D366D",
"J 	c #0D3469",
"K 	c #0B3265",
"L 	c #0B3062",
"M 	c #0A2D5F",
"N 	c #0A2C5B",
"O 	c #092957",
"P 	c #092754",
"Q 	c #082451",
"R 	c #07234E",
"S 	c #07214A",
"T 	c #061E47",
"U 	c #061D44",
"V 	c #051B40",
"W 	c #05193D",
"X 	c #04183A",
"Y 	c #041638",
"Z 	c #041434",
"` 	c #031331",
" .	c #03112E",
"..	c #07132D",
"+.	c #EAF6FB",
"@.	c #43AADC",
"#.	c #41A7DA",
"$.	c #3FA3D7",
"%.	c #3EA0D5",
"&.	c #3C9CD2",
"*.	c #3A99CE",
"=.	c #3896CD",
"-.	c #3692C9",
";.	c #348FC6",
">.	c #338CC3",
",.	c #3188C0",
"'.	c #2E84BD",
").	c #2E82BA",
"!.	c #2C7DB6",
"~.	c #2A7AB3",
"{.	c #2977B0",
"].	c #2773AD",
"^.	c #2570A8",
"/.	c #236CA6",
"(.	c #2269A1",
"_.	c #20659E",
":.	c #20639B",
"<.	c #1E5E98",
"[.	c #1D5B93",
"}.	c #1B5890",
"|.	c #19558D",
"1.	c #185288",
"2.	c #174F86",
"3.	c #164C82",
"4.	c #15477F",
"5.	c #14457A",
"6.	c #124277",
"7.	c #113F72",
"8.	c #103B70",
"9.	c #0F396C",
"0.	c #0E3668",
"a.	c #0D3365",
"b.	c #0C3161",
"c.	c #0B2D5E",
"d.	c #092857",
"e.	c #082553",
"f.	c #072351",
"g.	c #06214D",
"h.	c #0D2145",
"i.	c #DAE9F5",
"j.	c #2378BE",
"k.	c #2174BA",
"l.	c #2170B7",
"m.	c #F0F5FA",
"n.	c #EBF2F8",
"o.	c #A3C1DC",
"p.	c #1A63A6",
"q.	c #1A5DA0",
"r.	c #175698",
"s.	c #155291",
"t.	c #144F8D",
"u.	c #144D8A",
"v.	c #124A86",
"w.	c #124782",
"x.	c #12457F",
"y.	c #103F77",
"z.	c #0F3C74",
"A.	c #0F3B71",
"B.	c #0D386D",
"C.	c #0D3669",
"D.	c #0B3366",
"E.	c #0B3063",
"F.	c #0B2E5F",
"G.	c #0A2A57",
"H.	c #092856",
"I.	c #082551",
"J.	c #07214B",
"K.	c #061F48",
"L.	c #051B42",
"M.	c #041435",
"N.	c #03112F",
"O.	c #02102C",
"P.	c #0D162B",
"Q.	c #D5ECF7",
"R.	c #43A7DA",
"S.	c #40A4D8",
"T.	c #3D9DD2",
"U.	c #F2F8FC",
"V.	c #EEF6FB",
"W.	c #AED3EA",
"X.	c #3289C1",
"Y.	c #3085BD",
"Z.	c #2C7FB7",
"`.	c #2B7AB3",
" +	c #2774AD",
".+	c #2570A9",
"++	c #236AA3",
"@+	c #2B83B8",
"#+	c #308FC2",
"$+	c #2E8CBF",
"%+	c #1D5B95",
"&+	c #297EB2",
"*+	c #2A81B4",
"=+	c #21699E",
"-+	c #164C83",
";+	c #174E84",
">+	c #2675A8",
",+	c #1C5D90",
"'+	c #174F83",
")+	c #216B9D",
"!+	c #206799",
"~+	c #1F6395",
"{+	c #0D3466",
"]+	c #0C3163",
"^+	c #0B2E5E",
"/+	c #164C7B",
"(+	c #185281",
"_+	c #174E7D",
":+	c #072451",
"<+	c #061F49",
"[+	c #122341",
"}+	c #C2D9ED",
"|+	c #2175BB",
"1+	c #2172B8",
"2+	c #1E70B4",
"3+	c #1E6CB1",
"4+	c #A3C0DB",
"5+	c #1A60A3",
"6+	c #185B9C",
"7+	c #94B1D0",
"8+	c #90AECD",
"9+	c #8DAACA",
"0+	c #144F8E",
"a+	c #144D8B",
"b+	c #144A87",
"c+	c #124884",
"d+	c #7A97B8",
"e+	c #7692B4",
"f+	c #3972A1",
"g+	c #287EB1",
"h+	c #287CAE",
"i+	c #154D82",
"j+	c #0D366B",
"k+	c #2473A4",
"l+	c #2370A1",
"m+	c #1B5889",
"n+	c #0A2C5C",
"o+	c #113E6C",
"p+	c #1F6493",
"q+	c #0F3A67",
"r+	c #0E3662",
"s+	c #1C5B86",
"t+	c #1B5782",
"u+	c #1A547E",
"v+	c #0C2E55",
"w+	c #05193E",
"x+	c #071D41",
"y+	c #16476D",
"z+	c #154469",
"A+	c #134065",
"B+	c #031230",
"C+	c #020E2A",
"D+	c #121A2B",
"E+	c #C0E2F3",
"F+	c #3EA1D5",
"G+	c #3D9ED3",
"H+	c #3B9AD1",
"I+	c #EEF6FA",
"J+	c #AED2E8",
"K+	c #348CC4",
"L+	c #6CAAD3",
"M+	c #DBEAF4",
"N+	c #D7E7F2",
"O+	c #D1E3F0",
"P+	c #CDE0ED",
"Q+	c #5E99C4",
"R+	c #2875AE",
"S+	c #699EC4",
"T+	c #B9D0E3",
"U+	c #B4CCE0",
"V+	c #AFC8DD",
"W+	c #ABC9DE",
"X+	c #66ABD1",
"Y+	c #2E8BBE",
"Z+	c #2169A0",
"`+	c #21669C",
" @	c #2B83B6",
".@	c #2A7FB3",
"+@	c #287CB0",
"@@	c #15497F",
"#@	c #20669A",
"$@	c #2473A6",
"%@	c #114074",
"&@	c #164D80",
"*@	c #21699B",
"=@	c #206698",
"-@	c #1E6293",
";@	c #175081",
">@	c #0B2E60",
",@	c #0F3B6A",
"'@	c #195483",
")@	c #18507F",
"!@	c #164C7A",
"~@	c #07224E",
"{@	c #06204B",
"]@	c #051D47",
"^@	c #17243E",
"/@	c #A9C9E5",
"(@	c #1E6DB2",
"_@	c #1E6AAE",
":@	c #F0F5F9",
"<@	c #EBF2F7",
"[@	c #A3BFDA",
"}@	c #306CA9",
"|@	c #DDE7F1",
"1@	c #D7E2ED",
"2@	c #A8C0D8",
"3@	c #165393",
"4@	c #275D98",
"5@	c #275C95",
"6@	c #265891",
"7@	c #B8C8DA",
"8@	c #B3C3D6",
"9@	c #6888AC",
"0@	c #7692B2",
"a@	c #A4B7CD",
"b@	c #A8CADF",
"c@	c #428BB7",
"d@	c #1E6295",
"e@	c #185184",
"f@	c #2472A3",
"g@	c #2370A0",
"h@	c #226C9C",
"i@	c #0A2A5A",
"j@	c #1B5887",
"k@	c #1A5583",
"l@	c #07244F",
"m@	c #0E3660",
"n@	c #1C5985",
"o@	c #18507A",
"p@	c #1A547D",
"q@	c #164A72",
"r@	c #05183C",
"s@	c #10395E",
"t@	c #16466B",
"u@	c #144367",
"v@	c #134062",
"w@	c #02102D",
"x@	c #020F2A",
"y@	c #020D28",
"z@	c #181D2B",
"A@	c #AAD7EE",
"B@	c #3FA2D6",
"C@	c #3B9BD1",
"D@	c #3897CD",
"E@	c #ADD1E8",
"F@	c #6DACD4",
"G@	c #E0EDF5",
"H@	c #DBEAF3",
"I@	c #65A2CB",
"J@	c #2B7BB4",
"K@	c #2978B1",
"L@	c #2975AF",
"M@	c #5A94C0",
"N@	c #BED4E5",
"O@	c #B8CFE2",
"P@	c #B4CBDF",
"Q@	c #AFC7DB",
"R@	c #A9C2D8",
"S@	c #AACFE4",
"T@	c #55A0CA",
"U@	c #2B81B5",
"V@	c #2574A9",
"W@	c #2471A5",
"X@	c #287BAE",
"Y@	c #1A588D",
"Z@	c #2575A7",
"`@	c #175085",
" #	c #103D72",
".#	c #164A7F",
"+#	c #216799",
"@#	c #195585",
"##	c #1C5B8C",
"$#	c #1C5D8E",
"%#	c #134675",
"&#	c #1A5685",
"*#	c #134472",
"=#	c #184F7D",
"-#	c #164B79",
";#	c #061D48",
">#	c #051B45",
",#	c #1B263B",
"'#	c #90B9DB",
")#	c #1E6EB3",
"!#	c #1E6AAF",
"~#	c #1C67AB",
"{#	c #EBF1F7",
"]#	c #A3BED9",
"^#	c #447BB1",
"/#	c #DCE6F0",
"(#	c #6991BA",
"_#	c #144E8C",
":#	c #376598",
"<#	c #B8C8D9",
"[#	c #B2C3D6",
"}#	c #6786AB",
"|#	c #0F3E76",
"1#	c #3D7AA7",
"2#	c #3582B0",
"3#	c #2677A8",
"4#	c #226C9E",
"5#	c #164D7D",
"6#	c #1D6091",
"7#	c #226B9A",
"8#	c #1E618F",
"9#	c #206593",
"0#	c #08244F",
"a#	c #07224C",
"b#	c #0E345F",
"c#	c #1B5883",
"d#	c #14436B",
"e#	c #103961",
"f#	c #194F77",
"g#	c #174C72",
"h#	c #16486E",
"i#	c #092546",
"j#	c #144265",
"k#	c #133F60",
"l#	c #020F2B",
"m#	c #020C25",
"n#	c #1D212C",
"o#	c #94CBE9",
"p#	c #3B9CD2",
"q#	c #3894CC",
"r#	c #F2F8FB",
"s#	c #EDF5FA",
"t#	c #ACD0E6",
"u#	c #3187C0",
"v#	c #CBE0EE",
"w#	c #DBE9F3",
"x#	c #C3DAEA",
"y#	c #629CC6",
"z#	c #6098C3",
"A#	c #4A8ABA",
"B#	c #256EA7",
"C#	c #ACC7DD",
"D#	c #B8CEE1",
"E#	c #B3CADD",
"F#	c #7FA5C5",
"G#	c #7BA0C1",
"H#	c #97B9D3",
"I#	c #55A0C9",
"J#	c #2C86B8",
"K#	c #1B598F",
"L#	c #1B5C90",
"M#	c #277AAC",
"N#	c #2777AA",
"O#	c #236EA0",
"P#	c #113E72",
"Q#	c #103B6F",
"R#	c #15497C",
"S#	c #206697",
"T#	c #185284",
"U#	c #114070",
"V#	c #1C5C8B",
"W#	c #1B5988",
"X#	c #0E3461",
"Y#	c #174E7B",
"Z#	c #154A76",
"`#	c #061D49",
" $	c #041942",
".$	c #202838",
"+$	c #77A8D2",
"@$	c #A3BDD8",
"#$	c #4376AB",
"$$	c #97B3CF",
"%$	c #D2DEE9",
"&$	c #CCD9E6",
"*$	c #C8D5E3",
"=$	c #4D75A4",
"-$	c #245289",
";$	c #7C97B7",
">$	c #9BAFC6",
",$	c #A8B9CC",
"'$	c #A3B3C8",
")$	c #708FAF",
"!$	c #3F83AF",
"~$	c #2576A7",
"{$	c #2573A4",
"]$	c #0D3362",
"^$	c #216A99",
"/$	c #216795",
"($	c #184F7C",
"_$	c #07224D",
":$	c #0D325C",
"<$	c #1B5882",
"[$	c #134169",
"}$	c #071F43",
"|$	c #184E75",
"1$	c #174B71",
"2$	c #0E3053",
"3$	c #092344",
"4$	c #144164",
"5$	c #133D60",
"6$	c #020E28",
"7$	c #020D26",
"8$	c #020B24",
"9$	c #22252D",
"0$	c #7EBFE2",
"a$	c #3896CC",
"b$	c #328BC2",
"c$	c #2D80B9",
"d$	c #2976AF",
"e$	c #236BA5",
"f$	c #20619B",
"g$	c #2677AB",
"h$	c #2B85B7",
"i$	c #287CAF",
"j$	c #2778AB",
"k$	c #2676A8",
"l$	c #1A5688",
"m$	c #144778",
"n$	c #1F6495",
"o$	c #103B6A",
"p$	c #0F3867",
"q$	c #0A2A58",
"r$	c #0D325F",
"s$	c #164C79",
"t$	c #154874",
"u$	c #051A43",
"v$	c #041740",
"w$	c #262B36",
"x$	c #5D96C9",
"y$	c #1E6BB0",
"z$	c #1C68AD",
"A$	c #020E29",
"B$	c #020D27",
"C$	c #010921",
"D$	c #282A2F",
"E$	c #68B3DC",
"F$	c #3B99D0",
"G$	c #3692CA",
"H$	c #21669F",
"I$	c #1E6098",
"J$	c #18528A",
"K$	c #124378",
"L$	c #113F74",
"M$	c #0E3669",
"N$	c #092958",
"O$	c #082655",
"P$	c #051C46",
"Q$	c #051A44",
"R$	c #041840",
"S$	c #03163C",
"T$	c #2B2E34",
"U$	c #4384BE",
"V$	c #1C68AE",
"W$	c #1C66A9",
"X$	c #1C63A7",
"Y$	c #175799",
"Z$	c #165292",
"`$	c #10417C",
" %	c #103F78",
".%	c #0D386E",
"+%	c #0C3366",
"@%	c #082653",
"#%	c #05183B",
"$%	c #041535",
"%%	c #031333",
"&%	c #020B25",
"*%	c #010A22",
"=%	c #01091F",
"-%	c #2D2E30",
";%	c #51A5D6",
">%	c #3690C7",
",%	c #2978B0",
"'%	c #2672AA",
")%	c #256DA7",
"!%	c #2167A0",
"~%	c #1E6099",
"{%	c #1D5D95",
"]%	c #1B5A92",
"^%	c #1B568E",
"/%	c #19538A",
"(%	c #184F87",
"_%	c #164C84",
":%	c #14467C",
"<%	c #124379",
"[%	c #103D71",
"}%	c #103A6E",
"|%	c #0F376B",
"1%	c #051A45",
"2%	c #041841",
"3%	c #03163E",
"4%	c #03143B",
"5%	c #303133",
"6%	c #2A72B2",
"7%	c #1D64A6",
"8%	c #1D60A1",
"9%	c #1C5D99",
"0%	c #1D5994",
"a%	c #1B5690",
"b%	c #1B5289",
"c%	c #1B4F85",
"d%	c #1C4D80",
"e%	c #1B497B",
"f%	c #1B4776",
"g%	c #1C4472",
"h%	c #1B426D",
"i%	c #1C4069",
"j%	c #1C3E65",
"k%	c #1C3C61",
"l%	c #1C395D",
"m%	c #1D385A",
"n%	c #1D3656",
"o%	c #1E3553",
"p%	c #1E3450",
"q%	c #1E324D",
"r%	c #1F314A",
"s%	c #1F3047",
"t%	c #202F45",
"u%	c #212E42",
"v%	c #222E40",
"w%	c #222D3E",
"x%	c #232D3C",
"y%	c #242C3B",
"z%	c #242C39",
"A%	c #252C38",
"B%	c #262C36",
"C%	c #272C35",
"D%	c #282C34",
"E%	c #292C34",
"F%	c #2A2D33",
"G%	c #2B2D32",
"H%	c #2C2E32",
"I%	c #2E2F32",
"J%	c #2F3032",
"K%	c #303032",
"L%	c #313132",
"M%	c #323232",
"N%	c #333333",
". . . . . . . . . . . . . . . . . . . . . . . . . . . . . . . . . . . . . . . . . . . . . . . . ",
". + @ # $ % & * = - ; > , ' ) ! ~ { ] ^ / ( _ : < [ } | 1 2 3 4 5 6 7 8 9 0 a b c d e f g h i . ",
". j k l m n o p q r s t u v w x y z A B C D E F G H I J K L M N O P Q R S T U V W X Y Z `  .... ",
". +.@.#.$.%.&.*.=.-.;.>.,.'.).!.~.{.].^./.(._.:.<.[.}.|.1.2.3.4.5.6.7.8.9.0.a.b.c.N d.e.f.g.h.. ",
". i.j.k.l.o m.n.o.p.t q.v r.x s.t.u.v.w.x.E y.z.A.B.C.D.E.F.N G.H.I.R J.K.U L.W X Y M.` N.O.P.. ",
". Q.R.S.%.T.U.V.W.;.>.X.Y.).Z.`.{. +.+/.++@+#+$+%+}.&+*+=+-+;+>+,+'+)+!+~+{+]+^+/+(+_+:+g.<+[+. ",
". }+|+1+2+3+m.n.4+5+q.6+7+8+9+0+a+b+c+d+e+f+g+h+i+j+k+l+m+n+o+p+q+r+s+t+u+v+w+x+y+z+A+B+O.C+D+. ",
". E+S.F+G+H+U.I+J+K+L+M+N+O+P+Q+R+S+T+U+V+W+X+Y+Z+`+ @.@+@@@#@$@%@&@*@=@-@;@>@,@'@)@!@~@{@]@^@. ",
". /@1+2+(@_@:@<@[@}@|@1@2@3@4@5@6@7@8@9@0@a@b@c@d@e@f@g@h@i@j@k@l@m@n@o@p@q@r@s@t@u@v@w@x@y@z@. ",
". A@B@G+C@D@U.I+E@F@G@H@I@J@K@L@M@N@O@P@Q@R@S@T@U@V@W@&+X@Y@Z@`@ #.#+#@###$#%#&#*#=#-#{@;#>#,#. ",
". '#n )#!#~#:@{#]#^#/#1@(#y _#A :#<#[#}#|#G 1#2#3#4#5#6#7#8#9#0#a#b#c#d#e#f#g#h#i#j#k#l#y@m#n#. ",
". o#G+p#*.q#r#s#t#u#v#w#x#y#z#A#B#C#D#E#F#G#H#I#J# @K#L#M#N#O#P#Q#R#S#T#U#V#W#-#X#Y#Z#`#># $.$. ",
". +$o p q r :@{#@$v #$$$%$&$*$=$C -$;$>$,$'$)$!$~${$M ]$^$/$($_$S :$<$[$}$|$1$2$3$4$5$6$7$8$9$. ",
". 0$&.*.a$-.;.b$,.'.c$!.~.d$].^.e$(._.f$<.[.}.g$h$i$3.4.j$k$l$Q#9.m$n$(+c.o$p$q$r$s$t$>#u$v$w$. ",
". x$y$z$r p.t u v r.x s.t.A v.w.D E y.z.A.B.C.D.E.F.N G.H.I.R J.K.U L.W X Y M.` N.O.A$B$8$C$D$. ",
". E$F$=.G$;.>.X.Y.).Z.`.{. +.+/.++H$:.I$%+}.|.J$2.-+@@5.K$L$8.9.M$a.]+^+N N$O$f.g.<+P$Q$R$S$T$. ",
". U$V$W$X$5+q.6+Y$x Z$0+u.b+c+x.`$ %z.A..%C.+%E.F.n+q$H.@%R J.K.U L.w+#%Y $%%%N.O.C+B$&%*%=%-%. ",
". ;%D@G$>%K+X.Y.).Z.J@,% +'%)%++!%:.~%{%]%^%/%(%_%@@:%<%%@[%}%|%{+]+>@N N$O$:+~@{@]@1%2%3%4%5%. ",
". 6%7%8%9%0%a%b%c%d%e%f%g%h%i%j%k%l%m%n%o%p%q%r%s%t%u%v%w%x%y%z%A%B%C%D%E%F%G%H%H%I%J%K%L%M%N%. ",
". . . . . . . . . . . . . . . . . . . . . . . . . . . . . . . . . . . . . . . . . . . . . . . . "};
