/* XPM */
static char * taskbuttonminimized_xpm[] = {
"8 24 68 1",
" 	c None",
".	c #849673",
"+	c #5A7142",
"@	c #63694A",
"#	c #63684A",
"$	c #636949",
"%	c #616849",
"&	c #626849",
"*	c #61684A",
"=	c #616949",
"-	c #5F6748",
";	c #5E6648",
">	c #5E6748",
",	c #5E6649",
"'	c #5F6648",
")	c #5F6749",
"!	c #5C6547",
"~	c #5B6547",
"{	c #5C6548",
"]	c #586346",
"^	c #596346",
"/	c #566245",
"(	c #566145",
"_	c #566144",
":	c #576145",
"<	c #566244",
"[	c #536044",
"}	c #535F44",
"|	c #545F44",
"1	c #536043",
"2	c #515E43",
"3	c #515E42",
"4	c #505E42",
"5	c #505F42",
"6	c #4E5D42",
"7	c #4E5D41",
"8	c #4D5C42",
"9	c #4D5C41",
"0	c #4E5C42",
"a	c #4B5B41",
"b	c #4B5A41",
"c	c #4A5B40",
"d	c #4B5B40",
"e	c #48593F",
"f	c #475940",
"g	c #495940",
"h	c #485A3F",
"i	c #45583E",
"j	c #46583E",
"k	c #45573E",
"l	c #45583F",
"m	c #42563D",
"n	c #43563D",
"o	c #43573D",
"p	c #3F543C",
"q	c #3F553C",
"r	c #40543C",
"s	c #40553C",
"t	c #3D523B",
"u	c #3C533A",
"v	c #3C523B",
"w	c #3D533B",
"x	c #3C533B",
"y	c #3A513A",
"z	c #3B523A",
"A	c #3B513A",
"B	c #3A523A",
"C	c #142E23",
"........",
"++++++++",
"++++++++",
"........",
"@#$#@@@@",
"%%%&*%=&",
"-;>,-')>",
"!~!{!~!!",
"]^]^^^^^",
"/(_(:((<",
"[}}|[1}[",
"23242235",
"66789006",
"abcaddda",
"effeeghh",
"iijkljii",
"mmmmnmmo",
"ppqrrrsr",
"tuvwxwvw",
"yzAyyByy",
"CCCCCCCC",
"yyyyyyyy",
"yyyyyyyy",
"CCCCCCCC"};
