/* XPM */
static char * frameABR_xpm[] = {
"22 22 59 1",
" 	c None",
".	c #2D3537",
"+	c #303433",
"@	c #9FADAE",
"#	c #A0B2B4",
"$	c #9BB0B5",
"%	c #E3E3E3",
"&	c #303435",
"*	c #A0AEAF",
"=	c #9EB0B4",
"-	c #9CB1B6",
";	c #9DAFB3",
">	c #9EB3B8",
",	c #2B3537",
"'	c #A1AFB2",
")	c #A1B3B7",
"!	c #2C3638",
"~	c #2F3437",
"{	c #A2B1B4",
"]	c #9FB2B6",
"^	c #9BB3B7",
"/	c #A1ACAE",
"(	c #9EADB0",
"_	c #9EACAD",
":	c #A0AFB2",
"<	c #A2B0B3",
"[	c #A2B1B6",
"}	c #9FB1B5",
"|	c #A1B0B5",
"1	c #9EAFB6",
"2	c #A2AFB5",
"3	c #9CAFB5",
"4	c #323433",
"5	c #333534",
"6	c #9FAEB3",
"7	c #9DAEB5",
"8	c #313536",
"9	c #2F3438",
"0	c #2C3437",
"a	c #2B363A",
"b	c #9DB0B4",
"c	c #9EB1B7",
"d	c #A3AEB2",
"e	c #A2ADB1",
"f	c #A4AFB3",
"g	c #A5B0B4",
"h	c #A3B2B7",
"i	c #9CAFB3",
"j	c #9EADB2",
"k	c #A0AFB4",
"l	c #A1B0B7",
"m	c #A2B3BA",
"n	c #A0B1B8",
"o	c #9DB0B6",
"p	c #9AB1B7",
"q	c #9EB2B9",
"r	c #9DB1B8",
"s	c #9AAFB4",
"t	c #99B0B6",
"               .+.@#$%",
"               .&.*=-%",
"               .&.*=-%",
"               .+.@#$%",
"               .&.*=-%",
"               .&.@;>%",
"               ,&,')>%",
"               !~!{]^%",
"               ,&,/(=%",
"               !~!/(=%",
"               ,&,_:=%",
"               ,&,_:=%",
"               !~!<[}%",
"               .+.<|1%",
"               .+.213%",
"4445&,445&,&,44.&.673%",
"&&8&~!&8&~!~!&8.&.}3-%",
"~..90a..90a0a..,&,bc$%",
"dedfghedfghghed:}bi-% ",
"jkllmnkllmnmnkl}oc>p% ",
"3$qrrr$qrrrrr$qrrst%  ",
"%%%%%%%%%%%%%%%%%%%   "};
