/* XPM */
static char * frameITL_xpm[] = {
"6 21 39 1",
" 	c None",
".	c #E3E3E3",
"+	c #99B0B6",
"@	c #9AAFB4",
"#	c #9DB1B8",
"$	c #9AB1B7",
"%	c #9EB3B8",
"&	c #9EB1B7",
"*	c #9DB0B6",
"=	c #9CB1B6",
"-	c #9CAFB3",
";	c #9DB0B4",
">	c #9FB1B5",
",	c #9BB0B5",
"'	c #9EB0B2",
")	c #A0AFB2",
"!	c #9CAFB5",
"~	c #9FAEB1",
"{	c #899498",
"]	c #9DAEB5",
"^	c #9FAEB3",
"/	c #9CAAAD",
"(	c #424A4D",
"_	c #9EAFB6",
":	c #A2AFB5",
"<	c #7D888C",
"[	c #252A2D",
"}	c #A1B0B5",
"|	c #A2B0B3",
"1	c #485254",
"2	c #262A2D",
"3	c #A2B1B6",
"4	c #293133",
"5	c #28292B",
"6	c #9EB0B4",
"7	c #9EACAD",
"8	c #232B2D",
"9	c #9EADB0",
"0	c #A1ACAE",
"      ",
"      ",
"      ",
"      ",
"      ",
"      ",
"      ",
"   ...",
"  .+@#",
" .$%&*",
" .=-;>",
".,&;')",
".=!>~{",
".!]^/(",
".!_:<[",
"._}|12",
".>3|45",
".6)785",
".6)785",
".69085",
".69085"};
