/* XPM */
static char * titleAB_xpm[] = {
"1 20 21 1",
" 	c None",
".	c #859098",
"+	c #88939B",
"@	c #8C989F",
"#	c #919BA3",
"$	c #94A0A7",
"%	c #99A3AB",
"&	c #9DA8AF",
"*	c #A2ACB4",
"=	c #A5AFB8",
"-	c #AAB4BC",
";	c #AEB8C0",
">	c #B3BCC3",
",	c #B6C0C8",
"'	c #BBC4CC",
")	c #BFC9D0",
"!	c #C3CCD4",
"~	c #AAA7A5",
"{	c #A7A4A2",
"]	c #A4A1A0",
"^	c #848180",
".",
"+",
"@",
"#",
"$",
"%",
"&",
"*",
"=",
"-",
";",
">",
",",
"'",
")",
"!",
"~",
"{",
"]",
"^"};
