/* XPM */
static char * menuButtonI_xpm[] = {
"20 40 99 2",
"  	c None",
". 	c #3B2B2C",
"+ 	c #392C29",
"@ 	c #3A2C29",
"# 	c #392D29",
"$ 	c #3A2D29",
"% 	c #645252",
"& 	c #372A28",
"* 	c #382C29",
"= 	c #382B28",
"- 	c #372B28",
"; 	c #382A28",
"> 	c #382B29",
", 	c #625552",
"' 	c #342926",
") 	c #352A27",
"! 	c #352927",
"~ 	c #352926",
"{ 	c #342927",
"] 	c #5E504E",
"^ 	c #362A27",
"/ 	c #322725",
"( 	c #322826",
"_ 	c #322726",
": 	c #332725",
"< 	c #332726",
"[ 	c #584B49",
"} 	c #322523",
"| 	c #302524",
"1 	c #2F2525",
"2 	c #302525",
"3 	c #302624",
"4 	c #2F2524",
"5 	c #2F2624",
"6 	c #524645",
"7 	c #2E2120",
"8 	c #2E2323",
"9 	c #2E2324",
"0 	c #2D2323",
"a 	c #2D2423",
"b 	c #2E2423",
"c 	c #4C4140",
"d 	c #291E1B",
"e 	c #2A2121",
"f 	c #2B2122",
"g 	c #2B2222",
"h 	c #2B2221",
"i 	c #2B2121",
"j 	c #453B3C",
"k 	c #241A17",
"l 	c #282020",
"m 	c #282021",
"n 	c #292020",
"o 	c #292021",
"p 	c #281F21",
"q 	c #403637",
"r 	c #201514",
"s 	c #251D1F",
"t 	c #261E20",
"u 	c #261E1F",
"v 	c #261D1F",
"w 	c #251D20",
"x 	c #393132",
"y 	c #1B1110",
"z 	c #231C1E",
"A 	c #241C1E",
"B 	c #231D1E",
"C 	c #342C2E",
"D 	c #160D0C",
"E 	c #211A1D",
"F 	c #201A1D",
"G 	c #201B1D",
"H 	c #211A1C",
"I 	c #2E2729",
"J 	c #120907",
"K 	c #1E181C",
"L 	c #1F181C",
"M 	c #1E191B",
"N 	c #1F191B",
"O 	c #1E181B",
"P 	c #1F181B",
"Q 	c #1E191C",
"R 	c #282124",
"S 	c #0D0504",
"T 	c #1B171A",
"U 	c #1C171A",
"V 	c #1C161A",
"W 	c #1C171B",
"X 	c #1C161B",
"Y 	c #1B161A",
"Z 	c #221D20",
"` 	c #090100",
" .	c #191419",
"..	c #191519",
"+.	c #1A1519",
"@.	c #1A1419",
"#.	c #191518",
"$.	c #030000",
"%.	c #161513",
". . . . . . . . . . . . . . . . . . . . ",
". . . . . . . . . . . . . . . . . . . . ",
". . . . . . . . . . . . . . . . . . . . ",
"+ @ # + + $ @ $ $ # @ + @ @ @ # + + % % ",
"& * = - & = ; > - & - - - - - - & & , + ",
"' ) ! ! ! ! ) ! ~ ! ! ! ' { ~ ! ' ' ] ^ ",
"/ ( _ : ( _ _ / : / < _ _ _ _ / / / [ } ",
"| | 1 | | | | | | 2 3 3 2 4 5 | | | 6 7 ",
"8 9 0 a a b a a a 0 a 0 0 0 0 0 8 8 c d ",
"e f g g f g g f h g g g f g f i e e j k ",
"l m n m m m l l l o p m l p l m l l q r ",
"s t u u t v t u u w u s u u u v s s x y ",
"z A B z B z A z A z A z z z z z z z C D ",
"E E E E F G H E E F H H E E E H E E I J ",
"K K L M K N O K K P Q O K Q Q K K K R S ",
"T U V U W V U V X W X Y V V T T T T Z ` ",
" ...+.+.......@.+...+. .#. . . . . .W $.",
"%.%.%.%.%.%.%.%.%.%.%.%.%.%.%.%.%.%.%.%.",
"%.%.%.%.%.%.%.%.%.%.%.%.%.%.%.%.%.%.%.%.",
"$.$.$.$.$.$.$.$.$.$.$.$.$.$.$.$.$.$.$.$.",
". . . . . . . . . . . . . . . . . . . . ",
". . . . . . . . . . . . . . . . . . . . ",
". . . . . . . . . . . . . . . . . . . . ",
"+ @ # + + $ @ $ $ # @ + @ @ @ # + + % % ",
"& * = - & = ; > - & - - - - - - & & , + ",
"' ) ! ! ! ! ) ! ~ ! ! ! ' { ~ ! ' ' ] ^ ",
"/ ( _ : ( _ _ / : / < _ _ _ _ / / / [ } ",
"| | 1 | | | | | | 2 3 3 2 4 5 | | | 6 7 ",
"8 9 0 a a b a a a 0 a 0 0 0 0 0 8 8 c d ",
"e f g g f g g f h g g g f g f i e e j k ",
"l m n m m m l l l o p m l p l m l l q r ",
"s t u u t v t u u w u s u u u v s s x y ",
"z A B z B z A z A z A z z z z z z z C D ",
"E E E E F G H E E F H H E E E H E E I J ",
"K K L M K N O K K P Q O K Q Q K K K R S ",
"T U V U W V U V X W X Y V V T T T T Z ` ",
" ...+.+.......@.+...+. .#. . . . . .W $.",
"%.%.%.%.%.%.%.%.%.%.%.%.%.%.%.%.%.%.%.%.",
"%.%.%.%.%.%.%.%.%.%.%.%.%.%.%.%.%.%.%.%.",
"$.$.$.$.$.$.$.$.$.$.$.$.$.$.$.$.$.$.$.$."};
