/* XPM */
static char * menuButtonA_xpm[] = {
"20 40 96 2",
"  	c None",
". 	c #3B2B2C",
"+ 	c #392C29",
"@ 	c #3A2D29",
"# 	c #3A2C29",
"$ 	c #392D29",
"% 	c #030000",
"& 	c #372B28",
"* 	c #372A28",
"= 	c #382B28",
"- 	c #382A28",
"; 	c #382B29",
"> 	c #000000",
", 	c #664A4C",
"' 	c #352927",
") 	c #352A27",
"! 	c #352926",
"~ 	c #342926",
"{ 	c #342927",
"] 	c #020101",
"^ 	c #6C5051",
"/ 	c #332725",
"( 	c #322826",
"_ 	c #322726",
": 	c #322725",
"< 	c #332726",
"[ 	c #040303",
"} 	c #785C5A",
"| 	c #302524",
"1 	c #302525",
"2 	c #302624",
"3 	c #2F2524",
"4 	c #2F2624",
"5 	c #070506",
"6 	c #846962",
"7 	c #2D2423",
"8 	c #2E2423",
"9 	c #2D2323",
"0 	c #2E2323",
"a 	c #0A0607",
"b 	c #90746B",
"c 	c #2B2222",
"d 	c #2B2122",
"e 	c #2B2221",
"f 	c #2B2121",
"g 	c #2A2121",
"h 	c #0C0709",
"i 	c #9B8174",
"j 	c #282021",
"k 	c #282020",
"l 	c #292021",
"m 	c #281F21",
"n 	c #0F090C",
"o 	c #A78D7D",
"p 	c #261E1F",
"q 	c #261E20",
"r 	c #261D1F",
"s 	c #251D20",
"t 	c #251D1F",
"u 	c #120B0D",
"v 	c #B39985",
"w 	c #231C1E",
"x 	c #231D1E",
"y 	c #241C1E",
"z 	c #150D10",
"A 	c #BEA58F",
"B 	c #211A1D",
"C 	c #201A1D",
"D 	c #201B1D",
"E 	c #211A1C",
"F 	c #180E12",
"G 	c #CAB297",
"H 	c #1E191B",
"I 	c #1E181C",
"J 	c #1F191B",
"K 	c #1E181B",
"L 	c #1F181B",
"M 	c #1E191C",
"N 	c #1A1014",
"O 	c #D6BDA0",
"P 	c #1C171A",
"Q 	c #1C171B",
"R 	c #1C161A",
"S 	c #1C161B",
"T 	c #1B161A",
"U 	c #1B171A",
"V 	c #1D1215",
"W 	c #E2CAAA",
"X 	c #1A1519",
"Y 	c #191519",
"Z 	c #1A1419",
"` 	c #191419",
" .	c #191518",
"..	c #201317",
"+.	c #FFFFFF",
"@.	c #161513",
". . . . . . . . . . . . . . . . . . . . ",
". . . . . . . . . . . . . . . . . . . . ",
". . . . . . . . . . . . . . . . . . . . ",
"+ + @ # + + @ # @ @ $ # + # # # $ + % % ",
"& * = - & * = - ; & * & & & & & & * > , ",
"' ' ' ) ' ' ' ) ' ! ' ' ' ~ { ! ' ~ ] ^ ",
"/ ( _ _ / ( _ _ : / : < _ _ _ _ : : [ } ",
"| | | | | | | | | | 1 2 2 1 3 4 | | 5 6 ",
"7 7 8 7 7 7 8 7 7 7 9 7 9 9 9 9 9 0 a b ",
"c d c c c d c c d e c c c d c d f g h i ",
"j j j k j j j k k k l m j k m k j k n o ",
"p q r q p q r q p p s p t p p p r t u v ",
"w x w y w x w y w y w y w w w w w w z A ",
"B C D E B C D E B B C E E B B B E B F G ",
"H I J K H I J K I I L M K I M M I I N O ",
"P Q R P P Q R P R S Q S T R R U U U V W ",
"X Y Y Y X Y Y Y Z X Y X `  .` ` ` ` ..+.",
"@.@.@.@.@.@.@.@.@.@.@.@.@.@.@.@.@.@.@.@.",
"@.@.@.@.@.@.@.@.@.@.@.@.@.@.@.@.@.@.@.@.",
"% % % % % % % % % % % % % % % % % % % % ",
". . . . . . . . . . . . . . . . . . . . ",
". . . . . . . . . . . . . . . . . . . . ",
". . . . . . . . . . . . . . . . . . . . ",
"+ + @ # + + @ # @ @ $ # + # # # $ + % % ",
"& * = - & * = - ; & * & & & & & & * > , ",
"' ' ' ) ' ' ' ) ' ! ' ' ' ~ { ! ' ~ ] ^ ",
"/ ( _ _ / ( _ _ : / : < _ _ _ _ : : [ } ",
"| | | | | | | | | | 1 2 2 1 3 4 | | 5 6 ",
"7 7 8 7 7 7 8 7 7 7 9 7 9 9 9 9 9 0 a b ",
"c d c c c d c c d e c c c d c d f g h i ",
"j j j k j j j k k k l m j k m k j k n o ",
"p q r q p q r q p p s p t p p p r t u v ",
"w x w y w x w y w y w y w w w w w w z A ",
"B C D E B C D E B B C E E B B B E B F G ",
"H I J K H I J K I I L M K I M M I I N O ",
"P Q R P P Q R P R S Q S T R R U U U V W ",
"X Y Y Y X Y Y Y Z X Y X `  .` ` ` ` ..+.",
"@.@.@.@.@.@.@.@.@.@.@.@.@.@.@.@.@.@.@.@.",
"@.@.@.@.@.@.@.@.@.@.@.@.@.@.@.@.@.@.@.@.",
"% % % % % % % % % % % % % % % % % % % % "};
