/* XPM */
static char * titleIB_xpm[] = {
"1 20 17 1",
" 	c None",
".	c #3B2B2C",
"+	c #645252",
"@	c #4A3D3A",
"#	c #473A38",
"$	c #413633",
"%	c #3B302E",
"&	c #352C2A",
"*	c #2F2725",
"=	c #282220",
"-	c #221D1C",
";	c #1C1917",
">	c #161313",
",	c #100E0F",
"'	c #0A090A",
")	c #030000",
"!	c #161513",
".",
".",
".",
"+",
"@",
"#",
"$",
"%",
"&",
"*",
"=",
"-",
";",
">",
",",
"'",
")",
"!",
"!",
")"};
