/* XPM */
static char *dummy[]={
"16 24 12 1",
"b c #000000",
"j c #000080",
"i c #151515",
"h c #161515",
"g c #303130",
"f c #313131",
"d c #4c4c4b",
"c c #4d4d4d",
"a c #676768",
"# c #686869",
". c #7b7b7b",
"e c #ffffff",
"................",
"................",
"#abbbbbbbbbbba#a",
"cdbeeeeeeeeebdcd",
"fgbebbbbbbbbbbbg",
"hibebeeeeeeeeebi",
"bbbebebbbbbbbebb",
"bbbebebbbbbbbebb",
"bbbbbebbbbbbbebb",
"bbbbbeeeeeeeeebb",
"bbbbbbbbbbbbbbbb",
"bbbbbbbbbbbbbbbb",
"................",
"................",
"#abbbbbbbbbbba#a",
"cdbjjjjjjjjjbdcd",
"fgbjbbbbbbbbbbbg",
"hibjbjjjjjjjjjbi",
"bbbjbjbbbbbbbjbb",
"bbbjbjbbbbbbbjbb",
"bbbbbjbbbbbbbjbb",
"bbbbbjjjjjjjjjbb",
"bbbbbbbbbbbbbbbb",
"bbbbbbbbbbbbbbbb"};
