/* XPM */
static char *email[] = {
/* columns rows colors chars-per-pixel */
"16 16 135 2",
"   c #955712",
".  c #955812",
"X  c #B86609",
"o  c #BB6708",
"O  c #9A6A34",
"+  c #9A6F3D",
"@  c #C16A06",
"#  c #C06A07",
"$  c #C16A07",
"%  c #C06A08",
"&  c #C16B08",
"*  c #C16C0C",
"=  c #C16D0E",
"-  c #C26E0E",
";  c #D47000",
":  c #D67201",
">  c #D77301",
",  c #D07207",
"<  c #D97401",
"1  c #DA7400",
"2  c #DB7400",
"3  c #D87402",
"4  c #D87403",
"5  c #DE7600",
"6  c #DF7600",
"7  c #DD7807",
"8  c #DA7A0E",
"9  c #DD7C0E",
"0  c #DF7E0F",
"q  c #D37B16",
"w  c #E07700",
"e  c #E07701",
"r  c #E07801",
"t  c #E07802",
"y  c #E07905",
"u  c #E07A06",
"i  c #E07B08",
"p  c #E07B09",
"a  c #E07D0C",
"s  c #E17F11",
"d  c #9B7447",
"f  c #9D794F",
"g  c #9E7E59",
"h  c #DF8014",
"j  c #DE821A",
"k  c #DF831B",
"l  c #E28012",
"z  c #E28318",
"x  c #E28419",
"c  c #E2851B",
"v  c #E2861C",
"b  c #E3871F",
"n  c #D2842A",
"m  c #D3862E",
"M  c #DC8829",
"N  c #CE8532",
"B  c #D38832",
"V  c #D28934",
"C  c #D48A35",
"Z  c #DE8E33",
"A  c #DE9139",
"S  c #D8903E",
"D  c #E38923",
"F  c #E08927",
"G  c #E59233",
"H  c #E09035",
"J  c #E69336",
"K  c #E4953A",
"L  c #E7983E",
"P  c #9E8161",
"I  c #C78841",
"U  c #D5954C",
"Y  c #D89548",
"T  c #DC9748",
"R  c #DF994A",
"E  c #C08E56",
"W  c #C9965A",
"Q  c #CA965C",
"!  c #CA975D",
"~  c #CA975E",
"^  c #D79850",
"/  c #E79A43",
"(  c #E49944",
")  c #E79C46",
"_  c #E89C46",
"`  c #E89D47",
"'  c #E09A49",
"]  c #E79C48",
"[  c #E89C48",
"{  c #E89E4A",
"}  c #DEA05A",
"|  c #DFA05A",
" . c #DDA25F",
".. c #E9A04F",
"X. c #E6A153",
"o. c #E6A356",
"O. c #EAA456",
"+. c #EAA557",
"@. c #E2A158",
"#. c #E3A35B",
"$. c #EAA658",
"%. c #EAA75A",
"&. c #EAA75B",
"*. c #E8A65C",
"=. c #EBA95E",
"-. c #C29767",
";. c #C99760",
":. c #C99860",
">. c #C99962",
",. c #C99964",
"<. c #C99A66",
"1. c #C89B68",
"2. c #C99C69",
"3. c #E6AA66",
"4. c #EAAD67",
"5. c #E5AB69",
"6. c #EAAE69",
"7. c #ECAE68",
"8. c #ECAF6A",
"9. c #ECB16D",
"0. c #EDB270",
"q. c #EDB372",
"w. c #EDB473",
"e. c #EDB575",
"r. c #E5B37A",
"t. c #E7B57C",
"y. c #EEB779",
"u. c #EBB87E",
"i. c #EFB97D",
"p. c #EFBC82",
"a. c #E7BB8A",
"s. c #F0BE86",
"d. c #EFC08A",
"f. c #EDC08E",
"g. c None",
/* pixels */
"g.g.g.g.g.g.g.g.g.g.g.g.g.g.g.g.",
"g.g.g.g.g.g.g.g.g.g.g.g.g.g.g.g.",
"g.g.g.g.g.g.g.g.g.g.g.g.g.g.g.g.",
"g.-.2.1.<.,.>.>.:.;.~ ! Q W E g.",
"P a.f.d.s.p.i.y.e.w.0.9.6.3.| g.",
"g t.u.r.q.7.=.$.O.$.%.*.} o.R g.",
"f 5.8.4. .@...{ ` [ T Y ) / A g.",
"d #.&.+.X.^ U ] ( I S K J G M g.",
"+ ' _ L H B V C N m n F D b 8 g.",
"O Z c 9 , 7 a h k v j q 0 i 3 . ",
"g.4 2 ; 6 t u p i y r 6 ; 2 <   ",
"g.: 1 5 e i l x z s u w 5 2 > . ",
"g.X # @ $ & * - = * % # # # o g.",
"g.g.g.g.g.g.g.g.g.g.g.g.g.g.g.g.",
"g.g.g.g.g.g.g.g.g.g.g.g.g.g.g.g.",
"g.g.g.g.g.g.g.g.g.g.g.g.g.g.g.g."
};
