/* XPM */
static char * folder_16x16_xpm[] = {
"16 16 127 2",
"  	c None",
". 	c #C3A282",
"+ 	c #CBAE92",
"@ 	c #CCAD90",
"# 	c #CBAA8B",
"$ 	c #BD9672",
"% 	c #B48A61",
"& 	c #C6A688",
"* 	c #D1B79E",
"= 	c #D3B9A0",
"- 	c #D4B89C",
"; 	c #B99572",
"> 	c #AC7F55",
", 	c #B28050",
"' 	c #AB7746",
") 	c #A26E3D",
"! 	c #986534",
"~ 	c #8D5A29",
"{ 	c #845120",
"] 	c #7A4819",
"^ 	c #734316",
"/ 	c #B88C63",
"( 	c #B78759",
"_ 	c #BB8959",
": 	c #BD8956",
"< 	c #B77F4A",
"[ 	c #AE753E",
"} 	c #AA7038",
"| 	c #A26730",
"1 	c #985F29",
"2 	c #905822",
"3 	c #87501C",
"4 	c #814B1A",
"5 	c #7A4718",
"6 	c #B28457",
"7 	c #AF7947",
"8 	c #B17843",
"9 	c #B2773E",
"0 	c #AF7337",
"a 	c #AA6D32",
"b 	c #A66A30",
"c 	c #99612B",
"d 	c #865524",
"e 	c #8A511C",
"f 	c #854E19",
"g 	c #804A18",
"h 	c #794717",
"i 	c #AB7C4E",
"j 	c #A7713D",
"k 	c #A86E37",
"l 	c #A76B32",
"m 	c #A5682C",
"n 	c #A5692F",
"o 	c #A9743D",
"p 	c #9E6E3B",
"q 	c #845729",
"r 	c #88511C",
"s 	c #844D19",
"t 	c #7E4918",
"u 	c #784617",
"v 	c #724215",
"w 	c #A06F3E",
"x 	c #9C642F",
"y 	c #9B6129",
"z 	c #985D26",
"A 	c #905B28",
"B 	c #9F6B37",
"C 	c #985E26",
"D 	c #925922",
"E 	c #935F2D",
"F 	c #895320",
"G 	c #7B4717",
"H 	c #754416",
"I 	c #704115",
"J 	c #946130",
"K 	c #8F5722",
"L 	c #90561E",
"M 	c #8C541F",
"N 	c #764D24",
"O 	c #8E5B2B",
"P 	c #8E551F",
"Q 	c #8A521D",
"R 	c #8D5927",
"S 	c #845020",
"T 	c #7C4817",
"U 	c #774516",
"V 	c #714216",
"W 	c #6D4015",
"X 	c #885423",
"Y 	c #864E1A",
"Z 	c #874F1A",
"` 	c #88501A",
" .	c #86501D",
"..	c #8D5928",
"+.	c #8C5826",
"@.	c #895728",
"#.	c #83562A",
"$.	c #7C4B1C",
"%.	c #764516",
"&.	c #724316",
"*.	c #6E4015",
"=.	c #6C3F15",
"-.	c #7D4B1B",
";.	c #7D4917",
">.	c #7F4A18",
",.	c #804B18",
"'.	c #804B1A",
").	c #825021",
"!.	c #7C4F24",
"~.	c #6A4620",
"{.	c #714317",
"].	c #6E4016",
"^.	c #6D3F15",
"/.	c #744417",
"(.	c #774517",
"_.	c #764517",
":.	c #734317",
"<.	c #6E4218",
"[.	c #6B3F15",
"}.	c #673C13",
"|.	c #683D13",
"1.	c #693E14",
"2.	c #6A3E14",
"3.	c #683C13",
"4.	c #673B13",
"5.	c #663B13",
"6.	c #653B13",
"                                ",
"                                ",
"                                ",
"  . + @ # $ %                   ",
"  & * = - ; > , ' ) ! ~ { ] ^   ",
"  / ( _ : < [ } | 1 2 3 4 5 ^   ",
"  6 7 8 9 0 a b c d e f g h ^   ",
"  i j k l m n o p q r s t u v   ",
"  w x y z A B C D E F g G H I   ",
"  J K L M N O P Q R S T U V W   ",
"  X Y Z `  ...+.@.#.$.%.&.*.=.  ",
"  -.;.>.g ,.'.).!.~.{.V ].^.=.  ",
"  /.%.(.u u (._.:.<.*.=.[.[.[.  ",
"  }.|.1.2.2.2.|.3.4.5.6.6.6.6.  ",
"                                ",
"                                "};
