/* XPM */
static char *xterm___x__[] = {
/* columns rows colors chars-per-pixel */
"16 16 99 2",
"   c black",
".  c #020202",
"X  c gray1",
"o  c gray2",
"O  c #070707",
"+  c #0B0B0B",
"@  c #0E0E0E",
"#  c gray7",
"$  c #131212",
"%  c #131313",
"&  c #141313",
"*  c gray8",
"=  c #151515",
"-  c #161616",
";  c gray9",
":  c #181818",
">  c #191919",
",  c #1B1A1A",
"<  c #1B1B1B",
"1  c #1E1E1E",
"2  c gray12",
"3  c #202020",
"4  c gray13",
"5  c #222222",
"6  c #232323",
"7  c #252525",
"8  c #272626",
"9  c gray16",
"0  c #2A2929",
"q  c gray18",
"w  c #2F2E2E",
"e  c #313131",
"r  c #323131",
"t  c gray20",
"y  c #353333",
"u  c #343434",
"i  c #353434",
"p  c #363535",
"a  c #373535",
"s  c #373636",
"d  c #373737",
"f  c #383636",
"g  c #383737",
"h  c gray22",
"j  c #393838",
"k  c #393939",
"l  c #3A3838",
"z  c #3A3A3A",
"x  c #3B3A3A",
"c  c gray23",
"v  c #3C3B3B",
"b  c #3C3C3C",
"n  c gray24",
"m  c #3E3C3C",
"M  c #3E3D3D",
"N  c #3E3E3E",
"B  c #3F3E3E",
"V  c gray25",
"C  c #414040",
"Z  c #414141",
"A  c #424141",
"S  c gray26",
"D  c #434343",
"F  c #4B4B4B",
"G  c #4C4C4C",
"H  c #4E4E4E",
"J  c gray31",
"K  c #505050",
"L  c #515151",
"P  c gray32",
"I  c #535353",
"U  c gray33",
"Y  c #555555",
"T  c #565656",
"R  c gray34",
"E  c #585858",
"W  c gray35",
"Q  c #5A5A5A",
"!  c #5B5B5B",
"~  c gray36",
"^  c #5D5D5D",
"/  c gray37",
"(  c #5F5F5F",
")  c #606060",
"_  c gray38",
"`  c #626262",
"'  c gray39",
"]  c #646464",
"[  c #656565",
"{  c gray40",
"}  c #686868",
"|  c gray42",
" . c #6C6C6C",
".. c #727272",
"X. c gray45",
"o. c #747474",
"O. c #797979",
"+. c #868686",
"@. c None",
/* pixels */
"@.@.@.@.@.@.@.@.@.@.@.@.@.@.@.@.",
"@.@.@.@.@.@.@.@.@.@.@.@.@.@.@.@.",
"n P L L K K L L L K J J J J H b ",
"h H E R T T Y Y U U I P P L N S ",
"d |  .{ { [ ] ' ' ` ` _ ) ( D S ",
"d } O.' ) ( / ^ ^ ~ ~ ! Q W V Z ",
"d Q o. .^ W E Q ~ ^ / ~ R P n V ",
"g H ) _ / ! ! / _ ' [ ] ) T z C ",
"g w F o..._ Z t 3 ; # - 9 c u V ",
"s = # q X.+.% .           o 4 B ",
"p & @ I V : 5 7 2 + .       < M ",
"p % X @ * 1 I W G 6 @ X     , v ",
"y $ O ; 9 u b N k e 4 % .   > j ",
"m s w i x B A S C m f r 0 8 a l ",
"@.@.@.@.@.@.@.@.@.@.@.@.@.@.@.@.",
"@.@.@.@.@.@.@.@.@.@.@.@.@.@.@.@."
};
