/* XPM */
static char * start_menu_xpm[] = {
"80 32 693 2",
"  	c None",
". 	c #FEFEFE",
"+ 	c #FBFCFC",
"@ 	c #F9F9F9",
"# 	c #F8F7F6",
"$ 	c #F8F5F3",
"% 	c #F6F3F0",
"& 	c #F5F1ED",
"* 	c #F3EEEB",
"= 	c #F2EDE8",
"- 	c #F0EBE6",
"; 	c #F0EAE5",
"> 	c #EFEAE5",
", 	c #EFE9E4",
"' 	c #EFEAE4",
") 	c #F0EBE5",
"! 	c #EFE8E3",
"~ 	c #F1EBE6",
"{ 	c #F8F2EC",
"] 	c #FAF4EE",
"^ 	c #F8F2ED",
"/ 	c #F4EEE9",
"( 	c #F1EAE5",
"_ 	c #F2EBE6",
": 	c #FAF3EE",
"< 	c #F9F2ED",
"[ 	c #F5EEE9",
"} 	c #F0E9E4",
"| 	c #EEE8E3",
"1 	c #F7F1EC",
"2 	c #F6F0EB",
"3 	c #F5EFEA",
"4 	c #EEE7E3",
"5 	c #EFE8E4",
"6 	c #F3EDE8",
"7 	c #F5EFE9",
"8 	c #EDE6E1",
"9 	c #EEE7E2",
"0 	c #F6EFE9",
"a 	c #F7F0EB",
"b 	c #F5EEEA",
"c 	c #F7F0EA",
"d 	c #F6F0EA",
"e 	c #F6EFEA",
"f 	c #F3ECE7",
"g 	c #EDE7E2",
"h 	c #ECE6E1",
"i 	c #F4EDE8",
"j 	c #F6EEE9",
"k 	c #ECE5E1",
"l 	c #EDE6E2",
"m 	c #ECE4DF",
"n 	c #ECE5DF",
"o 	c #ECE5E0",
"p 	c #EAE3DE",
"q 	c #DAD4CE",
"r 	c #A8A39F",
"s 	c #96928E",
"t 	c #A39E9A",
"u 	c #C3BDB8",
"v 	c #DFD8D3",
"w 	c #EBE4DF",
"x 	c #D9D3CE",
"y 	c #A7A29F",
"z 	c #9B9793",
"A 	c #9B9693",
"B 	c #A19C99",
"C 	c #BDB8B3",
"D 	c #E3DCD7",
"E 	c #F0EAE4",
"F 	c #9B9593",
"G 	c #989290",
"H 	c #948F8D",
"I 	c #918D89",
"J 	c #908B89",
"K 	c #928D8B",
"L 	c #A49F9C",
"M 	c #E1D9D5",
"N 	c #F1EAE4",
"O 	c #DAD4CF",
"P 	c #B3ADA9",
"Q 	c #A6A29E",
"R 	c #C0BAB6",
"S 	c #DED7D2",
"T 	c #EDE5E0",
"U 	c #E5DED9",
"V 	c #BFB9B4",
"W 	c #A09B97",
"X 	c #9C9894",
"Y 	c #BCB7B3",
"Z 	c #F0E8E3",
"` 	c #D9D3CD",
" .	c #979390",
"..	c #ACA7A3",
"+.	c #D5CFCA",
"@.	c #F2EAE6",
"#.	c #ECE4E0",
"$.	c #CAC4BF",
"%.	c #A09C98",
"&.	c #999491",
"*.	c #BCB6B2",
"=.	c #DDD6D1",
"-.	c #EBE3DE",
";.	c #EAE2DD",
">.	c #EBE4DE",
",.	c #ECE4DE",
"'.	c #E0D9D3",
").	c #B2ACA7",
"!.	c #393736",
"~.	c #1F1E1E",
"{.	c #3B3A38",
"].	c #777370",
"^.	c #C5BFBA",
"/.	c #E9E1DB",
"(.	c #DCD5CF",
"_.	c #9F9A96",
":.	c #373635",
"<.	c #262524",
"[.	c #252424",
"}.	c #2F2D2C",
"|.	c #797572",
"1.	c #D6CFC9",
"2.	c #F0E9E2",
"3.	c #B1ACA7",
"4.	c #3A3836",
"5.	c #222120",
"6.	c #282726",
"7.	c #2C2A28",
"8.	c #292827",
"9.	c #2C2B2A",
"0.	c #53504E",
"a.	c #D4CDC8",
"b.	c #F1E9E3",
"c.	c #B4AEA9",
"d.	c #504D4C",
"e.	c #2E2D2C",
"f.	c #6C6A66",
"g.	c #EEE6E0",
"h.	c #CDC7C1",
"i.	c #6A6664",
"j.	c #2D2B2A",
"k.	c #797571",
"l.	c #B1ADA7",
"m.	c #393836",
"n.	c #1A1919",
"o.	c #4E4C4A",
"p.	c #B2ACA8",
"q.	c #F9F4ED",
"r.	c #E7E1DB",
"s.	c #8D8985",
"t.	c #232222",
"u.	c #797472",
"v.	c #C8C1BC",
"w.	c #ECE4DD",
"x.	c #EBE3DD",
"y.	c #EAE2DC",
"z.	c #E9E1DA",
"A.	c #CDC5C0",
"B.	c #87827E",
"C.	c #040403",
"D.	c #000000",
"E.	c #070707",
"F.	c #474543",
"G.	c #AEA8A3",
"H.	c #DFD7D1",
"I.	c #B8B2AD",
"J.	c #504E4C",
"K.	c #10100F",
"L.	c #706C69",
"M.	c #D2CBC5",
"N.	c #DED7D0",
"O.	c #85817D",
"P.	c #020202",
"Q.	c #1B1A19",
"R.	c #484643",
"S.	c #625F5B",
"T.	c #615D5A",
"U.	c #605C59",
"V.	c #7C7874",
"W.	c #DCD4CE",
"X.	c #DED6D0",
"Y.	c #8C8784",
"Z.	c #1D1B1B",
"`.	c #343331",
" +	c #A19C97",
".+	c #AAA39F",
"++	c #343130",
"@+	c #0E0E0D",
"#+	c #6F6C68",
"$+	c #D3CCC6",
"%+	c #E4DCD5",
"&+	c #8F8A86",
"*+	c #040303",
"=+	c #343230",
"-+	c #AAA49F",
";+	c #DDD7D1",
">+	c #6A6663",
",+	c #635F5C",
"'+	c #CAC3BD",
")+	c #F0E8E1",
"!+	c #EBE3DC",
"~+	c #E7DFD8",
"{+	c #E8E0D9",
"]+	c #EEE6DE",
"^+	c #E5DCD5",
"/+	c #B3ACA7",
"(+	c #5F5B58",
"_+	c #0E0C0C",
":+	c #0B0B0B",
"<+	c #3D3B39",
"[+	c #96908C",
"}+	c #C3BCB6",
"|+	c #85807C",
"1+	c #0B0A0B",
"2+	c #040404",
"3+	c #0F0E0E",
"4+	c #474443",
"5+	c #A29D98",
"6+	c #D9D2CB",
"7+	c #BDB6B0",
"8+	c #5D5956",
"9+	c #080606",
"0+	c #1C1A19",
"a+	c #6F6B67",
"b+	c #D0C9C2",
"c+	c #FFFAF2",
"d+	c #FFFAF3",
"e+	c #FAF2EA",
"f+	c #F7EFE7",
"g+	c #F2E9E2",
"h+	c #BBB4AF",
"i+	c #1E1D1C",
"j+	c #232120",
"k+	c #8A8581",
"l+	c #7E7976",
"m+	c #242221",
"n+	c #0C0B0B",
"o+	c #423F3E",
"p+	c #A09B96",
"q+	c #DBD4CD",
"r+	c #CBC4BE",
"s+	c #75716D",
"t+	c #121110",
"u+	c #5D5A57",
"v+	c #BDB7B1",
"w+	c #F2E9E1",
"x+	c #CBC3BE",
"y+	c #625E5C",
"z+	c #7C7873",
"A+	c #F4ECE5",
"B+	c #E9E0D9",
"C+	c #E7DED7",
"D+	c #E6DDD6",
"E+	c #E8DFD8",
"F+	c #F0E7E0",
"G+	c #E0D8D1",
"H+	c #9B9590",
"I+	c #363533",
"J+	c #070606",
"K+	c #080808",
"L+	c #2B2928",
"M+	c #66625F",
"N+	c #575451",
"O+	c #040405",
"P+	c #191817",
"Q+	c #030303",
"R+	c #161515",
"S+	c #625F5C",
"T+	c #C0BAB4",
"U+	c #DDD5CE",
"V+	c #A29B96",
"W+	c #353231",
"X+	c #3C3A37",
"Y+	c #98928D",
"Z+	c #E2DAD2",
"`+	c #FFF7EE",
" @	c #FEF4ED",
".@	c #F3EAE2",
"+@	c #ECE3DC",
"@@	c #F3E9E1",
"#@	c #A29C97",
"$@	c #494644",
"%@	c #0F0E0D",
"&@	c #141312",
"*@	c #746F6B",
"=@	c #CFC6C0",
"-@	c #534F4D",
";@	c #0B0A0A",
">@	c #131212",
",@	c #605D5B",
"'@	c #BEB8B1",
")@	c #DFD7D0",
"!@	c #B6AFAA",
"~@	c #595554",
"{@	c #050505",
"]@	c #232220",
"^@	c #C8C0BA",
"/@	c #E4DBD3",
"(@	c #B0A9A3",
"_@	c #4E4B48",
":@	c #1A1A18",
"<@	c #8B8681",
"[@	c #DED5CF",
"}@	c #F1E8E1",
"|@	c #E5DBD5",
"1@	c #E4DBD4",
"2@	c #F1E7DF",
"3@	c #DCD3CC",
"4@	c #837D79",
"5@	c #0E0D0D",
"6@	c #1A1918",
"7@	c #2C2A29",
"8@	c #272525",
"9@	c #272624",
"0@	c #454340",
"a@	c #3B3937",
"b@	c #171615",
"c@	c #1F1E1D",
"d@	c #807B77",
"e@	c #E0D7D0",
"f@	c #85807B",
"g@	c #0E0D0C",
"h@	c #141313",
"i@	c #373634",
"j@	c #55514E",
"k@	c #5B5855",
"l@	c #958F8B",
"m@	c #D9D0C9",
"n@	c #F1E8E0",
"o@	c #8A8580",
"p@	c #292726",
"q@	c #575350",
"r@	c #9E9893",
"s@	c #2A2827",
"t@	c #7F7A77",
"u@	c #DDD4CC",
"v@	c #E3DAD3",
"w@	c #A19A96",
"x@	c #3E3B3A",
"y@	c #8D8883",
"z@	c #D2C9C2",
"A@	c #D6CDC7",
"B@	c #968F8B",
"C@	c #3B3837",
"D@	c #343231",
"E@	c #99928E",
"F@	c #DED5CE",
"G@	c #EEE3DC",
"H@	c #E6DCD6",
"I@	c #E3D9D2",
"J@	c #E5DBD4",
"K@	c #EBE1D9",
"L@	c #CCC3BD",
"M@	c #6B6663",
"N@	c #403E3B",
"O@	c #54504D",
"P@	c #020201",
"Q@	c #4A4845",
"R@	c #706C68",
"S@	c #111110",
"T@	c #99938E",
"U@	c #EDE3DC",
"V@	c #D4CBC5",
"W@	c #6B6763",
"X@	c #010001",
"Y@	c #141413",
"Z@	c #252322",
"`@	c #2A2826",
" #	c #21201E",
".#	c #312F2D",
"+#	c #75706C",
"@#	c #D0C6C0",
"##	c #E3DAD2",
"$#	c #716C68",
"%#	c #131211",
"&#	c #121010",
"*#	c #3B3836",
"=#	c #99918D",
"-#	c #F0E5DD",
";#	c #8C8782",
">#	c #21201F",
",#	c #484543",
"'#	c #A7A09B",
")#	c #DFD5CE",
"!#	c #CAC1BB",
"~#	c #7C7673",
"{#	c #282525",
"]#	c #4F4C4A",
"^#	c #A8A09B",
"/#	c #DED4CE",
"(#	c #EADFD8",
"_#	c #E3D9D3",
":#	c #E2D8D2",
"<#	c #E1D7CF",
"[#	c #E3D8D1",
"}#	c #DDD3CC",
"|#	c #B0A8A2",
"1#	c #65615D",
"2#	c #726D68",
"3#	c #2F2E2B",
"4#	c #1D1C1A",
"5#	c #5E5A57",
"6#	c #403C3B",
"7#	c #ACA59F",
"8#	c #E5DBD3",
"9#	c #B8B0AA",
"0#	c #56524F",
"a#	c #8A847F",
"b#	c #938C87",
"c#	c #87817D",
"d#	c #8E8883",
"e#	c #AFA7A2",
"f#	c #D4CAC4",
"g#	c #C6BDB7",
"h#	c #0A0A09",
"i#	c #211F1E",
"j#	c #292725",
"k#	c #282524",
"l#	c #1D1C1B",
"m#	c #010101",
"n#	c #3F3C3B",
"o#	c #AAA39D",
"p#	c #F5EAE2",
"q#	c #E0D6CE",
"r#	c #7B7671",
"s#	c #060706",
"t#	c #5A5653",
"u#	c #BFB7B1",
"v#	c #BCB4AD",
"w#	c #605B58",
"x#	c #6F6A66",
"y#	c #B9B1AA",
"z#	c #E6DBD4",
"A#	c #E2D8D0",
"B#	c #E0D5CD",
"C#	c #DFD5CD",
"D#	c #E3D8D0",
"E#	c #E3D9D1",
"F#	c #CCC3BB",
"G#	c #8E8782",
"H#	c #393735",
"I#	c #8A837E",
"J#	c #8D8782",
"K#	c #43403D",
"L#	c #22201F",
"M#	c #514D49",
"N#	c #7B7570",
"O#	c #6D6764",
"P#	c #0A0909",
"Q#	c #151413",
"R#	c #625D5A",
"S#	c #BBB2AC",
"T#	c #D3CAC1",
"U#	c #948E88",
"V#	c #393634",
"W#	c #32302E",
"X#	c #A09893",
"Y#	c #ECE2DA",
"Z#	c #FAF2E9",
"`#	c #F6EAE2",
" $	c #F4E8DF",
".$	c #ECE1D9",
"+$	c #D6CCC4",
"@$	c #A09A93",
"#$	c #3D3A37",
"$$	c #0D0C0B",
"%$	c #4E4947",
"&$	c #4D4946",
"*$	c #615C59",
"=$	c #B8B0A9",
"-$	c #F3E7DE",
";$	c #DBD0C8",
">$	c #716B67",
",$	c #635E5B",
"'$	c #C8BFB8",
")$	c #E6DBD3",
"!$	c #A39B95",
"~$	c #3A3735",
"{$	c #121212",
"]$	c #958E89",
"^$	c #CDC4BD",
"/$	c #E2D7CF",
"($	c #DED2CA",
"_$	c #DED1C9",
":$	c #E4D7CF",
"<$	c #E3D7D0",
"[$	c #BAB0A9",
"}$	c #67625E",
"|$	c #A9A09A",
"1$	c #ACA39D",
"2$	c #726B67",
"3$	c #69625F",
"4$	c #938C86",
"5$	c #87817C",
"6$	c #3A3736",
"7$	c #2E2C2A",
"8$	c #857E79",
"9$	c #CBC0B9",
"0$	c #BFB5AE",
"a$	c #6B6661",
"b$	c #1B1A18",
"c$	c #45413F",
"d$	c #9D948F",
"e$	c #D3C9C2",
"f$	c #DED4CC",
"g$	c #DACEC6",
"h$	c #DDD1C9",
"i$	c #E2D7CE",
"j$	c #D0C6BE",
"k$	c #75706B",
"l$	c #403D3A",
"m$	c #7A746F",
"n$	c #756E6A",
"o$	c #33302F",
"p$	c #807A75",
"q$	c #C6BCB5",
"r$	c #EFE2DA",
"s$	c #D8CDC5",
"t$	c #78716D",
"u$	c #4E4A47",
"v$	c #A19993",
"w$	c #B4ABA4",
"x$	c #736C69",
"y$	c #1D1A1A",
"z$	c #383533",
"A$	c #BAB0AA",
"B$	c #DFD3CB",
"C$	c #E1D5CD",
"D$	c #DFD2CA",
"E$	c #DCCFC7",
"F$	c #DBCEC6",
"G$	c #E4D6CE",
"H$	c #E3D6CE",
"I$	c #A89E98",
"J$	c #423E3B",
"K$	c #080707",
"L$	c #7A736E",
"M$	c #C0B5AD",
"N$	c #CABEB6",
"O$	c #B1A6A0",
"P$	c #B7ADA6",
"Q$	c #C2B7AF",
"R$	c #7E7873",
"S$	c #45413E",
"T$	c #A79E97",
"U$	c #DACEC5",
"V$	c #ABA29A",
"W$	c #46423E",
"X$	c #010100",
"Y$	c #272523",
"Z$	c #4C4845",
"`$	c #615B58",
" %	c #645E5B",
".%	c #615A57",
"+%	c #77706C",
"@%	c #AFA59E",
"#%	c #CEC3BA",
"$%	c #4C4844",
"%%	c #5C5753",
"&%	c #A69C96",
"*%	c #9D938E",
"=%	c #4E4946",
"-%	c #484441",
";%	c #A09791",
">%	c #D4C8C0",
",%	c #E7DAD2",
"'%	c #D9CCC4",
")%	c #99908A",
"!%	c #3F3B39",
"~%	c #262422",
"{%	c #494542",
"]%	c #534E4B",
"^%	c #3A3634",
"/%	c #242120",
"(%	c #3C3836",
"_%	c #837C77",
":%	c #D2C6BE",
"<%	c #E2D5CD",
"[%	c #DACDC4",
"}%	c #D9CCC3",
"|%	c #E2D4CB",
"1%	c #E1D4CB",
"2%	c #A69B94",
"3%	c #45413D",
"4%	c #100F0E",
"5%	c #2E2B29",
"6%	c #9F968F",
"7%	c #CEC1B9",
"8%	c #DED1C8",
"9%	c #E5D8CF",
"0%	c #EDDFD5",
"a%	c #D3C7BD",
"b%	c #7D7570",
"c%	c #6A6360",
"d%	c #C5B9B2",
"e%	c #E3D7CC",
"f%	c #A79D96",
"g%	c #494441",
"h%	c #171514",
"i%	c #141412",
"j%	c #090808",
"k%	c #080706",
"l%	c #2C2927",
"m%	c #89807B",
"n%	c #D2C6BD",
"o%	c #11100F",
"p%	c #827A75",
"q%	c #C9BDB5",
"r%	c #C0B4AC",
"s%	c #6E6763",
"t%	c #6B6561",
"u%	c #BEB2AB",
"v%	c #DDD0C7",
"w%	c #DFD2C9",
"x%	c #DBCEC5",
"y%	c #C6BAB2",
"z%	c #988F89",
"A%	c #4D4844",
"B%	c #24221F",
"C%	c #2F2C2A",
"D%	c #9B928C",
"E%	c #D4C7C0",
"F%	c #DCCEC5",
"G%	c #D2C5BC",
"H%	c #C3B7AF",
"I%	c #BCB0A9",
"J%	c #D1C4BB",
"K%	c #D7CBC2",
"L%	c #CCBFB7",
"M%	c #BBB0A8",
"N%	c #D6C9C1",
"O%	c #DBCEC4",
"P%	c #C4B8B0",
"Q%	c #BCB1A9",
"R%	c #BCB1AA",
"S%	c #BBAFA8",
"T%	c #BAAFA7",
"U%	c #BAAEA7",
"V%	c #BFB4AC",
"W%	c #CDC1B8",
"X%	c #C4B9B0",
"Y%	c #BBB1A8",
"Z%	c #CDC0B7",
"`%	c #D7CAC1",
" &	c #D5C9C0",
".&	c #C9BEB5",
"+&	c #D5C8C0",
"@&	c #CFC3BB",
"#&	c #C5B8B1",
"$&	c #BEB3AB",
"%&	c #BBB0A9",
"&&	c #C0B5AC",
"*&	c #C7BBB2",
"=&	c #D0C4BB",
"-&	c #D8CAC1",
";&	c #D7CAC0",
">&	c #DACCC3",
",&	c #DED0C7",
"'&	c #E1D2C9",
")&	c #DFD1C8",
"!&	c #DBCDC3",
"~&	c #D8CBC2",
"{&	c #D8CBC1",
"]&	c #E0D2C8",
"^&	c #E1D2C8",
"/&	c #DDCFC5",
"(&	c #D9CBC2",
"_&	c #DACCC2",
":&	c #DED0C6",
"<&	c #DFD1C7",
"[&	c #DDD0C6",
"}&	c #E1D3C9",
"|&	c #DCCEC4",
"1&	c #D9CBC1",
"2&	c #D9CCC2",
"3&	c #E1D3C8",
"4&	c #DBCDC4",
"5&	c #DFD2C8",
"6&	c #D6C8BE",
"7&	c #D7C9BF",
"8&	c #D8CAC0",
"9&	c #D6C9BF",
"0&	c #D6C7BD",
"a&	c #DBCCC2",
"b&	c #D9CAC0",
"c&	c #D7C8BE",
"d&	c #D8CABF",
"e&	c #D8C9BF",
"f&	c #D4C6BC",
"g&	c #D2C5BA",
"h&	c #D0C3B8",
"i&	c #CFC1B5",
"j&	c #CDBFB3",
". . . . . . . . . . . . . . . . . . . . . . . . . . . . . . . . . . . . . . . . . . . . . . . . . . . . . . . . . . . . . . . . . . . . . . . . . . . . . . . . ",
"+ + + + + + + + + + + + + + + + + + + + + + + + + + + + + + + + + + + + + + + + + + + + + + + + + + + + + + + + + + + + + + + + + + + + + + + + + + + + + + + + ",
"@ @ @ @ @ @ @ @ @ @ @ @ @ @ @ @ @ @ @ @ @ @ @ @ @ @ @ @ @ @ @ @ @ @ @ @ @ @ @ @ @ @ @ @ @ @ @ @ @ @ @ @ @ @ @ @ @ @ @ @ @ @ @ @ @ @ @ @ @ @ @ @ @ @ @ @ @ @ @ @ ",
"# # # # # # # # # # # # # # # # # # # # # # # # # # # # # # # # # # # # # # # # # # # # # # # # # # # # # # # # # # # # # # # # # # # # # # # # # # # # # # # # ",
"$ $ $ $ $ $ $ $ $ $ $ $ $ $ $ $ $ $ $ $ $ $ $ $ $ $ $ $ $ $ $ $ $ $ $ $ $ $ $ $ $ $ $ $ $ $ $ $ $ $ $ $ $ $ $ $ $ $ $ $ $ $ $ $ $ $ $ $ $ $ $ $ $ $ $ $ $ $ $ $ ",
"% % % % % % % % % % % % % % % % % % % % % % % % % % % % % % % % % % % % % % % % % % % % % % % % % % % % % % % % % % % % % % % % % % % % % % % % % % % % % % % % ",
"& & & & & & & & & & & & & & & & & & & & & & & & & & & & & & & & & & & & & & & & & & & & & & & & & & & & & & & & & & & & & & & & & & & & & & & & & & & & & & & & ",
"* * * * * * * * * * * * * * * * * * * * * * * * * * * * * * * * * * * * * * * * * * * * * * * * * * * * * * * * * * * * * * * * * * * * * * * * * * * * * * * * ",
"= = = = = = = = = = = = = = = = = = = = = = = = = = = = = = = = = = = = = = = = = = = = = = = = = = = = = = = = = = = = = = = = = = = = = = = = = = = = = = = = ",
"- - - - - - - - - - - - - - - ; > , ' ; ; - - ; > , , ' ; ) - ; > , , ' , , ' > ) - ; > > ; ; - ) ; ' ' ; ) - ; > , > ; - - ; ' , ; ; - - - - - - - - - - - - - ",
"! ! ! ! ! ! ! ! ! ! ! ! ! ! , ~ { ] ^ / ( ! , _ { : : < [ } | ~ { : : : : : : 1 ; | ~ 2 { [ ( ! ; 3 < < [ } | ~ { : 1 _ 4 5 6 < : 7 ; ! ! ! ! ! ! ! ! ! ! ! ! ! ",
"8 8 8 8 8 8 8 8 8 8 8 8 8 8 9 } 0 a b _ ! 8 9 ( 0 c d 3 _ 9 8 } 0 c e [ / / / f g h , i 0 f ! 8 ! f e j _ 9 8 } 0 d i } k l ( e c _ 9 8 8 8 8 8 8 8 8 8 8 8 8 8 ",
"m m m m m m m m m m m m n o p q r s t u v m w x y z A B C D E q r F G H I J K L M N O P Q R S T U V W X Y D Z ` y  ...+.@.#.$.%.&.*.=.-.T m m m m m m m m m m m ",
";.;.;.;.;.;.;.;.;.;.;.;.>.,.'.).!.~.{.].^./.(._.:.<.[.}.|.1.2.3.4.5.<.6.7.8.9.0.a.b.c.d.e.f.V g.h.i.<.j.k.1.2.l.m.n.o.p.q.r.s.<.t.u.v.w.m x.y.;.;.;.;.;.;.;.;.;.",
"z.z.z.z.z.z.z.z.z.z.z./.,./.A.B.C.D.E.F.G.H.I.J.D.D.D.K.L.M.N.O.P.D.Q.R.S.T.U.V.W.X.Y.Z.D.`. +w..+++D.@+#+$+%+&+*+D.=+-+q.;+>+D.D.,+'+)+!+/.z.z.z.z.z.z.z.z.z.z.",
"~+~+~+~+~+~+~+~+~+~+~+{+]+^+/+(+_+D.:+<+[+}+|+1+2+D.3+4+5+6+7+8+9+0+a+b+c+d+e+f+g+h+>+i+D.j+k+%+l+m+n+o+p+q+r+s+n+t+u+v+w+x+y+D.D.z+X.A+B+~+~+~+~+~+~+~+~+~+~+~+",
"C+C+C+C+C+C+C+C+C+C+D+E+F+G+H+I+J+D.K+L+M+|+N+O+P+Q+R+S+T+U+V+W+D.X+Y+Z+`+ @.@+@@@#@$@%@D.&@*@=@-@;@>@,@'@)@!@~@{@]@s+^@/@(@_@D.:@<@[@}@E+D+C+C+C+C+C+C+C+C+C+C+",
"|@|@|@|@|@|@|@|@|@|@1@D+2@3@4@5@D.6@7@8@9@4.0@a@b@D.c@d@e@e@f@g@D.h@i@j@k@M+l@m@n@o@p@D.D.;@q@r@s@D.i+t@u@v@w@x@D.`.y@z@A@B@C@D.D@E@F@G@H@1@|@|@|@|@|@|@|@|@|@|@",
"I@I@I@I@I@I@I@I@I@I@I@J@K@L@M@D.D.N@O@p@P@t+Q@R@S@D.7@T@U@V@W@D.X@Y@Z@`@ #.#+#@###$#%#D.{@&#*#8+5@D.7@=#-###;#>#D.,#'#)#!#~#{#Q+]#^#/#(#_#:#I@I@I@I@I@I@I@I@I@I@",
"<#<#<#<#<#<#<#<#<#<#[#I@}#|#O@D.&@1#2#3#Q+4#5#4@%@D.6#7#8#9#O@D.5@0#a#b#c#d#e#f#g#q@h#E.i#j#k#l#m#D.n#o#p#q#r#s#D.t#u#(#v#w#%#K+x#y#)#z#A#<#<#<#<#<#<#<#<#<#<#<#",
"B#B#B#B#B#B#B#B#B#C#D#E#F#G#H#D.W+I#J#K#L#M#N#O#P#Q#R#S#T#U#V#D.W#X#Y#Z#`# $.$+$@$#$$$m+%$&$s@D.D.Q.*$=$-$;$>$D.D.,$'$)$!$~$D.{$]$^$q#/$B#B#B#B#B#B#B#B#B#B#B#B#",
"($($($($($($($($($_$:$<$[$}$6@Q+q@|$1$2$3$4$5$6$m#7$8$9$0$a$b$P.c$d$e$f$g$h$i$j$k$i+$$l$m$n$*#D.D.o$p$q$r$s$t$P.D.u$v$w$x$y$D.z$A$B$C$D$($($($($($($($($($($($($",
"E$E$E$E$E$E$E$E$E$F$G$H$I$J$D.K$L$M$N$O$P$Q$R$h#D.S$T$U$V$W$X$D.Y$Z$`$ %.%+%@%#%$%D.;@%%&%*%=%D.D.-%;%>%,%'%)%!%$$~%{%]%^%/%(%_%:%<%D$E$E$E$E$E$E$E$E$E$E$E$E$E$",
"[%[%[%[%[%[%[%[%[%}%|%1%2%3%4%5%6%7%8%9%0%a%b%&@g@c%d%e%f%g%h%P+i%%@;@j%k%l%m%n%$%o%7.p%q%r%s%$$$$t%u%v%w%x%y%z%A%B%%#b@C%%%D%E%[%F%x%[%[%[%[%[%[%[%[%[%[%[%[%[%",
"[%[%[%[%[%[%[%[%[%[%x%[%G%H%I%r%J%K%[%x%v%}%L%I%M%q%N%O%G%P%Q%R%Q%M%S%T%U%V%W%}%X%Y%r%Z%`% &.&M%M%q%+&[%[%}%N%@&#&$&%&Q%&&*&=&}%[%[%[%[%[%[%[%[%[%[%[%[%[%[%[%[%",
"-&-&-&-&-&-&-&-&-&-&;&;&>&,&'&)&!&~&`%`%;&{&F%]&^&/&(&;&_&:&]&]&]&]&]&]&]&<&O%{&[&}&]&|&1&2&/&3&3&/&2&{&`%-&(&4&:&)&]&]&5&:&!&1&{&-&-&-&-&-&-&-&-&-&-&-&-&-&-&-&",
"6&6&6&6&6&6&6&6&6&6&6&6&7&1&_&_&8&9&6&6&0&6&8&_&a&b&c&6&7&1&_&_&_&_&_&_&_&_&8&6&1&!&_&8&c&7&b&a&a&b&7&6&6&6&7&d&1&_&_&_&_&1&e&6&6&6&6&6&6&6&6&6&6&6&6&6&6&6&6&6&",
"f&f&f&f&f&f&f&f&f&f&f&f&f&f&f&f&f&f&f&f&f&f&f&f&f&f&f&f&f&f&f&f&f&f&f&f&f&f&f&f&f&f&f&f&f&f&f&f&f&f&f&f&f&f&f&f&f&f&f&f&f&f&f&f&f&f&f&f&f&f&f&f&f&f&f&f&f&f&f&f&",
"g&g&g&g&g&g&g&g&g&g&g&g&g&g&g&g&g&g&g&g&g&g&g&g&g&g&g&g&g&g&g&g&g&g&g&g&g&g&g&g&g&g&g&g&g&g&g&g&g&g&g&g&g&g&g&g&g&g&g&g&g&g&g&g&g&g&g&g&g&g&g&g&g&g&g&g&g&g&g&g&",
"h&h&h&h&h&h&h&h&h&h&h&h&h&h&h&h&h&h&h&h&h&h&h&h&h&h&h&h&h&h&h&h&h&h&h&h&h&h&h&h&h&h&h&h&h&h&h&h&h&h&h&h&h&h&h&h&h&h&h&h&h&h&h&h&h&h&h&h&h&h&h&h&h&h&h&h&h&h&h&h&",
"i&i&i&i&i&i&i&i&i&i&i&i&i&i&i&i&i&i&i&i&i&i&i&i&i&i&i&i&i&i&i&i&i&i&i&i&i&i&i&i&i&i&i&i&i&i&i&i&i&i&i&i&i&i&i&i&i&i&i&i&i&i&i&i&i&i&i&i&i&i&i&i&i&i&i&i&i&i&i&i&",
"j&j&j&j&j&j&j&j&j&j&j&j&j&j&j&j&j&j&j&j&j&j&j&j&j&j&j&j&j&j&j&j&j&j&j&j&j&j&j&j&j&j&j&j&j&j&j&j&j&j&j&j&j&j&j&j&j&j&j&j&j&j&j&j&j&j&j&j&j&j&j&j&j&j&j&j&j&j&j&j&"};
