/* XPM */
static char * taskbuttonbg_xpm[] = {
"12 36 36 1",
" 	c None",
".	c #FFFFFF",
"+	c #FEFEFE",
"@	c #FDFDFD",
"#	c #FBFBFB",
"$	c #F9F8F8",
"%	c #F8F6F5",
"&	c #F7F5F2",
"*	c #F5F2EF",
"=	c #F5F0ED",
"-	c #F2EDE9",
";	c #F1ECE6",
">	c #EFEAE5",
",	c #EDE7E2",
"'	c #ECE4DF",
")	c #EAE2DD",
"!	c #E9E1DA",
"~	c #E7DFD8",
"{	c #E7DED7",
"]	c #E5DBD4",
"^	c #E2D9D1",
"/	c #E0D7CF",
"(	c #DFD4CC",
"_	c #DDD1C9",
":	c #DBCFC6",
"<	c #DACDC4",
"[	c #D8CBC2",
"}	c #D7C9BF",
"|	c #D5C6BC",
"1	c #D2C5BA",
"2	c #D0C3B8",
"3	c #CEC1B5",
"4	c #CEC0B4",
"5	c #CEBFB4",
"6	c #CFBFB5",
"7	c #CFC0B5",
"............",
"............",
"++++++++++++",
"@@@@@@@@@@@@",
"############",
"$$$$$$$$$$$$",
"%%%%%%%%%%%%",
"&&&&&&&&&&&&",
"************",
"============",
"------------",
";;;;;;;;;;;;",
">>>>>>>>>>>>",
",,,,,,,,,,,,",
"''''''''''''",
"))))))))))))",
"!!!!!!!!!!!!",
"~~~~~~~~~~~~",
"{{{{{{{{{{{{",
"]]]]]]]]]]]]",
"^^^^^^^^^^^^",
"////////////",
"((((((((((((",
"____________",
"::::::::::::",
"<<<<<<<<<<<<",
"[[[[[[[[[[[[",
"}}}}}}}}}}}}",
"||||||||||||",
"111111111111",
"222222222222",
"333333333333",
"444444444444",
"555555555555",
"666666666666",
"777777777777"};
