/* XPM */
static char * desktop_1_16_xpm[] = {
"16 16 133 2",
"  	c None",
". 	c #72A8B6",
"+ 	c #6EA8B7",
"@ 	c #93B6BE",
"# 	c #CDD5D9",
"$ 	c #D1D8DD",
"% 	c #D3DADF",
"& 	c #D5DBE0",
"* 	c #D4DBDF",
"= 	c #D2D9DD",
"- 	c #C3CED3",
"; 	c #80ADB7",
"> 	c #73ACBC",
", 	c #6A9EAC",
"' 	c #408493",
") 	c #78A3AC",
"! 	c #E6E8EB",
"~ 	c #F6F7F9",
"{ 	c #F6F8FA",
"] 	c #FAFBFC",
"^ 	c #FCFDFE",
"/ 	c #FBFBFD",
"( 	c #F9FAFC",
"_ 	c #F3F5F7",
": 	c #EBECF0",
"< 	c #C8D1D6",
"[ 	c #5C939F",
"} 	c #3E808E",
"| 	c #5A919D",
"1 	c #E1E3E7",
"2 	c #E8EBEE",
"3 	c #E9ECF0",
"4 	c #EDF0F2",
"5 	c #F0F3F5",
"6 	c #F1F3F5",
"7 	c #F0F2F5",
"8 	c #EEF1F3",
"9 	c #DCE0E5",
"0 	c #DBDFE5",
"a 	c #C3CED4",
"b 	c #3B7B8A",
"c 	c #BFC8CF",
"d 	c #E3E6EB",
"e 	c #E1E5E9",
"f 	c #E6EAED",
"g 	c #EAEDF0",
"h 	c #ECEEF2",
"i 	c #E9ECEF",
"j 	c #EBEEF1",
"k 	c #EEF0F3",
"l 	c #D6DCE1",
"m 	c #DDE0E5",
"n 	c #DDE2E6",
"o 	c #DDE2E7",
"p 	c #E1E6E9",
"q 	c #E5E8EC",
"r 	c #E3E7EB",
"s 	c #E0E4E8",
"t 	c #E2E6EA",
"u 	c #E6EAEE",
"v 	c #E0E5E9",
"w 	c #D4DAE0",
"x 	c #D9DEE4",
"y 	c #D9DEE3",
"z 	c #DDE1E6",
"A 	c #DDE1E7",
"B 	c #DFE3E7",
"C 	c #DBE0E5",
"D 	c #DEE2E7",
"E 	c #DADFE4",
"F 	c #D8DEE3",
"G 	c #D7DDE2",
"H 	c #D0D7DD",
"I 	c #D5DBE1",
"J 	c #D7DCE2",
"K 	c #DEE3E7",
"L 	c #D9DFE3",
"M 	c #D3D8DE",
"N 	c #D2D7DD",
"O 	c #D6DBE1",
"P 	c #D2D8DE",
"Q 	c #CDD4DA",
"R 	c #DADFE5",
"S 	c #DBDFE4",
"T 	c #D1D7DD",
"U 	c #CED4DC",
"V 	c #CFD5DC",
"W 	c #CED4DB",
"X 	c #D1D8DE",
"Y 	c #CED5DC",
"Z 	c #C9D0D7",
"` 	c #A7B7BF",
" .	c #D3D8DF",
"..	c #D8DDE2",
"+.	c #CDD4DB",
"@.	c #C8D0D7",
"#.	c #CAD1D8",
"$.	c #74A1AB",
"%.	c #B5C0C8",
"&.	c #CFD4DB",
"*.	c #C6CDD5",
"=.	c #C7CFD6",
"-.	c #C9D1D8",
";.	c #CBD2D9",
">.	c #D0D4DB",
",.	c #A1B5BD",
"'.	c #6697A2",
").	c #629CAB",
"!.	c #6899A4",
"~.	c #B9C3CA",
"{.	c #CDD1D8",
"].	c #C4CCD3",
"^.	c #C4CBD4",
"/.	c #C8CFD6",
"(.	c #C6CED5",
"_.	c #C4CCD4",
":.	c #D1D3DA",
"<.	c #A2B5BD",
"[.	c #5F96A3",
"}.	c #5D96A5",
"|.	c #458595",
"1.	c #438292",
"2.	c #548D9A",
"3.	c #BEC9D1",
"4.	c #D0D7DE",
"5.	c #CFD6DD",
"6.	c #CFD6DC",
"7.	c #CED6DD",
"8.	c #D2D7DE",
"9.	c #A6BBC3",
"0.	c #438391",
"a.	c #488394",
"b.	c #3F7E8D",
"                                ",
"                                ",
"  . + @ # $ % & * = $ - ; > ,   ",
"  ' ) ! ~ { ] ^ / ( _ : < [ }   ",
"  | 1 2 3 4 5 6 7 6 8 9 0 a b   ",
"  c d e f g h i g j k 3 l m     ",
"    n o p q r s t u f v l w     ",
"    x y z A B C D o E F G H     ",
"    I J E D K L M & N O P Q     ",
"    w y R S G T U V W X Y Z     ",
"  `  .P ..+.@.Z #.#.U +.@.#.    ",
"  $.%.&.M #.*.=.-.;.#.@.>.,.'.  ",
"  ).!.~.{.].^.*./.(._.:.<.[.}.  ",
"  |.1.2.3.4.5.6.V 7.8.9.0.a.b.  ",
"                                ",
"                                "};
