/* XPM */
static char * menubg_xpm[] = {
"53 20 25 1",
" 	c None",
".	c #BFBFBF",
"+	c #E9E9E9",
"@	c #EAEAEA",
"#	c #EBEBEB",
"$	c #E8E8E8",
"%	c #ECECEC",
"&	c #EFEFEF",
"*	c #EEEEEE",
"=	c #F1F1F1",
"-	c #F0F0F0",
";	c #F3F3F3",
">	c #F2F2F2",
",	c #F7F7F7",
"'	c #F5F5F5",
")	c #F4F4F4",
"!	c #F9F9F9",
"~	c #F6F6F6",
"{	c #FAFAFA",
"]	c #F8F8F8",
"^	c #FBFBFB",
"/	c #FCFCFC",
"(	c #FDFDFD",
"_	c #FEFEFE",
":	c #C2C2C2",
".....................................................",
".++++@@@@#####$$+++$$+++@@@@#####$$+++@@@@#####$$$++.",
".@@@@@@@@@@@@@@@@@@@@@@@@@@@@@@@@@@@@@@@@@@@@@@++@@@.",
".++++++++++++++++++++++++++++++++++++++++++++++$$$$$.",
".+++++++++++++++++++++++++++++++++++++++++@+++++++++.",
".#@@@@@@@@@@@@@@@@@@@@@@@@@@@@@@@@@@@@@@@#@@@@@@@@@#.",
".%%%%%%%%%%%%%%%%%%%%%%%%%%%%%%%%%%%%%%%%%%%%%%%%%%%.",
".&*************************************************&.",
".=--&&&&&&&----------------------------------------=.",
".;>>=======>>>>>>>>>>>>>>>>>>>>>>>>>>>>>>>>>>>>>>>>;.",
".,');;;;;;;))))))))))))))))))))))))))))))'))))))))',.",
".!,~'''''''~~~~~,,,,,,,,,,,,,,,,,,,,,,,,,,~~~~~~~~,!.",
".{!],,,,,,,]]]{{{{{{{{{{{{{{{{{{{{{{{{{{{{]]]]]]]]{{.",
".^^^!!!!!!^^^/^^^^^^^^^^^^^^^^^^/^^^^^^^^^^^^^/^^^^^.",
".^^^^^^^^^^^^/^^^^^^^^^^^^^^^^^^/^^^^^^^^^^^^^/^^^^^.",
".(((((((((((((((((((((((((((((((((((((((((((((((((((.",
".((((________/((((((((((________/(((((________/(((((.",
".____(((((((((__________(((((((((_____(((((((((_____.",
".___________________________________________________.",
".:::::::::::::::::::::::::::::::::::::::::::::::::::."};
