/* XPM */
static char * frameATL_xpm[] = {
"14 24 6 1",
" 	c None",
".	c #F5F5F5",
"+	c #F9F9F9",
"@	c #F8F8F8",
"#	c #E0E0E0",
"$	c #F4F4F4",
"  ............",
" +++++++++++++",
"++++++++++++++",
"@@@@@@@@@@@@@@",
"@@@@@@@@@@@@@@",
"++++++++++++++",
"++++++++++++++",
"@@@@@@@@@@@@@@",
"@@@@@@@@@@@@@@",
"++++++++++++++",
"++++++++++++++",
"@@@@@@@@@@@@@@",
"##############",
"..............",
"..............",
"$$$$$$$$$$$$$$",
"$$$$$$$$$$$$$$",
"..............",
"..............",
"$$$$$$$$$$$$$$",
"$$$$$$$$$$$$$$",
"..............",
"..............",
"$$$$$$$$$$$$$$"};
