/* XPM */
static char * frameITL_xpm[] = {
"26 26 7 1",
" 	c None",
".	c #FFFFFF",
"+	c #F1E5DC",
"@	c #EEE2D9",
"#	c #EBDFD7",
"$	c #7E8991",
"%	c #818C94",
" .........................",
".+++++++++++++++++++++++++",
".@@@@@@@@@@@@@@@@@@@@@@@@@",
".#########################",
".++++.$$$$$$$$$$$$$$$$$$$$",
".++++.%%%%%%%%%%%%%%%%%%%%",
".++++.                    ",
".++++.                    ",
".++++.                    ",
".++++.                    ",
".++++.                    ",
".++++.                    ",
".++++.                    ",
".++++.                    ",
".++++.                    ",
".++++.                    ",
".++++.                    ",
".++++.                    ",
".++++.                    ",
".++++.                    ",
".++++.                    ",
".++++.                    ",
".++++.                    ",
".++++.                    ",
".++++.                    ",
".++++.                    "};
