/* XPM */
static char * maximizeA_xpm[] = {
"20 40 58 1",
" 	c None",
".	c #000000",
"+	c #EBDFD7",
"@	c #BBB4B1",
"#	c #B8B1AE",
"$	c #B8B2AF",
"%	c #B7B1AE",
"&	c #B4ADAA",
"*	c #B4ADAB",
"=	c #B3ACAB",
"-	c #AFA9A7",
";	c #AFA8A7",
">	c #AFA9A6",
",	c #FFFFFF",
"'	c #ABA5A3",
")	c #AAA4A3",
"!	c #A6A19F",
"~	c #A6A0A0",
"{	c #A5A09F",
"]	c #DEDEDE",
"^	c #A19C9C",
"/	c #A19D9B",
"(	c #A29C9B",
"_	c #C7C7C7",
":	c #9D9998",
"<	c #9C9898",
"[	c #9D9897",
"}	c #9D9898",
"|	c #B9B9B9",
"1	c #BABABA",
"2	c #999494",
"3	c #989494",
"4	c #B4B4B4",
"5	c #B5B5B5",
"6	c #938F90",
"7	c #949090",
"8	c #939090",
"9	c #94908F",
"0	c #908C8C",
"a	c #8F8B8C",
"b	c #8F8C8C",
"c	c #D1D1D1",
"d	c #D0D0D0",
"e	c #8B8788",
"f	c #8A8888",
"g	c #8A8788",
"h	c #E5E5E5",
"i	c #868484",
"j	c #878484",
"k	c #878384",
"l	c #868384",
"m	c #827F81",
"n	c #817F81",
"o	c #817F80",
"p	c #7D7B7C",
"q	c #7D7B7D",
"r	c #797979",
"s	c #787878",
"....................",
"+++++++++.++++++++++",
"@@@@@@@@@.@@@@@@@@@@",
"@@@@@@@@@.@@@@@@@@@@",
"#$%######.##########",
"&&*======......=====",
"--;>>>>>.,,,,,.>>>>>",
"''')))))).,,,,.)))))",
"!~{~~~~~.]]]]].~~~~~",
"^^/((((.______.(((((",
":<[}}}.|1|||.|.}}}}}",
"23333.44455.3..33333",
"6789.||||1.999999999",
"00abb.cdd.bbbbbbbbbb",
"efgggg.h.ggggggggggg",
"ijkllll.llllllllllll",
"mnooooo.oooooooooooo",
"pqqqqqq.qqqqqqqqqqqq",
"rssssss.ssssssssssss",
"....................",
"....................",
"+++++++++.++++++++++",
"@@@@@@@@@.@@@@@@@@@@",
"@@@@@@@@@.@@@@@@@@@@",
"#########.##########",
"=========......=====",
">>>>>>>>>>>>>>.>>>>>",
")))))))))))))).)))))",
"~~~~~~~~~~~~~~.~~~~~",
"((((((((((((((.(((((",
"}}}}}}}}}}}}.}.}}}}}",
"33333333333.3..33333",
"9999999999.999999999",
"bbbbbbbbb.bbbbbbbbbb",
"gggggggg.ggggggggggg",
"lllllll.llllllllllll",
"ooooooo.oooooooooooo",
"qqqqqqq.qqqqqqqqqqqq",
"sssssss.ssssssssssss",
"...................."};
