/* XPM */
static char * rolldownA_xpm[] = {
"18 40 102 2",
"  	c None",
". 	c #859098",
"+ 	c #EBDFD7",
"@ 	c #88939B",
"# 	c #EADED6",
"$ 	c #E9DED6",
"% 	c #EADDD6",
"& 	c #E9DDD6",
"* 	c #EADDD5",
"= 	c #E9DDD5",
"- 	c #8C989F",
"; 	c #E5DAD3",
"> 	c #E6DAD3",
", 	c #E5DAD2",
"' 	c #E5D9D2",
") 	c #E5D9D3",
"! 	c #919BA3",
"~ 	c #E1D6CF",
"{ 	c #E1D7CF",
"] 	c #E1D5CF",
"^ 	c #94A0A7",
"/ 	c #DDD2CC",
"( 	c #DDD3CC",
"_ 	c #DDD2CB",
": 	c #DDD3CB",
"< 	c #DCD2CB",
"[ 	c #DCD2CC",
"} 	c #99A3AB",
"| 	c #D8CEC8",
"1 	c #D9CEC8",
"2 	c #D8CFC8",
"3 	c #9DA8AF",
"4 	c #D5CAC4",
"5 	c #D5CBC5",
"6 	c #D5CAC5",
"7 	c #D4CBC5",
"8 	c #D4CAC4",
"9 	c #D4CAC5",
"0 	c #A2ACB4",
"a 	c #D0C6C1",
"b 	c #D1C7C2",
"c 	c #D1C7C1",
"d 	c #D0C7C1",
"e 	c #D0C6C2",
"f 	c #D0C7C2",
"g 	c #A5AFB8",
"h 	c #CDC3BE",
"i 	c #CCC3BE",
"j 	c #CCC2BE",
"k 	c #CBC3BE",
"l 	c #AAB4BC",
"m 	c #C8BFBA",
"n 	c #C8BFBB",
"o 	c #C8BEBA",
"p 	c #C8BEBB",
"q 	c #C7BFBB",
"r 	c #C7BFBA",
"s 	c #AEB8C0",
"t 	c #C4BBB7",
"u 	c #C3BBB7",
"v 	c #C4BBB8",
"w 	c #C4BAB7",
"x 	c #B3BCC3",
"y 	c #C0B8B4",
"z 	c #C0B7B3",
"A 	c #BFB8B3",
"B 	c #C0B7B4",
"C 	c #C0B8B3",
"D 	c #BFB8B4",
"E 	c #BFB7B3",
"F 	c #BFB7B4",
"G 	c #B6C0C8",
"H 	c #BBB3B1",
"I 	c #BBB4B0",
"J 	c #BBB4B1",
"K 	c #BBB3B0",
"L 	c #BCB3B0",
"M 	c #BBC4CC",
"N 	c #B7B0AD",
"O 	c #B7B0AE",
"P 	c #B8AFAD",
"Q 	c #B8B0AD",
"R 	c #B7AFAD",
"S 	c #B6AFAD",
"T 	c #B7AFAC",
"U 	c #BFC9D0",
"V 	c #B3ACAA",
"W 	c #B3ABA9",
"X 	c #B3ABAA",
"Y 	c #B2ABA9",
"Z 	c #B3ACA9",
"` 	c #B2ABAA",
" .	c #C3CCD4",
"..	c #AEA8A6",
"+.	c #AFA8A6",
"@.	c #AEA7A6",
"#.	c #AFA7A6",
"$.	c #AEA7A5",
"%.	c #AAA7A5",
"&.	c #A7A4A2",
"*.	c #A4A1A0",
"=.	c #848180",
". . . + + + + + + + + + + + + + + + ",
"@ @ @ # $ $ $ % # $ & * & $ = = = = ",
"- - - ; > ; , ' , ' ) ; > ' , , ) , ",
"! ! ! ~ { ~ ~ ~ ~ ~ ~ ~ ~ ~ ~ ~ ] ] ",
"^ ^ ^ / ( _ _ : / _ _ / < [ / [ _ _ ",
"} } } | 1 | | 1 2 1 1 1 | 1 1 | | | ",
"3 3 3 4 5 5 6 6 6 6 6 6 7 8 9 9 9 8 ",
"0 0 0 a b a c d c a e a f a a d e d ",
"g g g h i h h i i i j j j i j i k j ",
"l l l m m n m o m m p q n q r o m r ",
"s s s t u t t u v v w t u u u t w u ",
"x x x y z A B B C D E D E z E F E z ",
"G G G H I H H J J H J K K L K K I K ",
"M M M N O P Q N R R R R S R T T S R ",
"U U U V W W X V X W V W Y X X Z ` X ",
" . . ...+.+.+.+.@.+.+.#.@.+...$.@...",
"%.%.%.%.%.%.%.%.%.%.%.%.%.%.%.%.%.%.",
"&.&.&.&.&.&.&.&.&.&.&.&.&.&.&.&.&.&.",
"*.*.*.*.*.*.*.*.*.*.*.*.*.*.*.*.*.*.",
"=.=.=.=.=.=.=.=.=.=.=.=.=.=.=.=.=.=.",
". . . + + + + + + + + + + + + + + + ",
"@ @ @ # $ $ $ % # $ & * & $ = = = = ",
"- - - ; > ; , ' , ' ) ; > ' , , ) , ",
"! ! ! ~ { ~ ~ ~ ~ ~ ~ ~ ~ ~ ~ ~ ] ] ",
"^ ^ ^ / ( _ _ : / _ _ / < [ / [ _ _ ",
"} } } | 1 | | 1 2 1 1 1 | 1 1 | | | ",
"3 3 3 4 5 5 6 6 6 6 6 6 7 8 9 9 9 8 ",
"0 0 0 a b a c d c a e a f a a d e d ",
"g g g h i h h i i i j j j i j i k j ",
"l l l m m n m o m m p q n q r o m r ",
"s s s t u t t u v v w t u u u t w u ",
"x x x y z A B B C D E D E z E F E z ",
"G G G H I H H J J H J K K L K K I K ",
"M M M N O P Q N R R R R S R T T S R ",
"U U U V W W X V X W V W Y X X Z ` X ",
" . . ...+.+.+.+.@.+.+.#.@.+...$.@...",
"%.%.%.%.%.%.%.%.%.%.%.%.%.%.%.%.%.%.",
"&.&.&.&.&.&.&.&.&.&.&.&.&.&.&.&.&.&.",
"*.*.*.*.*.*.*.*.*.*.*.*.*.*.*.*.*.*.",
"=.=.=.=.=.=.=.=.=.=.=.=.=.=.=.=.=.=."};
