/* XPM */
static char * n7_xpm[] = {
"9 20 16 1",
" 	c None",
".	c #7C7C7C",
"+	c #767676",
"@	c #707070",
"#	c #6A6A6A",
"$	c #636363",
"%	c #FF0000",
"&	c #5C5C5C",
"*	c #535353",
"=	c #4A4A4A",
"-	c #383838",
";	c #252525",
">	c #1A1A1A",
",	c #121212",
"'	c #0B0B0B",
")	c #000000",
".........",
"+++++++++",
"@@@@@@@@@",
"#########",
"$$$%$%$$$",
"&&&&&&&&&",
"******%**",
"=========",
"------%--",
";;;;;;;;;",
">>>>>>%>>",
",,,,,,,,,",
"''''''%''",
")))))))))",
"))))))%))",
")))))))))",
")))))))))",
")))))))))",
")))))))))",
")))))))))"};
