/* XPM */
static char * taskbarbg_xpm[] = {
"8 26 53 1",
" 	c #849673",
".	c #5A7142",
"+	c #63694A",
"@	c #62694A",
"#	c #626A4A",
"$	c #636A4A",
"%	c #60684A",
"&	c #616849",
"*	c #61684A",
"=	c #5E6748",
"-	c #5E6648",
";	c #5B6547",
">	c #5C6547",
",	c #586346",
"'	c #596346",
")	c #596446",
"!	c #566245",
"~	c #566145",
"{	c #556245",
"]	c #556145",
"^	c #536044",
"/	c #536043",
"(	c #505F43",
"_	c #505E43",
":	c #505E42",
"<	c #4D5D42",
"[	c #4D5D41",
"}	c #4E5D41",
"|	c #4D5C41",
"1	c #4D5C42",
"2	c #4B5B40",
"3	c #4A5B41",
"4	c #485A40",
"5	c #485A3F",
"6	c #485940",
"7	c #48593F",
"8	c #45583E",
"9	c #45583F",
"0	c #43573D",
"a	c #42563D",
"b	c #43563D",
"c	c #40553C",
"d	c #40543C",
"e	c #3F553C",
"f	c #3D533B",
"g	c #3D523B",
"h	c #3C533B",
"i	c #3B513A",
"j	c #3A513A",
"k	c #39513A",
"l	c #3A523A",
"m	c #3A5239",
"n	c #142E23",
"        ",
"        ",
"........",
"........",
"        ",
"+@#++$++",
"%&&&**&&",
"==-=--=-",
";;;>;>>;",
",',)',''",
"!~!~{]!{",
"^^^^/^^^",
"(_:(::__",
"<[}[|}1<",
"22233332",
"45556757",
"88988889",
"0aaaabaa",
"cdddecdc",
"ffffgghf",
"ijkjjljm",
"nnnnnnnn",
"jjjjjjjj",
"jjjjjjjj",
"nnnnnnnn",
"nnnnnnnn"};
