/* XPM */
static char * taskbuttonactive_xpm[] = {
"12 20 47 1",
" 	c None",
".	c #AFBDC5",
"+	c #B3C0C8",
"@	c #B2C0C8",
"#	c #B5C2CA",
"$	c #B6C2C9",
"%	c #B5C2C9",
"&	c #B5C3C9",
"*	c #B6C3C9",
"=	c #B9C6CC",
"-	c #B9C6CD",
";	c #BAC6CC",
">	c #BDC9D0",
",	c #BDC9CF",
"'	c #C0CCD1",
")	c #C0CCD2",
"!	c #C4CFD5",
"~	c #C4D0D5",
"{	c #C6D2D7",
"]	c #C7D1D7",
"^	c #C7D1D6",
"/	c #C6D2D6",
"(	c #C7D2D6",
"_	c #C6D1D6",
":	c #CAD4D9",
"<	c #CAD5D9",
"[	c #CBD5D9",
"}	c #CBD4D9",
"|	c #CED8DC",
"1	c #D1DBDE",
"2	c #D1DADE",
"3	c #D2DBDE",
"4	c #D5DEE1",
"5	c #D8E1E3",
"6	c #D8E0E2",
"7	c #D8E0E3",
"8	c #D8E1E2",
"9	c #DCE4E5",
"0	c #DCE3E6",
"a	c #DCE4E6",
"b	c #DCE3E5",
"c	c #E0E7E9",
"d	c #E0E7E8",
"e	c #E1E8EA",
"f	c #E1E8E9",
"g	c #E2E9EA",
"h	c #E2E9E9",
"............",
"+@@++@@@@@@@",
"#$$#%%%%&#%*",
"=-===-=-;;==",
">>,,,>>,,,>>",
"')))))))))''",
"!~!!!!!!!!!!",
"{]^////(/___",
":<<[}::}[<<<",
"||||||||||||",
"111222211332",
"444444444444",
"556777666686",
"99000aaabb0a",
"cccccccccddc",
"eeeeeeeeffff",
"gggggggghggh",
"gggggggggggg",
"gggggggggggg",
"gggggggggggg"};
