/* XPM */
static char * taskbuttonbg_xpm[] = {
"12 20 46 1",
" 	c None",
".	c #E2E9EA",
"+	c #E2E9E9",
"@	c #E1E8E9",
"#	c #E1E8EA",
"$	c #E0E7E9",
"%	c #E0E7E8",
"&	c #DCE4E6",
"*	c #DCE3E6",
"=	c #DCE3E5",
"-	c #DCE4E5",
";	c #D9E2E3",
">	c #D9E1E3",
",	c #D9E1E4",
"'	c #D9E2E4",
")	c #D5DEE1",
"!	c #D1DADE",
"~	c #D2DBDE",
"{	c #D1DBDE",
"]	c #CED8DC",
"^	c #CAD5D9",
"/	c #CBD5D9",
"(	c #CBD4D9",
"_	c #CAD4D9",
":	c #C7D3D8",
"<	c #C7D2D8",
"[	c #C8D3D8",
"}	c #C8D2D7",
"|	c #C8D2D8",
"1	c #C4CFD5",
"2	c #C4D0D5",
"3	c #C0CCD1",
"4	c #C0CCD2",
"5	c #BDC9D0",
"6	c #BDC9CF",
"7	c #B9C6CC",
"8	c #BAC6CC",
"9	c #B9C6CD",
"0	c #B7C4CB",
"a	c #B6C3CB",
"b	c #B6C4CA",
"c	c #B6C4CB",
"d	c #B7C4CA",
"e	c #B2C0C8",
"f	c #B3C0C8",
"g	c #AFBDC5",
"............",
"............",
"............",
"+..+........",
"@@@@########",
"$%%$$$$$$$$$",
"&*==&&&***--",
";;>>>>,,,>''",
"))))))))))))",
"!~~{{!!!!{{{",
"]]]]]]]]]]]]",
"^^^/(__(/^^_",
"::<:[::::}|:",
"111111111121",
"334444444443",
"556665566655",
"778897977797",
"0aabbbbbcddc",
"eeeeeeeffeef",
"gggggggggggg"};
