/* XPM */
static char * desktop_xpm[] = {
"25 21 35 1",
" 	c #FFFFFF",
".	c #9A9A9A",
"+	c #4F4F4F",
"@	c #4E4E4E",
"#	c #4D4D4D",
"$	c #737373",
"%	c #2D2D2D",
"&	c #4C4C4C",
"*	c #373737",
"=	c #FEFEFE",
"-	c #FDFEFE",
";	c #FBFBFC",
">	c #F9FAF9",
",	c #FAF9FA",
"'	c #F7F7F7",
")	c #F4F4F4",
"!	c #F2F1F2",
"~	c #F1F1F1",
"{	c #EEEEEF",
"]	c #B1B1B1",
"^	c #464646",
"/	c #EEEEEE",
"(	c #EBEBED",
"_	c #474747",
":	c #ECECEC",
"<	c #E9E9EA",
"[	c #4A4A4A",
"}	c #E6E6E8",
"|	c #B0B0B0",
"1	c #4B4B4B",
"2	c #AFAFAF",
"3	c #E6E7E8",
"4	c #E5E5E6",
"5	c #E4E4E5",
"6	c #DADADB",
"                         ",
"                         ",
"                         ",
"    .++++++++++++++++.   ",
"    @                @   ",
"    # $%%%%%%%%%%%%$ #   ",
"    & %************% &   ",
"    & %************% &   ",
"====& %************% &=-=",
";;;;& %************% &;;;",
">>>>& %************% &>,>",
"''''& %************% &'''",
"))))& $%%%%%%%%%%%%$ &)))",
"!!!!&                &!~!",
"{{{{&  ]^^^^^^^^^^]  &{/{",
"((((&  _(((((((:((_  &(:(",
"<<<<&  [<<<<<<<<<<[  &<<<",
"}}}}|112}}}}}}}3}}211|}3}",
"4444444444444444444444444",
"5555555555555555555555555",
"6666666666666666666666666"};
