/* XPM */
static char *icewm[]={
"38 20 144 2",
"#g c #000000",
"#p c #010101",
"#w c #020202",
"#K c #030303",
"#1 c #030304",
"#f c #040404",
"#o c #060606",
"#R c #0d0d0d",
"#0 c #0d0d0e",
"#e c #0f0f0f",
"#v c #101010",
"#C c #141414",
".7 c #151515",
"#n c #171717",
"#J c #1c1c1c",
"#S c #1d1d1d",
"#D c #1e1e1e",
"#d c #272727",
".6 c #282828",
".U c #2a2a2a",
".8 c #2b2b2b",
"#Q c #2c2c2c",
"#I c #313131",
"#u c #343434",
"#B c #373737",
".T c #393939",
".5 c #3d3d3d",
"#c c #454545",
"#A c #494949",
".S c #4a4a4a",
"#t c #545454",
".4 c #555555",
".R c #565656",
"#7 c #565657",
"#x c #575757",
"#s c #585858",
"#m c #5b5b5b",
"#h c #5e5e5e",
".Q c #5f5f5f",
"#k c #606060",
"#b c #636363",
".V c #666666",
".l c #686868",
"#2 c #6a6a6c",
"## c #6c6c6c",
"#Z c #6c6c6d",
"#l c #6f6f6f",
".q c #717171",
"#q c #727272",
"#a c #737373",
".P c #747474",
".m c #757575",
".3 c #767676",
".N c #7b7b7b",
".O c #7c7c7c",
".0 c #7d7d7d",
".M c #7e7e7e",
".g c #7f7f7f",
".2 c #818181",
".I c #838383",
".1 c #848484",
".Z c #858585",
"#H c #888888",
"#T c #8b8b8b",
".9 c #8d8d8d",
".H c #8f8f8f",
".D c #959595",
".p c #969696",
".E c #979797",
"ab c #adadad",
".C c #aeaeae",
"#P c #aeaeaf",
".G c #b0b0b0",
"ad c #b1b1b1",
"ae c #b3b3b3",
".r c #b5b5b5",
".k c #b6b6b6",
"aa c #b7b7b7",
".f c #bcbcbc",
".L c #bebebe",
".h c #c0c0c0",
"#6 c #c1c1c3",
".x c #c3c3c3",
"#8 c #c4c4c6",
".F c #c6c6c6",
"#z c #cacaca",
"#. c #cbcbcb",
".B c #cccccc",
".W c #cdcdcd",
"ac c #cecece",
"#3 c #cfcfd1",
".n c #d0d0d0",
"#i c #d4d4d4",
"af c #d6d6d8",
"#Y c #d8d8da",
".Y c #d9d9d9",
".w c #dadada",
"a# c #dadadb",
"#E c #dbdbdb",
"#G c #dbdbdc",
"#L c #dedede",
"#r c #e1e1e1",
".o c #e3e3e3",
"an c #e3e3e5",
".u c #e4e4e4",
"ah c #e4e4e5",
"ag c #e4e4e6",
"#U c #e5e5e5",
"#9 c #e5e5e6",
"a. c #e5e5e7",
".v c #e6e6e6",
"ai c #e6e6e7",
"#4 c #e6e6e8",
"am c #e7e7e8",
"#5 c #e7e7e9",
"ak c #e8e8e8",
"#O c #e8e8ea",
"aj c #e9e9e9",
"#W c #e9e9ea",
"#X c #e9e9eb",
"al c #eaeaea",
"#V c #ebebeb",
"#N c #ebebec",
"#M c #ebebed",
".J c #ededed",
".y c #eeeeee",
".t c #efefef",
"#F c #efeff0",
".b c #f1f1f1",
".A c #f2f2f2",
".K c #f3f3f3",
"#y c #f4f4f4",
".e c #f5f5f5",
".c c #f7f7f7",
"#j c #f7f8f7",
".a c #f8f8f8",
".j c #f9f9f9",
".z c #fafafa",
".s c #fbfbfb",
".i c #fcfcfc",
".X c #fcfcfd",
".d c #fdfdfd",
".# c #fefefe",
"Qt c #ffffff",
"QtQtQtQtQtQtQtQtQtQtQtQtQtQtQtQtQtQtQt.#.#.#.#QtQt.#.#QtQtQtQtQtQtQtQtQtQtQt",
"QtQtQtQtQtQtQtQtQtQt.#.#Qt.#.#.#QtQtQt.a.b.c.dQtQt.#.#QtQtQtQtQtQtQtQtQtQtQt",
"QtQtQtQtQtQtQtQtQtQt.#.#.#.#.#.#.#.#.e.f.g.h.i.#QtQtQtQtQtQtQtQtQtQtQtQtQtQt",
"QtQtQtQtQtQtQtQtQtQtQt.#.#QtQt.#.#.j.k.l.m.n.i.#QtQtQtQtQtQtQtQtQtQtQtQtQtQt",
"QtQtQtQtQtQtQtQtQtQt.#.#QtQtQt.#.#.o.p.q.r.c.#QtQtQtQtQtQtQtQtQtQtQtQtQtQtQt",
"QtQtQtQtQtQtQtQtQtQt.#.#Qt.s.t.u.v.w.k.x.o.o.y.zQt.#.#QtQtQtQtQtQtQtQtQtQtQt",
"QtQtQtQtQtQtQtQtQtQtQtQt.A.B.C.D.E.r.F.G.H.I.E.x.J.#.#QtQtQtQtQtQtQtQtQtQtQt",
".#.#.#.#.#.#.#.#.#.#.#.K.L.M.N.O.P.l.Q.R.S.T.U.V.W.#.#.#.#.#.#.#.#.#.#.#.#.#",
".X.X.X.X.X.X.X.X.X.X.i.Y.Z.0.1.2.3.l.4.5.6.7.8.9.o.i.i.X.X.X.X.X.X.X.X.X.X.X",
".z.z.z.z.z.z.z.z.z.z.z#.##.O.O#a#b#c#d#e#f#g#h#i.z.z.z.z.z.z.z.z.z.z.z.z.z.z",
"#j#j#j#j#j#j.c.c#j#j#j.F#k#l###m.T#n#o#g#p#g#q#r.c.c.c#j#j#j.c.c#j#j#j#j#j#j",
".e.e.e.e.e.e.e.e.e.e.e.x#s#h#t#u#v#w#g#g#g#g#x.B#y#y.e.e.e.e.e.e.e.e.e.e.e.e",
".A.A.A.A.A.A.A.A.A.A.A#z#b#A#B#C#w#g#p#p#g#g#D.Z#E.A.A.A.A.A.A.A.A.A.A.A.A.A",
"#F#F#F#F#F#F.t.t#F#F#F#G#H#I#J#f#g#g#g#g#p#p#K#d.Z#L.y#F#F#F.t.t#F#F#F#F#F#F",
"#M#M#M#M#M#M#N#N#M#M#M#O#P#Q#R#g#g#g#g#g#g#g#p#S#T#U#V#M#M#M#N#N#M#M#M#M#M#M",
"#W#W#W#W#W#W#W#W#W#W#W#X#Y#Z#0#g#g#g#g#g#p#g#1#2#3#X#W#W#W#W#W#W#W#W#W#W#W#W",
"#4#4#4#4#4#4#4#4#4#4#4#4#5#6#s#K#g#p#g#g#g#g#7#8#5#4#4#4#4#4#4#4#4#4#4#4#4#4",
"#9#9#9#9#9#9#9#9#9#9#9#9a.#5a#aaabac.Yacadaeaf#4a.ag#9#9#9#9#9#9#9#9#9#9#9#9",
"ahahahahahahahahahahahahagagaiaj#Vak#U.valalamananananahahahahahahahahahahah",
"a#a#a#a#a#a#a#a#a#a#a#a#a#a#a#a#a#a#a#a#a#a#a#a#a#a#a#a#a#a#a#a#a#a#a#a#a#a#"};
