/* XPM */
static char * attivo_xpm[] = {
"75 22 115 2",
"  	c None",
". 	c #FFFFFF",
"+ 	c #868686",
"@ 	c #494949",
"# 	c #0B0B0B",
"$ 	c #151515",
"% 	c #111111",
"& 	c #121212",
"* 	c #181818",
"= 	c #131313",
"- 	c #1E1E1E",
"; 	c #141414",
"> 	c #1C1C1C",
", 	c #191919",
"' 	c #1F1F1F",
") 	c #202020",
"! 	c #222222",
"~ 	c #232323",
"{ 	c #252525",
"] 	c #212121",
"^ 	c #282828",
"/ 	c #242424",
"( 	c #262626",
"_ 	c #292929",
": 	c #2B2B2B",
"< 	c #272727",
"[ 	c #2C2C2C",
"} 	c #2D2D2D",
"| 	c #303030",
"1 	c #2A2A2A",
"2 	c #323232",
"3 	c #333333",
"4 	c #353535",
"5 	c #393939",
"6 	c #383838",
"7 	c #363636",
"8 	c #3A3A3A",
"9 	c #373737",
"0 	c #343434",
"a 	c #2E2E2E",
"b 	c #4E4E4E",
"c 	c #909090",
"d 	c #5D5D5D",
"e 	c #101010",
"f 	c #0E0E0E",
"g 	c #090909",
"h 	c #161616",
"i 	c #0F0F0F",
"j 	c #1A1A1A",
"k 	c #171717",
"l 	c #2F2F2F",
"m 	c #313131",
"n 	c #5A5A5A",
"o 	c #CCCCCC",
"p 	c #0D0D0D",
"q 	c #0A0A0A",
"r 	c #050505",
"s 	c #010101",
"t 	c #000000",
"u 	c #030303",
"v 	c #040404",
"w 	c #080808",
"x 	c #1D1D1D",
"y 	c #575757",
"z 	c #C1C1C1",
"A 	c #929292",
"B 	c #C7C7C7",
"C 	c #FEFEFE",
"D 	c #FDFEFE",
"E 	c #FBFBFC",
"F 	c #F9FAF9",
"G 	c #FAF9FA",
"H 	c #F7F7F7",
"I 	c #020202",
"J 	c #F4F4F4",
"K 	c #F2F1F2",
"L 	c #F1F1F1",
"M 	c #EEEEEF",
"N 	c #BBBBBB",
"O 	c #7A7A7A",
"P 	c #EEEEEE",
"Q 	c #EBEBED",
"R 	c #616161",
"S 	c #ABABAB",
"T 	c #ECECEC",
"U 	c #E9E9EA",
"V 	c #CDCCCA",
"W 	c #32312F",
"X 	c #0B0A08",
"Y 	c #131210",
"Z 	c #141311",
"` 	c #100F0D",
" .	c #2A2A28",
"..	c #6A6A68",
"+.	c #E6E6E4",
"@.	c #E6E6E8",
"#.	c #E6E7E8",
"$.	c #A2A2A4",
"%.	c #3C3C3E",
"&.	c #141416",
"*.	c #0F0F11",
"=.	c #131315",
"-.	c #333436",
";.	c #5F6062",
">.	c #BDBEC0",
",.	c #E5E5E6",
"'.	c #D7D5D6",
").	c #8A8889",
"!.	c #4E4C4D",
"~.	c #232122",
"{.	c #979694",
"].	c #E7E6E4",
"^.	c #E4E4E5",
"/.	c #DADADB",
"(.	c #B2B2B2",
". . + @ # $ % & & * = - ; * * & > $ , , > ' > ) ! > - ~ { ] ) ^ ] ~ ^ / ( _ : < [ _ } | 1 } 2 [ 3 } 4 2 2 5 3 6 7 6 3 6 5 5 8 7 4 7 9 7 0 a b c . . . ",
". . . . d e e = % % & & = * % f g g g % h = h $ f e % i $ % % i = j ' ~ { ! ! ~ { ^ ] { ^ 1 { ( ) * = k ' { _ l a _ m | : m | | 3 4 2 _ 1 n o . . . . ",
". . . . . d p % i ; ; * h e q r s t s r g j ; g r s s u v u s t u w & x < 1 < < 1 } 1 l < a : * p v s t t t t t t t t t t t t t t t t t y z . . . . . ",
". . . . . . t t t t t t t t t t t t t t t t t t t t t t t t t t t t t t t t t t t t t t t t t t t t t t t t t t t t t t t t t t t t t t A . . . . . . ",
". . . . . . t t t t t t t t t t t t t t t t t t t t t t t t t t t t t t t t t t t t t t t t t t t t t t t t t t t t t t t t t t t t t t B . . . . . . ",
". . . . . . t t t t t t t t t t t t t t t t t t t t t t t t t t t t t t t t t t t t t t t t t t t t t t t t t t t t t t t t t t t t t t . . . . . . . ",
". . . . . . t t t t t t t t t t t t t t t t t t t t t t t t t t t t t t t t t t t t t t t t t t t t t t t t t t t t t t t t t t t t t t . . . . . . . ",
". . . . . . t t t t t t t t t t t t t t t t t t t t t t t t t t t t t t t t t t t t t t t t t t t t t t t t t t t t t t t t t t t t t t . . . . . . . ",
"C C C C C C t t t t t t t t t t t t t t t t t t t t t t t t t t t t t t t t t t t t t t t t t t t t t t t t t t t t t t t t t t t t t t C C C D C C C ",
"E E E E E E t t t t t t t t t t t t t t t t t t t t t t t t t t t t t t t t t t s t t t t t t t t t t t t t t t t t t t t t t t t t t t E E E E E E E ",
"F F F F F F t t t t t t t t t t t t t t t t t t t t t t t t t t t t t t t t t t t t t t t t t t t t t t t t t t t t t t t t t t t t t t F F F G F F F ",
"H H H H H H t t t t t t t t t t t t t t t t t t t t t I v u s t t t t t t t t t t t t t t t t t t t t t t t t t t t t t t t t t t t t t H H H H H H H ",
"J J J J J J t t t t t t t t t t t t t t t t t t t t u f h ; f v t t t t t t t s v t t t t t t t t t t t t t t t t t t t t t t t t t t t J J J J J J J ",
"K K K K K K t t t t t t t t t t t t t t t t t t t t t t t t t t t t t t t t t t t t t t t t t t t t t t t t t t t t t t t t t t t t t t K K K L K K K ",
"M M M M M M N ~ e i $ $ p t t t t t t t t t t t t t t t t t t t t t t t t t t t t t t t t t t t t t t t t t t t t t t t t t t t t t t O M M M P M M M ",
"Q Q Q Q Q Q J R # = ; = % t t t t t t t t t t t t t t t t t t t t t t t t t t t t t t t t t t t t t t t t t t t t t t t t t t t t t t S Q Q Q T Q Q Q ",
"U U U U U U U V W X Y Z ` t t t t t t t t t t t t t t t t t t t t t t t t t t t t t t t t t t t t t t t t t t t t t t t t t t t t  ...+.U U U U U U U ",
"@.@.@.@.@.@.@.#.$.%.&.*.=.t t t t t t t t t t t t t t t t t t t t t t t t t t t t t t t t t t t t t t t t t t t t t t t t t t t -.;.>.@.@.@.@.#.@.@.@.",
",.,.,.,.,.,.,.,.,.'.).!.~.t t t t t t t t t t t t t t t t t t t t t t t t t t t t t t t t t t t t t t t t t t t t t t t t t t t {.].,.,.,.,.,.,.,.,.,.",
"^.^.^.^.^.^.^.^.^.^.^.^.^.^.^.^.^.^.^.^.^.^.^.^.^.^.^.^.^.^.^.^.^.^.^.^.^.^.^.^.^.^.^.^.^.^.^.^.^.^.^.^.^.^.^.^.^.^.^.^.^.^.^.^.^.^.^.^.^.^.^.^.^.^.^.",
"/././././././././././././././././././././././././././././././././././././././././././././././././././././././././././././././././././././././././././.",
"(.(.(.(.(.(.(.(.(.(.(.(.(.(.(.(.(.(.(.(.(.(.(.(.(.(.(.(.(.(.(.(.(.(.(.(.(.(.(.(.(.(.(.(.(.(.(.(.(.(.(.(.(.(.(.(.(.(.(.(.(.(.(.(.(.(.(.(.(.(.(.(.(.(.(."};
