/* XPM */
static char * workspacebuttonactive_xpm[] = {
"10 25 65 1",
" 	c None",
".	c #FFFFFF",
"+	c #859098",
"@	c #87929A",
"#	c #383C40",
"$	c #DCD2CE",
"%	c #DDD3CF",
"&	c #DDD3CE",
"*	c #DCD3CF",
"=	c #DED4CF",
"-	c #DED4D0",
";	c #DFD4D0",
">	c #DFD5D1",
",	c #E0D5D1",
"'	c #E0D5D2",
")	c #DFD5D2",
"!	c #E1D6D2",
"~	c #E1D7D2",
"{	c #E1D6D3",
"]	c #E1D7D3",
"^	c #E2D8D3",
"/	c #E3D7D3",
"(	c #E3D8D4",
"_	c #E2D7D3",
":	c #E2D7D4",
"<	c #E3D8D3",
"[	c #E4D8D4",
"}	c #E4D9D4",
"|	c #E3D8D5",
"1	c #E3D9D5",
"2	c #E3D9D4",
"3	c #E4D9D5",
"4	c #E5DAD5",
"5	c #E5D9D6",
"6	c #E4DAD6",
"7	c #E5DAD6",
"8	c #E6DBD7",
"9	c #E6DCD7",
"0	c #E7DBD7",
"a	c #E7DCD8",
"b	c #E8DCD8",
"c	c #E7DDD8",
"d	c #E8DDD8",
"e	c #E8DCD9",
"f	c #E8DDD9",
"g	c #E9DDD9",
"h	c #E9DED9",
"i	c #E9DEDA",
"j	c #EBDFDA",
"k	c #EADFDB",
"l	c #EADEDA",
"m	c #EADFDA",
"n	c #EBE0DB",
"o	c #ECE0DB",
"p	c #ECE0DC",
"q	c #EBE0DC",
"r	c #ECE1DD",
"s	c #EDE1DD",
"t	c #EDE1DC",
"u	c #EDE2DD",
"v	c #EEE3DE",
"w	c #EEE2DE",
"x	c #EFE2DE",
"y	c #BEC5CF",
"z	c #848180",
"..........",
"..........",
"++++++++++",
"@@@@@@@@++",
"##########",
"#$$$$$$$$$",
"#%&%%*&%%%",
"#=-=----;-",
"#>,,,>>,')",
"#!!~{{!]!~",
"#^/^(_:<(/",
"#[}|12(333",
"#456477777",
"#888980898",
"#abcddbdec",
"#fghhhhghi",
"#jklmmjmkk",
"#nnopqpqpo",
"#rsrtstuss",
"#vvwwwvvwx",
"#.........",
"yyyyyyyyyy",
"yyyyyyyyyy",
"yyyyyyyyyy",
"zzzzzzzzzz"};
