/* XPM */
static char *app___x__[] = {
/* columns rows colors chars-per-pixel */
"32 32 87 1",
"  c #0F1419",
". c #12171D",
"X c #181F25",
"o c #232C34",
"O c #313B44",
"+ c #313D48",
"@ c #3A4752",
"# c #3C4A55",
"$ c #444F59",
"% c #45515C",
"& c #4C545D",
"* c #475563",
"= c #4C5A67",
"- c #515D68",
"; c #4E6071",
": c #5D6A76",
"> c #66737E",
", c #637381",
"< c #6E7A84",
"1 c #657889",
"2 c #6C7D8B",
"3 c #727C84",
"4 c #76828C",
"5 c #78838D",
"6 c #738492",
"7 c #7B8A96",
"8 c #75899C",
"9 c #7F8F9D",
"0 c #868F95",
"q c #83919C",
"w c #8C969E",
"e c #8394A2",
"r c #8998A6",
"t c #8B9CAA",
"y c #939CA4",
"u c #97A3AD",
"i c #96A5B2",
"p c #9CA8B1",
"a c #94ABBE",
"s c #98ACBE",
"d c #A2ABB2",
"f c #A0ADB9",
"g c #A5B3BD",
"h c #A9B4BB",
"j c #96AEC1",
"k c #99AFC2",
"l c #9DB3C6",
"z c #A3B5C3",
"x c #A5B8C7",
"c c #ACB9C3",
"v c #A2B7C9",
"b c #A5BACB",
"n c #ACBECD",
"m c #B3BCC2",
"M c #B6C2CB",
"N c #BDC4CA",
"B c #AEC1D1",
"V c #B3C5D4",
"C c #BCC7D1",
"Z c #B7C8D7",
"A c #BDCAD4",
"S c #BCCEDB",
"D c #C2C7CC",
"F c #C4CED4",
"G c #C0CFDB",
"H c #CBD1D6",
"J c #C4D2DD",
"K c #CDD6DC",
"L c #C5D5E1",
"P c #C9D7E1",
"I c #CCD9E3",
"U c #D1DDE6",
"Y c #D2DFE8",
"T c #D5E1EA",
"R c #DBE5EC",
"E c #DFE8EF",
"W c #DEE9F0",
"Q c #E2E9EF",
"! c #E3EBF1",
"~ c #E8EFF3",
"^ c #ECF2F6",
"/ c #EEF4F8",
"( c #F1F5F7",
") c #F2F6F9",
"_ c #F5F8FA",
"` c #FAFCFE",
"' c None",
/* pixels */
"''''''''''''''''''''''''''''''''",
"'''''''''''''~''''''''''''''''''",
"''''''''''''REF'''''''''''''''''",
"'''''''MRM'c!!R0'QQd''''''''''''",
"'''''''YT!/_____(/)K''''''''''''",
"'''''''I~^^~QR^()(_h''''''''''''",
"''''gwm!!!E!RP!^))^Rdmy'''''''''",
"'''iTREEEEEInzGQ___^(`!'''''''''",
"'''nTTRRETt@X.o:A_`_Q^^4''''''''",
"''''ATRET7 '''''+A``!Ey'''''''''",
"''''VYE!z''''''''-Q_~Tq'''''''''",
"''5hJTQE>'''''''''N(~UJp''''''''",
"''JEJTII%'''''''''iQUIIRq'''''''",
"''JWSYIY&'''''''''pTPJLTe'''''''",
"'':uVY^^4'''''''''AETGn4''''''''",
"''''lJ^/F''''''''<RRIZ2'''''''''",
"''''VV!_)h'''''''KTYGVe'''''''''",
"'''M~BG)``H''''yYRTLBZSe''''''''",
"'''6^TvY_``)QRQ!TYPBbSvlTT''''''",
"''''q38lP__(RIRRTLnjlVlJ/)D'N3''",
"'''''''VznIQRPYIVvvvVIQ^Q!```R''",
"'''''''(EnalvnvkjBSBZTEC<>A)^N''",
"'''''''rYu+6ZVv*%vj;6TI%''OK!4''",
"''''''''''''LLi'''''zIM''''sUA7'",
"''''''''''''@#'''''cTJR''''FLLn'",
"'''''''''''''''''''9EVQK''mInBe'",
"''''''''''''''''''''&,vYRYLb1'''",
"''''''''''''''''''''''UvsalV,'''",
"''''''''''''''''''''''JY:@vk%'''",
"'''''''''''''''''''''''=''''''''",
"''''''''''''''''''''''''''''''''",
"''''''''''''''''''''''''''''''''"
};
