/* XPM */
static char * frameBR_xpm[] = {
"22 22 5 1",
" 	c None",
".	c #474747",
"+	c #484848",
"@	c #5F5E5E",
"#	c #767574",
"                ..++@#",
"                ..++@#",
"                ..++@#",
"                ..++@#",
"                ..++@#",
"                ..++@#",
"                ..++@#",
"                ..++@#",
"                ..++@#",
"                ..++@#",
"                ..++@#",
"                ..++@#",
"                ..++@#",
"                ..++@#",
"                ..++@#",
"                ..++@#",
"....................@#",
"....................@#",
"++++++++++++++++++++@#",
"++++++++++++++++++++@#",
"@@@@@@@@@@@@@@@@@@@@@#",
"######################"};
