/* XPM */
static char * frameITL_xpm[] = {
"6 28 46 1",
" 	c None",
".	c #767574",
"+	c #686867",
"@	c #5B5B5A",
"#	c #585858",
"$	c #555555",
"%	c #626261",
"&	c #4E4E4E",
"*	c #626160",
"=	c #4D4D4D",
"-	c #4C4C4C",
";	c #606060",
">	c #4B4B4B",
",	c #60605F",
"'	c #4A4A4A",
")	c #5F5E5E",
"!	c #484848",
"~	c #474747",
"{	c #5E5E5D",
"]	c #464646",
"^	c #5E5D5C",
"/	c #454545",
"(	c #5C5B5A",
"_	c #414141",
":	c #404040",
"<	c #595858",
"[	c #3C3C3C",
"}	c #3B3B3B",
"|	c #585857",
"1	c #3A3A3A",
"2	c #393939",
"3	c #383838",
"4	c #575656",
"5	c #373737",
"6	c #363636",
"7	c #565655",
"8	c #353535",
"9	c #343434",
"0	c #555454",
"a	c #333333",
"b	c #545454",
"c	c #323232",
"d	c #545352",
"e	c #313131",
"f	c #303030",
"g	c #565554",
"      ",
"      ",
"      ",
"      ",
"      ",
"      ",
"  ....",
" +@#$$",
".%&&&&",
".%&&&&",
".*=---",
".;>>>>",
".,''''",
".)!!!!",
".)!!~~",
".{]]]]",
".^////",
".(_:::",
".<[[}}",
".|1233",
".43355",
".43566",
".76688",
".76899",
".099aa",
".baccc",
".defff",
".g8888"};
