/* XPM */
static char * restoreI_xpm[] = {
"12 44 14 1",
" 	c None",
".	c #767574",
"+	c #565656",
"@	c #4E4E4E",
"#	c #383838",
"$	c #373737",
"%	c #333333",
"&	c #323232",
"*	c #313131",
"=	c #363636",
"-	c #C7C7C7",
";	c #353535",
">	c #343434",
",	c #303030",
"............",
"++++++++++++",
"@@@@@@@@@@@@",
"@@@@@@@@@@@@",
"############",
"$%%%%&&&***$",
"=%--------*=",
";%--------*;",
">%-%%&&&*-*>",
"%%-%####*-*%",
"&%-%$$$$*-*&",
",%-%====*-*,",
";%-%%&&&*-*;",
"#%--------*#",
"$%%%%&&&***$",
"============",
";;;;;;;;;;;;",
">>>>>>>>>>>>",
"%%%%%%%%%%%%",
"&&&&&&&&&&&&",
",,,,,,,,,,,,",
";;;;;;;;;;;;",
"............",
"++++++++++++",
"@@@@@@@@@@@@",
"@@@@@@@@@@@@",
"############",
"$%%%%&&&***$",
"=%--------*=",
";%--------*;",
">%-%%&&&*-*>",
"%%-%####*-*%",
"&%-%$$$$*-*&",
",%-%====*-*,",
";%-%%&&&*-*;",
"#%--------*#",
"$%%%%&&&***$",
"============",
";;;;;;;;;;;;",
">>>>>>>>>>>>",
"%%%%%%%%%%%%",
"&&&&&&&&&&&&",
",,,,,,,,,,,,",
";;;;;;;;;;;;"};
