/* XPM */
static char * titleAM_xpm[] = {
"3 22 21 1",
" 	c None",
".	c #767574",
"+	c #565656",
"@	c #4E4E4E",
"#	c #4D4D4D",
"$	c #4B4B4B",
"%	c #4A4A4A",
"&	c #484848",
"*	c #474747",
"=	c #464646",
"-	c #454545",
";	c #404040",
">	c #3B3B3B",
",	c #383838",
"'	c #373737",
")	c #363636",
"!	c #353535",
"~	c #343434",
"{	c #333333",
"]	c #323232",
"^	c #303030",
"...",
"+++",
"@@@",
"@@@",
"###",
"$$$",
"%%%",
"&&&",
"***",
"===",
"---",
";;;",
">>>",
",,,",
"'''",
")))",
"!!!",
"~~~",
"{{{",
"]]]",
"^^^",
"!!!"};
