/* XPM */
static char * menubg_xpm[] = {
"2 2 3 1",
" 	c None",
".	c #632529",
"+	c #905353",
".+",
"+."};
