/* XPM */
static char * taskbarbg_xpm[] = {
"8 25 66 1",
" 	c None",
".	c #5A654B",
"+	c #5B654A",
"@	c #5A664A",
"#	c #5A654A",
"$	c #5B664A",
"%	c #5A644A",
"&	c #5A6549",
"*	c #59654A",
"=	c #596449",
"-	c #596549",
";	c #59644A",
">	c #586449",
",	c #596349",
"'	c #586349",
")	c #576349",
"!	c #586348",
"~	c #576348",
"{	c #586249",
"]	c #576248",
"^	c #576249",
"/	c #566248",
"(	c #566348",
"_	c #566247",
":	c #556247",
"<	c #566148",
"[	c #556148",
"}	c #556147",
"|	c #566147",
"1	c #556047",
"2	c #546047",
"3	c #546147",
"4	c #546146",
"5	c #536047",
"6	c #546046",
"7	c #536046",
"8	c #535F46",
"9	c #526046",
"0	c #525F46",
"a	c #515E46",
"b	c #515E45",
"c	c #515F45",
"d	c #505D45",
"e	c #505E45",
"f	c #505E44",
"g	c #505D44",
"h	c #505C45",
"i	c #4F5D44",
"j	c #4F5D45",
"k	c #4E5C44",
"l	c #4F5C44",
"m	c #4E5D44",
"n	c #4D5C43",
"o	c #4D5C44",
"p	c #4E5B43",
"q	c #4D5B44",
"r	c #4D5B43",
"s	c #4D5A43",
"t	c #4C5B43",
"u	c #4C5A43",
"v	c #4C5A42",
"w	c #4B5943",
"x	c #4B5A42",
"y	c #4B5A43",
"z	c #4B5942",
"A	c #4A5942",
".+@#+++$",
"#%###&#*",
"==-=-=;;",
">>=>===,",
"'')'>>!!",
"~{)]^)~^",
"]]//~/](",
"__//::/<",
":[:<}[|}",
"1123[1}2",
"24562265",
"78527725",
"89090088",
"0a000b0c",
"bbccbaaa",
"dbededdb",
"efedffgd",
"hiiidiji",
"klmmklmk",
"knkopoqk",
"rqqrnrrr",
"srttrrsr",
"uuvvtuut",
"wxyxxxxx",
"zzxxxAxz"};
