/* XPM */
static char *ooimpress[] = {
/* columns rows colors chars-per-pixel */
"16 16 196 2",
"   c #122D39",
".  c #13303D",
"X  c #1F333A",
"o  c #383129",
"O  c #223339",
"+  c #653819",
"@  c #473B2F",
"#  c #784018",
"$  c #7C431C",
"%  c #6C4223",
"&  c #153443",
"*  c #153544",
"=  c #183B4C",
"-  c #1A4052",
";  c #1C4457",
":  c #22414D",
">  c #25424F",
",  c #204251",
"<  c #264452",
"1  c #2D4550",
"2  c #294857",
"3  c #294957",
"4  c #244B5D",
"5  c #2B4C5B",
"6  c #35525E",
"7  c #2E5161",
"8  c #305465",
"9  c #315668",
"0  c #5B6A70",
"q  c #5D6D73",
"w  c #62737A",
"e  c #63747A",
"r  c #6C797D",
"t  c #853500",
"y  c #8D3900",
"u  c #A74400",
"i  c #A94401",
"p  c #AA4401",
"a  c #B04700",
"s  c #B74A01",
"d  c #995321",
"f  c #B36A39",
"g  c #C14E00",
"h  c #C55001",
"j  c #C85001",
"k  c #C85101",
"l  c #C6560A",
"z  c #D15501",
"x  c #D25501",
"c  c #D05603",
"v  c #DC5901",
"b  c #DF5A01",
"n  c #D15A0A",
"m  c #C95D14",
"M  c #E75D00",
"N  c #E85E00",
"B  c #E85F01",
"V  c #C7621D",
"C  c #D56112",
"Z  c #DE6412",
"A  c #EA6104",
"S  c #E96206",
"D  c #EA6307",
"F  c #F06001",
"G  c #F86401",
"H  c #F96501",
"J  c #F96A0A",
"K  c #E96C18",
"L  c #EA6C18",
"P  c #D7712C",
"I  c #EB7729",
"U  c #F57F2F",
"Y  c #F97D29",
"T  c #8F7B6B",
"R  c #CF7C45",
"E  c #D37D43",
"W  c #DD7F40",
"Q  c #E7803A",
"!  c #F9863A",
"~  c #FA873A",
"^  c #B88E71",
"/  c #C68153",
"(  c #D18C5D",
")  c #D98C59",
"_  c #E58240",
"`  c #FA8B40",
"'  c #FA924B",
"]  c #FA934D",
"[  c #EF9152",
"{  c #E1915A",
"}  c #E3915B",
"|  c #E8935A",
" . c #F09557",
".. c #C68A61",
"X. c #D19770",
"o. c #DA9B70",
"O. c #F19D65",
"+. c #F69F65",
"@. c #DDA179",
"#. c #FBA165",
"$. c #E7A071",
"%. c #E8A67A",
"&. c #E9A77B",
"*. c #E9A87D",
"=. c #F0AC7F",
"-. c #F3AE7F",
";. c #FAAF7E",
":. c #FAB07E",
">. c #FBB07E",
",. c #677980",
"<. c #6C7F87",
"1. c #718085",
"2. c #758186",
"3. c #71858D",
"4. c #738890",
"5. c #8C9093",
"6. c #899195",
"7. c #81959E",
"8. c #8B969A",
"9. c #BEA08B",
"0. c #8D9AA0",
"q. c #8F9FA5",
"w. c #939FA5",
"e. c #99A7AC",
"r. c #ADACA9",
"t. c #AFB3B4",
"y. c #A4B3BA",
"u. c #A8B3B8",
"i. c #A9B5BC",
"p. c #ACB7BC",
"a. c #B5BBBC",
"s. c #D9AE91",
"d. c #D5B39C",
"f. c #EFAF84",
"g. c #E4AE8A",
"h. c #E1AE8C",
"j. c #F0AF84",
"k. c #E9B088",
"l. c #EEB288",
"z. c #F6B589",
"x. c #F8B98E",
"c. c #E6BB9E",
"v. c #F4B890",
"b. c #F9BC93",
"n. c #F0BE9C",
"m. c #D6BCAA",
"M. c #E8BFA4",
"N. c #F8C099",
"B. c #FCC199",
"V. c #F9C29D",
"C. c #E9C1A5",
"Z. c #ECC7AE",
"A. c #F0C9AE",
"S. c #F7CBAD",
"D. c #F4CAAE",
"F. c #FACAA9",
"G. c #E6CBB9",
"H. c #E4CBBA",
"J. c #EED2BF",
"K. c #F8D6BE",
"L. c #FBD7BE",
"P. c #FCD8BE",
"I. c #C2C8CA",
"U. c #C8C8C8",
"Y. c #D9CBC2",
"T. c #D4CFCA",
"R. c #DCD4CF",
"E. c #C5CED1",
"W. c #C6D0D4",
"Q. c #CBD4D9",
"!. c #CFD5D8",
"~. c #D7DADB",
"^. c #D8D8D8",
"/. c #D8DBDC",
"(. c #D9DCDD",
"). c #E4D3C7",
"_. c #E5D4C9",
"`. c #E6D8CF",
"'. c #F1D6C3",
"]. c #FADAC4",
"[. c #FCDBC4",
"{. c #FDDBC4",
"}. c #F0DBCD",
"|. c #E1D9D4",
" X c #E8DDD6",
".X c #E0E0DE",
"XX c #EDE1D9",
"oX c #E8E2DE",
"OX c #EFE5DD",
"+X c #ECE4DF",
"@X c #EFE5DF",
"#X c #F2E6DD",
"$X c #DFE2E3",
"%X c #EBEBEA",
"&X c gray92",
"*X c None",
/* pixels */
"a.e.q.0.9.:.;.-.j.f.=.;.>.>.*.*X",
"~.Q.W.E.T.'.}.#X X_.J.L.P.P.K.H.",
"(.!./.$X.XOX@X`.XX+X|.).[.{.].G.",
"I.p.i.y.r.d.m.oX%XY.C.n.B.B.N.s.",
"u.7.w.t.U.^.&XR.X.+.#.#.#.#.O...",
"8.6.5.2.T ( ^ / ! ~ ~ ~ ~ ~ Q f ",
"r 1 4 , d J J J J J J J J J n *X",
"4.9 ; & V ` ] ] ] ] ' Y H G g *X",
"3.8 - O z.V.x.x.x.x.b.F.U F u *X",
"<.7 = @ S.[ K L L L I v. .b y *X",
",.5 & % D._ v v v v Z l.| j *X*X",
"e 2 . $ A.W z x x x C k.{ s *X*X",
"q <   # Z.E h h h h m g.) p *X*X",
"0 >   + c.h.o.o.o.o.@.M.R i *X*X",
"w 3 * o P $.&.&.&.&.%.} c k t *X",
"1.6 : X l A D D D D S B N M a *X"
};
