/* XPM */
static char *stop[] = {
/* columns rows colors chars-per-pixel */
"16 16 112 2",
"   c black",
".  c #010000",
"X  c #070000",
"o  c #0E0000",
"O  c #180000",
"+  c #1C0000",
"@  c #1D0000",
"#  c #161616",
"$  c gray9",
"%  c #240000",
"&  c #260000",
"*  c #2A0000",
"=  c #2C0000",
"-  c #320000",
";  c #350000",
":  c #390000",
">  c #3A0000",
",  c #3D0000",
"<  c #3E0000",
"1  c #312828",
"2  c #382828",
"3  c #392828",
"4  c #410000",
"5  c #420000",
"6  c #480000",
"7  c #4C0000",
"8  c #4D0000",
"9  c #4E0000",
"0  c #4F0000",
"q  c #500000",
"w  c #510000",
"e  c #550000",
"r  c #560000",
"t  c #5B0000",
"y  c #5E0000",
"u  c #650000",
"i  c #660000",
"p  c #6D0000",
"a  c #700000",
"s  c #710000",
"d  c #770000",
"f  c #780000",
"g  c #7B0000",
"h  c #602424",
"j  c #6D2424",
"k  c gray26",
"l  c #434343",
"z  c #4A4545",
"x  c #4E4545",
"c  c #5D4545",
"v  c #585858",
"b  c #604545",
"n  c #684545",
"m  c #625858",
"M  c #635858",
"N  c #715858",
"B  c #755858",
"V  c #676767",
"C  c #686868",
"Z  c gray42",
"A  c #736767",
"S  c #776767",
"D  c #767676",
"F  c gray48",
"G  c #800000",
"H  c #820000",
"J  c #850000",
"K  c #880000",
"L  c #8D0000",
"P  c #8E0000",
"I  c #910000",
"U  c #930000",
"Y  c #950000",
"T  c #980000",
"R  c #9C0000",
"E  c #9D0000",
"W  c #9F0000",
"Q  c #A10000",
"!  c #A30000",
"~  c #A60000",
"^  c #A80000",
"/  c #AE0000",
"(  c #B10000",
")  c #B20000",
"_  c #B60000",
"`  c #B70000",
"'  c #B80000",
"]  c #892828",
"[  c #8B2828",
"{  c #902828",
"}  c #952828",
"|  c #854545",
" . c #8A4545",
".. c #9A5858",
"X. c #AB4545",
"o. c #B24545",
"O. c #A15858",
"+. c #AD5858",
"@. c #B35858",
"#. c #8C7A7A",
"$. c #8E7A7A",
"%. c #9D7A7A",
"&. c #9E7A7A",
"*. c #A36767",
"=. c #A86767",
"-. c #AD6767",
";. c #AE6767",
":. c #BA6767",
">. c #BC6767",
",. c #808080",
"<. c #888888",
"1. c None",
/* pixels */
"1.1.1.1.1.1.1.1.1.1.1.1.1.1.1.1.",
"1.1.1.1.1.1.1.1.1.1.1.1.1.1.1.1.",
"1.1.C ,.<.<.<.<.<.<.<.<.,.Z 1.1.",
"1.1.D F F F $.&.%.#.F F F D 1.1.",
"1.1.V V S =.:.-.;.>.*.A V V 1.1.",
"1.1.v v O.+.N m M B @...v v 1.1.",
"1.1.l n X.b x  .| z n o.c k 1.1.",
"1.1.$ j [ 1 3 { ] 1 2 } h # 1.1.",
"1.1.. y g O & K G @ @ J 9   1.1.",
"1.1.o w T , > Y P - 5 Q < X 1.1.",
"1.1.% ; ~ Y e q 0 r E W * + 1.1.",
"1.1.; 4 s _ / R E ( ) i : = 1.1.",
"1.1.6 r i f ^ ' ` ! a y 8 < 1.1.",
"1.1.r u d H L U I K g p t 7 1.1.",
"1.1.1.1.1.1.1.1.1.1.1.1.1.1.1.1.",
"1.1.1.1.1.1.1.1.1.1.1.1.1.1.1.1."
};
