/* XPM */
static char * taskbuttonactive_xpm[] = {
"121 23 191 2",
"  	c None",
". 	c #FCFBF9",
"+ 	c #FDFCFA",
"@ 	c #FBFBFB",
"# 	c #FDFDFD",
"$ 	c #FCFCFC",
"% 	c #FBFBFD",
"& 	c #FAFBFD",
"* 	c #FAFBFC",
"= 	c #FBF9FA",
"- 	c #FCFAFB",
"; 	c #FBFBFC",
"> 	c #FAFAFC",
", 	c #FBF9FB",
"' 	c #FBFAFC",
") 	c #FBFAFB",
"! 	c #FCFAFC",
"~ 	c #FCFBFC",
"{ 	c #FCFBFB",
"] 	c #636363",
"^ 	c #636361",
"/ 	c #5A5A59",
"( 	c #525252",
"_ 	c #525253",
": 	c #535254",
"< 	c #535354",
"[ 	c #535252",
"} 	c #535253",
"| 	c #545355",
"1 	c #525254",
"2 	c #525153",
"3 	c #535355",
"4 	c #535153",
"5 	c #595959",
"6 	c #686866",
"7 	c #60605E",
"8 	c #535351",
"9 	c #585856",
"0 	c #5D5D5B",
"a 	c #5D5F5D",
"b 	c #5F5E5F",
"c 	c #605E5F",
"d 	c #5F5E5E",
"e 	c #5F5F5F",
"f 	c #605F60",
"g 	c #5F5D5E",
"h 	c #605E5E",
"i 	c #615F60",
"j 	c #5F5F5E",
"k 	c #5E5E5E",
"l 	c #5D5D5D",
"m 	c #585858",
"n 	c #5A5A58",
"o 	c #5C5C5A",
"p 	c #656565",
"q 	c #6A6A6A",
"r 	c #6B6D6C",
"s 	c #6E6D6D",
"t 	c #6E6C6D",
"u 	c #6F6D6D",
"v 	c #6F6E6C",
"w 	c #6E6E6C",
"x 	c #6E6E6E",
"y 	c #6F6F6F",
"z 	c #6F6F6E",
"A 	c #6F6E6D",
"B 	c #6E6E6D",
"C 	c #706F6D",
"D 	c #6E6D6E",
"E 	c #6F6D6E",
"F 	c #6F6E6F",
"G 	c #6F6E6E",
"H 	c #706E6D",
"I 	c #6C6C6C",
"J 	c #6D6C6D",
"K 	c #515150",
"L 	c #585857",
"M 	c #666667",
"N 	c #6F6F71",
"O 	c #767677",
"P 	c #777779",
"Q 	c #777777",
"R 	c #777776",
"S 	c #787777",
"T 	c #787878",
"U 	c #787877",
"V 	c #787876",
"W 	c #787776",
"X 	c #777775",
"Y 	c #757575",
"Z 	c #4F4F4F",
"` 	c #6C6C6E",
" .	c #767678",
"..	c #7C7C7E",
"+.	c #7D7D7F",
"@.	c #7D7D7D",
"#.	c #7D7D7C",
"$.	c #7C7C7C",
"%.	c #7D7D7B",
"&.	c #767676",
"*.	c #5A5A5A",
"=.	c #6E6E70",
"-.	c #78787A",
";.	c #7C7D7F",
">.	c #7E7E7F",
",.	c #7E7E7E",
"'.	c #7E7E7D",
").	c #7D7D7E",
"!.	c #7D7E7E",
"~.	c #7D7E7F",
"{.	c #4F4F4E",
"].	c #595958",
"^.	c #6D6D6E",
"/.	c #767779",
"(.	c #7A7B7D",
"_.	c #7B7C7D",
":.	c #7B7C7C",
"<.	c #7B7B7B",
"[.	c #7B7B7C",
"}.	c #7B7C7E",
"|.	c #4E4E4C",
"1.	c #6B6B6B",
"2.	c #747476",
"3.	c #78797A",
"4.	c #797979",
"5.	c #77787A",
"6.	c #787979",
"7.	c #78797B",
"8.	c #747474",
"9.	c #4F4F4D",
"0.	c #575755",
"a.	c #717171",
"b.	c #757576",
"c.	c #747576",
"d.	c #757676",
"e.	c #757577",
"f.	c #747577",
"g.	c #4D4D4B",
"h.	c #555553",
"i.	c #656563",
"j.	c #717173",
"k.	c #717172",
"l.	c #707173",
"m.	c #6D6D6D",
"n.	c #525250",
"o.	c #5B5B59",
"p.	c #616362",
"q.	c #666867",
"r.	c #676868",
"s.	c #676767",
"t.	c #676768",
"u.	c #676769",
"v.	c #676668",
"w.	c #676566",
"x.	c #666666",
"y.	c #676667",
"z.	c #666566",
"A.	c #676666",
"B.	c #686868",
"C.	c #676567",
"D.	c #626262",
"E.	c #545452",
"F.	c #5E5F5D",
"G.	c #6A6C6B",
"H.	c #6A6A6B",
"I.	c #6C6A6B",
"J.	c #6B6A6B",
"K.	c #504E4E",
"L.	c #545353",
"M.	c #6B6B6D",
"N.	c #6B6B6A",
"O.	c #6C6C6B",
"P.	c #6C6B6B",
"Q.	c #6C6B6C",
"R.	c #6C6C6A",
"S.	c #6B6B69",
"T.	c #6B6B6C",
"U.	c #514F50",
"V.	c #555455",
"W.	c #6A6B6D",
"X.	c #504F50",
"Y.	c #545454",
"Z.	c #606060",
"`.	c #696969",
" +	c #4E4E4E",
".+	c #616161",
"++	c #555555",
"@+	c #707070",
"#+	c #4D4D4D",
"$+	c #646464",
"%+	c #727272",
". . + @ # $ % % % & * = - = - ; & > = - % & & > = - & & , ' % % & & = % % & & > = - % % & & > ) % % & & ) = ! % % & & ) - ! % % & & , - ; % % & & = - ; % % & & = - ; % % & & = - ~ % % % & & = ; % & & > = - % % & & > , % % & & ) = { $ @ @ $ @ ",
"@ . + @ # $ % % % & * = - = - ; & > = - % & & > = - & & , ' % % & & = % % & & > = - % % & & > ) % % & & ) = ! % % & & ) - ! % % & & , - ; % % & & = - ; % % & & = - ; % % & & = - ~ % % % & & = ; % & & > = - % % & & > , % % & & ) = { $ @ @ $ @ ",
"@ ] ^ / ( ( _ : < _ ( ( [ ( [ } _ ( ( [ | : _ ( ( } 1 ( ( 2 : < _ ( ( 2 < : _ ( ( [ 2 3 : _ ( ( _ | 1 _ ( ( } 1 3 1 _ ( ( 4 1 3 1 ( ( [ 2 1 3 _ ( ( [ 2 : < _ ( ( [ 2 : < _ ( ( [ ( _ : < _ ( ( 2 < : _ ( ( [ 2 < : _ ( ( _ | : _ ( ( [ ( ( 5 ] @ ",
"6 7 8 9 0 a b c c d e e e e e d d e e e f d d e e e g e e c c c d e e c c c d e e e c c h d e e c i g d e e e c c g j e e b c c g e e e b c c g e e e b c c g e e e c c c d e e e k d c c d e e c c c d e e e c c c d e e c i g d e e e k l m 6 7 ",
"n n o p q r s t u v w x y x x z v w x y t A v B x z C v B D t s v w x E t u v w x F E t A v w D t t A v B x G t t H v B x G t t C v B x G t t A v B x E t s v v B x E t s v w x x I J t s v v x D t u v w x y E t u v w D E t A v B x x I q p n n ",
"K L M N O P Q R R S S T Q T Q Q S U T Q R S S T T Q S Q T V R R S S T W R S S U T Q R R S S T U R R S S T Q R R R S S T Q R R R S Q T Q R R R S Q T Q R R R S S T Q R R R S S T Q T S R R S S T W R R S U T Q R R S S U T R X S S T T Q Q Y y K L ",
"Z 5 `  ...+.@.#.#.@.@.@.$.@.@.@.@.@.@.$.%.@.@.@.@.$.@.@.@.@.#.#.@.@.@.@.#.@.@.@.@.$.@.#.@.@.@.@.@.%.@.@.@.@.#.#.%.@.@.@.@.#.#.#.@.@.@.@.@.#.#.@.@.@.$.@.#.#.@.@.@.$.@.#.#.@.@.@.$.@.@.#.#.@.@.@.@.#.#.@.@.@.$.@.#.@.@.@.@.@.%.@.@.@.@.@.@.$.&.Z 5 ",
"Z *.=.-.;.>.>.,.'.@.,.@.).).).).@.,.).+.'.@.,.,.).).@.,.@.!.,.'.@.,.@.~.,.@.,.,.).+.~.'.@.,.,.!.~.'.@.,.,.).~.~.'.@.,.,.).~.!.'.@.,.,.).~.!.'.@.,.@.).~.,.'.@.,.@.).~.,.'.@.,.@.).,.~.,.'.@.,.@.~.,.'.@.,.).+.~.,.@.,.,.!.~.'.@.,.,.).~.,.@.T Z *.",
"{.].^./.(.$._.:.<.<.$.$._.:._.[.<.$.$.}.:.<.<.$.:._.<.$.$._._.<.<.$.$._.:.<.<.$.:.}.}.:.<.<.$.:._.$.<.<.$._.}._.$.<.$.$._.}._.$.<.$.$._.}._.<.<.$.$._.}._.<.<.$.$._.}._.<.<.$.$._.:._._.<.<.$.$._.:.<.<.$.:.}.}.:.<.<.$.:._.$.<.<.$.:._.$.<.Q {.].",
"|.9 1.2.3.4.3.3.4.4.4.4.-.4.3.3.4.4.4.5.4.4.4.4.6.-.4.4.4.3.3.4.4.4.4.3.4.4.4.4.4.5.7.4.4.4.4.4.3.4.4.4.4.3.-.3.4.4.4.4.3.7.3.4.4.4.4.3.7.3.4.4.4.4.3.7.3.4.4.4.4.3.7.3.4.4.4.4.-.3.3.3.4.4.4.4.3.6.4.4.4.4.5.7.4.4.4.4.4.7.4.4.4.4.3.-.4.T 8.|.9 ",
"9.0.6 a.Y Y b.b.&.&.Y &.c.d.c.b.&.Y &.2.Y &.&.&.b.c.&.Y &.e.b.&.&.Y &.e.b.&.&.Y &.2.e.b.&.&.&.&.e.Y &.Y &.b.f.b.Y &.Y &.b.f.b.Y &.Y &.c.f.b.Y &.Y &.c.e.b.Y &.Y &.c.e.b.&.&.Y &.c.f.e.b.Y &.Y &.e.b.&.&.Y &.2.e.b.&.&.Y &.e.Y &.Y &.b.c.Y 8.a.9.0.",
"g.h.i.x a.a.a.a.a.a.a.a.j.k.k.k.a.a.a.j.k.a.a.a.k.j.a.a.a.a.a.a.a.a.a.a.a.a.a.a.k.j.a.a.a.a.a.a.a.a.a.a.a.k.k.a.a.a.a.a.k.k.a.a.a.a.a.k.k.a.a.a.a.a.k.k.a.a.a.a.a.j.k.a.a.a.a.a.j.l.k.a.a.a.a.a.a.a.a.a.a.a.j.a.a.a.a.a.a.a.a.a.a.a.k.k.a.a.m.g.h.",
"9.n.o.p.q.r.s.s.t.u.v.w.x.w.x.M u.v.w.x.s.t.u.y.z.x.u.u.w.A.s.t.u.t.w.s.s.t.u.v.w.x.s.B.t.u.y.w.s.B.u.u.y.z.x.s.B.u.u.C.z.x.s.B.u.u.w.x.x.s.t.u.u.w.x.x.s.t.u.u.w.x.M s.t.u.t.w.x.x.x.s.t.u.t.w.y.s.t.u.v.w.x.s.s.t.u.v.w.s.B.t.u.y.z.x.s.s.D.9.n.",
"9.E.F.s.G.1.1.1.1.H.1.I.J.I.I.J.H.1.I.J.1.H.H.J.I.J.q 1.J.J.1.1.H.1.I.1.1.H.H.J.I.J.1.1.H.H.J.J.1.1.q 1.J.I.J.1.1.q 1.J.I.J.1.1.q 1.J.I.J.1.1.H.1.I.J.J.1.1.H.1.I.J.J.1.1.H.1.I.J.J.1.1.1.H.1.I.1.1.H.H.J.I.J.1.1.H.H.J.J.1.1.H.1.J.I.J.1.1.s.9.E.",
"K.L.j s.I M.1.N.N.O.1.P.I P.Q.O.O.1.P.I N.N.1.1.Q.I R.1.P.N.N.N.O.1.P.N.S.N.O.1.P.I N.S.N.1.1.P.N.S.R.1.P.Q.O.N.S.R.1.P.Q.O.N.S.R.1.P.Q.P.N.N.R.1.P.Q.P.N.N.O.1.P.I P.N.N.O.1.P.I T.1.N.N.O.1.P.N.N.N.O.1.P.I N.S.N.O.1.P.N.S.N.1.P.Q.I I I s.K.L.",
"U.V.e x.I T.N.S.S.N.N.1.1.1.1.N.N.N.1.1.S.S.N.N.1.1.S.N.N.S.S.S.N.N.q S.S.S.N.N.1.1.S.S.S.N.N.N.S.S.S.N.N.1.1.S.S.S.N.N.1.N.S.S.S.N.N.1.N.S.S.N.N.N.1.N.S.S.N.N.q 1.N.S.S.N.N.q 1.W.1.S.S.N.N.q S.S.S.N.N.1.1.S.S.S.N.N.N.S.S.S.N.N.1.1.1.I s.U.V.",
"X.V.f x.I T.N.N.N.N.N.1.1.1.1.N.N.N.1.1.N.N.N.N.1.1.S.N.1.N.N.N.N.N.1.N.N.N.N.N.1.1.N.N.N.N.N.1.N.N.S.N.N.1.1.N.N.S.N.1.1.N.N.N.S.N.1.1.N.N.N.S.N.1.1.N.N.N.S.N.1.1.N.N.N.N.N.1.1.T.1.N.N.S.N.1.N.N.N.N.N.1.1.N.N.N.N.N.1.N.N.S.N.N.1.1.1.1.s.X.V.",
"Z Y.Z.B.I I I I 1.1.I I I I I 1.1.I I I I 1.1.I I 1.1.I I I I 1.1.I I I I 1.1.I I I I I 1.1.I I I I 1.1.I I I I 1.1.1.I I I I 1.1.1.I I I I 1.1.I I I I I 1.1.I I I I I 1.1.I I I I I I 1.1.I I I I 1.1.I I I I I 1.1.I I I I 1.1.I I I I I `.Z Y.",
" +Y..+q m.m.x x m.m.m.m.m.m.m.m.m.m.m.m.m.m.m.m.m.m.m.m.m.x x m.m.m.m.x m.m.m.m.m.m.x m.m.m.m.m.x m.m.m.m.m.x x m.m.m.m.m.x x m.m.m.m.m.x x m.m.m.m.m.x x m.m.m.m.m.x x m.m.m.m.m.m.x x m.m.m.m.x m.m.m.m.m.m.x m.m.m.m.m.x m.m.m.m.m.m.m.m.q  +Y.",
" +++D.q x y y x x m.x x x x x x m.x x x x m.x x x x m.x x y y x m.x x y x m.x x x x y x m.x x x y x m.x x x x y x m.x x x x y x m.x x x y y x m.x x x y y x m.x x x y y x m.x x x x y y x m.x x y x x m.x x x y x m.x x x y x m.x x x x x m.q  +++",
" +++] 1.@+y @+@+@+@+@+@+@+@+@+@+@+@+@+@+@+@+@+@+@+@+@+@+@+@+@+@+@+@+@+@+@+@+@+@+@+@+@+@+@+@+@+@+@+@+@+@+@+@+@+@+@+@+@+@+@+@+@+@+@+@+@+@+@+@+@+@+@+@+@+@+@+@+@+@+@+@+@+@+@+@+@+@+@+@+@+@+@+@+@+@+@+@+@+@+@+@+@+@+@+@+@+@+@+@+@+@+@+@+@+@+@+@+1. +++",
"#+++$+I a.a.a.a.a.a.a.%+%+%+%+a.a.a.%+%+a.a.a.a.%+a.a.a.a.a.a.a.a.a.%+a.a.a.a.a.%+a.a.a.a.a.a.a.a.a.a.a.a.%+a.a.a.a.a.a.%+a.a.a.a.a.a.%+a.a.a.a.a.a.%+a.a.a.a.a.a.%+a.a.a.a.a.%+%+a.a.a.a.a.a.a.a.a.a.a.a.%+%+a.a.a.a.a.a.a.a.a.a.a.%+a.a.a.I #+++",
"#+++p x %+%+a.a.a.a.a.a.a.a.a.a.a.a.a.a.a.a.a.a.a.a.a.a.a.a.a.a.a.a.a.a.a.a.a.a.a.a.a.a.a.a.a.a.a.a.a.a.a.a.a.a.a.a.a.a.a.a.a.a.a.a.a.a.a.a.a.a.a.a.a.a.a.a.a.a.a.a.a.a.a.a.a.a.a.a.a.a.a.a.a.a.a.a.a.a.a.a.a.a.a.a.a.a.a.a.a.a.a.a.a.a.%+a.x #+++"};
