/* XPM */
static char * taskbarbg_xpm[] = {
"12 23 10 1",
" 	c None",
".	c #FCFCFC",
"+	c #F9F9F9",
"@	c #F3F3F3",
"#	c #F0F0F0",
"$	c #EFEFEF",
"%	c #DBDBDB",
"&	c #E7E7E7",
"*	c #E6E6E6",
"=	c #E5E5E5",
"............",
"++++++++++++",
"@@@@@@@@@@@@",
"############",
"############",
"############",
"############",
"############",
"############",
"############",
"$$$$$$$$$$$$",
"%%%%%%%%%%%%",
"&&&&&&&&&&&&",
"************",
"************",
"============",
"************",
"&&&&&&&&&&&&",
"************",
"************",
"************",
"************",
"************"};
