/* XPM */
static char * closeA_xpm[] = {
"18 48 199 2",
"  	c None",
". 	c #FFFFFF",
"+ 	c #BEBEBE",
"@ 	c #787878",
"# 	c #3C3C3C",
"$ 	c #121212",
"% 	c #8F8F8F",
"& 	c #292929",
"* 	c #141414",
"= 	c #444444",
"- 	c #5E5E5E",
"; 	c #8D8D8D",
"> 	c #0D0D0D",
", 	c #222222",
"' 	c #686A6D",
") 	c #7B8082",
"! 	c #8E8E8E",
"~ 	c #BDBDBD",
"{ 	c #04090E",
"] 	c #43494F",
"^ 	c #6C7279",
"/ 	c #6B7279",
"( 	c #040A0E",
"_ 	c #FEFEFE",
": 	c #838383",
"< 	c #000000",
"[ 	c #1C262F",
"} 	c #424A54",
"| 	c #5E656E",
"1 	c #696E77",
"2 	c #686E76",
"3 	c #5E646B",
"4 	c #414A52",
"5 	c #1A242D",
"6 	c #848484",
"7 	c #FCFDFC",
"8 	c #414141",
"9 	c #08131C",
"0 	c #2F3B47",
"a 	c #6A747E",
"b 	c #79818A",
"c 	c #303A46",
"d 	c #FBFAFB",
"e 	c #131313",
"f 	c #26313B",
"g 	c #47515C",
"h 	c #4A525F",
"i 	c #26323B",
"j 	c #F9F8F9",
"k 	c #101010",
"l 	c #39454F",
"m 	c #5B646F",
"n 	c #7D878F",
"o 	c #8B939B",
"p 	c #969CA5",
"q 	c #9AA2AC",
"r 	c #9BA3AD",
"s 	c #98A1A8",
"t 	c #8E969F",
"u 	c #7E8790",
"v 	c #5D6772",
"w 	c #3C4650",
"x 	c #F6F5F6",
"y 	c #3E3E3E",
"z 	c #444C55",
"A 	c #6A737D",
"B 	c #6C7781",
"C 	c #464D56",
"D 	c #F3F3F3",
"E 	c #7B7B7B",
"F 	c #3B424B",
"G 	c #717B83",
"H 	c #8A959C",
"I 	c #98A4AA",
"J 	c #A4ACB4",
"K 	c #ACB3BE",
"L 	c #ADB4C0",
"M 	c #A8B1B9",
"N 	c #9DA7AD",
"O 	c #8C959D",
"P 	c #747E87",
"Q 	c #3C474F",
"R 	c #F0F0F1",
"S 	c #C0C0C0",
"T 	c #454C54",
"U 	c #6A747C",
"V 	c #929CA0",
"W 	c #A7B0B7",
"X 	c #B3BBC3",
"Y 	c #BCC3CC",
"Z 	c #BEC6CD",
"` 	c #B6BFC7",
" .	c #AAB3BB",
"..	c #989EA6",
"+.	c #6F787F",
"@.	c #484F55",
"#.	c #BFBFBF",
"$.	c #EDEEEF",
"%.	c #E9E9E9",
"&.	c #94969A",
"*.	c #4E555F",
"=.	c #7F878F",
"-.	c #A6ACB5",
";.	c #BAC1C7",
">.	c #C6CBCB",
",.	c #C7CBCB",
"'.	c #BCC5C7",
").	c #ABB3B9",
"!.	c #899198",
"~.	c #535C63",
"{.	c #96989B",
"].	c #EBEBEC",
"^.	c #ECECEC",
"/.	c #959A9B",
"(.	c #585F65",
"_.	c #727981",
":.	c #9BA3A6",
"<.	c #AEB4B3",
"[.	c #B0B4B3",
"}.	c #9FA6AA",
"|.	c #7B848C",
"1.	c #5F676E",
"2.	c #969799",
"3.	c #E8E9E9",
"4.	c #C7C8C9",
"5.	c #8E9297",
"6.	c #717679",
"7.	c #646A6A",
"8.	c #656B6A",
"9.	c #787E81",
"0.	c #93979C",
"a.	c #C8C9CA",
"b.	c #E6E6E7",
"c.	c #E7E7E7",
"d.	c #EEEEEE",
"e.	c #EFEFEF",
"f.	c #EBEBEB",
"g.	c #E4E4E5",
"h.	c #E3E3E4",
"i.	c #B2B2B2",
"j.	c #FFFDFE",
"k.	c #FCFDFD",
"l.	c #F2F2F2",
"m.	c #FDFDFB",
"n.	c #FDFBFC",
"o.	c #F4F4F4",
"p.	c #FDFFFE",
"q.	c #FDFDFD",
"r.	c #989A9C",
"s.	c #ADADAF",
"t.	c #353A3F",
"u.	c #2C3033",
"v.	c #969A9E",
"w.	c #9DA0A1",
"x.	c #9BA0A1",
"y.	c #959A9E",
"z.	c #000004",
"A.	c #060C15",
"B.	c #050C15",
"C.	c #F1F1F1",
"D.	c #454E5A",
"E.	c #00030D",
"F.	c #070F19",
"G.	c #454F59",
"H.	c #EAEAEA",
"I.	c #545E6A",
"J.	c #626C75",
"K.	c #121C23",
"L.	c #030D14",
"M.	c #646F78",
"N.	c #56626C",
"O.	c #313942",
"P.	c #182029",
"Q.	c #313A43",
"R.	c #7B848E",
"S.	c #6B7680",
"T.	c #424A55",
"U.	c #2C333F",
"V.	c #39404B",
"W.	c #39404C",
"X.	c #434A56",
"Y.	c #515963",
"Z.	c #3F4751",
"`.	c #4A525C",
" +	c #4B535D",
".+	c #7D8689",
"++	c #585E5E",
"@+	c #585E5F",
"#+	c #82878D",
"$+	c #ECEDEE",
"%+	c #F5F1F0",
"&+	c #F2F2F0",
"*+	c #F2F1EF",
"=+	c #F2F2F4",
"-+	c #F0F0EE",
";+	c #F0F2F1",
">+	c #F0EEEF",
",+	c #F0F0F2",
"'+	c #F1F0EE",
". . . . . . . . . . . . . . . . . . ",
". . . . . . . . . . . . . . . . . . ",
". . . . . . . . . . . . . . . . . . ",
". . . . . . . . . . . . . . . . . . ",
". . . . . . . . . . . . . . . . . . ",
". . . . . + @ # $ $ # @ + . . . . . ",
". . . . % & * = - - = * & % . . . . ",
". . . ; > , ' ) ) ) ) ' , > ! . . . ",
". . ~ & { ] ' ) ^ / ) ' ] ( & ~ . . ",
"_ _ : < [ } | 1 ^ / 2 3 4 5 < 6 _ _ ",
"7 7 8 9 0 a b b b b b b a c 9 8 7 7 ",
"d d e f g a b b b b b b a h i * d d ",
"j j k l m n o p q r s t u v w k j j ",
"x x y z A n o p q r s t u B C y x x ",
"D D E F G H I J K L M N O P Q E D D ",
"R R S T U V W X Y Z `  ...+.@.#.R R ",
"$.$.%.&.*.=.-.;.>.,.'.).!.~.{.%.$.$.",
"].].].^./.(._.:.<.[.}.|.1.2.^.].].].",
"3.3.3.3.^.4.5.6.7.8.9.0.a.^.3.3.3.3.",
"b.b.b.b.b.c.d.e.%.%.f.d.c.b.b.b.b.b.",
"g.g.g.g.g.g.g.g.g.g.g.g.g.g.g.g.g.g.",
"h.h.h.h.h.h.h.h.h.h.h.h.h.h.h.h.h.h.",
"h.h.h.h.h.h.h.h.h.h.h.h.h.h.h.h.h.h.",
"i.i.i.i.i.i.i.i.i.i.i.i.i.i.i.i.i.i.",
". . . . . . . . . . . . . . . . . . ",
". . . . . . . . . . . . . . . . . . ",
". . . . . . . . . . . . . . . . . . ",
". . . . . . . . . . . . . . . . . . ",
". . . . . . . . . . . . . . . . . . ",
". . j.k.l.+ @ # $ $ # @ + m.. j.. . ",
". . n.o.% & * = - - = * & % j.p.. . ",
". q.l.; > , ' r.s.s.r.' , > ! j.. . ",
". e.~ & { t.u.v.w.x.y.u.t.( & ~ . . ",
"_ D : < [ z.< A.^ / B.< z.5 < 6 _ _ ",
"7 C.8 9 0 D.E.< F.F.< E.G.c 9 8 7 7 ",
"d H.e f g I.J.K.L.L.K.M.N.h i * d d ",
"j H.k l m a b O.P.P.Q.R.S.v w k j j ",
"x d.y z A n T.U.V.W.U.X.u B C y x x ",
"D l.E F G Y.Z.`.K L  +Z.Y.P Q E D D ",
"R e.S T U .+++X Y Z ` @+#++.@.#.R R ",
"$.$+%.&.*.=.-.;.>.,.'.).!.~.{.%.$.$.",
"].].%+^./.(._.:.<.[.}.|.1.2.^.&+].].",
"3.3.D C.^.4.5.6.7.8.9.0.a.^.*+o.3.3.",
"b.b.=+-+;+c.d.e.%.%.f.d.c.>+,+'+b.b.",
"g.g.g.g.g.g.g.g.g.g.g.g.g.g.g.g.g.g.",
"h.h.h.h.h.h.h.h.h.h.h.h.h.h.h.h.h.h.",
"h.h.h.h.h.h.h.h.h.h.h.h.h.h.h.h.h.h.",
"i.i.i.i.i.i.i.i.i.i.i.i.i.i.i.i.i.i."};
