/* XPM */
static char * icewm_xpm[] = {
"40 20 326 2",
"  	c None",
". 	c #292929",
"+ 	c #2A2D2E",
"@ 	c #2A2A2A",
"# 	c #303C3E",
"$ 	c #314247",
"% 	c #32464A",
"& 	c #2D3435",
"* 	c #2F393B",
"= 	c #406B74",
"- 	c #364F54",
"; 	c #39585F",
"> 	c #354D53",
", 	c #2B3031",
"' 	c #2E2E2E",
") 	c #2C3334",
"! 	c #303F42",
"~ 	c #344B50",
"{ 	c #3A5B62",
"] 	c #BFC7C9",
"^ 	c #3C616A",
"/ 	c #3B5F67",
"( 	c #38535A",
"_ 	c #33484D",
": 	c #2F3C3F",
"< 	c #2B3133",
"[ 	c #2A2C2C",
"} 	c #2F3031",
"| 	c #313739",
"1 	c #344346",
"2 	c #395359",
"3 	c #3C5F66",
"4 	c #C7CACB",
"5 	c #E4E4E4",
"6 	c #C1C6C7",
"7 	c #3E656E",
"8 	c #3B595F",
"9 	c #374C51",
"0 	c #344042",
"a 	c #313637",
"b 	c #282828",
"c 	c #2A2F30",
"d 	c #354C51",
"e 	c #3A5C64",
"f 	c #3E6972",
"g 	c #DBDDDD",
"h 	c #D8D9DA",
"i 	c #BABEC0",
"j 	c #406C76",
"k 	c #3D646D",
"l 	c #38575E",
"m 	c #354B4F",
"n 	c #2E3B3E",
"o 	c #292B2B",
"p 	c #292C2D",
"q 	c #222222",
"r 	c #232323",
"s 	c #232525",
"t 	c #252829",
"u 	c #252A2B",
"v 	c #232627",
"w 	c #283234",
"x 	c #304448",
"y 	c #37565D",
"z 	c #3D656D",
"A 	c #C3C6C7",
"B 	c #E2E2E2",
"C 	c #E0E0E0",
"D 	c #CDCFCF",
"E 	c #41717B",
"F 	c #3F6B75",
"G 	c #3C636C",
"H 	c #38585E",
"I 	c #31484D",
"J 	c #2B3A3D",
"K 	c #293537",
"L 	c #283032",
"M 	c #283132",
"N 	c #262E30",
"O 	c #252B2D",
"P 	c #242828",
"Q 	c #1C1C1C",
"R 	c #1C1E1E",
"S 	c #1F2223",
"T 	c #212829",
"U 	c #252F31",
"V 	c #253235",
"W 	c #253033",
"X 	c #232B2D",
"Y 	c #293B3F",
"Z 	c #324E54",
"` 	c #3A6068",
" .	c #D8DADA",
"..	c #DDDDDD",
"+.	c #C8C8C8",
"@.	c #DBDBDB",
"#.	c #DEDEDE",
"$.	c #C9CBCB",
"%.	c #3B626B",
"&.	c #35545B",
"*.	c #314D53",
"=.	c #2E454A",
"-.	c #2C4146",
";.	c #2C4144",
">.	c #2B3D41",
",.	c #28373A",
"'.	c #253133",
").	c #212729",
"!.	c #1E2122",
"~.	c #1D1D1D",
"{.	c #151515",
"].	c #161818",
"^.	c #191E1F",
"/.	c #1E282A",
"(.	c #243438",
"_.	c #293E43",
":.	c #2B4449",
"<.	c #2B4247",
"[.	c #293C41",
"}.	c #2E484E",
"|.	c #34565E",
"1.	c #3C6770",
"2.	c #B9BBBB",
"3.	c #FCFEFE",
"4.	c #B6B8B8",
"5.	c #D5D5D5",
"6.	c #C1C3C3",
"7.	c #40707A",
"8.	c #3E6A74",
"9.	c #3B636B",
"0.	c #385E66",
"a.	c #365A62",
"b.	c #365960",
"c.	c #325158",
"d.	c #2F4B51",
"e.	c #243538",
"f.	c #1D2629",
"g.	c #191C1D",
"h.	c #151717",
"i.	c #0E0E0E",
"j.	c #0F0F0F",
"k.	c #101212",
"l.	c #14191A",
"m.	c #192427",
"n.	c #23373B",
"o.	c #2C474C",
"p.	c #32555C",
"q.	c #375D65",
"r.	c #345860",
"s.	c #315259",
"t.	c #32535A",
"u.	c #355961",
"v.	c #3A636C",
"w.	c #3E6C76",
"x.	c #D2D4D4",
"y.	c #C7C9C9",
"z.	c #406E78",
"A.	c #3D6973",
"B.	c #3C656E",
"C.	c #B0B3B4",
"D.	c #B6B9BA",
"E.	c #416F79",
"F.	c #C5C7C7",
"G.	c #BDC0C1",
"H.	c #396169",
"I.	c #34575E",
"J.	c #2C484E",
"K.	c #223438",
"L.	c #182022",
"M.	c #111415",
"N.	c #0C0E0E",
"O.	c #0D1011",
"P.	c #0F1415",
"Q.	c #131B1D",
"R.	c #1A272A",
"S.	c #243A3E",
"T.	c #2B474D",
"U.	c #B2B5B6",
"V.	c #D0D1D2",
"W.	c #B5B7B7",
"X.	c #3C6872",
"Y.	c #39626B",
"Z.	c #BABCBC",
"`.	c #CCCCCC",
" +	c #A5A6A7",
".+	c #3A656E",
"++	c #365C64",
"@+	c #33575F",
"#+	c #355B63",
"$+	c #A7A8A9",
"%+	c #C6C6C6",
"&+	c #CBCCCD",
"*+	c #74CADC",
"=+	c #42727C",
"-+	c #DCDCDC",
";+	c #D7D7D7",
">+	c #3F6E79",
",+	c #274147",
"'+	c #1D2F33",
")+	c #131C1D",
"!+	c #0C0F10",
"~+	c #111819",
"{+	c #101617",
"]+	c #162023",
"^+	c #1F3235",
"/+	c #284046",
"(+	c #2F5057",
"_+	c #A7A7A7",
":+	c #C3C3C3",
"<+	c #3F6D77",
"[+	c #C1C1C1",
"}+	c #ADADAD",
"|+	c #2C4950",
"1+	c #284146",
"2+	c #29454B",
"3+	c #305158",
"4+	c #9C9C9C",
"5+	c #BABABA",
"6+	c #BBBBBB",
"7+	c #BCBCBC",
"8+	c #D4D4D4",
"9+	c #253E43",
"0+	c #182528",
"a+	c #151D1E",
"b+	c #1A2629",
"c+	c #2A464C",
"d+	c #A1A1A1",
"e+	c #DADADA",
"f+	c #E3E3E3",
"g+	c #DFDFDF",
"h+	c #AAAAAA",
"i+	c #B6B6B6",
"j+	c #3E6B74",
"k+	c #203438",
"l+	c #1A292C",
"m+	c #1D2E31",
"n+	c #33565D",
"o+	c #B4B4B4",
"p+	c #B2B2B2",
"q+	c #BDBDBD",
"r+	c #CFCFCF",
"s+	c #3D6B75",
"t+	c #375E67",
"u+	c #2D4B51",
"v+	c #121A1C",
"w+	c #182425",
"x+	c #213438",
"y+	c #355960",
"z+	c #A2A2A2",
"A+	c #D9D9D9",
"B+	c #BEBEBE",
"C+	c #D1D1D1",
"D+	c #C4C4C4",
"E+	c #73C9DB",
"F+	c #AFAFAF",
"G+	c #979797",
"H+	c #22373C",
"I+	c #162124",
"J+	c #111719",
"K+	c #1C2C30",
"L+	c #ABABAB",
"M+	c #A3A3A3",
"N+	c #A5A5A5",
"O+	c #9E9E9E",
"P+	c #9B9B9B",
"Q+	c #3B666F",
"R+	c #141E20",
"S+	c #1D2D2F",
"T+	c #304F56",
"U+	c #A9A9A9",
"V+	c #31535B",
"W+	c #263F44",
"X+	c #101516",
"Y+	c #1D2D31",
"Z+	c #274045",
"`+	c #386068",
" @	c #999999",
".@	c #B3B3B3",
"+@	c #2E4D54",
"@@	c #141D20",
"#@	c #131414",
"$@	c #2B474C",
"%@	c #979B9C",
"&@	c #C2C2C2",
"*@	c #AEAEAE",
"=@	c #9F9F9F",
"-@	c #B0B0B0",
";@	c #0A0A0A",
">@	c #0B0B0B",
",@	c #1B2C2F",
"'@	c #243B40",
")@	c #2C4B52",
"!@	c #284248",
"~@	c #1B2A2D",
"{@	c #9A9A9A",
"]@	c #9D9D9D",
"^@	c #294349",
"/@	c #989898",
"(@	c #1E2F34",
"_@	c #12181A",
":@	c #172325",
"<@	c #253C41",
"[@	c #EAEAEA",
"}@	c #152023",
"|@	c #22353A",
"1@	c #233A3F",
"2@	c #203236",
"3@	c #1B292D",
"4@	c #141C1E",
"5@	c #0E1112",
"6@	c #0A0C0C",
"7@	c #0F1313",
"8@	c #12191A",
"9@	c #111617",
"0@	c #172427",
"a@	c #151F21",
"b@	c #2D4C53",
"c@	c #0F1213",
"d@	c #172225",
"e@	c #162022",
"f@	c #151E21",
"g@	c #101618",
"h@	c #0B0D0D",
"i@	c #0E1212",
"j@	c #1E3034",
"k@	c #0B0C0D",
". . . . . . . . . . . . . . . . . . . . + + . . . . . . . . . . . . . . . . . . ",
". . . . . . . . . . . . . . . . . . @ # $ % & . . . . . . . . . . . . . . . . . ",
". . . . . . . . . . . . . . . . . . * = - ; > , . . . . . . . . . . . . . . . . ",
"' ' ' ' ' ' ' ' ' ' ' ' ' ' ' + ) ! ~ { ] ^ / ( _ : < [ . . . . . . . . . . . . ",
"' ' ' ' ' ' ' ' ' ' ' ' ' ' } | 1 2 3 4 5 6 = 7 8 9 0 a } ' ' ' ' ' ' ' ' ' ' ' ",
"b b b b b b b b . . . . b . c : d e f g 5 h i j k l m n , + o p o . . b b b b b ",
"q q q q q q r s t u u t v t w x y z A 5 B C D E F G H I J K L M N O P s r q q q ",
"Q Q Q Q Q R S T U V V W X W Y Z ` F  ...+.@.#.$.E F %.&.*.=.-.;.>.,.'.).!.~.Q Q ",
"{.{.{.{.].^./.(._.:.:.<.[._.}.|.1.A #.2.3.4.5.@.6.7.8.9.0.a.b.|.c.d._.e.f.g.h.{.",
"i.i.j.k.l.m.n.o.p.q.q.r.s.t.u.v.w.x.y.z.A.B.C.D 5.D.E.w.A.A.w.F.G.H.I.J.K.L.M.j.",
"N.O.P.Q.R.S.T.r.U.V.W.X.v.Y.1.w.Z.`. +.+++@+#+$+%+&+*+7.7.E =+-+;+>+1.r.,+'+)+!+",
"~+{+]+^+/+(+q._+;+B :+7.<+<+>+E [+}+.+@+|+1+2+3+4+5+6+*+=+=+7+8+;+:+>+.+s.9+0+P.",
"{.a+b+c+p.H.d+e+f+g+;+h+=+E E _+i+j+++2+k+l+m+,+n+.+o+h+*+p+q+_+}+r+}+s+t+u+'+v+",
"i.w+x+y+1.z+A+-+B+o+C+D+%+*+E+F+G+H.(+H+I+J+)+K+,+s.v.L+M+N+O+A.j+M+:+P+Q+(+^+R+",
"O.S+T+T+N+8++.O+<+A.M+%+U+*+O+O+Q+V+W+R.X+N.O.)+Y+Z+V+`+z+ @t+#+++.+O+.@v.+@^+@@",
"#@$@E.%@&@*@1.1.Y.q.q.=@-@G+d+1.r./+K+v+N.;@>@O.v+,@'@c+)@|+c+2+|+p.q.O+d+!@~@v+",
"i.w.{@L+]@j+@+@+|+2+^@|+/@]@u.3+^@(@Q.O.>@;@;@>@O._@:@~@Y+Y+~@~@^+<@^@c+[@^+}@P.",
"O.`+O+Y.t+u.(+,+k+l+R.Y+|@S.1@2@3@4@5@6@;@;@;@;@>@!+7@8@_@8@P.9@v+0@~@,@R.a@X+N.",
"a@T.b@)@T.9+k+R.4@P.c@J+4@d@e@f@g@5@6@;@;@;@;@;@;@>@6@N.N.N.6@h@O.P._@_@~+i@N.>@",
"0+Y+j@j@K+0+4@X+!+>@;@h@N.5@5@O.k@6@;@;@;@;@;@;@;@;@;@;@;@;@;@;@>@h@N.N.N.6@>@;@"};
