/* XPM */
static char * frameAB_xpm[] = {
"6 6 4 1",
" 	c None",
".	c #000000",
"+	c #645252",
"@	c #3B2B2C",
"......",
"++++++",
"@@@@@@",
"@@@@@@",
"@@@@@@",
"......"};
