/* XPM */
static char * frameAL_xpm[] = {
"6 6 4 1",
" 	c None",
".	c #000000",
"+	c #3B2B2C",
"@	c #645252",
".+++@.",
".+++@.",
".+++@.",
".+++@.",
".+++@.",
".+++@."};
