/* XPM */
static char * minimizeI_xpm[] = {
"20 40 56 1",
" 	c None",
".	c #3B2B2C",
"+	c #000000",
"@	c #8F7763",
"#	c #685648",
"$	c #392C29",
"%	c #675547",
"&	c #372A28",
"*	c #665346",
"=	c #8F7663",
"-	c #635145",
";	c #615043",
">	c #8C7460",
",	c #876F5C",
"'	c #604F42",
")	c #836B59",
"!	c #5F4E41",
"~	c #7E6655",
"{	c #5E4D40",
"]	c #796251",
"^	c #5D4C3F",
"/	c #755D4D",
"(	c #5B4A3D",
"_	c #6F5949",
":	c #5A493C",
"<	c #6B5546",
"[	c #57473B",
"}	c #665042",
"|	c #554539",
"1	c #624B3D",
"2	c #544438",
"3	c #5D473A",
"4	c #524236",
"5	c #584236",
"6	c #504034",
"7	c #543E32",
"8	c #4F3F33",
"9	c #7A7A7A",
"0	c #787878",
"a	c #767676",
"b	c #747474",
"c	c #717171",
"d	c #6F6F6F",
"e	c #6D6D6D",
"f	c #6B6B6B",
"g	c #686868",
"h	c #656565",
"i	c #636363",
"j	c #616161",
"k	c #5F5F5F",
"l	c #5C5C5C",
"m	c #5A5A5A",
"n	c #585858",
"o	c #565656",
"p	c #535353",
"q	c #515151",
"..........++++++++++",
".........+@@@@+@@@@@",
"........+@####+@####",
"$$++++++@%%%%%+@%%%%",
"&+@@@@@@******+@****",
"+=-;-----------+@---",
"+>;;;;;;;;;;;;;;+@;;",
"+,'''''''''''''''+@'",
"+)!!!!!!!!!!!!!!+)!!",
"+~{{{{{{{{{{{{{+~{{{",
"+]^^^^^^^^^^^^+]^^^^",
"+/(((((((((((+/(((((",
"+_::::::::::+_::::::",
"+<[[[[[[[[[[[+<[[[[[",
"+}||||||++++++}|||||",
"+122222+111111222222",
"+344444+344444444444",
"+566666+566666666666",
"+788888+788888888888",
"++++++++++++++++++++",
"99999999999999999999",
"00000000000000000000",
"aaaaaaaaaaaaaaaaaaaa",
"bbbbbbbbbbbbbbbbbbbb",
"cccccccccccccccccccc",
"dddddddddddddddddddd",
"eeeeeeeeeeeeeeeeeeee",
"ffffffffffffffffffff",
"gggggggggggggggggggg",
"hhhhhhhhhhhhhhhhhhhh",
"iiiiiiiiiiiiiiiiiiii",
"jjjjjjjjjjjjjjjjjjjj",
"kkkkkkkkkkkkkkkkkkkk",
"llllllllllllllllllll",
"mmmmmmmmmmmmmmmmmmmm",
"nnnnnnnnnnnnnnnnnnnn",
"oooooooooooooooooooo",
"pppppppppppppppppppp",
"qqqqqqqqqqqqqqqqqqqq",
"++++++++++++++++++++"};
