/* XPM */
static char *dummy[]={
"2 12 8 1",
"f c #000000",
"e c #bcc0ba",
"d c #d2d3ce",
"b c #e6e5e2",
"c c #e6e5e3",
"a c #f8f7f7",
"# c #f8f8f7",
". c #ffffff",
"..",
"..",
"..",
"..",
"..",
"..",
"..",
"#a",
"bc",
"dd",
"ee",
"ff"};
