/* XPM */
static char * menuButtonO_xpm[] = {
"18 36 38 1",
" 	c None",
".	c #4D3B23",
"+	c #4C3C23",
"@	c #4B3B22",
"#	c #654D31",
"$	c #634E31",
"%	c #654E2F",
"&	c #634E2F",
"*	c #624D30",
"=	c #533A1C",
"-	c #523B1C",
";	c #533A1B",
">	c #523B1B",
",	c #513A1B",
"'	c #523A1E",
")	c #503B1E",
"!	c #523A20",
"~	c #503B20",
"{	c #4F3B20",
"]	c #4D3C22",
"^	c #4C3C22",
"/	c #4F3B22",
"(	c #4F3A1F",
"_	c #4B3D23",
":	c #493D23",
"<	c #4E3A1F",
"[	c #503C21",
"}	c #513C21",
"|	c #503A22",
"1	c #513B23",
"2	c #49381E",
"3	c #4B371F",
"4	c #4B371E",
"5	c #48371D",
"6	c #4C3D26",
"7	c #4C3C25",
"8	c #4B3C25",
"9	c #4B3B24",
".+.+.+.++@++@+@++@",
"#$#$%&#$$$*$$$$*$$",
"=-=-;>=,=-=-==-=-=",
"')')')')!~')'!~')'",
"~~~{]@^]]/~~~]/~~~",
"!!~]~~~~~+/!(~+/!(",
"~~~+~~~~~_/!~~_/!~",
"~~~+~~~~~_{)~~_{)~",
"{{~+~~~~~:<)~~:<)~",
"~~~+~~~~~:/~~~:/~~",
"~~~+~~~~~:/~~~:/~~",
"~~~+~~~~~:/~~~:/~~",
"~~~]~~~~~+/~~~+/~~",
"~~~[]@+]]/~~~]/~~~",
"~~~~~~~~~~}~~~~}~~",
"<{||{{1|{{||{{{||{",
"223422335233252332",
"6_778_978877888778",
".+.+.+.++@++@+@++@",
"#$#$%&#$$$*$$$$*$$",
"=-=-;>=,=-=-==-=-=",
"')')')')!~')'!~')'",
"~~~{]@^]]/~~~]/~~~",
"!!~]~~~~~+/!(~+/!(",
"~~~+~~~~~_/!~~_/!~",
"~~~+~~~~~_{)~~_{)~",
"{{~+~~~~~:<)~~:<)~",
"~~~+~~~~~:/~~~:/~~",
"~~~+~~~~~:/~~~:/~~",
"~~~+~~~~~:/~~~:/~~",
"~~~]~~~~~+/~~~+/~~",
"~~~[]@+]]/~~~]/~~~",
"~~~~~~~~~~}~~~~}~~",
"<{||{{1|{{||{{{||{",
"223422335233252332",
"6_778_978877888778"};
