/* XPM */
static char * frameAT_xpm[] = {
"1 6 3 1",
" 	c None",
".	c #101010",
"+	c #697556",
".",
"+",
"+",
"+",
"+",
"+"};
