/* XPM */
static char * closeA_xpm[] = {
"21 46 60 1",
" 	c None",
".	c #FEFEFE",
"+	c #FBFBFB",
"@	c #F8F8F8",
"#	c #F9F9F9",
"$	c #BDBDBD",
"%	c #5D5D5D",
"&	c #393939",
"*	c #383838",
"=	c #B5B5B5",
"-	c #3F3F3F",
";	c #4C4C4C",
">	c #3C3C3C",
",	c #222222",
"'	c #0F0F0F",
")	c #606060",
"!	c #575757",
"~	c #272727",
"{	c #E0E0E0",
"]	c #FFFFFF",
"^	c #555555",
"/	c #6C6C6C",
"(	c #6E6E6E",
"_	c #919191",
":	c #F5F5F5",
"<	c #717171",
"[	c #787878",
"}	c #808080",
"|	c #303030",
"1	c #989898",
"2	c #D2D2D2",
"3	c #BBBBBB",
"4	c #707070",
"5	c #888888",
"6	c #6A6A6A",
"7	c #363636",
"8	c #F4F4F4",
"9	c #BFBFBF",
"0	c #898989",
"a	c #7C7C7C",
"b	c #7D7D7D",
"c	c #727272",
"d	c #323232",
"e	c #373737",
"f	c #696969",
"g	c #181818",
"h	c #000000",
"i	c #414141",
"j	c #1C1C1C",
"k	c #A4A4A4",
"l	c #C3C3C3",
"m	c #525252",
"n	c #262626",
"o	c #5C5C5C",
"p	c #969696",
"q	c #7A7A7A",
"r	c #666666",
"s	c #2B2B2B",
"t	c #818181",
"u	c #6B6B6B",
".....................",
"+++++++++++++++++++++",
"@@@@@@@@@@@@@@@@@@@@@",
"@@@@@@@@@@@@@@@@@@@@@",
"#####################",
"#####################",
"@@@@@@@@@@@@@@@@@@@@@",
"@@@@@@@@@@@@@@@@@@@@@",
"##$%&&&&*&*&**&&&&%%%",
"#=-;>,'''''''''',>;;;",
"@)!%~{]]]]]]]]]]{~%%%",
"{^/('____________'(((",
":<[}|122222222221|}}}",
":34567''''''''''76555",
"8890[aabbabbabbaa[000",
"888888888888888888888",
":::::::::::::::::::::",
":::::::::::::::::::::",
"888888888888888888888",
"888888888888888888888",
":::::::::::::::::::::",
":::::::::::::::::::::",
"888888888888888888888",
".....................",
"+++++++++++++++++++++",
"@@@@@@@@@@@@@@@@@@@@@",
"@@@@@@@@@@@@@@@@@@@@@",
"#####################",
"#####################",
"@@@@@@@@@@@@@@@@@@@@@",
"@@@@@@@@@@@@@@@@@@@@@",
"##cde&&&*&*&**&&&e%%%",
"#f-;*ghhhhhhhhhhg*;;;",
"@i!%jkllllllllllkj%%%",
"{m/(h^^^^^^^^^^^^h(((",
":^[}noppppppppppon}}}",
":q45rshhhhhhhhhhsr555",
"88tu[aabbabbabbaa[000",
"888888888888888888888",
":::::::::::::::::::::",
":::::::::::::::::::::",
"888888888888888888888",
"888888888888888888888",
":::::::::::::::::::::",
":::::::::::::::::::::",
"888888888888888888888"};
