/* XPM */
static char * maximizeO_xpm[] = {
"21 46 32 1",
" 	c None",
".	c #FEFEFE",
"+	c #FBFBFB",
"@	c #F8F8F8",
"#	c #F9F9F9",
"$	c #5D5D5D",
"%	c #373737",
"&	c #393939",
"*	c #383838",
"=	c #4C4C4C",
"-	c #464646",
";	c #2F2F2F",
">	c #303030",
",	c #424242",
"'	c #9F9F9F",
")	c #AFAFAF",
"!	c #AEAEAE",
"~	c #6E6E6E",
"{	c #3E3E3E",
"]	c #808080",
"^	c #575757",
"/	c #8C8C8C",
"(	c #A9A9A9",
"_	c #888888",
":	c #7C7C7C",
"<	c #636363",
"[	c #505050",
"}	c #898989",
"|	c #787878",
"1	c #7D7D7D",
"2	c #F4F4F4",
"3	c #F5F5F5",
".....................",
"+++++++++++++++++++++",
"@@@@@@@@@@@@@@@@@@@@@",
"@@@@@@@@@@@@@@@@@@@@@",
"#####################",
"#####################",
"@@@@@@@@@@@@@@@@@@@@@",
"@@@@@@@@@@@@@@@@@@@@@",
"$$$$%&&&*&*&**&&&%$$$",
"====-&;;;;;>;;;;&-===",
"$$$$,')))!))))))',$$$",
"~~~~{]]]]]]]]]]]]{~~~",
"]]]]^/((((((((((/^]]]",
"____:<[[[[[[[[[[<:___",
"}}}}|::11:11:11::|}}}",
"222222222222222222222",
"333333333333333333333",
"333333333333333333333",
"222222222222222222222",
"222222222222222222222",
"333333333333333333333",
"333333333333333333333",
"222222222222222222222",
".....................",
"+++++++++++++++++++++",
"@@@@@@@@@@@@@@@@@@@@@",
"@@@@@@@@@@@@@@@@@@@@@",
"#####################",
"#####################",
"@@@@@@@@@@@@@@@@@@@@@",
"@@@@@@@@@@@@@@@@@@@@@",
"$$$$%&&&*&*&**&&&%$$$",
"====-&;;;;;>;;;;&-===",
"$$$$,')))!))))))',$$$",
"~~~~{]]]]]]]]]]]]{~~~",
"]]]]^/((((((((((/^]]]",
"____:<[[[[[[[[[[<:___",
"}}}}|::11:11:11::|}}}",
"222222222222222222222",
"333333333333333333333",
"333333333333333333333",
"222222222222222222222",
"222222222222222222222",
"333333333333333333333",
"333333333333333333333",
"222222222222222222222"};
