/* XPM */
static char * frameABR_xpm[] = {
"5 5 6 1",
" 	c None",
".	c #121212",
"+	c #000000",
"@	c #171717",
"#	c #1B1B1B",
"$	c #222222",
"...+ ",
"@@++ ",
"#++  ",
"$+   ",
"     "};
