/* XPM */
static char * icewm_xpm[] = {
"67 24 204 2",
"  	c None",
". 	c #080000",
"+ 	c #905353",
"@ 	c #935956",
"# 	c #935857",
"$ 	c #985F5B",
"% 	c #98605C",
"& 	c #9C6760",
"* 	c #9D6760",
"= 	c #3B3B3B",
"- 	c #A16E65",
"; 	c #A26E65",
"> 	c #A16E64",
", 	c #393938",
"' 	c #393939",
") 	c #383839",
"! 	c #383838",
"~ 	c #373838",
"{ 	c #635F5B",
"] 	c #938B82",
"^ 	c #928A81",
"/ 	c #9B948C",
"( 	c #78736D",
"_ 	c #938B83",
": 	c #5C5955",
"< 	c #A67569",
"[ 	c #A6756A",
"} 	c #353535",
"| 	c #343435",
"1 	c #343535",
"2 	c #343434",
"3 	c #837E77",
"4 	c #969088",
"5 	c #8D847B",
"6 	c #8D857C",
"7 	c #877F76",
"8 	c #AA7C6F",
"9 	c #AA7C6E",
"0 	c #313131",
"a 	c #303031",
"b 	c #313030",
"c 	c #7B7670",
"d 	c #B5ACA3",
"e 	c #8D847C",
"f 	c #8E857D",
"g 	c #887F77",
"h 	c #BCB4AA",
"i 	c #88827C",
"j 	c #AF8373",
"k 	c #2E2E2D",
"l 	c #2D2D2D",
"m 	c #2C2D2D",
"n 	c #7E7972",
"o 	c #AEA69C",
"p 	c #B0A89E",
"q 	c #AFA69D",
"r 	c #B5B0A8",
"s 	c #827C76",
"t 	c #ADA59B",
"u 	c #B0A89D",
"v 	c #AEA69B",
"w 	c #ABA49B",
"x 	c #B38A77",
"y 	c #B38B77",
"z 	c #B48A78",
"A 	c #2A2A2A",
"B 	c #2A2929",
"C 	c #292929",
"D 	c #736E68",
"E 	c #918980",
"F 	c #91887E",
"G 	c #90877E",
"H 	c #91887F",
"I 	c #8F877D",
"J 	c #8A8279",
"K 	c #807A71",
"L 	c #878076",
"M 	c #8E867C",
"N 	c #90887E",
"O 	c #716C65",
"P 	c #B9917C",
"Q 	c #B9917D",
"R 	c #262626",
"S 	c #262627",
"T 	c #262525",
"U 	c #252625",
"V 	c #70695F",
"W 	c #6E6962",
"X 	c #766F65",
"Y 	c #71695F",
"Z 	c #6F675E",
"` 	c #6C665C",
" .	c #70685F",
"..	c #736C63",
"+.	c #BD9981",
"@.	c #BC9982",
"#.	c #BD9881",
"$.	c #232223",
"%.	c #222322",
"&.	c #222223",
"*.	c #222222",
"=.	c #222122",
"-.	c #656057",
";.	c #46413B",
">.	c #45403B",
",.	c #45403A",
"'.	c #443F3A",
").	c #433E39",
"!.	c #433E38",
"~.	c #423D37",
"{.	c #C19F86",
"].	c #C2A086",
"^.	c #C1A086",
"/.	c #1F1F1F",
"(.	c #1E1E1F",
"_.	c #1F1F1E",
":.	c #1E1E1E",
"<.	c #5F5B55",
"[.	c #676057",
"}.	c #C6A78B",
"|.	c #1B1C1B",
"1.	c #1B1B1B",
"2.	c #1B1B1A",
"3.	c #1B1A1B",
"4.	c #1A1A1A",
"5.	c #615C56",
"6.	c #CAAE90",
"7.	c #CBAE8F",
"8.	c #181717",
"9.	c #181718",
"0.	c #171717",
"a.	c #171617",
"b.	c #5B5853",
"c.	c #CFB694",
"d.	c #CFB594",
"e.	c #141414",
"f.	c #141413",
"g.	c #141313",
"h.	c #131314",
"i.	c #131313",
"j.	c #605B56",
"k.	c #90887F",
"l.	c #8F877E",
"m.	c #8E867D",
"n.	c #69645E",
"o.	c #D4BD99",
"p.	c #D4BC99",
"q.	c #101011",
"r.	c #111010",
"s.	c #101010",
"t.	c #100F10",
"u.	c #10100F",
"v.	c #0F100F",
"w.	c #AFA79D",
"x.	c #D8C39D",
"y.	c #D8C39E",
"z.	c #0C0C0D",
"A.	c #0C0D0C",
"B.	c #0C0C0C",
"C.	c #0C0B0B",
"D.	c #56524D",
"E.	c #7F7870",
"F.	c #8B827A",
"G.	c #8F867D",
"H.	c #8A8179",
"I.	c #8E857C",
"J.	c #90867E",
"K.	c #877E75",
"L.	c #6A645E",
"M.	c #DCCBA2",
"N.	c #DDCAA2",
"O.	c #DDCBA2",
"P.	c #090909",
"Q.	c #090808",
"R.	c #080908",
"S.	c #080808",
"T.	c #58534F",
"U.	c #69655E",
"V.	c #E2D1A7",
"W.	c #E1D2A7",
"X.	c #050505",
"Y.	c #040505",
"Z.	c #050404",
"`.	c #050504",
" +	c #040405",
".+	c #040404",
"++	c #8B847B",
"@+	c #928B81",
"#+	c #908880",
"$+	c #928980",
"%+	c #E6D9AC",
"&+	c #020202",
"*+	c #010101",
"=+	c #000101",
"-+	c #000000",
";+	c #EADFB1",
">+	c #EAE0B0",
",+	c #EAE0B1",
"'+	c #F0E7B5",
")+	c #EFE7B5",
"!+	c #EFE6B5",
"~+	c #F4EEBB",
"{+	c #F3EEBA",
"]+	c #F3EEB9",
". . . . . . . . . . . . . . . . . . . . . . . . . . . . . . . . . . . . . . . . . . . . . . . . . . . . . . . . . . . . . . . . . . . ",
". + + + + + + + + + + + + + + + + + + + + + + + + + + + + + + + + + + + + + + + + + + + + + + + + + + + + + + + + + + + + + + + + + + ",
". @ # # # # # # # # # # # # # # # # # # # # # # # # # # # # # # # # # # # # # # # # # # # # # # # # @ @ @ @ @ @ @ @ @ @ @ @ @ @ # # # ",
". $ % % % % % % % % % % % % % % % % % % % % % % % % % % % % % % % % % % % % % % % % % % % % % % % % % % % % % % % % % % % % % % % % % ",
". & & * = = = = = = = = = = = = = = = = = = = = = = = = = = = = = = = = = = = = = = = = = = = = = = = = = = = = = = = = = = = & & * * ",
". - ; > , ' ) ! ! ! ~ ! ! ! ! ! ! ! ! ! ! ! ! ! ! { ] ] ] ^ ^ ^ / ! ! ! ! ! ! ! ( ] ] ] ] ] _ : ! ! ! ! ! ! ! ! ! ! ! ! ! ! ! - ; > > ",
". < < [ } | 1 1 2 2 2 2 2 2 2 2 2 2 2 2 2 2 2 2 2 2 3 4 5 6 6 6 7 4 2 2 2 2 2 4 7 7 7 7 7 4 3 2 2 2 2 2 2 2 2 2 2 2 2 2 2 2 2 < < [ [ ",
". 8 9 8 0 0 0 0 a b a b b b b b b b b b b b b b b b b c d e f f f g 4 b b b 4 g f f f e h i b b b b b b b b b b b b b b b b b 8 9 8 8 ",
". j j j k l k l l l m m m m m m m m m m m m m m m m m m n o p p p q r s m ( r t u p v w n m m m m m m m m m m m m m m m m m m j j j j ",
". x y z A A A B A C C C C C C C C C C C C C C C C C C C C D E F G H I J K L M N F G 6 O C C C C C C C C C C C C C C C C C C C x y z z ",
". P Q P R S R R T U R U U U v U U U U V v v U U U v V U U U W X Y V Y Z `  .V V V ..W U U U V v v v v v V U V v v V U U U U U P Q P P ",
". +.@.#.$.%.&.*.*.*.=.=.=.v V v =.=.=.=.=.v v =.=.v =.=.=.=.=.-.;.;.;.>.,.'.).!.~.-.=.=.=.=.=.=.=.v =.=.=.=.=.=.v =.=.=.=.=.=.+.@.#.#.",
". {.].^./.(./.(._.:.:.:.V v v v V :.:.:.:.v <.v :.v :.:.:.:.:.:.[.:.:.:.:.:.:.:.[.:.:.:.:.:.:.:.:.v :.:.:.:.:.:.v :.:.:.:.:.:.{.].^.^.",
". }.}.}.|.1.1.1.2.3.4.4.v 4.4.V v 4.4.4.4.v 4.5.v v 4.4.4.4.4.X ~.!.).'.,.>.;.;.;.X 4.4.4.4.4.4.4.v 4.4.4.4.4.4.v 4.4.4.4.4.4.}.}.}.}.",
". 6.7.7.8.9.0.0.0.0.a.V v 0.0.V v V 0.V v v 0.0.b.v 0.0.0.0.W X V V V V V V V V V ..W 0.0.0.0.0.V v V 0.0.0.V v v V 0.0.0.0.0.6.7.7.7.",
". c.d.d.e.f.g.h.h.i.i.i.i.i.i.i.i.i.i.i.i.i.i.i.i.i.i.i.i.j.E E E k.k.k.l.l.m.m.6 6 m.n.i.i.i.i.i.i.i.i.i.i.i.i.i.i.i.i.i.i.i.c.d.d.d.",
". o.p.p.q.r.s.t.u.v.s.v.v.v.v.v.v.v.v.v.v.v.v.v.v.v.v.v.n p w.p p p r s v.s r p p p w.w.n v.v.v.v.v.v.v.v.v.v.v.v.v.v.v.v.v.v.o.p.p.p.",
". x.x.y.z.A.A.B.B.B.C.C.C.C.C.C.C.C.C.C.C.C.C.C.C.C.C.D.E.F.G.G f g 4 C.C.C.4 H.I.G J.5 K.L.C.C.C.C.C.C.C.C.C.C.C.C.C.C.C.C.C.x.x.y.y.",
". M.N.O.P.Q.R.S.R.S.S.S.S.S.S.S.S.S.S.S.S.S.S.S.S.S.T.4 J G G.6 7 4 S.S.S.S.S.4 7 G.G.G 5 4 U.S.S.S.S.S.S.S.S.S.S.S.S.S.S.S.S.M.N.O.O.",
". V.V.W.X.X.Y.Z.`. +.+.+.+.+.+.+.+.+.+.+.+.+.+.+.+n.++m.^ @+] #+4 .+.+.+.+.+.+.+4 l.H H $+E ++n..+.+.+.+.+.+.+.+.+.+.+.+.+.+.+V.V.W.W.",
". %+%+%+&+&+*+*+*+=+*+-+-+-+-+-+-+-+-+-+-+-+-+-+-+-+-+-+-+-+-+-+-+-+-+-+-+-+-+-+-+-+-+-+-+-+-+-+-+-+-+-+-+-+-+-+-+-+-+-+-+-+-+%+%+%+%+",
". ;+>+;+;+;+;+;+;+;+;+;+;+;+;+;+;+;+;+;+;+;+;+;+;+;+;+;+;+;+;+;+;+;+;+;+;+;+;+;+;+;+;+;+;+;+;+;+;+;+;+;+;+;+;+;+;+;+;+;+;+;+;+;+>+,+,+",
". '+)+'+'+'+'+'+'+'+'+'+'+'+'+'+'+'+'+'+'+'+'+'+'+'+'+'+'+'+'+'+'+'+'+'+'+'+'+'+'+'+'+'+'+'+'+'+'+'+'+'+'+'+'+'+'+'+'+'+'+'+'+'+)+!+!+",
". ~+{+]+~+~+~+~+~+~+~+~+~+~+~+~+~+~+~+~+~+~+~+~+~+~+~+~+~+~+~+~+~+~+~+~+~+~+~+~+~+~+~+~+~+~+~+~+~+~+~+~+~+~+~+~+~+~+~+~+~+~+~+~+{+]+]+"};
