/* XPM */
static char * icewm_xpm[] = {
"67 24 167 2",
"  	c #080000",
". 	c #B89458",
"+ 	c #B89460",
"@ 	c #B89860",
"# 	c #B89868",
"$ 	c #3B3B3B",
"% 	c #393938",
"& 	c #393939",
"* 	c #383839",
"= 	c #383838",
"- 	c #373838",
"; 	c #635F5B",
"> 	c #938B82",
", 	c #928A81",
"' 	c #9B948C",
") 	c #78736D",
"! 	c #938B83",
"~ 	c #5C5955",
"{ 	c #B89C68",
"] 	c #353535",
"^ 	c #343435",
"/ 	c #343535",
"( 	c #343434",
"_ 	c #837E77",
": 	c #969088",
"< 	c #8D847B",
"[ 	c #8D857C",
"} 	c #877F76",
"| 	c #B89C70",
"1 	c #313131",
"2 	c #303031",
"3 	c #313030",
"4 	c #7B7670",
"5 	c #B5ACA3",
"6 	c #8D847C",
"7 	c #8E857D",
"8 	c #887F77",
"9 	c #BCB4AA",
"0 	c #88827C",
"a 	c #2E2E2D",
"b 	c #2D2D2D",
"c 	c #2C2D2D",
"d 	c #7E7972",
"e 	c #AEA69C",
"f 	c #B0A89E",
"g 	c #AFA69D",
"h 	c #B5B0A8",
"i 	c #827C76",
"j 	c #ADA59B",
"k 	c #B0A89D",
"l 	c #AEA69B",
"m 	c #ABA49B",
"n 	c #2A2A2A",
"o 	c #2A2929",
"p 	c #292929",
"q 	c #736E68",
"r 	c #918980",
"s 	c #91887E",
"t 	c #90877E",
"u 	c #91887F",
"v 	c #8F877D",
"w 	c #8A8279",
"x 	c #807A71",
"y 	c #878076",
"z 	c #8E867C",
"A 	c #90887E",
"B 	c #716C65",
"C 	c #B8A078",
"D 	c #262626",
"E 	c #262627",
"F 	c #262525",
"G 	c #252625",
"H 	c #70695F",
"I 	c #6E6962",
"J 	c #766F65",
"K 	c #71695F",
"L 	c #6F675E",
"M 	c #6C665C",
"N 	c #70685F",
"O 	c #736C63",
"P 	c #232223",
"Q 	c #222322",
"R 	c #222223",
"S 	c #222222",
"T 	c #222122",
"U 	c #656057",
"V 	c #46413B",
"W 	c #45403B",
"X 	c #45403A",
"Y 	c #443F3A",
"Z 	c #433E39",
"` 	c #433E38",
" .	c #423D37",
"..	c #1F1F1F",
"+.	c #1E1E1F",
"@.	c #1F1F1E",
"#.	c #1E1E1E",
"$.	c #5F5B55",
"%.	c #676057",
"&.	c #B8A480",
"*.	c #1B1C1B",
"=.	c #1B1B1B",
"-.	c #1B1B1A",
";.	c #1B1A1B",
">.	c #1A1A1A",
",.	c #615C56",
"'.	c #181717",
").	c #181718",
"!.	c #171717",
"~.	c #171617",
"{.	c #5B5853",
"].	c #B8A488",
"^.	c #141414",
"/.	c #141413",
"(.	c #141313",
"_.	c #131314",
":.	c #131313",
"<.	c #605B56",
"[.	c #90887F",
"}.	c #8F877E",
"|.	c #8E867D",
"1.	c #69645E",
"2.	c #B8A888",
"3.	c #101011",
"4.	c #111010",
"5.	c #101010",
"6.	c #100F10",
"7.	c #10100F",
"8.	c #0F100F",
"9.	c #AFA79D",
"0.	c #0C0C0D",
"a.	c #0C0D0C",
"b.	c #0C0C0C",
"c.	c #0C0B0B",
"d.	c #56524D",
"e.	c #7F7870",
"f.	c #8B827A",
"g.	c #8F867D",
"h.	c #8A8179",
"i.	c #8E857C",
"j.	c #90867E",
"k.	c #877E75",
"l.	c #6A645E",
"m.	c #B8A890",
"n.	c #090909",
"o.	c #090808",
"p.	c #080908",
"q.	c #080808",
"r.	c #58534F",
"s.	c #69655E",
"t.	c #B8AC90",
"u.	c #050505",
"v.	c #040505",
"w.	c #050404",
"x.	c #050504",
"y.	c #040405",
"z.	c #040404",
"A.	c #8B847B",
"B.	c #928B81",
"C.	c #908880",
"D.	c #928980",
"E.	c #020202",
"F.	c #010101",
"G.	c #000101",
"H.	c #000000",
"I.	c #B8AC98",
"J.	c #B8B098",
"                                                                                                                                      ",
"  . . . . . . . . . . . . . . . . . . . . . . . . . . . . . . . . . . . . . . . . . . . . . . . . . . . . . . . . . . . . . . . . . . ",
"  + + + + + + + + + + + + + + + + + + + + + + + + + + + + + + + + + + + + + + + + + + + + + + + + + + + + + + + + + + + + + + + + + + ",
"  @ @ @ @ @ @ @ @ @ @ @ @ @ @ @ @ @ @ @ @ @ @ @ @ @ @ @ @ @ @ @ @ @ @ @ @ @ @ @ @ @ @ @ @ @ @ @ @ @ @ @ @ @ @ @ @ @ @ @ @ @ @ @ @ @ @ ",
"  # # # $ $ $ $ $ $ $ $ $ $ $ $ $ $ $ $ $ $ $ $ $ $ $ $ $ $ $ $ $ $ $ $ $ $ $ $ $ $ $ $ $ $ $ $ $ $ $ $ $ $ $ $ $ $ $ $ $ $ $ $ # # # ",
"  # # # % & * = = = - = = = = = = = = = = = = = = ; > > > , , , ' = = = = = = = ) > > > > > ! ~ = = = = = = = = = = = = = = = = # # # ",
"  { { { ] ^ / / ( ( ( ( ( ( ( ( ( ( ( ( ( ( ( ( ( ( _ : < [ [ [ } : ( ( ( ( ( : } } } } } : _ ( ( ( ( ( ( ( ( ( ( ( ( ( ( ( ( ( { { { ",
"  | | | 1 1 1 1 2 3 2 3 3 3 3 3 3 3 3 3 3 3 3 3 3 3 3 4 5 6 7 7 7 8 : 3 3 3 : 8 7 7 7 6 9 0 3 3 3 3 3 3 3 3 3 3 3 3 3 3 3 3 3 3 | | | ",
"  | | | a b a b b b c c c c c c c c c c c c c c c c c c d e f f f g h i c ) h j k f l m d c c c c c c c c c c c c c c c c c c c | | | ",
"  | | | n n n o n p p p p p p p p p p p p p p p p p p p p q r s t u v w x y z A s t [ B p p p p p p p p p p p p p p p p p p p p | | | ",
"  C C C D E D D F G D G G G l G G G G H l l G G G l H G G G I J K H K L M N H H H O I G G G H l l l l l H G H l l H G G G G G G C C C ",
"  C C C P Q R S S S T T T l H l T T T T T l l T T l T T T T T U V V V W X Y Z `  .U T T T T T T T l T T T T T T l T T T T T T T C C C ",
"  C C C ..+...+.@.#.#.#.H l l l H #.#.#.#.l $.l #.l #.#.#.#.#.#.%.#.#.#.#.#.#.#.%.#.#.#.#.#.#.#.#.l #.#.#.#.#.#.l #.#.#.#.#.#.#.C C C ",
"  &.&.&.*.=.=.=.-.;.>.>.l >.>.H l >.>.>.>.l >.,.l l >.>.>.>.>.J  .` Z Y X W V V V J >.>.>.>.>.>.>.l >.>.>.>.>.>.l >.>.>.>.>.>.>.&.&.&.",
"  &.&.&.'.).!.!.!.!.~.H l !.!.H l H !.H l l !.!.{.l !.!.!.!.I J H H H H H H H H H O I !.!.!.!.!.H l H !.!.!.H l l H !.!.!.!.!.!.&.&.&.",
"  ].].].^./.(._._.:.:.:.:.:.:.:.:.:.:.:.:.:.:.:.:.:.:.:.:.<.r r r [.[.[.}.}.|.|.[ [ |.1.:.:.:.:.:.:.:.:.:.:.:.:.:.:.:.:.:.:.:.:.].].].",
"  2.2.2.3.4.5.6.7.8.5.8.8.8.8.8.8.8.8.8.8.8.8.8.8.8.8.8.d f 9.f f f h i 8.i h f f f 9.9.d 8.8.8.8.8.8.8.8.8.8.8.8.8.8.8.8.8.8.8.2.2.2.",
"  2.2.2.0.a.a.b.b.b.c.c.c.c.c.c.c.c.c.c.c.c.c.c.c.c.c.d.e.f.g.t 7 8 : c.c.c.: h.i.t j.< k.l.c.c.c.c.c.c.c.c.c.c.c.c.c.c.c.c.c.c.2.2.2.",
"  m.m.m.n.o.p.q.p.q.q.q.q.q.q.q.q.q.q.q.q.q.q.q.q.q.r.: w t g.[ } : q.q.q.q.q.: } g.g.t < : s.q.q.q.q.q.q.q.q.q.q.q.q.q.q.q.q.q.m.m.m.",
"  t.t.t.u.u.v.w.x.y.z.z.z.z.z.z.z.z.z.z.z.z.z.z.z.1.A.|., B.> C.: z.z.z.z.z.z.z.: }.u u D.r A.1.z.z.z.z.z.z.z.z.z.z.z.z.z.z.z.z.t.t.t.",
"  t.t.t.E.E.F.F.F.G.F.H.H.H.H.H.H.H.H.H.H.H.H.H.H.H.H.H.H.H.H.H.H.H.H.H.H.H.H.H.H.H.H.H.H.H.H.H.H.H.H.H.H.H.H.H.H.H.H.H.H.H.H.H.t.t.t.",
"  I.I.I.I.I.I.I.I.I.I.I.I.I.I.I.I.I.I.I.I.I.I.I.I.I.I.I.I.I.I.I.I.I.I.I.I.I.I.I.I.I.I.I.I.I.I.I.I.I.I.I.I.I.I.I.I.I.I.I.I.I.I.I.I.I.I.",
"  I.I.I.I.I.I.I.I.I.I.I.I.I.I.I.I.I.I.I.I.I.I.I.I.I.I.I.I.I.I.I.I.I.I.I.I.I.I.I.I.I.I.I.I.I.I.I.I.I.I.I.I.I.I.I.I.I.I.I.I.I.I.I.I.I.I.",
"  J.J.J.J.J.J.J.J.J.J.J.J.J.J.J.J.J.J.J.J.J.J.J.J.J.J.J.J.J.J.J.J.J.J.J.J.J.J.J.J.J.J.J.J.J.J.J.J.J.J.J.J.J.J.J.J.J.J.J.J.J.J.J.J.J.J."};
