/* XPM */
static char * collapse_xpm[] = {
"28 24 46 1",
" 	c None",
".	c #080000",
"+	c #BCA89A",
"@	c #FFFFFF",
"#	c #BBA799",
"$	c #BCA799",
"%	c #BAA698",
"&	c #B9A597",
"*	c #949284",
"=	c #000000",
"-	c #908D80",
";	c #8D8B7D",
">	c #878478",
",	c #737166",
"'	c #7E7B6F",
")	c #57554D",
"!	c #757267",
"~	c #494841",
"{	c #BCAA9C",
"]	c #6B685F",
"^	c #2E2D29",
"/	c #625F56",
"(	c #BCA99B",
"_	c #C0AEA0",
":	c #C1AFA1",
"<	c #59554D",
"[	c #C4B3A6",
"}	c #504C45",
"|	c #C9B9AD",
"1	c #47433D",
"2	c #CDBEB3",
"3	c #3E3A35",
"4	c #D1C2B7",
"5	c #34302C",
"6	c #D6C8BE",
"7	c #D5C7BD",
"8	c #DBCEC5",
"9	c #DACDC4",
"0	c #DFD4CB",
"a	c #DED4CA",
"b	c #DED3CA",
"c	c #E2D7CE",
"d	c #E9E1D9",
"e	c #E9E0D9",
"f	c #E9E1DB",
"g	c #E9E1DA",
".................           ",
".+++++++++++++++@           ",
".+++++++++#####$@           ",
".++++++########+@           ",
".######%%&&&&&&%@           ",
".%%%%%*%%%&&&&&%@           ",
".####*=*%%######@           ",
".++++-==;+++++++@           ",
".++++>===,++++++@           ",
".####'====)#####@           ",
".++++!=====~++++@           ",
".{{{{]======^{{{@           ",
".{{{{/======({{{@           ",
".___:<=====_____@           ",
".[[[[}====[[[[[[@           ",
".||||1===|||||||@           ",
".22223==22222222@           ",
".44445=444444444@           ",
".666777777777777@           ",
".888888888888889@           ",
".00abbbbbbbbbbbb@           ",
".ccccccccccccccc@           ",
".dddddddddddddde@           ",
".ffffffffgdddddg@           "};
