/* XPM */
static char * icewm_xpm[] = {
"66 24 177 2",
"  	c None",
". 	c #FFFFFF",
"+ 	c #859098",
"@ 	c #87929A",
"# 	c #EBDFD7",
"$ 	c #848E9C",
"% 	c #3B3B3B",
"& 	c #87919F",
"* 	c #393938",
"= 	c #393939",
"- 	c #383839",
"; 	c #383838",
"> 	c #373838",
", 	c #635F5B",
"' 	c #938B82",
") 	c #928A81",
"! 	c #9B948C",
"~ 	c #78736D",
"{ 	c #938B83",
"] 	c #5C5955",
"^ 	c #8B94A2",
"/ 	c #353535",
"( 	c #343435",
"_ 	c #343535",
": 	c #343434",
"< 	c #837E77",
"[ 	c #969088",
"} 	c #8D847B",
"| 	c #8D857C",
"1 	c #877F76",
"2 	c #8F97A5",
"3 	c #313131",
"4 	c #303031",
"5 	c #313030",
"6 	c #7B7670",
"7 	c #B5ACA3",
"8 	c #8D847C",
"9 	c #8E857D",
"0 	c #887F77",
"a 	c #BCB4AA",
"b 	c #88827C",
"c 	c #929BA9",
"d 	c #2E2E2D",
"e 	c #2D2D2D",
"f 	c #2C2D2D",
"g 	c #7E7972",
"h 	c #AEA69C",
"i 	c #B0A89E",
"j 	c #AFA69D",
"k 	c #B5B0A8",
"l 	c #827C76",
"m 	c #ADA59B",
"n 	c #B0A89D",
"o 	c #AEA69B",
"p 	c #ABA49B",
"q 	c #969EAC",
"r 	c #2A2A2A",
"s 	c #2A2929",
"t 	c #292929",
"u 	c #736E68",
"v 	c #918980",
"w 	c #91887E",
"x 	c #90877E",
"y 	c #91887F",
"z 	c #8F877D",
"A 	c #8A8279",
"B 	c #807A71",
"C 	c #878076",
"D 	c #8E867C",
"E 	c #90887E",
"F 	c #716C65",
"G 	c #99A2AF",
"H 	c #262626",
"I 	c #262627",
"J 	c #262525",
"K 	c #252625",
"L 	c #70695F",
"M 	c #6E6962",
"N 	c #766F65",
"O 	c #71695F",
"P 	c #6F675E",
"Q 	c #6C665C",
"R 	c #70685F",
"S 	c #736C63",
"T 	c #9EA5B3",
"U 	c #232223",
"V 	c #222322",
"W 	c #222223",
"X 	c #222222",
"Y 	c #222122",
"Z 	c #656057",
"` 	c #46413B",
" .	c #45403B",
"..	c #45403A",
"+.	c #443F3A",
"@.	c #433E39",
"#.	c #433E38",
"$.	c #423D37",
"%.	c #A1A9B6",
"&.	c #1F1F1F",
"*.	c #1E1E1F",
"=.	c #1F1F1E",
"-.	c #1E1E1E",
";.	c #5F5B55",
">.	c #676057",
",.	c #A5ACB9",
"'.	c #1B1C1B",
").	c #1B1B1B",
"!.	c #1B1B1A",
"~.	c #1B1A1B",
"{.	c #1A1A1A",
"].	c #615C56",
"^.	c #A9AFBC",
"/.	c #181717",
"(.	c #181718",
"_.	c #171717",
":.	c #171617",
"<.	c #5B5853",
"[.	c #ADB3C0",
"}.	c #141414",
"|.	c #141413",
"1.	c #141313",
"2.	c #131314",
"3.	c #131313",
"4.	c #605B56",
"5.	c #90887F",
"6.	c #8F877E",
"7.	c #8E867D",
"8.	c #69645E",
"9.	c #B1B7C3",
"0.	c #101011",
"a.	c #111010",
"b.	c #101010",
"c.	c #100F10",
"d.	c #10100F",
"e.	c #0F100F",
"f.	c #AFA79D",
"g.	c #B5BAC6",
"h.	c #0C0C0D",
"i.	c #0C0D0C",
"j.	c #0C0C0C",
"k.	c #0C0B0B",
"l.	c #56524D",
"m.	c #7F7870",
"n.	c #8B827A",
"o.	c #8F867D",
"p.	c #8A8179",
"q.	c #8E857C",
"r.	c #90867E",
"s.	c #877E75",
"t.	c #6A645E",
"u.	c #B8BECA",
"v.	c #090909",
"w.	c #090808",
"x.	c #080908",
"y.	c #080808",
"z.	c #58534F",
"A.	c #69655E",
"B.	c #BCC1CD",
"C.	c #050505",
"D.	c #040505",
"E.	c #050404",
"F.	c #050504",
"G.	c #040405",
"H.	c #040404",
"I.	c #8B847B",
"J.	c #928B81",
"K.	c #908880",
"L.	c #928980",
"M.	c #A4A1A0",
"N.	c #020202",
"O.	c #010101",
"P.	c #000101",
"Q.	c #000000",
"R.	c #BEC5CF",
"S.	c #C3C9D3",
"T.	c #848180",
". . . . . . . . . . . . . . . . . . . . . . . . . . . . . . . . . . . . . . . . . . . . . . . . . . . . . . . . . . . . . . . . . . ",
"+ + + + + + + + + + + + + + + + + + + + + + + + + + + + + + + + + + + + + + + + + + + + + + + + + + + + + + + + + + + + + + + + + + ",
"@ @ @ @ @ @ @ @ @ @ @ @ @ @ @ @ @ @ @ @ @ @ @ @ @ @ @ @ @ @ @ @ @ @ @ @ @ @ @ @ @ @ @ @ @ @ @ @ @ @ @ @ @ @ @ @ @ @ @ @ @ @ @ @ @ @ ",
"# # # # # # # # # # # # # # # # # # # # # # # # # # # # # # # # # # # # # # # # # # # # # # # # # # # # # # # # # # # # # # # # # # ",
"$ $ $ % % % % % % % % % % % % % % % % % % % % % % % % % % % % % % % % % % % % % % % % % % % % % % % % % % % % % % % % % % % % $ $ $ ",
"& & & * = - ; ; ; > ; ; ; ; ; ; ; ; ; ; ; ; ; ; , ' ' ' ) ) ) ! ; ; ; ; ; ; ; ~ ' ' ' ' ' { ] ; ; ; ; ; ; ; ; ; ; ; ; ; ; ; ; & & & ",
"^ ^ ^ / ( _ _ : : : : : : : : : : : : : : : : : : < [ } | | | 1 [ : : : : : [ 1 1 1 1 1 [ < : : : : : : : : : : : : : : : : : ^ ^ ^ ",
"2 2 2 3 3 3 3 4 5 4 5 5 5 5 5 5 5 5 5 5 5 5 5 5 5 5 6 7 8 9 9 9 0 [ 5 5 5 [ 0 9 9 9 8 a b 5 5 5 5 5 5 5 5 5 5 5 5 5 5 5 5 5 5 2 2 2 ",
"c c c d e d e e e f f f f f f f f f f f f f f f f f f g h i i i j k l f ~ k m n i o p g f f f f f f f f f f f f f f f f f f f c c c ",
"q q q r r r s r t t t t t t t t t t t t t t t t t t t t u v w x y z A B C D E w x | F t t t t t t t t t t t t t t t t t t t t q q q ",
"G G G H I H H J K H K K K o K K K K L o o K K K o L K K K M N O L O P Q R L L L S M K K K L o o o o o L K L o o L K K K K K K G G G ",
"T T T U V W X X X Y Y Y o L o Y Y Y Y Y o o Y Y o Y Y Y Y Y Z ` ` `  ...+.@.#.$.Z Y Y Y Y Y Y Y o Y Y Y Y Y Y o Y Y Y Y Y Y Y T T T ",
"%.%.%.&.*.&.*.=.-.-.-.L o o o L -.-.-.-.o ;.o -.o -.-.-.-.-.-.>.-.-.-.-.-.-.-.>.-.-.-.-.-.-.-.-.o -.-.-.-.-.-.o -.-.-.-.-.-.-.%.%.%.",
",.,.,.'.).).).!.~.{.{.o {.{.L o {.{.{.{.o {.].o o {.{.{.{.{.N $.#.@.+... .` ` ` N {.{.{.{.{.{.{.o {.{.{.{.{.{.o {.{.{.{.{.{.{.,.,.,.",
"^.^.^./.(._._._._.:.L o _._.L o L _.L o o _._.<.o _._._._.M N L L L L L L L L L S M _._._._._.L o L _._._.L o o L _._._._._._.^.^.^.",
"[.[.[.}.|.1.2.2.3.3.3.3.3.3.3.3.3.3.3.3.3.3.3.3.3.3.3.3.4.v v v 5.5.5.6.6.7.7.| | 7.8.3.3.3.3.3.3.3.3.3.3.3.3.3.3.3.3.3.3.3.3.[.[.[.",
"9.9.9.0.a.b.c.d.e.b.e.e.e.e.e.e.e.e.e.e.e.e.e.e.e.e.e.g i f.i i i k l e.l k i i i f.f.g e.e.e.e.e.e.e.e.e.e.e.e.e.e.e.e.e.e.e.9.9.9.",
"g.g.g.h.i.i.j.j.j.k.k.k.k.k.k.k.k.k.k.k.k.k.k.k.k.k.l.m.n.o.x 9 0 [ k.k.k.[ p.q.x r.} s.t.k.k.k.k.k.k.k.k.k.k.k.k.k.k.k.k.k.k.g.g.g.",
"u.u.u.v.w.x.y.x.y.y.y.y.y.y.y.y.y.y.y.y.y.y.y.y.y.z.[ A x o.| 1 [ y.y.y.y.y.[ 1 o.o.x } [ A.y.y.y.y.y.y.y.y.y.y.y.y.y.y.y.y.y.u.u.u.",
"B.B.B.C.C.D.E.F.G.H.H.H.H.H.H.H.H.H.H.H.H.H.H.H.8.I.7.) J.' K.[ H.H.H.H.H.H.H.[ 6.y y L.v I.8.H.H.H.H.H.H.H.H.H.H.H.H.H.H.H.H.B.B.B.",
"M.M.M.N.N.O.O.O.P.O.Q.Q.Q.Q.Q.Q.Q.Q.Q.Q.Q.Q.Q.Q.Q.Q.Q.Q.Q.Q.Q.Q.Q.Q.Q.Q.Q.Q.Q.Q.Q.Q.Q.Q.Q.Q.Q.Q.Q.Q.Q.Q.Q.Q.Q.Q.Q.Q.Q.Q.Q.Q.Q.M.M.M.",
"R.R.R.R.R.R.R.R.R.R.R.R.R.R.R.R.R.R.R.R.R.R.R.R.R.R.R.R.R.R.R.R.R.R.R.R.R.R.R.R.R.R.R.R.R.R.R.R.R.R.R.R.R.R.R.R.R.R.R.R.R.R.R.R.R.R.",
"S.S.S.S.S.S.S.S.S.S.S.S.S.S.S.S.S.S.S.S.S.S.S.S.S.S.S.S.S.S.S.S.S.S.S.S.S.S.S.S.S.S.S.S.S.S.S.S.S.S.S.S.S.S.S.S.S.S.S.S.S.S.S.S.S.S.",
"T.T.T.T.T.T.T.T.T.T.T.T.T.T.T.T.T.T.T.T.T.T.T.T.T.T.T.T.T.T.T.T.T.T.T.T.T.T.T.T.T.T.T.T.T.T.T.T.T.T.T.T.T.T.T.T.T.T.T.T.T.T.T.T.T.T."};
