/* XPM */
static char * taskbarbg_xpm[] = {
"8 26 71 1",
" 	c #FFFFFF",
".	c #859098",
"+	c #87929A",
"@	c #EBDFD7",
"#	c #848E9D",
"$	c #848E9C",
"%	c #838E9C",
"&	c #838D9D",
"*	c #87919F",
"=	c #87909F",
"-	c #8A94A2",
";	c #8B94A2",
">	c #8E98A5",
",	c #8E97A5",
"'	c #8E97A6",
")	c #8F98A5",
"!	c #8F98A6",
"~	c #8F97A5",
"{	c #929BA9",
"]	c #939BA9",
"^	c #929BA8",
"/	c #969EAC",
"(	c #969FAC",
"_	c #979FAC",
":	c #969FAD",
"<	c #99A2AF",
"[	c #9AA2AF",
"}	c #99A2B0",
"|	c #9AA3B0",
"1	c #9AA2B0",
"2	c #9EA5B3",
"3	c #9EA6B2",
"4	c #9EA6B3",
"5	c #A1A9B6",
"6	c #A1A9B5",
"7	c #A2A9B6",
"8	c #A1A9B7",
"9	c #A5ACB9",
"0	c #A5ADB9",
"a	c #A5ACBA",
"b	c #A6ADBA",
"c	c #A6ADB9",
"d	c #A9AFBC",
"e	c #A9B0BD",
"f	c #AAB0BD",
"g	c #A9B0BC",
"h	c #AAB0BC",
"i	c #ADB3C0",
"j	c #ADB4C0",
"k	c #ADB3BF",
"l	c #AEB3C0",
"m	c #B1B7C3",
"n	c #B0B7C3",
"o	c #B2B8C3",
"p	c #B1B7C4",
"q	c #B5BAC6",
"r	c #B4BAC7",
"s	c #B5BBC6",
"t	c #B4BBC7",
"u	c #B5BBC7",
"v	c #B8BECA",
"w	c #B9BECA",
"x	c #B8BFC9",
"y	c #BCC1CD",
"z	c #BDC1CD",
"A	c #BCC2CD",
"B	c #BDC2CD",
"C	c #A4A1A0",
"D	c #BEC5CF",
"E	c #C3C9D3",
"F	c #848180",
"        ",
"        ",
"........",
"++++++++",
"@@@@@@@@",
"#$$$%&%$",
"*====***",
"--;-;;;;",
">,')>!'~",
"{{]{^{]{",
"/(//((_:",
"<[[}[|11",
"22344444",
"55675758",
"9900abcb",
"ddeefghg",
"ijkijljj",
"mnmmmmop",
"qrsttuuu",
"vwvxwwvw",
"yzAABzBA",
"CCCCCCCC",
"DDDDDDDD",
"EEEEEEEE",
"FFFFFFFF",
"FFFFFFFF"};
