/* XPM */
static char * desktop_1_32_xpm[] = {
"32 32 339 2",
"  	c None",
". 	c #72A3AE",
"+ 	c #72A5B2",
"@ 	c #73A5B2",
"# 	c #71A4B1",
"$ 	c #7CACB9",
"% 	c #5C8E99",
"& 	c #2D636F",
"* 	c #80AFB9",
"= 	c #72A5B1",
"- 	c #77A9B5",
"; 	c #598C97",
"> 	c #7AB0BE",
", 	c #72A9B9",
"' 	c #77AEBE",
") 	c #6DA5B1",
"! 	c #82A3A9",
"~ 	c #E1E5E8",
"{ 	c #DDE2E6",
"] 	c #DEE3E6",
"^ 	c #E0E4E7",
"/ 	c #E0E4E8",
"( 	c #E0E5E8",
"_ 	c #E1E6E9",
": 	c #E1E6E8",
"< 	c #DFE4E7",
"[ 	c #E2E6E9",
"} 	c #BBC9CE",
"| 	c #5F929C",
"1 	c #7AB1BF",
"2 	c #73ABBA",
"3 	c #70A8B9",
"4 	c #7BAEB8",
"5 	c #679FAE",
"6 	c #6097A7",
"7 	c #649CAC",
"8 	c #5998A3",
"9 	c #73989E",
"0 	c #E9ECF0",
"a 	c #EFF1F4",
"b 	c #EFF2F4",
"c 	c #F1F3F6",
"d 	c #F3F5F8",
"e 	c #F6F8F9",
"f 	c #F7F8FA",
"g 	c #F8FAFC",
"h 	c #F9FAFC",
"i 	c #F5F7F9",
"j 	c #F4F5F8",
"k 	c #EEF1F4",
"l 	c #EAEDF1",
"m 	c #F4F3F7",
"n 	c #B1C1C7",
"o 	c #568D96",
"p 	c #64A0AE",
"q 	c #6299A9",
"r 	c #5F97A7",
"s 	c #67A2AD",
"t 	c #54909E",
"u 	c #518C9B",
"v 	c #4A8F9A",
"w 	c #7598A0",
"x 	c #EBECEF",
"y 	c #ECEEF2",
"z 	c #EAEDF0",
"A 	c #EDF0F2",
"B 	c #F0F2F4",
"C 	c #F1F3F5",
"D 	c #F2F5F7",
"E 	c #F4F6F8",
"F 	c #F5F6F8",
"G 	c #F3F5F7",
"H 	c #F2F3F6",
"I 	c #F0F1F4",
"J 	c #DEE3E8",
"K 	c #DBE0E4",
"L 	c #EDEDF0",
"M 	c #B1BFC4",
"N 	c #498791",
"O 	c #5293A1",
"P 	c #4F8595",
"Q 	c #5599A4",
"R 	c #468495",
"S 	c #358390",
"T 	c #759BA2",
"U 	c #E4E7EB",
"V 	c #E7EBEE",
"W 	c #E6EAEE",
"X 	c #EAECF0",
"Y 	c #EBEFF2",
"Z 	c #EDF0F3",
"` 	c #F0F2F5",
" .	c #F2F4F6",
"..	c #F2F4F7",
"+.	c #D6DCE2",
"@.	c #D9DEE3",
"#.	c #D5DAE0",
"$.	c #E6E8ED",
"%.	c #B1C0C6",
"&.	c #40838D",
"*.	c #3C7E8F",
"=.	c #468E9B",
"-.	c #328297",
";.	c #6E949D",
">.	c #E5E6EA",
",.	c #E3E7EB",
"'.	c #E3E6EB",
").	c #E6E9ED",
"!.	c #E8EBEF",
"~.	c #EBEDF1",
"{.	c #ECF0F2",
"].	c #EEF1F3",
"^.	c #DBE0E5",
"/.	c #D6DBE1",
"(.	c #D4DAE0",
"_.	c #D2D8DF",
":.	c #E7E8EE",
"<.	c #B2C0C4",
"[.	c #397B8B",
"}.	c #34889E",
"|.	c #487682",
"1.	c #ECECF0",
"2.	c #DFE3E8",
"3.	c #E1E6EA",
"4.	c #E4E8EB",
"5.	c #E7EAED",
"6.	c #E9ECEF",
"7.	c #EBEEF1",
"8.	c #ECEFF2",
"9.	c #D5DBE0",
"0.	c #D4D9DF",
"a.	c #EBECF0",
"b.	c #A2B2B8",
"c.	c #F4F4F7",
"d.	c #D8DDE3",
"e.	c #DDE1E6",
"f.	c #E0E5E9",
"g.	c #E2E6EA",
"h.	c #E4E8EC",
"i.	c #E6EAED",
"j.	c #E9EBEF",
"k.	c #E8EBEE",
"l.	c #DADFE4",
"m.	c #DBDFE4",
"n.	c #BDC6CC",
"o.	c #EFF1F3",
"p.	c #DEE2E8",
"q.	c #E0E4E9",
"r.	c #E7E9ED",
"s.	c #E7EBED",
"t.	c #E8EBF0",
"u.	c #D3D9DE",
"v.	c #D9DEE4",
"w.	c #E1E4E9",
"x.	c #B8C2C9",
"y.	c #EEF0F2",
"z.	c #D6DBE0",
"A.	c #DEE3E7",
"B.	c #E5E9EC",
"C.	c #E1E5E9",
"D.	c #E2E7EB",
"E.	c #E4E7EC",
"F.	c #DDE2E7",
"G.	c #D7DDE2",
"H.	c #B7C2C9",
"I.	c #ECEFF1",
"J.	c #D3D9DF",
"K.	c #DFE4E8",
"L.	c #E1E5EA",
"M.	c #DCE1E6",
"N.	c #E2E6EB",
"O.	c #E3E8EB",
"P.	c #E3E6EA",
"Q.	c #DCE0E5",
"R.	c #D5DBE1",
"S.	c #EBEDF0",
"T.	c #D1D8DE",
"U.	c #D8DDE2",
"V.	c #DCE1E7",
"W.	c #D9DFE3",
"X.	c #D9DFE4",
"Y.	c #DADFE5",
"Z.	c #DDE1E5",
"`.	c #D7DCE2",
" +	c #D6DCE1",
".+	c #CFD5DB",
"++	c #DFE3E7",
"@+	c #D7DDE3",
"#+	c #D7DCE1",
"$+	c #D1D7DD",
"%+	c #DADEE4",
"&+	c #E8EAEE",
"*+	c #CDD3DA",
"=+	c #D9DDE3",
"-+	c #DDE3E8",
";+	c #DEE2E7",
">+	c #DDE0E5",
",+	c #D0D6DC",
"'+	c #D2D8DE",
")+	c #D1D8DD",
"!+	c #D1D5DC",
"~+	c #D4DADF",
"{+	c #B6C1C8",
"]+	c #CAD2D9",
"^+	c #DADEE3",
"/+	c #D2D9DE",
"(+	c #CBD1D8",
"_+	c #D2D8DD",
":+	c #CCD3D9",
"<+	c #CED5DA",
"[+	c #CFD5DC",
"}+	c #D5DAE1",
"|+	c #E5E8EC",
"1+	c #C8CFD6",
"2+	c #CFD6DC",
"3+	c #CCD3DA",
"4+	c #CAD0D8",
"5+	c #CED4DB",
"6+	c #CDD4DB",
"7+	c #CBD2D9",
"8+	c #D1D7DE",
"9+	c #CED5DB",
"0+	c #D3D8DF",
"a+	c #B6C0C7",
"b+	c #7C909B",
"c+	c #C5CCD5",
"d+	c #D4D9E0",
"e+	c #C9D1D7",
"f+	c #C9D0D8",
"g+	c #CCD1D9",
"h+	c #CAD1D8",
"i+	c #CDD3DB",
"j+	c #D0D7DD",
"k+	c #BCC5CC",
"l+	c #507A84",
"m+	c #D7DDE1",
"n+	c #C8D0D7",
"o+	c #C8CFD7",
"p+	c #C8D0D6",
"q+	c #C7CED5",
"r+	c #D7DAE1",
"s+	c #93A9B0",
"t+	c #346975",
"u+	c #86B3BD",
"v+	c #628992",
"w+	c #C0C8D0",
"x+	c #C9D0D7",
"y+	c #C6CDD4",
"z+	c #CBD2D8",
"A+	c #C7CFD6",
"B+	c #C7CED6",
"C+	c #C9D1D8",
"D+	c #CCD2D9",
"E+	c #C6CDD5",
"F+	c #CED3DB",
"G+	c #8EA4AD",
"H+	c #61929C",
"I+	c #96BDC7",
"J+	c #7EB4C2",
"K+	c #6FA5B0",
"L+	c #648A93",
"M+	c #C4CBD3",
"N+	c #CAD1D9",
"O+	c #C5CDD5",
"P+	c #C6CED5",
"Q+	c #CBD1D9",
"R+	c #C6CFD5",
"S+	c #D3D6DE",
"T+	c #90A5AE",
"U+	c #5B8E97",
"V+	c #79B1BF",
"W+	c #79ACB7",
"X+	c #69A2B1",
"Y+	c #69A2B2",
"Z+	c #5F9BA7",
"`+	c #5E8791",
" @	c #C2C9D1",
".@	c #C3CAD2",
"+@	c #C3CAD3",
"@@	c #C3CBD3",
"#@	c #C4CCD3",
"$@	c #C3CCD3",
"%@	c #C4CCD4",
"&@	c #8FA5AD",
"*@	c #4A848F",
"=@	c #71A9B7",
"-@	c #629AAB",
";@	c #6CA5B0",
">@	c #5C96A5",
",@	c #558E9E",
"'@	c #5C95A5",
")@	c #50939F",
"!@	c #608C95",
"~@	c #C1C7CF",
"{@	c #CAD0D7",
"]@	c #C5CDD4",
"^@	c #C5CCD4",
"/@	c #C3CBD2",
"(@	c #D0D3DB",
"_@	c #90A6AF",
":@	c #498892",
"<@	c #5F9CAA",
"[@	c #558C9D",
"}@	c #5D9DA8",
"|@	c #498695",
"1@	c #447E8E",
"2@	c #447E8D",
"3@	c #488292",
"4@	c #418A97",
"5@	c #5A8891",
"6@	c #C3C9D1",
"7@	c #C2C9D2",
"8@	c #C0C9D1",
"9@	c #C1C9D1",
"0@	c #C1C8D1",
"a@	c #BFC7D0",
"b@	c #91A5AD",
"c@	c #3A808B",
"d@	c #498998",
"e@	c #447D8D",
"f@	c #447F8E",
"g@	c #437A8B",
"h@	c #4A939E",
"i@	c #3B8092",
"j@	c #397889",
"k@	c #39788A",
"l@	c #387789",
"m@	c #3B7A8C",
"n@	c #318296",
"o@	c #65919C",
"p@	c #CED6DC",
"q@	c #CED6DB",
"r@	c #9DB2B9",
"s@	c #368091",
"t@	c #3B8295",
"u@	c #387688",
"v@	c #397789",
"w@	c #378698",
"x@	c #1D697B",
"                                                                ",
"                                                                ",
"                                                                ",
"    . + @ # $ %                               & * = = = - ;     ",
"    > , , ' ) ! ~ { ] ^ / ( _ _ : ( ( < ] { [ } | 1 , 2 3 4     ",
"    5 6 7 8 9 0 a b c d e f g h h f i j c k l m n o p q r s     ",
"    t u v w x y z A B C D E F i F E G H I b J K L M N O P Q     ",
"    R S T U V W X Y Z `  ...E G  ...c C D l +.@.#.$.%.&.*.=.    ",
"    -.;.>.,.'.).!.~.{.Z B ` C C b ` ` a C ].^./.(._.:.<.[.}.    ",
"    |.1.J 2.3.4.5.6.7.8.Z a b A Z a ` A ].b X ( 9.0.@.a.b.      ",
"      c.d.e.f.g.h.i.!.l 7.7.6.j.6.7.7.l {.Z ].k.l.m.m.'.n.      ",
"      o.d.^.p.q.g.h.i.!.!.r.h.3.,.h.s.t.z 0 !.[ u.@.v.w.x.      ",
"      y.z.l.^.A.q.3.U B.U C.3.2.C.D.h.W 5.E.B.F.(.@.G.2.H.      ",
"      I.J.d.l.^.A.K.L.f.A.A.e.M.2.C.N.O.P.Q.G.d.l.G.R.e.H.      ",
"      S.T.9.U.v.m.V.^.W.e.C.X.Y.Z.M.Y.v.d.`. +X.G.9.J.^.H.      ",
"      X .+J.(./.U.@.^.++C./ G.@+#+G.G.R.J.(.v.`.9.J.$+%+H.      ",
"      &+*+J.`.=+l.-+2.;+Y.>+d.@.,+'+9.(.)+!+~+#.J.$+,+`.{+      ",
"      ).]+u.@.^+^.Y.@.^.{ ;+l./+(+$+J._+:+<+'+'+,+[+*+}+{+      ",
"      |+1+$+z.`.#+@.M.@.9.2+3+4+5+$+6+(+7+8+)+2+9+3+7+0+a+      ",
"    b+).c+5+d+(.U.@.2+7+e+f+f+g+7+h+f+7+5+2+9+i+7+7+4+j+k+      ",
"    l+m+(+f+5+_.`./.3+n+o+1+n+e+o+1+p+6+5+3+:+h+4+o+q+r+s+t+    ",
"    u+v+w+x+y+z+~+/.5+q+q+A+B+A+n+C+D+D+]+h+x+x+A+E+F+G+H+I+    ",
"    J+K+L+M+N+O+3+[+4+P+P+E+E+1+Q+h+h+C+x+n+A+R+O+S+T+U+V+W+    ",
"    X+Y+Z+`+ @E+.@+@@@#@@@$@%@q+A+B+q+P+P+O+E+%@Q+&@*@=@-@;@    ",
"    >@,@'@)@!@~@{@#@]@]@^@O+P+E+E+P+O+]@^@%@/@(@_@:@<@,@[@}@    ",
"    |@1@2@3@4@5@6@7@w+8@9@9@9@9@9@0@0@8@w+a@4+b@c@d@e@f@g@h@    ",
"    i@j@k@l@m@n@o@9+)+2+p@p@p@p@p@p@p@p@q@#+r@s@t@u@k@k@v@w@    ",
"              x@                                                ",
"                                                                ",
"                                                                ",
"                                                                ",
"                                                                "};
