/* XPM */
static char * taskbarbg_xpm[] = {
"12 42 78 1",
" 	c None",
".	c #E2E9EA",
"+	c #E2E9E9",
"@	c #E2E9E8",
"#	c #E1E8E9",
"$	c #E1E8EA",
"%	c #E0E7E9",
"&	c #E0E7E8",
"*	c #E0E7EA",
"=	c #DEE6E8",
"-	c #DEE5E8",
";	c #DEE5E7",
">	c #DEE6E7",
",	c #DDE5E7",
"'	c #DDE4E7",
")	c #DDE4E6",
"!	c #DDE5E6",
"~	c #DBE3E5",
"{	c #DBE2E5",
"]	c #DBE3E4",
"^	c #D9E1E3",
"/	c #D9E1E4",
"(	c #D7E0E2",
"_	c #D7DFE2",
":	c #D5DEE1",
"<	c #D4DDE0",
"[	c #D2DBDF",
"}	c #D3DCDF",
"|	c #D2DCDF",
"1	c #D0D9DD",
"2	c #D1DADD",
"3	c #D0DADD",
"4	c #CFD9DD",
"5	c #CDD7DB",
"6	c #CBD6DA",
"7	c #CCD6DA",
"8	c #CCD5DA",
"9	c #CBD5DA",
"0	c #CBD5D9",
"a	c #CAD5D9",
"b	c #CAD4D9",
"c	c #CAD4D8",
"d	c #C8D3D8",
"e	c #C6D2D7",
"f	c #C7D2D7",
"g	c #C5D0D6",
"h	c #C5D1D6",
"i	c #C3CED4",
"j	c #C3CFD4",
"k	c #C3D0D4",
"l	c #C2CDD3",
"m	c #C2CED3",
"n	c #C0CCD1",
"o	c #C0CCD2",
"p	c #BECAD0",
"q	c #BECAD1",
"r	c #BDC9D0",
"s	c #BDC9CF",
"t	c #BBC8CE",
"u	c #BCC8CE",
"v	c #BBC8CF",
"w	c #BAC7CD",
"x	c #BAC7CE",
"y	c #B8C5CB",
"z	c #B8C5CC",
"A	c #B6C3CA",
"B	c #B5C3CA",
"C	c #B7C3CA",
"D	c #B5C2C9",
"E	c #B4C2C9",
"F	c #B2C0C8",
"G	c #B3C0C8",
"H	c #B0BEC7",
"I	c #B1BEC7",
"J	c #B2BEC7",
"K	c #AFBDC6",
"L	c #B0BDC6",
"M	c #AEBCC4",
"............",
"............",
"............",
"............",
"............",
"............",
".++..+......",
"+..++.......",
"@..++.......",
"#####$$$$$$$",
"%&%*%%%%%%%%",
"%&&%%%%%%%%%",
"=-;;==>;-->>",
",')),,!)')!!",
"~{{~~~~{{~]]",
"^^^^^^//^^^^",
"((___(((__((",
"::::::::::::",
"<<<<<<<<<<<<",
"[[}|[[[[[|||",
"122331111333",
"444444444444",
"555555555555",
"666789996660",
"aaabbbbbbabc",
"dddddddddddd",
"efeefefffffe",
"gggggggggghg",
"iiiiiiiiijki",
"llllllllllml",
"nnooooooooon",
"pppppqqpppqp",
"rrssrrrsssrr",
"ttuuttvttvtt",
"wwwwwwxwwwww",
"yyyzyyzyyzyy",
"AABAAAAAACCB",
"DDEEEEEDEEDE",
"FFFFFFFGGGGG",
"HHHHHHIJJIIJ",
"KKKKKKKLLKLL",
"MMMMMMMMMMMM"};
