/* XPM */
static char * taskbuttonactive_xpm[] = {
"12 36 94 2",
"  	c None",
". 	c #AEBCC4",
"+ 	c #B0BEC6",
"@ 	c #B2BFC7",
"# 	c #B1BFC7",
"$ 	c #B1C0C7",
"% 	c #B4C1C9",
"& 	c #B3C1C9",
"* 	c #B3C2C9",
"= 	c #B6C3CB",
"- 	c #B7C3CA",
"; 	c #B6C3CA",
"> 	c #B6C4CA",
", 	c #B7C4CA",
"' 	c #B8C5CB",
") 	c #B7C5CB",
"! 	c #B8C5CC",
"~ 	c #BAC7CC",
"{ 	c #BAC7CD",
"] 	c #B9C7CD",
"^ 	c #BAC7CE",
"/ 	c #BBC8CF",
"( 	c #BBC8CE",
"_ 	c #BCC8CE",
": 	c #BCC8CF",
"< 	c #BECAD1",
"[ 	c #BECAD0",
"} 	c #BFCBD0",
"| 	c #BFCBD1",
"1 	c #C2CDD2",
"2 	c #C2CED3",
"3 	c #C1CDD3",
"4 	c #C2CDD3",
"5 	c #C3CED4",
"6 	c #C3D0D4",
"7 	c #C4CFD4",
"8 	c #C4CED4",
"9 	c #C3CED5",
"0 	c #C5D0D6",
"a 	c #C5D1D6",
"b 	c #C6D1D6",
"c 	c #C6D0D6",
"d 	c #C7D3D8",
"e 	c #C8D2D8",
"f 	c #C8D2D7",
"g 	c #C7D3D7",
"h 	c #C8D3D7",
"i 	c #C7D2D7",
"j 	c #C9D3D8",
"k 	c #C9D4D8",
"l 	c #C8D3D8",
"m 	c #C8D4D8",
"n 	c #CBD4D9",
"o 	c #CBD5DA",
"p 	c #CBD6DA",
"q 	c #CBD4DA",
"r 	c #CAD4DA",
"s 	c #CAD6DA",
"t 	c #CCD6DA",
"u 	c #CCD7DB",
"v 	c #CDD7DB",
"w 	c #CDD6DB",
"x 	c #CFD9DD",
"y 	c #D0DADD",
"z 	c #D0D9DD",
"A 	c #D1DADD",
"B 	c #D3DCDF",
"C 	c #D3DBDF",
"D 	c #D4DDE0",
"E 	c #D4DEE0",
"F 	c #D6DFE2",
"G 	c #D6E0E2",
"H 	c #D9E2E4",
"I 	c #D9E1E3",
"J 	c #D9E1E4",
"K 	c #D9E2E3",
"L 	c #DBE3E4",
"M 	c #DBE2E4",
"N 	c #DBE2E5",
"O 	c #DBE3E5",
"P 	c #DDE5E5",
"Q 	c #DDE4E6",
"R 	c #DDE4E7",
"S 	c #DDE5E6",
"T 	c #DDE5E7",
"U 	c #DDE3E7",
"V 	c #DFE6E8",
"W 	c #DFE6E7",
"X 	c #E1E8EA",
"Y 	c #E1E8E9",
"Z 	c #E0E7EA",
"` 	c #E0E7E8",
" .	c #E2E9EA",
"..	c #E2E9E9",
". . . . . . . . . . . . ",
"+ + + + + + + + + + + + ",
"@ @ @ @ @ # # # $ # @ @ ",
"% % % % % & & & * & % % ",
"= - - = ; ; ; ; > = ; , ",
"' ' ' ' ) ! ' ! ' ' ' ) ",
"~ { { { ] ^ { ^ { { { ] ",
"/ / ( ( _ / / / _ _ / : ",
"< < [ [ [ < < [ [ [ < < ",
"} | | | | | | | | | } } ",
"1 2 3 3 3 4 4 4 4 4 1 1 ",
"5 6 7 8 8 5 5 5 5 5 9 9 ",
"0 a b c c 0 0 0 0 0 0 0 ",
"d e f g g g g h g i i i ",
"j j k j j l j j j m k k ",
"n o p o q r q q o s p p ",
"t u u v v v u w v v u u ",
"x x x x x x x x x x x x ",
"y y y z z z z y y A A z ",
"B B B B B B B B B B B C ",
"D E D D D D D D D D E E ",
"F G F F F F F F F F G G ",
"H H I J J J I I I I K I ",
"L L M N N O O O M M N O ",
"P P Q R R S T T Q Q U T ",
"V V V V V W V V V W V V ",
"X X X X X X X X X Y Y X ",
"Z Z Z Z Z Z Z Z Z ` ` Z ",
"X X X X X X X X Y Y Y Y ",
" . . . . . . . ... . ...",
" . . . . . . . . . . . .",
" . . . . . . . . . . . .",
" . . . . . . . . . . . .",
" . . . . . . . . . . . .",
" . . . . . . . . . . . .",
" . . . . . . . . . . . ."};
