/* XPM */
static char * maximizeO_xpm[] = {
"13 36 40 1",
" 	c None",
".	c #4D3B23",
"+	c #4C3C23",
"@	c #4B3B22",
"#	c #654D31",
"$	c #634E31",
"%	c #654E2F",
"&	c #634E2F",
"*	c #624D30",
"=	c #533A1C",
"-	c #523B1C",
";	c #533A1B",
">	c #523B1B",
",	c #513A1B",
"'	c #523A1E",
")	c #503B1E",
"!	c #523A20",
"~	c #503B20",
"{	c #4F3B20",
"]	c #4D3C22",
"^	c #4C3C22",
"/	c #4F3B22",
"(	c #4E3A1F",
"_	c #4F3A1F",
":	c #EDF0DD",
"<	c #4B3D23",
"[	c #493D23",
"}	c #503C21",
"|	c #513C21",
"1	c #503A22",
"2	c #513B23",
"3	c #49381E",
"4	c #4B371F",
"5	c #4B371E",
"6	c #48371D",
"7	c #4C3D26",
"8	c #4C3C25",
"9	c #4B3C25",
"0	c #4B3B24",
"a	c #90C8C0",
".+.+.+.++@++@",
"#$#$%&#$$$*$$",
"=-=-;>=,=-=-=",
"')')')')!~')'",
"~~~{]@^]]/~~~",
"!!~](((((+/!_",
"~~~+((:((</!~",
"~~~+(:::(<{)~",
"{{~+:::::[()~",
"~~~+::(::[/~~",
"~~~+:(((:[/~~",
"~~~+((((([/~~",
"~~~](((((+/~~",
"~~~}]@+]]/~~~",
"~~~~~~~~~~|~~",
"({11{{21{{11{",
"3345334463443",
"7<889<0899889",
".+.+.+.++@++@",
"#$#$%&#$$$*$$",
"=-=-;>=,=-=-=",
"')')')')!~')'",
"~~~{]@^]]/~~~",
"!!~](((((+/!_",
"~~~+((a((</!~",
"~~~+(aaa(<{)~",
"{{~+aaaaa[()~",
"~~~+aa(aa[/~~",
"~~~+a(((a[/~~",
"~~~+((((([/~~",
"~~~](((((+/~~",
"~~~}]@+]]/~~~",
"~~~~~~~~~~|~~",
"({11{{21{{11{",
"3345334463443",
"7<889<0899889"};
