/* XPM */
static char * titleIT_xpm[] = {
"2 18 17 1",
" 	c None",
".	c #4C3C23",
"+	c #4B3B22",
"@	c #634E31",
"#	c #523B1C",
"$	c #533A1C",
"%	c #503B1E",
"&	c #523A1E",
"*	c #503B20",
"=	c #523A20",
"-	c #4F3A1F",
";	c #503A22",
">	c #4F3B20",
",	c #4B371F",
"'	c #49381E",
")	c #4C3C25",
"!	c #4B3C25",
".+",
"@@",
"#$",
"%&",
"**",
"=-",
"=*",
"%*",
"%*",
"**",
"**",
"**",
"**",
"**",
"**",
";>",
",'",
")!"};
