/* XPM */
static char * frameABR_xpm[] = {
"26 26 6 1",
" 	c None",
".	c #000000",
"+	c #677880",
"@	c #5B6C75",
"#	c #50626B",
"$	c #43555F",
"                    ......",
"                    .+@#$.",
"                    .+@#$.",
"                    .+@#$.",
"                    .+@#$.",
"                    .+@#$.",
"                    .+@#$.",
"                    .+@#$.",
"                    .+@#$.",
"                    .+@#$.",
"                    .+@#$.",
"                    .+@#$.",
"                    .+@#$.",
"                    .+@#$.",
"                    .+@#$.",
"                    .+@#$.",
"                    .+@#$.",
"                    .+@#$.",
"                    .+@#$.",
"                    .+@#$.",
".....................+@#$.",
".+++++++++++++++++++++@#$.",
".@@@@@@@@@@@@@@@@@@@@@@#$.",
".#######################$.",
".$$$$$$$$$$$$$$$$$$$$$$$$.",
".........................."};
