/* XPM */
static char * frameIB_xpm[] = {
"10 6 6 1",
" 	c None",
".	c #000000",
"+	c #868686",
"@	c #797979",
"#	c #6C6C6C",
"$	c #5D5D5D",
"..........",
"++++++++++",
"@@@@@@@@@@",
"##########",
"$$$$$$$$$$",
".........."};
