/* XPM */
static char * frameABR_xpm[] = {
"5 5 3 1",
" 	c None",
".	c #F5F5F5",
"+	c #F4F4F4",
"    .",
"    .",
"    +",
"    +",
"+++++"};
