/* XPM */
static char * maximizeA_xpm[] = {
"21 46 42 1",
" 	c None",
".	c #FEFEFE",
"+	c #FBFBFB",
"@	c #F8F8F8",
"#	c #F9F9F9",
"$	c #5D5D5D",
"%	c #393939",
"&	c #383838",
"*	c #4C4C4C",
"=	c #3C3C3C",
"-	c #222222",
";	c #0F0F0F",
">	c #272727",
",	c #E0E0E0",
"'	c #FFFFFF",
")	c #6E6E6E",
"!	c #919191",
"~	c #808080",
"{	c #303030",
"]	c #989898",
"^	c #D2D2D2",
"/	c #888888",
"(	c #6A6A6A",
"_	c #363636",
":	c #898989",
"<	c #787878",
"[	c #7C7C7C",
"}	c #7D7D7D",
"|	c #F4F4F4",
"1	c #F5F5F5",
"2	c #373737",
"3	c #181818",
"4	c #000000",
"5	c #1C1C1C",
"6	c #A4A4A4",
"7	c #C3C3C3",
"8	c #555555",
"9	c #262626",
"0	c #5C5C5C",
"a	c #969696",
"b	c #666666",
"c	c #2B2B2B",
".....................",
"+++++++++++++++++++++",
"@@@@@@@@@@@@@@@@@@@@@",
"@@@@@@@@@@@@@@@@@@@@@",
"#####################",
"#####################",
"@@@@@@@@@@@@@@@@@@@@@",
"@@@@@@@@@@@@@@@@@@@@@",
"$$$$%%%%&&%&%&%%%%$$$",
"****=-;;;;;;;;;;-=***",
"$$$$>,'''''''''',>$$$",
"))));!!!!!!!!!!!!;)))",
"~~~~{]^^^^^^^^^^]{~~~",
"////(_;;;;;;;;;;_(///",
"::::<[[}}[}}[}}[[<:::",
"|||||||||||||||||||||",
"111111111111111111111",
"111111111111111111111",
"|||||||||||||||||||||",
"|||||||||||||||||||||",
"111111111111111111111",
"111111111111111111111",
"|||||||||||||||||||||",
".....................",
"+++++++++++++++++++++",
"@@@@@@@@@@@@@@@@@@@@@",
"@@@@@@@@@@@@@@@@@@@@@",
"#####################",
"#####################",
"@@@@@@@@@@@@@@@@@@@@@",
"@@@@@@@@@@@@@@@@@@@@@",
"$$$$2%%%&%&%&&%%%2$$$",
"****&344444444443&***",
"$$$$56777777777765$$$",
"))))48888888888884)))",
"~~~~90aaaaaaaaaa09~~~",
"////bc4444444444cb///",
"::::<[[}}[}}[}}[[<:::",
"|||||||||||||||||||||",
"111111111111111111111",
"111111111111111111111",
"|||||||||||||||||||||",
"|||||||||||||||||||||",
"111111111111111111111",
"111111111111111111111",
"|||||||||||||||||||||"};
