/* XPM */
static char * desktop_1_24_xpm[] = {
"24 24 241 2",
"  	c None",
". 	c #6EA1AB",
"+ 	c #8BBDCB",
"@ 	c #8ABCCA",
"# 	c #8DBFCE",
"$ 	c #78A5AE",
"% 	c #758F99",
"& 	c #5D838D",
"* 	c #91C0CB",
"= 	c #89BBCA",
"- 	c #8EBFCD",
"; 	c #5E98A4",
"> 	c #639CAB",
", 	c #669EAD",
"' 	c #57939D",
") 	c #BECBD0",
"! 	c #F6F7F9",
"~ 	c #F4F6F8",
"{ 	c #F7F8FA",
"] 	c #FAFBFD",
"^ 	c #FCFCFE",
"/ 	c #FDFDFF",
"( 	c #FCFDFF",
"_ 	c #FAFBFC",
": 	c #F8F9FB",
"< 	c #F5F7F9",
"[ 	c #F1F3F6",
"} 	c #FAF8FB",
"| 	c #769AA1",
"1 	c #67A2AF",
"2 	c #639BAA",
"3 	c #639BAC",
"4 	c #4B8E99",
"5 	c #528A9A",
"6 	c #478B96",
"7 	c #B8C5CA",
"8 	c #F0F1F5",
"9 	c #EBEEF1",
"0 	c #EEF1F3",
"a 	c #F1F3F5",
"b 	c #F3F5F7",
"c 	c #F2F4F7",
"d 	c #F1F2F4",
"e 	c #E7EBEE",
"f 	c #D9DFE3",
"g 	c #EEEDF0",
"h 	c #70969E",
"i 	c #4E92A0",
"j 	c #508797",
"k 	c #398090",
"l 	c #358190",
"m 	c #B3C2C7",
"n 	c #EAECF0",
"o 	c #E6E9ED",
"p 	c #ECEFF2",
"q 	c #EFF1F4",
"r 	c #F1F4F6",
"s 	c #F2F4F6",
"t 	c #F0F2F4",
"u 	c #F2F5F7",
"v 	c #DFE3E8",
"w 	c #D8DDE3",
"x 	c #D5DBE0",
"y 	c #E7E8ED",
"z 	c #69949C",
"A 	c #3A7F91",
"B 	c #12667B",
"C 	c #B3C1C6",
"D 	c #E7E9EE",
"E 	c #E0E5E9",
"F 	c #E4E8EC",
"G 	c #E8EBEE",
"H 	c #EBEEF0",
"I 	c #EFF2F4",
"J 	c #F0F2F5",
"K 	c #F0F3F4",
"L 	c #E9ECF0",
"M 	c #DBE0E4",
"N 	c #D2D9DF",
"O 	c #D6DAE1",
"P 	c #E8E8ED",
"Q 	c #578692",
"R 	c #F5F5F8",
"S 	c #DADFE4",
"T 	c #E2E6EA",
"U 	c #E5E9ED",
"V 	c #EAEDF1",
"W 	c #ECEFF1",
"X 	c #EAEEF1",
"Y 	c #EAECEF",
"Z 	c #EAEDF0",
"` 	c #EDF0F2",
" .	c #EBEDF1",
"..	c #D9DEE3",
"+.	c #DCE0E5",
"@.	c #DADEE4",
"#.	c #A1AEB6",
"$.	c #EDEFF2",
"%.	c #DCE1E6",
"&.	c #E0E4E8",
"*.	c #E5E9EC",
"=.	c #E7EAEE",
"-.	c #E1E5E9",
";.	c #E2E7EB",
">.	c #E8EBEF",
",.	c #E9ECEF",
"'.	c #E4E7EB",
").	c #D3D9DE",
"!.	c #D7DDE2",
"~.	c #9CABB4",
"{.	c #ECEEF1",
"].	c #D6DCE1",
"^.	c #DFE4E8",
"/.	c #E1E5EA",
"(.	c #E3E7EC",
"_.	c #DDE2E7",
":.	c #E1E4E9",
"<.	c #E2E6EB",
"[.	c #E5E8EB",
"}.	c #DBE0E5",
"|.	c #D8DEE2",
"1.	c #D7DDE3",
"2.	c #D5DBE1",
"3.	c #D3D9E0",
"4.	c #D7DCE2",
"5.	c #DEE2E8",
"6.	c #DDE1E6",
"7.	c #DEE3E7",
"8.	c #DADFE5",
"9.	c #DDE2E6",
"0.	c #DBDFE5",
"a.	c #D5DAE0",
"b.	c #D8DDE2",
"c.	c #D4DAE0",
"d.	c #D3D8DE",
"e.	c #9BABB4",
"f.	c #D1D7DD",
"g.	c #D3DAE0",
"h.	c #D6DBE1",
"i.	c #D7DCE1",
"j.	c #D3D9DF",
"k.	c #D2D8DE",
"l.	c #E8EAEE",
"m.	c #CED5DB",
"n.	c #DADEE3",
"o.	c #DEE3E8",
"p.	c #CDD4DA",
"q.	c #CFD6DB",
"r.	c #D2D7DC",
"s.	c #D0D6DC",
"t.	c #CED4DB",
"u.	c #9BAAB4",
"v.	c #CBD2D9",
"w.	c #D9DDE3",
"x.	c #DCE1E5",
"y.	c #CFD4DB",
"z.	c #CFD5DB",
"A.	c #CCD2D9",
"B.	c #D0D7DD",
"C.	c #CFD5DC",
"D.	c #CCD3DA",
"E.	c #CBD1D9",
"F.	c #9BAAB3",
"G.	c #EAEBEF",
"H.	c #C7CFD7",
"I.	c #CDD4DB",
"J.	c #CAD1D8",
"K.	c #CCD1D9",
"L.	c #CBD3DA",
"M.	c #CAD1D9",
"N.	c #CFD6DC",
"O.	c #C8CFD6",
"P.	c #A0ADB6",
"Q.	c #366B77",
"R.	c #C0CCD0",
"S.	c #C8D0D7",
"T.	c #C9D0D7",
"U.	c #CCD4DA",
"V.	c #C9D0D8",
"W.	c #C7CED6",
"X.	c #D0D4DC",
"Y.	c #6A8D95",
"Z.	c #7EAEB9",
"`.	c #62939D",
" +	c #ACB9C1",
".+	c #CAD0D8",
"++	c #C7CFD5",
"@+	c #D3D8DF",
"#+	c #C7CED5",
"$+	c #C7CFD6",
"%+	c #C8D0D6",
"&+	c #C6CED5",
"*+	c #D2D6DD",
"=+	c #75939C",
"-+	c #7FB2BF",
";+	c #639BA7",
">+	c #6FA8B7",
",+	c #538993",
"'+	c #B7C0C8",
")+	c #C5CCD4",
"!+	c #C4CCD3",
"~+	c #C4CCD4",
"{+	c #C6CDD5",
"]+	c #C5CDD4",
"^+	c #76949D",
"/+	c #6BA4B0",
"(+	c #69A2B2",
"_+	c #51919D",
":+	c #568F9F",
"<+	c #5E98A7",
"[+	c #478690",
"}+	c #B6BEC6",
"|+	c #C5CDD5",
"1+	c #C5CCD5",
"2+	c #C3CCD3",
"3+	c #CED2DA",
"4+	c #7E9BA4",
"5+	c #5597A2",
"6+	c #578FA0",
"7+	c #3F8694",
"8+	c #427B8B",
"9+	c #417B8B",
"0+	c #458191",
"a+	c #3E808B",
"b+	c #BFC7CF",
"c+	c #C8CFD7",
"d+	c #CDD3DB",
"e+	c #849DA5",
"f+	c #3D8895",
"g+	c #427A8B",
"h+	c #427C8B",
"i+	c #427A8A",
"j+	c #1C6677",
"k+	c #2B7589",
"l+	c #2A7386",
"m+	c #297285",
"n+	c #2C7C92",
"o+	c #2F6D7A",
"p+	c #257A8E",
"q+	c #2A7285",
"r+	c #2A7689",
"                                                ",
"                                                ",
"                                                ",
"  . + @ # $ %                     & * = @ -     ",
"  ; > , ' ) ! ~ { ] ^ / ( _ : < [ } | 1 2 3     ",
"  4 5 6 7 8 9 0 a b ~ < ~ b c d e f g h i j     ",
"  k l m n o n p q r c b a s t u v w x y z A     ",
"  B C D E F G H p q t I 0 J 0 K L M N O P Q     ",
"    R S v T U G V W X Y Z `  .` 0 Z ..+.@.#.    ",
"    $...%.&.T *.=.=.F -.;.*.>.,.=.'.).S !.~.    ",
"    {.].S %.^./.(.-.^._.:.<.*.[.^.}.|.1.2.~.    ",
"    Z 3.4.S +.5.}.6.7.8.9._.%.0.a...b.c.d.e.    ",
"    ,.f.g.h.b.S 7.-.}.!.i...h.j.w 4.x k.f.~.    ",
"    l.m.!.n.%.o.%.S 6.f p.).c.q.r.c.k.s.t.u.    ",
"    o v.x w.w n.%.x.g.p.y.j.z.A.N B.C.D.E.F.    ",
"    G.H.d.a...].I.J.J.K.L.J.M.z.N.t.D.M.O.P.    ",
"  Q.R.K.v.B.4.k.S.O.O.T.O.O.U.I.L.J.V.W.X.Y.    ",
"  Z.`. +.+++).@+#+W.W.$+J.v.v.J.T.%+&+*+=+-+    ",
"  ;+>+,+'+W.)+)+!+!+~+{+T.O.$+W.&+]+y.^+/+(+    ",
"  _+:+<+[+}+#+)+|+1+&+{+&+{+]+)+2+3+4+5+:+6+    ",
"  7+8+9+0+a+b+c+H.c+c+c+c+c+H.$+d+e+f+g+h+i+    ",
"  j+k+l+m+n+o+                    p+q+l+l+r+    ",
"                                                ",
"                                                "};
