/* XPM */
static char * taskbuttonactive_xpm[] = {
"12 28 66 1",
" 	c None",
".	c #AFBDC5",
"+	c #B2BFC7",
"@	c #B1BFC7",
"#	c #B4C1C9",
"$	c #B3C1C9",
"%	c #B3C2C9",
"&	c #B6C3CB",
"*	c #B7C3CA",
"=	c #B6C3CA",
"-	c #B6C4CA",
";	c #B7C4CA",
">	c #B9C6CC",
",	c #B8C6CC",
"'	c #B9C6CD",
")	c #BBC8CE",
"!	c #BBC8CF",
"~	c #BCC8CE",
"{	c #BECAD1",
"]	c #BECAD0",
"^	c #C0CCD1",
"/	c #C0CCD2",
"(	c #C3CED4",
"_	c #C3CFD4",
":	c #C5D0D6",
"<	c #C5D1D6",
"[	c #C6D1D6",
"}	c #C6D0D6",
"|	c #C7D3D8",
"1	c #C8D2D8",
"2	c #C8D2D7",
"3	c #C7D3D7",
"4	c #C8D3D7",
"5	c #C7D2D7",
"6	c #CAD4D9",
"7	c #CAD5D9",
"8	c #C9D4D9",
"9	c #C9D5D9",
"0	c #CCD6DA",
"a	c #CCD7DB",
"b	c #CDD7DB",
"c	c #CDD6DB",
"d	c #CCD6DB",
"e	c #CFD9DD",
"f	c #D1DBDE",
"g	c #D1DADE",
"h	c #D2DBDE",
"i	c #D4DDE0",
"j	c #D6DFE2",
"k	c #D6E0E2",
"l	c #D9E2E4",
"m	c #D9E1E3",
"n	c #D9E1E4",
"o	c #D9E2E3",
"p	c #DCE4E5",
"q	c #DCE3E5",
"r	c #DCE3E6",
"s	c #DCE4E6",
"t	c #DEE6E7",
"u	c #DEE5E8",
"v	c #DEE6E8",
"w	c #DEE5E7",
"x	c #E1E8EA",
"y	c #E1E8E9",
"z	c #E2E9EA",
"A	c #E2E9E9",
"............",
"+@@++@@@@@@@",
"#####$$$%$##",
"&**&====-&=;",
">>>>,'>'>>>,",
")!)))!)!~~))",
"{{]]]{{]]]{{",
"^/////////^^",
"(_((((((((((",
":<[}}:::::::",
"|12333343555",
"667668666977",
"0aabcddcbaaa",
"eeeeeeeeeeee",
"fffggggffhhg",
"iiiiiiiiiiii",
"jkjjjjjjjjkk",
"llmnnnmmmmom",
"ppqrrsssqqrs",
"ttuuutvvwwuv",
"xxxxxxxxxyyx",
"xxxxxxxxxyyx",
"zzzzzzzzAzzA",
"zzzzzzzzzzzz",
"zzzzzzzzzzzz",
"zzzzzzzzzzzz",
"zzzzzzzzzzzz",
"zzzzzzzzzzzz"};
