/* XPM */
static char * taskbarbg_xpm[] = {
"12 34 83 1",
" 	c None",
".	c #E2E9EA",
"+	c #E2E9E9",
"@	c #E1E8E9",
"#	c #E1E8E8",
"$	c #E1E8EA",
"%	c #E0E7E9",
"&	c #E0E7E8",
"*	c #DEE5E8",
"=	c #DEE4E7",
"-	c #DEE5E6",
";	c #DEE4E6",
">	c #DEE5E7",
",	c #DEE6E8",
"'	c #DEE6E7",
")	c #DCE3E6",
"!	c #DCE2E6",
"~	c #DCE2E5",
"{	c #DCE3E5",
"]	c #DCE4E6",
"^	c #DCE4E4",
"/	c #DCE4E5",
"(	c #DAE2E4",
"_	c #DAE1E4",
":	c #DAE1E3",
"<	c #DAE2E5",
"[	c #DAE2E3",
"}	c #D7E0E2",
"|	c #D7DFE2",
"1	c #D7DEE2",
"2	c #D5DEE1",
"3	c #D2DBE0",
"4	c #D3DCE0",
"5	c #D3DDE0",
"6	c #D2DDE0",
"7	c #D3DBE0",
"8	c #D1DADE",
"9	c #D2DBDE",
"0	c #D1DBDE",
"a	c #D0DBDE",
"b	c #D1D9DE",
"c	c #CFD9DD",
"d	c #CED9DD",
"e	c #CDD7DB",
"f	c #CBD6DA",
"g	c #CAD6DA",
"h	c #CBD5DA",
"i	c #CBD4DA",
"j	c #CAD5DA",
"k	c #CBD4D9",
"l	c #C9D4D9",
"m	c #C6D2D7",
"n	c #C7D2D7",
"o	c #C5D0D6",
"p	c #C5CFD6",
"q	c #C5D1D6",
"r	c #C3CED4",
"s	c #C3CDD4",
"t	c #C3CFD4",
"u	c #C1CDD2",
"v	c #C1CDD1",
"w	c #C1CDD3",
"x	c #BFCBD1",
"y	c #BFCBD0",
"z	c #BDC9D0",
"A	c #BDC9CF",
"B	c #BDC9CE",
"C	c #BBC8CE",
"D	c #BAC8CE",
"E	c #BBC8CD",
"F	c #B9C6CC",
"G	c #B9C6CB",
"H	c #B7C4CB",
"I	c #B6C4CB",
"J	c #B5C4CB",
"K	c #B5C2C9",
"L	c #B4C2C9",
"M	c #B3C2C9",
"N	c #B2C0C8",
"O	c #B3C0C8",
"P	c #B0BEC7",
"Q	c #B1BEC7",
"R	c #AFBDC5",
"............",
"............",
"............",
"............",
"............",
"............",
"+..++.......",
"+..++.......",
"@#@$$$$$$$$$",
"%&&%%%%%%%%%",
"*=-;>,-=*=-'",
")!~{]])!!{^/",
"((((_:<([(((",
"}}|11|}|1|}}",
"222222222222",
"345647447455",
"890a0888b800",
"cdccdccccccc",
"eeeeeeeeeeee",
"ffghijhihfhk",
"llllllllllll",
"mnmmnmnnmnnm",
"oooooooopoqo",
"rrrrrrrrsrtr",
"uvuwwwwwuuwu",
"xxxxyxxyyyxx",
"zzABAzABBAzz",
"CDCCDECEECCE",
"FFGFFGFGGFFG",
"HIJIHHHHIHHI",
"KLMLLLLKLLKL",
"NNNNNNNOOOOO",
"PPPPPPPQQPPQ",
"RRRRRRRRRRRR"};
