/* XPM */
static char * closeI_xpm[] = {
"18 48 250 2",
"  	c None",
". 	c #FFFFFF",
"+ 	c #FFFDFE",
"@ 	c #FCFDFD",
"# 	c #F2F2F2",
"$ 	c #D8D8D8",
"% 	c #BFBFBF",
"& 	c #ABABAB",
"* 	c #959595",
"= 	c #888888",
"- 	c #8E8E8E",
"; 	c #AFAFAF",
"> 	c #D1D1D1",
", 	c #FDFDFB",
"' 	c #FDFBFC",
") 	c #F4F4F4",
"! 	c #C5C5C5",
"~ 	c #B4B4B4",
"{ 	c #BDBDBD",
"] 	c #C3C3C3",
"^ 	c #B6B6B6",
"/ 	c #A6A6A6",
"( 	c #8D8D8D",
"_ 	c #838383",
": 	c #B0B0B0",
"< 	c #FDFFFE",
"[ 	c #FDFDFD",
"} 	c #C2C2C2",
"| 	c #B8B8B8",
"1 	c #D4D4D4",
"2 	c #DCDCDC",
"3 	c #D6D6D6",
"4 	c #CACACA",
"5 	c #C0C0C0",
"6 	c #B5B5B5",
"7 	c #9A9A9A",
"8 	c #787878",
"9 	c #EFEFEF",
"0 	c #DBDBDB",
"a 	c #B9B9B9",
"b 	c #DFDFDF",
"c 	c #E8E8E8",
"d 	c #E5E5E5",
"e 	c #DADADA",
"f 	c #D3D3D3",
"g 	c #C8C8C8",
"h 	c #A2A2A2",
"i 	c #868686",
"j 	c #FEFEFE",
"k 	c #F3F3F3",
"l 	c #C7C7C7",
"m 	c #F0F0F0",
"n 	c #EEEEEE",
"o 	c #EAEAEA",
"p 	c #D9D9D9",
"q 	c #D0D0D0",
"r 	c #929292",
"s 	c #A4A4A4",
"t 	c #FCFDFC",
"u 	c #F1F1F1",
"v 	c #BEBEBE",
"w 	c #F5F5F5",
"x 	c #F6F6F6",
"y 	c #EDEDED",
"z 	c #E3E3E3",
"A 	c #D5D5D5",
"B 	c #AEAEAE",
"C 	c #828282",
"D 	c #FBFAFB",
"E 	c #B1B1B1",
"F 	c #E7E7E7",
"G 	c #F8F8F8",
"H 	c #F7F7F7",
"I 	c #DEDEDE",
"J 	c #686868",
"K 	c #F9F8F9",
"L 	c #B2B2B2",
"M 	c #E9E9E9",
"N 	c #F6F5F6",
"O 	c #DBDCDC",
"P 	c #E0E0E0",
"Q 	c #C1C1C1",
"R 	c #949494",
"S 	c #F0F0F1",
"T 	c #BCBCBC",
"U 	c #E4E4E4",
"V 	c #EBEBEB",
"W 	c #E6E6E6",
"X 	c #D2D2D2",
"Y 	c #CBCBCB",
"Z 	c #C9C9C9",
"` 	c #A1A1A1",
" .	c #EDEEEF",
"..	c #ECEDEE",
"+.	c #D7D7D7",
"@.	c #CDCDCD",
"#.	c #797979",
"$.	c #F3F5F4",
"%.	c #EBEBEC",
"&.	c #F5F1F0",
"*.	c #C6C6C6",
"=.	c #C4C4C4",
"-.	c #B7B7B7",
";.	c #A5A5A5",
">.	c #F0F4F3",
",.	c #F2F2F0",
"'.	c #E8E9E9",
").	c #898989",
"!.	c #F2F1EF",
"~.	c #E6E6E7",
"{.	c #F2F2F4",
"].	c #F0F0EE",
"^.	c #F0F2F1",
"/.	c #EFEFF1",
"(.	c #F8FAF9",
"_.	c #F7F8FA",
":.	c #F7F7F5",
"<.	c #EFEDF0",
"[.	c #F1F0F5",
"}.	c #F0EEEF",
"|.	c #F0F0F2",
"1.	c #F1F0EE",
"2.	c #E4E4E5",
"3.	c #E3E3E4",
"4.	c #3C3C3C",
"5.	c #121212",
"6.	c #8F8F8F",
"7.	c #292929",
"8.	c #141414",
"9.	c #444444",
"0.	c #5E5E5E",
"a.	c #0D0D0D",
"b.	c #222222",
"c.	c #686A6D",
"d.	c #989A9C",
"e.	c #ADADAF",
"f.	c #04090E",
"g.	c #353A3F",
"h.	c #2C3033",
"i.	c #969A9E",
"j.	c #9DA0A1",
"k.	c #9BA0A1",
"l.	c #959A9E",
"m.	c #040A0E",
"n.	c #000000",
"o.	c #1C262F",
"p.	c #000004",
"q.	c #060C15",
"r.	c #6C7279",
"s.	c #6B7279",
"t.	c #050C15",
"u.	c #1A242D",
"v.	c #848484",
"w.	c #414141",
"x.	c #08131C",
"y.	c #2F3B47",
"z.	c #454E5A",
"A.	c #00030D",
"B.	c #070F19",
"C.	c #454F59",
"D.	c #303A46",
"E.	c #131313",
"F.	c #26313B",
"G.	c #47515C",
"H.	c #545E6A",
"I.	c #626C75",
"J.	c #121C23",
"K.	c #030D14",
"L.	c #646F78",
"M.	c #56626C",
"N.	c #4A525F",
"O.	c #26323B",
"P.	c #101010",
"Q.	c #39454F",
"R.	c #5B646F",
"S.	c #6A747E",
"T.	c #79818A",
"U.	c #313942",
"V.	c #182029",
"W.	c #313A43",
"X.	c #7B848E",
"Y.	c #6B7680",
"Z.	c #5D6772",
"`.	c #3C4650",
" +	c #3E3E3E",
".+	c #444C55",
"++	c #6A737D",
"@+	c #7D878F",
"#+	c #424A55",
"$+	c #2C333F",
"%+	c #39404B",
"&+	c #39404C",
"*+	c #434A56",
"=+	c #7E8790",
"-+	c #6C7781",
";+	c #464D56",
">+	c #7B7B7B",
",+	c #3B424B",
"'+	c #717B83",
")+	c #515963",
"!+	c #3F4751",
"~+	c #4A525C",
"{+	c #ACB3BE",
"]+	c #ADB4C0",
"^+	c #4B535D",
"/+	c #747E87",
"(+	c #3C474F",
"_+	c #454C54",
":+	c #6A747C",
"<+	c #7D8689",
"[+	c #585E5E",
"}+	c #B3BBC3",
"|+	c #BCC3CC",
"1+	c #BEC6CD",
"2+	c #B6BFC7",
"3+	c #585E5F",
"4+	c #82878D",
"5+	c #6F787F",
"6+	c #484F55",
"7+	c #94969A",
"8+	c #4E555F",
"9+	c #7F878F",
"0+	c #A6ACB5",
"a+	c #BAC1C7",
"b+	c #C6CBCB",
"c+	c #C7CBCB",
"d+	c #BCC5C7",
"e+	c #ABB3B9",
"f+	c #899198",
"g+	c #535C63",
"h+	c #96989B",
"i+	c #ECECEC",
"j+	c #959A9B",
"k+	c #585F65",
"l+	c #727981",
"m+	c #9BA3A6",
"n+	c #AEB4B3",
"o+	c #B0B4B3",
"p+	c #9FA6AA",
"q+	c #7B848C",
"r+	c #5F676E",
"s+	c #969799",
"t+	c #C7C8C9",
"u+	c #8E9297",
"v+	c #717679",
"w+	c #646A6A",
"x+	c #656B6A",
"y+	c #787E81",
"z+	c #93979C",
"A+	c #C8C9CA",
". . . . . . . . . . . . . . . . . . ",
". . . . . . . . . . . . . . . . . . ",
". . . . . . . . . . . . . . . . . . ",
". . . . . . . . . . . . . . . . . . ",
". . . . . . . . . . . . . . . . . . ",
". . + @ # $ % & * = - ; > , . + . . ",
". . ' ) ! ~ { ! ] ^ / ( _ : + < . . ",
". [ # } | 1 2 2 3 4 5 6 7 8 : + . . ",
". 9 0 a b c c d e f 4 g ] h i > . . ",
"j k % l m k n o c p q 1 0 4 r s j j ",
"t u v 0 w x # y z p A p d b B C t t ",
"D o E F G H w 9 d I A p c c { J D D ",
"K o L M H H w m c I 1 p c c { J K K ",
"N n } 2 ) H k 9 d O 1 $ F P B C N N ",
"k # Q 4 u w 9 o F $ q 1 0 4 R s k k ",
"S 9 0 T U V c W $ X Y Z ] ` i > S S ",
" ...u } T 3 I 2 +.@.5 ~ 7 #.: $. . .",
"%.%.&.k *.6 v *.=.-.;.( _ E >.,.%.%.",
"'.'.k u # p v & * ).- ; X u !.) '.'.",
"~.~.{.].^.m /.(.G _.:.<.[.}.|.1.~.~.",
"2.2.2.2.2.2.2.2.2.2.2.2.2.2.2.2.2.2.",
"3.3.3.3.3.3.3.3.3.3.3.3.3.3.3.3.3.3.",
"3.3.3.3.3.3.3.3.3.3.3.3.3.3.3.3.3.3.",
"L L L L L L L L L L L L L L L L L L ",
". . . . . . . . . . . . . . . . . . ",
". . . . . . . . . . . . . . . . . . ",
". . . . . . . . . . . . . . . . . . ",
". . . . . . . . . . . . . . . . . . ",
". . . . . . . . . . . . . . . . . . ",
". . + @ # v 8 4.5.5.4.8 v , . + . . ",
". . ' ) 6.7.8.9.0.0.9.8.7.6.+ < . . ",
". [ # ( a.b.c.d.e.e.d.c.b.a.- + . . ",
". 9 { 7.f.g.h.i.j.k.l.h.g.m.7.{ . . ",
"j k _ n.o.p.n.q.r.s.t.n.p.u.n.v.j j ",
"t u w.x.y.z.A.n.B.B.n.A.C.D.x.w.t t ",
"D o E.F.G.H.I.J.K.K.J.L.M.N.O.8.D D ",
"K o P.Q.R.S.T.U.V.V.W.X.Y.Z.`.P.K K ",
"N n  +.+++@+#+$+%+&+$+*+=+-+;+ +N N ",
"k # >+,+'+)+!+~+{+]+^+!+)+/+(+>+k k ",
"S 9 5 _+:+<+[+}+|+1+2+3+4+5+6+% S S ",
" ...M 7+8+9+0+a+b+c+d+e+f+g+h+M  . .",
"%.%.&.i+j+k+l+m+n+o+p+q+r+s+i+,.%.%.",
"'.'.k u i+t+u+v+w+x+y+z+A+i+!.) '.'.",
"~.~.{.].^.F n 9 M M V n F }.|.1.~.~.",
"2.2.2.2.2.2.2.2.2.2.2.2.2.2.2.2.2.2.",
"3.3.3.3.3.3.3.3.3.3.3.3.3.3.3.3.3.3.",
"3.3.3.3.3.3.3.3.3.3.3.3.3.3.3.3.3.3.",
"L L L L L L L L L L L L L L L L L L "};
