/* XPM */
static char * menubg_xpm[] = {
"64 64 35 1",
" 	c None",
".	c #FFFFFF",
"+	c #FCFCFC",
"@	c #FAFBFB",
"#	c #F7F7F7",
"$	c #F3F3F3",
"%	c #F4F3F4",
"&	c #F0EFF0",
"*	c #EFEFF0",
"=	c #EBEBED",
"-	c #EAEAEC",
";	c #E9E9EA",
">	c #E5E5E7",
",	c #E3E3E4",
"'	c #E0E0E1",
")	c #DCDCDD",
"!	c #D5D5D6",
"~	c #C7C7C8",
"{	c #BABABA",
"]	c #B2B2B2",
"^	c #EDEDEE",
"/	c #E5E6E7",
"(	c #FBFAFB",
"_	c #F8F8F8",
":	c #F6F6F6",
"<	c #F5F5F5",
"[	c #E5E5E6",
"}	c #FCFDFD",
"|	c #EDEDED",
"1	c #EBEBEB",
"2	c #E4E4E5",
"3	c #E6E6E7",
"4	c #EFEFEF",
"5	c #F4F4F4",
"6	c #F9FAF9",
".........................+++@@@####$$%$$&&&*==--;;>>>>>>,,')!~{]",
"..........................++.@@@####$%$&&&&^-=--;/;>;>>>>,')!~{]",
"........................+..+(@@_@##$:%$$&&*^^^--;;>;>>>>,,')!~{]",
"........................+.+@@@@####$$%&$%&^^^---;;;>>>>>,,')!~{]",
"...........................+@@__###:<<&&&&=^^^-;;;;/[>>>>,')!~{]",
".........................+.@@@@@##:$<<%%&&=&^;--;/;/[[>,,,')!~{]",
"..........................@.@@@:@##:<&<&&&&&=---;;;/[[[[[>')!~{]",
"........................}}@@.@@@##:$<%&&&&&&==^-;;//[[[[[,')!~{]",
".........................}.((@@###::$$$$&&&||1^;;/;2;;[[,,')!~{]",
".......................}.}.((@@###:::$$&&&||^1;;;;;/[2[[[,')!~{]",
".........................}}}(@(@@::%%$&$&&^^11;^;;3/[[[[,,')!~{]",
".........................}(@(@(###::%$$&&&4^^^^;;;;/[[[[[,')!~{]",
"..........................}}@@#@##::%$%$&&^^^==;;;;/[>>>,,')!~{]",
".........................@.@.@@###::%%$&&&4^===;;33/2>>>[,')!~{]",
"..........................@((@@@@#:$$%$$&&*^^=-=;;;///>>,,')!~{]",
".........................(.+@@@###::$%$&$&*^^--;;;//;>>>[,')!~{]",
"...........................+@@@@#::%%%%%&&^^^^--;[;;[>[[[,')!~{]",
".........................++(@@@_@:::%%%&&&*^^---;;;>[;[[,,')!~{]",
"...........................+(@@@##::%%%&&**^^---;;;>[[[[[,')!~{]",
"........................++++(@@_##:::%&%&&^^----;;>>[[[[,,')!~{]",
"..........................+.@@@_@::::%%&&&*^^^--;;;>>>>>[,')!~{]",
".........................+.@+@@_:::$%%%&&&&^^---;>;>;>>>,,')!~{]",
"..........................+(@@__@:::%%%%%&*^^---;;;>>>>,[,')!~{]",
"........................+..+@@@@#::::%%&&&*^----;;>>>>>,,,')!~{]",
"........................+.++.@#@_#::5$$&&&^^^^--;[;;[>[[[,')!~{]",
"..........................++(@@__#:55%$$&&==^---;;;>[;[[,,')!~{]",
".........................+++(@@@_#::5$$$&&*&==--;;;>[[[[[,')!~{]",
"...........................@@@#@_#:555$&&&*^-=--;;>>[[[[,,')!~{]",
"........................+.++@@@__#:5%%$&%&^^^^--;;;>>>>>[,')!~{]",
"..........................++@@@6_#::%%%%&&&^^---;>;>;>>>,,')!~{]",
"...........................+@@@__::5%%$&&&&^^---;;;>>>>,[,')!~{]",
"........................++++@@@@##::%%$$&&^^^^;;;;>>>>>,,,')!~{]",
"...........................+@@@_@::::%%&&&*^==;;;;;[>[[[,,')!~{]",
".........................+++@@@_:::%%%%&&&=*==;;;;;>;[[[[,')!~{]",
"..........................++@@@_@#::%%%%%&*^==--;;;>[[[[,,')!~{]",
"........................+..+@@@@#:::%%%&&&*^&=--;>;>[[[[[,')!~{]",
".........................}.@@@@_#::%$%$&&&*&==--;;;>>>>>,,')!~{]",
"..........................@@@@#@@:::$%$$&&*===--;;>>>>>>[,')!~{]",
".........................(.(.@@@#::::%$$&&*==^;-;>;>>>>>,,')!~{]",
"..........................+((@@#@::%$%&$&&*&=;^;;;>>;>>>[,')!~{]",
"........................}..((#@@##::%%%&$&^^^;;;;;;/[[[[[,')!~{]",
".........................}.@(@@:##::%$%&&&*^^-^-;;>>[[[[,,')!~{]",
"..........................}(((@@@#::%$%%&&*^^1^;;;;/;[[[[,')!~{]",
".........................}}}(((@##:%%$$&&&^^^^-;;>;>[[[[,,')!~{]",
"........................}}}@(((##:::$$$&&|^^^^1;;;/;2>[[[,')!~{]",
"..........................}}(@@###::$$$$&&^^^1;^;;;/[;[[,,')!~{]",
".......................}.}}@}@@@@#:::$$&&&*&1^^;;;;/2[[[[,')!~{]",
".........................}.@@@@###:$$%$$&&||^^;;;/;/>;[[,,')!~{]",
"........................+..+@@@_#:::%%%&&**^^--;;;;>>>>>,,')!~{]",
"........................+.++@@@_##:::%%&&&^^^-^;;;>>>>>>>,')!~{]",
"...........................++@@_@#::%%%%&&*^^---;>;>>>>>,,')!~{]",
".........................+++(@@@::::%%%&&&**^---;;>>;>>,,,')!~{]",
".........................+++@@@_@::::$$&$&*^*---;;;>[[[[>,')!~{]",
"..........................++@@@_:::%%$$$&&^^^--;;;>>[[[[,,')!~{]",
"........................+..+@@@_@#::%%%&&*^^^^--;[;>;[[[>,')!~{]",
"........................+.++@@@@#:::$$%&&**^^--;;;;>[[[[>,')!~{]",
"...........................+@@@_##::%%%$&&*^==--;;;;[[[[,,')!~{]",
".........................++@@@#@##:::%&%%&&^-=--;;;>[[,[[,')!~{]",
"..........................++.@@@##:%%%&&&&*^^^--;;;>[;>>,,')!~{]",
"........................+..+(@@#@#::%%%%&&^^^---;>;>[>>>[,')!~{]",
".........................@.@@@@_##::$%$$&&^^^^-;;;>>[>>>,,')!~{]",
"..........................((@@@_@#:%$%$&&&&^^;--;/;/[>>>[,')!~{]",
"...........................+@@@_##:::%$$&&&^=-;-;;>;>>>>,,')!~{]",
"..........................++@@@@###%$%&$&&&^==^-;;;>>>>>[,')!~{]"};
