/* XPM */
static char * windows_xpm[] = {
"20 20 17 1",
" 	c None",
".	c #868686",
"+	c #7C7C7C",
"@	c #767676",
"#	c #707070",
"$	c #6A6A6A",
"%	c #FFFFFF",
"&	c #636363",
"*	c #5C5C5C",
"=	c #535353",
"-	c #4A4A4A",
";	c #383838",
">	c #252525",
",	c #1A1A1A",
"'	c #121212",
")	c #0B0B0B",
"!	c #000000",
"....................",
"++++++++++++++++++++",
"@@@@@@@@@@@@@@@@@@@@",
"####################",
"$$$$%%%%%%$$$$$$$$$$",
"&&&&%&&&&%&&&&&&&&&&",
"****%****%**********",
"====%==%%%%%%=======",
"----%--%-%--%-------",
";;;;%%%%%%;;%;;;;;;;",
">>>>>>>%>>%%%%%%>>>>",
",,,,,,,%,,%,%,,%,,,,",
"'''''''%%%%%%''%''''",
"))))))))))%))))%))))",
"!!!!!!!!!!%!!!!%!!!!",
"!!!!!!!!!!%%%%%%!!!!",
"!!!!!!!!!!!!!!!!!!!!",
"!!!!!!!!!!!!!!!!!!!!",
"!!!!!!!!!!!!!!!!!!!!",
"!!!!!!!!!!!!!!!!!!!!"};
