/* XPM */
static char * workspacebuttonbg_xpm[] = {
"2 20 12 1",
" 	c None",
".	c #9EB3B6",
"+	c #A1B5B6",
"@	c #A5B5B5",
"#	c #292929",
"$	c #2E2E2E",
"%	c #282828",
"&	c #222222",
"*	c #1C1C1C",
"=	c #151515",
"-	c #0E0E0E",
";	c #0A0A0A",
"..",
"++",
"@@",
"##",
"$$",
"%%",
"&&",
"**",
"==",
"--",
";;",
";;",
";;",
";;",
";;",
";;",
";;",
";;",
";;",
";;"};
