/* XPM */
static char * closeA_xpm[] = {
"33 42 322 2",
"  	c None",
". 	c #5F5F5F",
"+ 	c #595959",
"@ 	c #3B8A99",
"# 	c #3A8999",
"$ 	c #398898",
"% 	c #398797",
"& 	c #3A8797",
"* 	c #3A8897",
"= 	c #3A8998",
"- 	c #3C8A9A",
"; 	c #3C8B9A",
"> 	c #3C8B99",
", 	c #616161",
"' 	c #626262",
") 	c #585858",
"! 	c #398897",
"~ 	c #398899",
"{ 	c #398697",
"] 	c #388495",
"^ 	c #378191",
"/ 	c #368090",
"( 	c #378293",
"_ 	c #3A8899",
": 	c #505050",
"< 	c #398693",
"[ 	c #388592",
"} 	c #37828F",
"| 	c #357D89",
"1 	c #327581",
"2 	c #30707B",
"3 	c #30717D",
"4 	c #317480",
"5 	c #327481",
"6 	c #357C89",
"7 	c #378290",
"8 	c #388593",
"9 	c #398694",
"0 	c #515151",
"a 	c #474747",
"b 	c #398392",
"c 	c #3A8392",
"d 	c #388190",
"e 	c #367C8B",
"f 	c #327380",
"g 	c #2C6570",
"h 	c #FFFFFF",
"i 	c #275A64",
"j 	c #285E68",
"k 	c #367D8B",
"l 	c #388290",
"m 	c #398492",
"n 	c #484848",
"o 	c #494949",
"p 	c #3F3F3F",
"q 	c #397F8E",
"r 	c #39808F",
"s 	c #39818F",
"t 	c #387F8D",
"u 	c #357987",
"v 	c #306C79",
"w 	c #1D424A",
"x 	c #306F7B",
"y 	c #404040",
"z 	c #000000",
"A 	c #377F8E",
"B 	c #37808F",
"C 	c #367E8D",
"D 	c #347988",
"E 	c #2E6C7A",
"F 	c #255863",
"G 	c #2E6D7A",
"H 	c #347A88",
"I 	c #367F8E",
"J 	c #388392",
"K 	c #388292",
"L 	c #388393",
"M 	c #126274",
"N 	c #126374",
"O 	c #116273",
"P 	c #116070",
"Q 	c #0E5766",
"R 	c #0C4753",
"S 	c #08323B",
"T 	c #08323C",
"U 	c #0C4854",
"V 	c #0E5868",
"W 	c #106172",
"X 	c #106476",
"Y 	c #116577",
"Z 	c #116678",
"` 	c #116779",
" .	c #11687A",
"..	c #106779",
"+.	c #106375",
"@.	c #0E5B6A",
"#.	c #0C4A57",
"$.	c #08353E",
"%.	c #0C4B58",
"&.	c #0E5C6C",
"*.	c #106577",
"=.	c #10697B",
"-.	c #106A7C",
";.	c #0F7081",
">.	c #0F6F81",
",.	c #0F6F82",
"'.	c #0E6E80",
").	c #0E6A7C",
"!.	c #0C5F6F",
"~.	c #0A4D5A",
"{.	c #0A4D5B",
"].	c #0C5F70",
"^.	c #0E6A7D",
"/.	c #0E6E82",
"(.	c #0F7184",
"_.	c #0F7084",
":.	c #0F7285",
"<.	c #0E778A",
"[.	c #0E778B",
"}.	c #0D7589",
"|.	c #0D7082",
"1.	c #0B6475",
"2.	c #073D46",
"3.	c #0B6575",
"4.	c #0D7689",
"5.	c #0E798C",
"6.	c #0E7A8D",
"7.	c #0D7E92",
"8.	c #0C7C90",
"9.	c #0C798B",
"0.	c #0B6F80",
"a.	c #0A6270",
"b.	c #085764",
"c.	c #095B69",
"d.	c #085765",
"e.	c #096272",
"f.	c #0A6F82",
"g.	c #0B798D",
"h.	c #0B7D92",
"i.	c #0C7F94",
"j.	c #0C8094",
"k.	c #0C8195",
"l.	c #0C8599",
"m.	c #0C869A",
"n.	c #0B8599",
"o.	c #0B8296",
"p.	c #0B7D8F",
"q.	c #0A7587",
"r.	c #0A7081",
"s.	c #0A7283",
"t.	c #0A7687",
"u.	c #0A7182",
"v.	c #0A7688",
"w.	c #0B7E90",
"x.	c #0B8397",
"y.	c #0B869A",
"z.	c #0C889C",
"A.	c #0C899C",
"B.	c #0C8CA1",
"C.	c #0B8DA1",
"D.	c #0A8BA0",
"E.	c #0A899E",
"F.	c #0A869A",
"G.	c #0A8498",
"H.	c #0A8599",
"I.	c #0A879B",
"J.	c #0A8A9F",
"K.	c #0A8CA1",
"L.	c #0B8EA3",
"M.	c #0B8FA4",
"N.	c #19788B",
"O.	c #0B93A8",
"P.	c #0B94A8",
"Q.	c #0A93A8",
"R.	c #0A92A7",
"S.	c #0A92A8",
"T.	c #0994A9",
"U.	c #0A95AA",
"V.	c #0A95AB",
"W.	c #197A8B",
"X.	c #212121",
"Y.	c #020202",
"Z.	c #030405",
"`.	c #020505",
" +	c #020405",
".+	c #010405",
"++	c #52BECD",
"@+	c #51BDCC",
"#+	c #51BCCB",
"$+	c #51BBCA",
"%+	c #53BECE",
"&+	c #53BECD",
"*+	c #52BDCC",
"=+	c #52BDCD",
"-+	c #51BBCB",
";+	c #50B8C8",
">+	c #4EB4C3",
",+	c #4DB1C0",
"'+	c #4DB3C2",
")+	c #4EB5C4",
"!+	c #5A5A5A",
"~+	c #50B8C7",
"{+	c #4CB0BE",
"]+	c #48A6B3",
"^+	c #459FAC",
"/+	c #45A0AD",
"(+	c #47A5B2",
"_+	c #52BCCC",
":+	c #51B9C9",
"<+	c #4EB3C2",
"[+	c #48A5B3",
"}+	c #3F919D",
"|+	c #38818C",
"1+	c #3A8692",
"2+	c #3F929D",
"3+	c #4EB4C2",
"4+	c #51BAC9",
"5+	c #52B9C9",
"6+	c #52BACA",
"7+	c #52BBCA",
"8+	c #51B8C7",
"9+	c #4DB0BE",
"0+	c #459DAA",
"a+	c #295F68",
"b+	c #414141",
"c+	c #51BACA",
"d+	c #50B7C7",
"e+	c #4CB0BF",
"f+	c #449EAB",
"g+	c #37808B",
"h+	c #449FAB",
"i+	c #4CB1BF",
"j+	c #52BBCC",
"k+	c #40ACBD",
"l+	c #3FAABB",
"m+	c #3DA6B5",
"n+	c #3797A5",
"o+	c #2D7B86",
"p+	c #205860",
"q+	c #2D7C87",
"r+	c #3798A6",
"s+	c #3DA7B6",
"t+	c #3FACBC",
"u+	c #40AEBE",
"v+	c #40AFBF",
"w+	c #40AFC0",
"x+	c #3FADBE",
"y+	c #3DA8B8",
"z+	c #3799A7",
"A+	c #2D7C89",
"B+	c #205961",
"C+	c #2D7D89",
"D+	c #3DA9B8",
"E+	c #3FAEBE",
"F+	c #40B0C0",
"G+	c #3FB2C3",
"H+	c #3FB2C4",
"I+	c #3EAFC1",
"J+	c #3BA8BA",
"K+	c #3597A7",
"L+	c #2B7A87",
"M+	c #3EAFC2",
"N+	c #3FB2C5",
"O+	c #3FB3C5",
"P+	c #3FB6C7",
"Q+	c #3EB3C4",
"R+	c #3BABBB",
"S+	c #3599A7",
"T+	c #205C65",
"U+	c #3FB7C7",
"V+	c #3FB7C8",
"W+	c #3EB8CC",
"X+	c #3DB5C9",
"Y+	c #3BB0C2",
"Z+	c #36A2B3",
"`+	c #2F8E9D",
" @	c #2A7F8C",
".@	c #2C8492",
"+@	c #3DB6C9",
"@@	c #3EB9CC",
"#@	c #3EBACC",
"$@	c #3EBBCC",
"%@	c #3EBDCD",
"&@	c #3EBDCE",
"*@	c #3DBCCD",
"=@	c #3CB8C9",
"-@	c #39B0C0",
";@	c #36A6B4",
">@	c #349FAD",
",@	c #34A0B0",
"'@	c #36A5B5",
")@	c #349FAE",
"!@	c #36A6B5",
"~@	c #39B0C1",
"{@	c #3CB8CA",
"]@	c #3DBCCE",
"^@	c #3EBDD0",
"/@	c #3EBED0",
"(@	c #3EBFD2",
"_@	c #3DC0D2",
":@	c #3CBED0",
"<@	c #3BBBCD",
"[@	c #3AB6C8",
"}@	c #39B4C5",
"|@	c #39B6C7",
"1@	c #3AB8C9",
"2@	c #3AB7C8",
"3@	c #3BBCCD",
"4@	c #3CBFD0",
"5@	c #3DC1D2",
"6@	c #3DC2D3",
"7@	c #43B6C7",
"8@	c #3DC2D5",
"9@	c #3DC3D5",
"0@	c #3CC2D5",
"a@	c #3CC1D4",
"b@	c #3CC0D3",
"c@	c #3CC1D5",
"d@	c #3CC0D4",
"e@	c #3CC3D6",
"f@	c #3DC4D7",
"g@	c #43B7C7",
". + @ @ @ @ @ # # # $ % & % % & & & * = @ - - - - ; - > + , ' ' ' ",
") + ! ! ! $ $ $ ~ { ] ^ / ^ ( ( ^ / ^ ] { _ _ _ $ $ $ $ + + + + + ",
": + < < < < < < [ } | 1 2 3 4 4 3 2 5 6 7 8 9 9 9 9 9 9 + 0 0 0 0 ",
"a + b b b b c b d e f g h i j j i h g f k l m m m m m m + n o o o ",
"p + q q q r s s t u v h h h w w h h h x 6 l m m m b b b + y y y y ",
"z + A A A B B B C D E F h h h h h h F G H I J K J L L L + z z z z ",
"z + M M M N N N O P Q R S h h h h T U V W X Y Y Y Y Z Z + z z z z ",
"z + ` ` ` ` `  ...+.@.#.$.h h h h $.%.&.*.=.-.-.-.-.-.-.+ z z z z ",
"z + ;.>.;.;.,.,.'.).!.~.h h h h h h {.].^./.(._.(._.(.:.+ z z z z ",
"z + <.<.<.[.<.[.}.|.1.h h h 2.2.h h h 3.|.4.5.5.5.6.6.6.+ z z z z ",
"z + 7.7.7.7.7.7.8.9.0.a.h b.c.c.d.h e.f.g.h.i.j.j.j.j.k.+ z z z z ",
"z + l.l.l.l.m.m.n.o.p.q.r.s.t.t.s.u.v.w.x.y.z.z.z.z.z.A.+ z z z z ",
"z + B.B.B.B.C.C.C.D.E.F.G.H.I.I.H.G.I.J.K.L.M.M.M.M.M.M.+ z z z z ",
"z + N.O.O.O.P.P.P.P.Q.R.R.R.S.S.S.S.S.T.U.U.U.V.V.V.V.W.+ z z z z ",
"z X.+ + + + + + + + + + + + + + + + + + + + + + + + + + X.z z z z ",
"z z z z z z z z z z z z z z z z z z z z z z z z z z z z z z z z z ",
"z z z z z z z z z z z z z z z z z z z z z z z z z z z z z z z z z ",
"z z Y.Y.Y.Y.Y.Y.Y.Y.Y.Y.Y.Y.Y.Y.Y.Y.Y.Y.Y.Y.Y.Y.Y.Y.Y.Y.z z z z z ",
"z Y.Z.`.`.`.`.`.`.`.`.`.`.`.`.`.`.`.`.`.`.`.`.`.`.`.`.Z.Y.z z z z ",
"z Y.`. +`.`.`.`. +`.`.`.`.`.`.`.`.`.`.`.`.`.`.`.`.`.`.`.Y.z z z z ",
"z Y..+.+.+.+.+.+.+.+ + + + + +.+.+.+.+.+.+.+.+.+.+.+.+.+Y.z z z z ",
". + ++++++++++++++++@+#+$+$+#+#+$+$+#+@+++%+%+%+%+%+%+&++ ' ' ' ' ",
") + *+*+*+=+=+=+=+-+;+>+,+'+)+)+'+,+>+;+-+=+=+=+=+=+=+=++ + !+!+!+",
": + *+*+*+*+*+*+#+~+{+]+^+/+(+(+/+^+]+{+~+#+*+*+*+*+*+*++ 0 0 0 0 ",
"a + _+_+_+_+_+_+:+<+[+}+h |+1+1+|+h 2+]+3+4+*+*+*+*+*+*++ o o o o ",
"p + 5+5+5+6+7+7+8+9+0+h h h a+a+h h h ^+,+4+*+*+*+_+_+_++ y b+b+b+",
"z + :+:+:+c+c+c+d+e+f+g+h h h h h h g+h+i+~+_+j+_+_+_+_++ z z z z ",
"z + k+k+k+k+k+k+l+m+n+o+p+h h h h p+q+r+s+t+u+u+u+u+u+u++ z z z z ",
"z + v+v+v+v+v+w+x+y+z+A+B+h h h h B+C+z+D+E+F+F+F+F+F+F++ z z z z ",
"z + G+G+G+G+H+H+I+J+K+L+h h h h h h L+K+J+M+N+N+N+N+N+O++ z z z z ",
"z + P+P+P+P+P+P+Q+R+S+h h h T+T+h h h S+R+Q+U+U+U+V+V+V++ z z z z ",
"z + W+W+W+W+W+W+X+Y+Z+`+h  @.@.@ @h `+Z+Y++@@@#@#@#@#@$@+ z z z z ",
"z + %@%@%@%@&@&@*@=@-@;@>@,@'@'@,@)@!@~@{@]@^@^@^@^@^@/@+ z z z z ",
"z + (@(@(@(@_@_@_@:@<@[@}@|@1@1@|@}@2@3@4@5@6@6@6@6@6@6@+ z z z z ",
"z + 7@8@8@8@9@9@9@9@0@a@b@b@c@c@d@d@c@e@f@f@f@f@f@f@f@g@+ z z z z ",
"z X.+ + + + + + + + + + + + + + + + + + + + + + + + + + X.z z z z ",
"z z z z z z z z z z z z z z z z z z z z z z z z z z z z z z z z z ",
"z z z z z z z z z z z z z z z z z z z z z z z z z z z z z z z z z ",
"z z z z z z z z z z z z z z z z z z z z z z z z z z z z z z z z z ",
"z z z z z z z z z z z z z z z z z z z z z z z z z z z z z z z z z ",
"z z z z z z z z z z z z z z z z z z z z z z z z z z z z z z z z z ",
"z z z z z z z z z z z z z z z z z z z z z z z z z z z z z z z z z "};
