/* XPM */
static char * menusel_xpm[] = {
"2 20 22 1",
" 	c #204BD0",
".	c #2049CF",
"+	c #0B2258",
"@	c #081C43",
"#	c #071835",
"$	c #081730",
"%	c #081731",
"&	c #07152C",
"*	c #08152A",
"=	c #081326",
"-	c #081223",
";	c #08111F",
">	c #09101C",
",	c #090F19",
"'	c #090E15",
")	c #0A0D12",
"!	c #0A0B0F",
"~	c #0A0C13",
"{	c #0A0C12",
"]	c #0C0F1C",
"^	c #152A6D",
"/	c #15296C",
" .",
" .",
"++",
"@@",
"##",
"$%",
"&&",
"**",
"==",
"--",
";;",
">>",
",,",
"''",
"))",
"!!",
"~{",
"]]",
"^/",
"^/"};
