/* XPM */
static char * frameATL_xpm[] = {
"26 26 27 1",
" 	c None",
".	c #000000",
"+	c #485459",
"@	c #677880",
"#	c #64757D",
"$	c #63747C",
"%	c #62727B",
"&	c #60717A",
"*	c #5C6D76",
"=	c #5B6C75",
"-	c #596B73",
";	c #576871",
">	c #556770",
",	c #53656D",
"'	c #50626B",
")	c #4F616A",
"!	c #4E6069",
"~	c #4B5D66",
"{	c #495B64",
"]	c #485A63",
"^	c #455861",
"/	c #43555F",
"(	c #42545E",
"_	c #40525B",
":	c #3E515A",
"<	c #3C4F58",
"[	c #3A4D56",
" .........................",
".+@@@@@@@@@@@@@@@@@@@@@@@@",
".#########################",
".$$$$$$$$$$$$$$$$$$$$$$$$$",
".%%%%%%%%%%%%%%%%%%%%%%%%%",
".&&&&&&&&&&&&&&&&&&&&&&&&&",
".*****                    ",
".=====                    ",
".-----                    ",
".;;;;;                    ",
".>>>>>                    ",
".,,,,,                    ",
".'''''                    ",
".)))))                    ",
".!!!!!                    ",
".~~~~~                    ",
".{{{{{                    ",
".]]]]]                    ",
".^^^^^                    ",
"./////                    ",
".(((((                    ",
"._____                    ",
".:::::                    ",
".<<<<<                    ",
".[[[[[                    ",
"......                    "};
