/* XPM */
static char * restoreI_xpm[] = {
"20 40 52 1",
" 	c None",
".	c #000000",
"+	c #8F7763",
"@	c #685648",
"#	c #675547",
"$	c #665346",
"%	c #635145",
"&	c #8F7663",
"*	c #615043",
"=	c #8C7460",
"-	c #604F42",
";	c #876F5C",
">	c #5F4E41",
",	c #836B59",
"'	c #5E4D40",
")	c #7E6655",
"!	c #5D4C3F",
"~	c #796251",
"{	c #5B4A3D",
"]	c #755D4D",
"^	c #5A493C",
"/	c #6F5949",
"(	c #57473B",
"_	c #6B5546",
":	c #554539",
"<	c #665042",
"[	c #544438",
"}	c #624B3D",
"|	c #524236",
"1	c #5D473A",
"2	c #504034",
"3	c #584236",
"4	c #4F3F33",
"5	c #543E32",
"6	c #787878",
"7	c #767676",
"8	c #747474",
"9	c #717171",
"0	c #6F6F6F",
"a	c #6D6D6D",
"b	c #6B6B6B",
"c	c #686868",
"d	c #656565",
"e	c #636363",
"f	c #616161",
"g	c #5F5F5F",
"h	c #5C5C5C",
"i	c #5A5A5A",
"j	c #585858",
"k	c #565656",
"l	c #535353",
"m	c #515151",
"....................",
"+++++++++.++++++++++",
"@@@@@@@@@.+@@@@@@@@@",
"#########.+#########",
"$$$$$$$$$.+++++$$$$$",
"%%%%%%%%%......&%%%%",
"**************.=****",
"--------------.;----",
">>>>>>>>>>>>>>.,>>>>",
"''''''''''''''.)''''",
"!!!!!!!!!!!!.!.~!!!!",
"{{{{{{{{{{{.]..]{{{{",
"^^^^^^^^^^./^//^^^^^",
"(((((((((._(((((((((",
"::::::::.<::::::::::",
"[[[[[[[.}[[[[[[[[[[[",
"|||||||.1|||||||||||",
"2222222.322222222222",
"4444444.544444444444",
"....................",
"....................",
"66666666666666666666",
"77777777777777777777",
"88888888888888888888",
"99999999999999999999",
"00000000000000000000",
"aaaaaaaaaaaaaaaaaaaa",
"bbbbbbbbbbbbbbbbbbbb",
"cccccccccccccccccccc",
"dddddddddddddddddddd",
"eeeeeeeeeeeeeeeeeeee",
"ffffffffffffffffffff",
"gggggggggggggggggggg",
"hhhhhhhhhhhhhhhhhhhh",
"iiiiiiiiiiiiiiiiiiii",
"jjjjjjjjjjjjjjjjjjjj",
"kkkkkkkkkkkkkkkkkkkk",
"llllllllllllllllllll",
"mmmmmmmmmmmmmmmmmmmm",
"...................."};
