/* XPM */
static char * workspacebuttonactive_xpm[] = {
"10 25 90 1",
" 	c None",
".	c #4A413A",
"+	c #3B2B2C",
"@	c #030000",
"#	c #A48262",
"$	c #A48163",
"%	c #A58263",
"&	c #A48263",
"*	c #A58162",
"=	c #A48162",
"-	c #A68464",
";	c #A78464",
">	c #A78465",
",	c #A88564",
"'	c #A88465",
")	c #A88565",
"!	c #A88665",
"~	c #AB8868",
"{	c #AB8867",
"]	c #AC8868",
"^	c #AC8968",
"/	c #AC8A68",
"(	c #AE8C6A",
"_	c #AF8C6A",
":	c #B08D6B",
"<	c #B08D6A",
"[	c #B08E6B",
"}	c #B3916D",
"|	c #B4916E",
"1	c #B4926E",
"2	c #B4926D",
"3	c #B5926E",
"4	c #B79570",
"5	c #B79571",
"6	c #B89671",
"7	c #B99671",
"8	c #B89771",
"9	c #BB9A73",
"0	c #BB9973",
"a	c #BC9A73",
"b	c #BC9A74",
"c	c #BC9B74",
"d	c #BD9A74",
"e	c #BF9D75",
"f	c #BF9E76",
"g	c #C09E76",
"h	c #C09F77",
"i	c #C09F76",
"j	c #C3A279",
"k	c #C4A379",
"l	c #C4A279",
"m	c #C5A37A",
"n	c #C5A47A",
"o	c #C8A77C",
"p	c #C8A67C",
"q	c #C8A77D",
"r	c #C8A87C",
"s	c #C9A77C",
"t	c #C9A77D",
"u	c #C9A87C",
"v	c #CBAB7E",
"w	c #CBAB7F",
"x	c #CCAB7F",
"y	c #CCAC7F",
"z	c #CCAB80",
"A	c #CDAC80",
"B	c #CFAF82",
"C	c #D0AF82",
"D	c #D0B082",
"E	c #D1B082",
"F	c #D1B083",
"G	c #D1B182",
"H	c #D4B384",
"I	c #D4B485",
"J	c #D4B585",
"K	c #D5B485",
"L	c #D5B585",
"M	c #D8B887",
"N	c #D9B888",
"O	c #D8B988",
"P	c #D9B988",
"Q	c #DAB988",
"R	c #DCBC8A",
"S	c #DCBD8B",
"T	c #DDBC8B",
"U	c #DDBD8A",
"V	c #DDBD8B",
"W	c #DEBE8B",
"X	c #E6D2AD",
"Y	c #161513",
"..........",
"..........",
"++++++++++",
"++++++++++",
"@@@@@@@@@@",
"@#$$%&*%==",
"@-;>;,'>)!",
"@~{]~~^^^/",
"@(__:<<::[",
"@}}|}11213",
"@444456768",
"@909abacdd",
"@efgghiihh",
"@jkklkkmnn",
"@oppoqrstu",
"@vwxyyzyAA",
"@BCDCEDFFG",
"@HHIIJKKLL",
"@MMNOPONPQ",
"@RSTUSVVWV",
"@XXXXXXXXX",
"YYYYYYYYYY",
"YYYYYYYYYY",
"YYYYYYYYYY",
"@@@@@@@@@@"};
