/* XPM */
static char * maximizeA_xpm[] = {
"20 44 44 1",
" 	c None",
".	c #839AD5",
"+	c #5C75B6",
"@	c #7F97D3",
"#	c #7A91CC",
"$	c #627CB6",
"%	c #9BB2E7",
"&	c #778FCB",
"*	c #667DB8",
"=	c #97AFE5",
"-	c #C8D7F8",
";	c #748DC6",
">	c #6C82BA",
",	c #91A8E1",
"'	c #7188C3",
")	c #6E85C0",
"!	c #8BA2DD",
"~	c #6F85BF",
"{	c #7189C5",
"]	c #879FDB",
"^	c #6D84BF",
"/	c #768FC8",
"(	c #859FD9",
"_	c #6980B9",
":	c #8199D5",
"<	c #7B93D1",
"[	c #7E96D2",
"}	c #5D77B7",
"|	c #768ECA",
"1	c #5B76B5",
"2	c #5673B4",
"3	c #8EA7E0",
"4	c #4E6BB4",
"5	c #93A9E3",
"6	c #6C82BC",
"7	c #4B68B1",
"8	c #98AEE6",
"9	c #6A80B8",
"0	c #4767AF",
"a	c #A0B7EA",
"b	c #4766AD",
"c	c #A9BDEF",
"d	c #4664AA",
"e	c #3F3F3F",
"....................",
"..++++++++++++++++..",
"@++++++++++++++++++@",
"#$$%%%%%%%%%%%%%%$$#",
"&**=------------=**&",
";>>,------------,>>;",
"'))!-!!!!!!!!!!-!))'",
"~{{]-]]]]]]]]]]-]{{~",
"^//(-((((((((((-(//^",
"_##:-::::::::::-:##_",
"*<<[-[[[[[[[[[[-[<<*",
"$::#-##########-#::$",
"}((|-||||||||||-|((}",
"1!!;-;;;;;;;;;;-;!!1",
"233'-''''''''''-'332",
"4556------------6554",
"78899999999999999887",
"0aaaaaaaaaaaaaaaaaa0",
"bbccccccccccccccccbb",
"dddddddddddddddddddd",
"dddddddddddddddddddd",
"dddddddddddddddddddd",
"....................",
"..++++++++++++++++..",
"@++++++++++++++++++@",
"#$$99999999999999$$#",
"&**9eeeeeeeeeeee9**&",
";>>9eeeeeeeeeeee9>>;",
"'))9e9999999999e9))'",
"~{{9e9999999999e9{{~",
"^//9e9999999999e9//^",
"_##9e9999999999e9##_",
"*<<9e9999999999e9<<*",
"$::9e9999999999e9::$",
"}((9e9999999999e9((}",
"1!!9e9999999999e9!!1",
"2339e9999999999e9332",
"4559eeeeeeeeeeee9554",
"78899999999999999887",
"0aaaaaaaaaaaaaaaaaa0",
"bbccccccccccccccccbb",
"dddddddddddddddddddd",
"dddddddddddddddddddd",
"dddddddddddddddddddd"};
