/* XPM */
static char * menuButtonA_xpm[] = {
"22 44 20 1",
" 	c None",
".	c #839AD5",
"+	c #7F97D3",
"@	c #7A91CC",
"#	c #778FCB",
"$	c #748DC6",
"%	c #7188C3",
"&	c #6F85BF",
"*	c #6D84BF",
"=	c #6980B9",
"-	c #667DB8",
";	c #627CB6",
">	c #5D77B7",
",	c #5B76B5",
"'	c #5673B4",
")	c #4E6BB4",
"!	c #4B68B1",
"~	c #4767AF",
"{	c #4766AD",
"]	c #4664AA",
"......................",
"......................",
"++++++++++++++++++++++",
"@@@@@@@@@@@@@@@@@@@@@@",
"######################",
"$$$$$$$$$$$$$$$$$$$$$$",
"%%%%%%%%%%%%%%%%%%%%%%",
"&&&&&&&&&&&&&&&&&&&&&&",
"**********************",
"======================",
"----------------------",
";;;;;;;;;;;;;;;;;;;;;;",
">>>>>>>>>>>>>>>>>>>>>>",
",,,,,,,,,,,,,,,,,,,,,,",
"''''''''''''''''''''''",
"))))))))))))))))))))))",
"!!!!!!!!!!!!!!!!!!!!!!",
"~~~~~~~~~~~~~~~~~~~~~~",
"{{{{{{{{{{{{{{{{{{{{{{",
"]]]]]]]]]]]]]]]]]]]]]]",
"]]]]]]]]]]]]]]]]]]]]]]",
"]]]]]]]]]]]]]]]]]]]]]]",
"......................",
"......................",
"+!!!!!!!!!!!!!!!!!!!!+",
"@!!!!!!!!!!!!!!!!!!!!@",
"#!!!!!!!!!!!!!!!!!!!!#",
"$!!!!!!!!!!!!!!!!!!!!$",
"%!!!!!!!!!!!!!!!!!!!!%",
"&!!!!!!!!!!!!!!!!!!!!&",
"*!!!!!!!!!!!!!!!!!!!!*",
"=!!!!!!!!!!!!!!!!!!!!=",
"-!!!!!!!!!!!!!!!!!!!!-",
";!!!!!!!!!!!!!!!!!!!!;",
">!!!!!!!!!!!!!!!!!!!!>",
",!!!!!!!!!!!!!!!!!!!!,",
"'!!!!!!!!!!!!!!!!!!!!'",
")!!!!!!!!!!!!!!!!!!!!)",
"!!!!!!!!!!!!!!!!!!!!!!",
"~!!!!!!!!!!!!!!!!!!!!~",
"{{{{{{{{{{{{{{{{{{{{{{",
"]]]]]]]]]]]]]]]]]]]]]]",
"]]]]]]]]]]]]]]]]]]]]]]",
"]]]]]]]]]]]]]]]]]]]]]]"};
