/* XPM */
static char * minimizeA_xpm[] = {
"15 32 185 2",
"  	c None",
". 	c #E3E3E3",
"+ 	c #9EB3B6",
"@ 	c #A1B5B6",
"# 	c #99A8A9",
"$ 	c #293330",
"% 	c #151B19",
"& 	c #111212",
"* 	c #171C1B",
"= 	c #353D3B",
"- 	c #A5B5B5",
"; 	c #2B3634",
"> 	c #111111",
", 	c #0E0E0E",
"' 	c #0B0B0B",
") 	c #48514E",
"! 	c #3D4748",
"~ 	c #2C3835",
"{ 	c #141414",
"] 	c #4F4F4F",
"^ 	c #656565",
"/ 	c #525B59",
"( 	c #262A2B",
"_ 	c #404443",
": 	c #191919",
"< 	c #181818",
"[ 	c #5E5E5E",
"} 	c #515151",
"| 	c #414141",
"1 	c #424242",
"2 	c #565656",
"3 	c #5F5F5F",
"4 	c #212425",
"5 	c #282A29",
"6 	c #172320",
"7 	c #0F0F0F",
"8 	c #3B3B3B",
"9 	c #343434",
"0 	c #444444",
"a 	c #101010",
"b 	c #35403C",
"c 	c #292929",
"d 	c #2A322F",
"e 	c #0A0A0A",
"f 	c #3A3A3A",
"g 	c #2B2B2B",
"h 	c #2C2C2C",
"i 	c #3C3C3C",
"j 	c #353C3B",
"k 	c #2B2D2C",
"l 	c #2D2F2E",
"m 	c #333434",
"n 	c #212121",
"o 	c #252525",
"p 	c #090909",
"q 	c #343635",
"r 	c #373C3B",
"s 	c #121212",
"t 	c #161616",
"u 	c #171717",
"v 	c #3E4241",
"w 	c #414343",
"x 	c #080808",
"y 	c #151515",
"z 	c #464848",
"A 	c #242424",
"B 	c #464646",
"C 	c #282828",
"D 	c #232323",
"E 	c #4B4B4B",
"F 	c #3E3E3E",
"G 	c #1A1A1A",
"H 	c #0C0C0C",
"I 	c #474747",
"J 	c #4C4C4C",
"K 	c #1F1F1F",
"L 	c #040404",
"M 	c #000000",
"N 	c #7B8383",
"O 	c #4C5A61",
"P 	c #425573",
"Q 	c #4E6186",
"R 	c #556682",
"S 	c #6C7980",
"T 	c #828A8B",
"U 	c #404D4F",
"V 	c #243964",
"W 	c #182848",
"X 	c #14233E",
"Y 	c #2B406B",
"Z 	c #14223E",
"` 	c #192A4D",
" .	c #52658C",
"..	c #768183",
"+.	c #3C494B",
"@.	c #1A2C50",
"#.	c #304770",
"$.	c #1C2F56",
"%.	c #162544",
"&.	c #344872",
"*.	c #828C8E",
"=.	c #464A48",
"-.	c #1F365F",
";.	c #2E436E",
">.	c #364A74",
",.	c #314871",
"'.	c #3D517B",
").	c #3F557D",
"!.	c #15233F",
"~.	c #596B91",
"{.	c #2E3135",
"].	c #2F3B42",
"^.	c #162442",
"/.	c #172645",
"(.	c #1F335D",
"_.	c #617397",
":.	c #7485A4",
"<.	c #7E8DAC",
"[.	c #7F8EAD",
"}.	c #7585A5",
"|.	c #233863",
"1.	c #717D84",
"2.	c #21334E",
"3.	c #121F38",
"4.	c #5E7094",
"5.	c #C9D0DD",
"6.	c #E4E8EE",
"7.	c #D4D9E4",
"8.	c #7080A2",
"9.	c #63738E",
"0.	c #1E345A",
"a.	c #2D426D",
"b.	c #7888A8",
"c.	c #DADEE8",
"d.	c #FAFBFC",
"e.	c #E9ECF1",
"f.	c #929FBA",
"g.	c #3E547C",
"h.	c #3A4E78",
"i.	c #55678B",
"j.	c #182A4A",
"k.	c #283D68",
"l.	c #5F7195",
"m.	c #B9C1D3",
"n.	c #E6EAF0",
"o.	c #CFD5E1",
"p.	c #1B2D51",
"q.	c #4C5F7B",
"r.	c #36464F",
"s.	c #19294B",
"t.	c #152541",
"u.	c #1E325A",
"v.	c #394D77",
"w.	c #627498",
"x.	c #8292AE",
"y.	c #43577F",
"z.	c #213661",
"A.	c #5D6B74",
"B.	c #434848",
"C.	c #2C416C",
"D.	c #203560",
"E.	c #4D5254",
"F.	c #1F2023",
"G.	c #303D44",
"H.	c #172747",
"I.	c #1D3057",
"J.	c #414F57",
"K.	c #1E1F22",
"L.	c #0A0F1A",
"M.	c #313E45",
"N.	c #263B66",
"O.	c #1E345C",
"P.	c #35434A",
"Q.	c #0B0F1A",
"R.	c #090E19",
"S.	c #4C5151",
"T.	c #2A3942",
"U.	c #19273D",
"V.	c #162440",
"W.	c #18273C",
"X.	c #4B5050",
"Y.	c #17191D",
"Z.	c #040A1A",
"`.	c #000922",
" +	c #000A29",
". . . . . . . . . . . . . . . ",
"+ + + + + + + + + + + + + + + ",
"@ @ @ @ # $ % & * = # @ @ @ @ ",
"- - - ; > , ' ' ' , > ) - - - ",
"! ! ~ > { ] ^ ^ ^ ] { > / ! ! ",
"( _ : < [ } | 1 1 2 3 : : 4 ( ",
"5 6 7 8 | 9 9 9 9 9 0 8 a b 5 ",
"c d e f g g g g g g h i e j c ",
"c k e f g g g g g g h i e l c ",
"c m e n o o o o o o o n p q c ",
"c r s a t u t t t t t a s v c ",
"c w 9 x y u u u u u y x 9 z c ",
"c A B C e a { { { a e C B D c ",
"c c y E F G H H H G F E y c c ",
"c c c { f I J J J I f { c c c ",
"c c c c K , L M L , K c c c c ",
". . . . . . . . . . . . . . . ",
"+ + + + + + + + + + + + + + + ",
"@ @ @ @ N O P Q R S T @ @ @ @ ",
"- - - U V W X Y Z `  ...- - - ",
"! ! +.@.Z W @.#.$.` %.&.*.! ! ",
"( =.` Z ` -.;.>.,.'.).!.~.{.( ",
"5 ].^./.(._.:.<.[.}.|.` ` 1.5 ",
"c 2.3./.Y 4.5.6.7.8.&.` 3.9.c ",
"c 0.a.&.,.b.c.d.e.f.g.h.#.i.c ",
"c 2.Z j.k.l.m.n.o.:.>.p.^.q.c ",
"c r.s.t.u.v.w.x.8.y.z./.@.A.c ",
"c B.@.t./.u.C.y.;.D.W /.k.E.c ",
"c F.G.` W %.H.&.W /.j.I.J.K.c ",
"c c L.M./.u.I.N.I.O.W P.Q.c c ",
"c c c R.S.T.U.V.W.T.X.R.c c c ",
"c c c c Y.Z.`. +`.Z.Y.c c c c "};
