/* XPM */
static char * frameATR_xpm[] = {
"26 26 4 1",
" 	c None",
".	c #101010",
"+	c #697556",
"@	c #5D6254",
"......................... ",
"++++++++++++++++++++++++@.",
"+++++++++++++++++++++++++.",
"+++++++++++++++++++++++++.",
"+++++++++++++++++++++++++.",
"+++++++++++++++++++++++++.",
"                    +++++.",
"                    +++++.",
"                    +++++.",
"                    +++++.",
"                    +++++.",
"                    +++++.",
"                    +++++.",
"                    +++++.",
"                    +++++.",
"                    +++++.",
"                    +++++.",
"                    +++++.",
"                    +++++.",
"                    +++++.",
"                    +++++.",
"                    +++++.",
"                    +++++.",
"                    +++++.",
"                    +++++.",
"                    ......"};
