/* XPM */
static char * frameITL_xpm[] = {
"6 18 30 1",
" 	c None",
".	c #483C26",
"+	c #4C3C25",
"@	c #4C3C23",
"#	c #4B3B22",
"$	c #4B371E",
"%	c #634E31",
"&	c #624D30",
"*	c #4C371C",
"=	c #523A1E",
"-	c #533A1C",
";	c #523B1C",
">	c #4B3B24",
",	c #4C361E",
"'	c #503B20",
")	c #503B1E",
"!	c #4F3A1F",
"~	c #523A20",
"{	c #4F3B22",
"]	c #513C21",
"^	c #4F3B20",
"/	c #4E3A1F",
"(	c #4D3B25",
"_	c #4B351D",
":	c #4D3B23",
"<	c #503A22",
"[	c #49381E",
"}	c #4B371F",
"|	c #493D27",
"1	c #4B3C25",
".+@#@@",
"+$%%%&",
"+*=-;-",
">,'=)=",
"+,''''",
"+,'!~{",
"+,]'~{",
"+,'')^",
"+,'')/",
"+,'''{",
"+,'''{",
"+,'''{",
"(,'''{",
"(,''''",
"(_''']",
":*^^<<",
"+$[[}}",
"|+11++"};
