/* XPM */
static char *  rolldownA_xpm[] = {
"13 36 48 1",
" 	c None",
".	c #4D3B23",
"+	c #4C3C23",
"@	c #4B3B22",
"#	c #654D31",
"$	c #634E31",
"%	c #654E2F",
"&	c #634E2F",
"*	c #624D30",
"=	c #533A1C",
"-	c #523B1C",
";	c #533A1B",
">	c #523B1B",
",	c #513A1B",
"'	c #523A1E",
")	c #503B1E",
"!	c #523A20",
"~	c #503B20",
"{	c #4F3B20",
"]	c #4D3C22",
"^	c #4C3C22",
"/	c #4F3B22",
"(	c #E9DEC8",
"_	c #E6E0CA",
":	c #E7E1CB",
"<	c #E7DFC8",
"[	c #EADEC6",
"}	c #4F3A1F",
"|	c #E2E1CD",
"1	c #E3E2CE",
"2	c #E3E1CC",
"3	c #E8E0C9",
"4	c #4B3D23",
"5	c #E1E0CC",
"6	c #493D23",
"7	c #4E3A1F",
"8	c #503C21",
"9	c #513C21",
"0	c #503A22",
"a	c #513B23",
"b	c #49381E",
"c	c #4B371F",
"d	c #4B371E",
"e	c #48371D",
"f	c #4C3D26",
"g	c #4C3C25",
"h	c #4B3C25",
"i	c #4B3B24",
".+.+.+.++@++@",
"#$#$%&#$$$*$$",
"=-=-;>=,=-=-=",
"')')')')!~')'",
"~~~{]@^]]/~~~",
"!!~](_:<[+/!}",
"~~~+_|1234/!~",
"~~~+_5|2<4{)~",
"{{~+_||2<67)~",
"~~~+_||2<6/~~",
"~~~+_||2<6/~~",
"~~~+_||2<6/~~",
"~~~](__<[+/~~",
"~~~8]@+]]/~~~",
"~~~~~~~~~~9~~",
"7{00{{a0{{00{",
"bbcdbbccebccb",
"f4ggh4ighhggh",
".+.+.+.++@++@",
"#$#$%&#$$$*$$",
"=-=-;>=,=-=-=",
"')')')')!~')'",
"~~~{]@^]]/~~~",
"!!~](_:<[+/!}",
"~~~+_|1234/!~",
"~~~+_5|2<4{)~",
"{{~+_||2<67)~",
"~~~+_||2<6/~~",
"~~~+_||2<6/~~",
"~~~+_||2<6/~~",
"~~~](__<[+/~~",
"~~~8]@+]]/~~~",
"~~~~~~~~~~9~~",
"7{00{{a0{{00{",
"bbcdbbccebccb",
"f4ggh4ighhggh"};
