/* XPM */
static char *dummy[]={
"1 12 6 1",
"d c #000000",
"c c #bcc0ba",
"b c #d2d3ce",
"a c #e6e5e2",
"# c #f8f8f7",
". c #ffffff",
".",
".",
".",
".",
".",
".",
".",
"#",
"a",
"b",
"c",
"d"};
