/* XPM */
static char * maximizeI_xpm[] = {
"20 44 34 1",
" 	c None",
".	c #FFFFFF",
"+	c #CFC0B5",
"@	c #FBFBFB",
"#	c #F9F8F7",
"$	c #D2C4B8",
"%	c #F7F4F1",
"&	c #D5C7BD",
"*	c #000000",
"=	c #F5F0ED",
"-	c #D8CBC2",
";	c #F2EDE8",
">	c #DCCFC6",
",	c #F0E9E4",
"'	c #DED3CA",
")	c #ECE6E2",
"!	c #E1D7CF",
"~	c #EAE2DC",
"{	c #E4DBD4",
"]	c #E8E0D8",
"^	c #E5DCD5",
"/	c #EAE4DE",
"(	c #E2D8D0",
"_	c #EEE7E2",
":	c #E0D4CC",
"<	c #EFEBE7",
"[	c #DDD2C9",
"}	c #F3EFEB",
"|	c #DACDC4",
"1	c #F6F3F0",
"2	c #D8CAC0",
"3	c #F9F7F5",
"4	c #D4C6BC",
"5	c #FBFAF9",
"....................",
"..++++++++++++++++..",
"@++++++++++++++++++@",
"#$$##############$$#",
"%&&%************%&&%",
"=--=************=--=",
";>>;*;;;;;;;;;;*;>>;",
",'',*,,,,,,,,,,*,'',",
")!!)*))))))))))*)!!)",
"~{{~*~~~~~~~~~~*~{{~",
"]]]]*]]]]]]]]]]*]]]]",
"^//^*^^^^^^^^^^*^//^",
"(__(*((((((((((*(__(",
":<<:*::::::::::*:<<:",
"[}}[*[[[[[[[[[[*[}}[",
"|11|************|11|",
"23322222222222222332",
"45555555555555555554",
"$$................$$",
"++++++++++++++++++++",
"++++++++++++++++++++",
"++++++++++++++++++++",
"....................",
"..++++++++++++++++..",
"@++++++++++++++++++@",
"#$$22222222222222$$#",
"%&&2************2&&%",
"=--2************2--=",
";>>2*2222222222*2>>;",
",''2*2222222222*2'',",
")!!2*2222222222*2!!)",
"~{{2*2222222222*2{{~",
"]]]2*2222222222*2]]]",
"^//2*2222222222*2//^",
"(__2*2222222222*2__(",
":<<2*2222222222*2<<:",
"[}}2*2222222222*2}}[",
"|112************211|",
"23322222222222222332",
"45555555555555555554",
"$$................$$",
"++++++++++++++++++++",
"++++++++++++++++++++",
"++++++++++++++++++++"};
