/* XPM */
static char * restoreA_xpm[] = {
"20 44 42 1",
" 	c None",
".	c #EFB073",
"+	c #D7904B",
"@	c #EDAE71",
"#	c #EAA868",
"$	c #DA934E",
"%	c #F8C492",
"&	c #E8A666",
"*	c #DB9551",
"=	c #F7C18D",
"-	c #E5A261",
";	c #DF9955",
">	c #F5BC85",
",	c #FFFFFF",
"'	c #E3A05F",
")	c #E29D5A",
"!	c #F3B87F",
"~	c #E5A15F",
"{	c #F2B57A",
"]	c #E19C59",
"^	c #E7A463",
"/	c #F1B377",
"(	c #DD9753",
"_	c #EEAF72",
":	c #EBAB6D",
"<	c #ECAD70",
"[	c #D8914C",
"}	c #E8A564",
"|	c #D68F4A",
"1	c #D38C47",
"2	c #F4BB84",
"3	c #CF8843",
"4	c #F5BE89",
"5	c #DF9A57",
"6	c #D0863E",
"7	c #F7C28F",
"8	c #D18337",
"9	c #FAC898",
"0	c #D18235",
"a	c #FCD1A2",
"b	c #D18031",
"c	c #914B07",
"....................",
"..++++++++++++++++..",
"@++++++++++++++++++@",
"#$$%%%%%%%%%%%%%%$$#",
"&**==============**&",
"-;;>>>>>,,,,,,,>>;;-",
"'))!!!!!,,,,,,,!!))'",
")~~{{{{{,{{{{{,{{~~)",
"]^^/////,/////,//^^]",
"(##__,,,,,,,__,__##(",
"*::<<,,,,,,,,,,<#::*",
"$__##,#####,#####__$",
"[//}},}}}}},}}}}}//[",
"|!!--,-----,-----!!|",
"122'',,,,,,,'''''221",
"34455555555555555443",
"677(5((((((((((((776",
"89999999999999999998",
"00aaaaaaaaaaaaaaaa00",
"bbbbbbbbbbbbbbbbbbbb",
"bbbbbbbbbbbbbbbbbbbb",
"bbbbbbbbbbbbbbbbbbbb",
"....................",
"..++++++++++++++++..",
"@++++++++++++++++++@",
"#$$(((((((((((((($$#",
"&**((((((((((((((**&",
"-;;(((((ccccccc((;;-",
"'))(((((ccccccc(())'",
")~~(((((c(((((c((~~)",
"]^^(((((c(((((c((^^]",
"(##((ccccccc((c((##(",
"*::((cccccccccc((::*",
"$__((c(((((c(((((__$",
"[//((c(((((c(((((//[",
"|!!((c(((((c(((((!!|",
"122((ccccccc(((((221",
"344((((((((((((((443",
"677(5((((((((((((776",
"89999999999999999998",
"00aaaaaaaaaaaaaaaa00",
"bbbbbbbbbbbbbbbbbbbb",
"bbbbbbbbbbbbbbbbbbbb",
"bbbbbbbbbbbbbbbbbbbb"};
