/* XPM */
static char * minimizeA_xpm[] = {
"20 40 44 1",
" 	c None",
".	c #3B2B2C",
"+	c #000000",
"@	c #8F7763",
"#	c #685648",
"$	c #392C29",
"%	c #675547",
"&	c #372A28",
"*	c #665346",
"=	c #8F7663",
"-	c #635145",
";	c #615043",
">	c #FFFFFF",
",	c #8C7460",
"'	c #876F5C",
")	c #604F42",
"!	c #836B59",
"~	c #5F4E41",
"{	c #DEDEDE",
"]	c #7E6655",
"^	c #5E4D40",
"/	c #C7C7C7",
"(	c #796251",
"_	c #5D4C3F",
":	c #B9B9B9",
"<	c #755D4D",
"[	c #5B4A3D",
"}	c #B4B4B4",
"|	c #6F5949",
"1	c #5A493C",
"2	c #BABABA",
"3	c #6B5546",
"4	c #57473B",
"5	c #D0D0D0",
"6	c #665042",
"7	c #554539",
"8	c #624B3D",
"9	c #544438",
"0	c #5D473A",
"a	c #524236",
"b	c #584236",
"c	c #504034",
"d	c #543E32",
"e	c #4F3F33",
"..........++++++++++",
".........+@@@@+@@@@@",
"........+@####+@####",
"$$++++++@%%%%%+@%%%%",
"&+@@@@@@******+@****",
"+=-;---------+>+@---",
"+,;;;;;;;;;;+>>>+@;;",
"+')))))))))+>>>>>+@)",
"+!~~~~~~+~+{{{{{+!~~",
"+]^^^^^+/+/////+]^^^",
"+(_____+::::::+(____",
"+<[[[[[+}}}}}+<[[[[[",
"+|11111+2222+|111111",
"+344444+55555+344444",
"+6777777++++++677777",
"+899999+888888999999",
"+0aaaaa+0aaaaaaaaaaa",
"+bccccc+bccccccccccc",
"+deeeee+deeeeeeeeeee",
"++++++++++++++++++++",
"..........++++++++++",
".........+@@@@+@@@@@",
"........+@####+@####",
"$$++++++@%%%%%+@%%%%",
"&+@@@@@@******+@****",
"+=-;-----------+@---",
"+,;;;;;;;;;;;;;;+@;;",
"+')))))))))))))))+@)",
"+!~~~~~~~~~~~~~~+!~~",
"+]^^^^^^^^^^^^^+]^^^",
"+(____________+(____",
"+<[[[[[[[[[[[+<[[[[[",
"+|1111111111+|111111",
"+344444444444+344444",
"+6777777++++++677777",
"+899999+888888999999",
"+0aaaaa+0aaaaaaaaaaa",
"+bccccc+bccccccccccc",
"+deeeee+deeeeeeeeeee",
"++++++++++++++++++++"};
