/* XPM */
static char * titleAB_xpm[] = {
"1 20 17 1",
" 	c None",
".	c #3B2B2C",
"+	c #030000",
"@	c #664A4C",
"#	c #6C5051",
"$	c #785C5A",
"%	c #846962",
"&	c #90746B",
"*	c #9B8174",
"=	c #A78D7D",
"-	c #B39985",
";	c #BEA58F",
">	c #CAB297",
",	c #D6BDA0",
"'	c #E2CAAA",
")	c #FFFFFF",
"!	c #161513",
".",
".",
".",
"+",
"@",
"#",
"$",
"%",
"&",
"*",
"=",
"-",
";",
">",
",",
"'",
")",
"!",
"!",
"+"};
