/* XPM */
static char * rollupA_xpm[] = {
"18 40 65 1",
" 	c None",
".	c #B37941",
"+	c #B47940",
"@	c #B27B40",
"#	c #B0763E",
"$	c #AE753E",
"%	c #AF763F",
"&	c #A9713B",
"*	c #AA703C",
"=	c #AA723C",
"-	c #AB723B",
";	c #AB703B",
">	c #A66C38",
",	c #A76D39",
"'	c #A66E38",
")	c #A26936",
"!	c #A36935",
"~	c #A46A36",
"{	c #9F6633",
"]	c #9E6532",
"^	c #9D6533",
"/	c #9A6230",
"(	c #9A5F30",
"_	c #965D2E",
":	c #955B2D",
"<	c #945E2E",
"[	c #955E2D",
"}	c #91592B",
"|	c #905A2A",
"1	c #8D5629",
"2	c #8C5528",
"3	c #895225",
"4	c #894F25",
"5	c #885226",
"6	c #884F26",
"7	c #844C22",
"8	c #854D23",
"9	c #804920",
"0	c #81491F",
"a	c #7F481F",
"b	c #7B451D",
"c	c #7D431D",
"d	c #7C451C",
"e	c #7D461D",
"f	c #78401A",
"g	c #77401B",
"h	c #79411B",
"i	c #723C18",
"j	c #743B18",
"k	c #743D18",
"l	c #743C16",
"m	c #703914",
"n	c #6F3915",
"o	c #703714",
"p	c #6F3715",
"q	c #6C3412",
"r	c #6B3511",
"s	c #6A3312",
"t	c #6B3311",
"u	c #67300F",
"v	c #682F10",
"w	c #000000",
"x	c #DDCCBF",
"y	c #DCA176",
"z	c #462812",
"....+.@....+......",
"#$$$$$%$$%$$$$##$$",
"&&*=-*=--=*-;*=--;",
">>>,>>'','>,',,,>>",
"))))))))!)))~)~)))",
"{]]{{{{{{{{{{{{{^]",
"/(((//////////(///",
"_::<<<<<<<<<<<<[<[",
"}|}}}}}}}}}}}}}}}}",
"122112222221112221",
"345534454434443456",
"787777777777777877",
"9909a0009099099999",
"bcbdbbcebcebeebcbb",
"fffggfgggghfgffgfg",
"ijkkjilikkllkkkiik",
"mmmnmonomnooommpmm",
"qrqsqqtrtqtrqtqqsq",
"uuuuuuuvuuuuuuuuuu",
"wwwwwwwwwwwwwwwwww",
"wwwwwwwwwwwwwwwww.",
"w$$$$$%$$%$$$$##$x",
"w&*=-*=--=*-;*=--x",
"w>>,>>'','>,',,,>x",
"w)))))))!)))~)~))x",
"w]]yyyyyyyyyyyy{^x",
"w((y//////////z//x",
"w::zzzzzzzzzzzz[<x",
"w|}}}}}}}}}}}}}}}x",
"w2211222222111222x",
"w4553445443444345x",
"w8777777777777787x",
"w909a000909909999x",
"wcbdbbcebcebeebcbx",
"wffggfgggghfgffgfx",
"wjkkjilikkllkkkiix",
"wmmnmonomnooommpmx",
"wrqsqqtrtqtrqtqqsx",
"uxxxxxxxxxxxxxxxxx",
"wwwwwwwwwwwwwwwwww"};
