/* XPM */
static char * closeI_xpm[] = {
"20 44 34 1",
" 	c None",
".	c #FFFFFF",
"+	c #CFC0B5",
"@	c #FCFBFA",
"#	c #F9F8F7",
"$	c #D2C3B8",
"%	c #F7F4F1",
"&	c #D5C7BD",
"*	c #F5F0ED",
"=	c #D9CBC1",
"-	c #000000",
";	c #F2EDE8",
">	c #DCCFC6",
",	c #F0E9E4",
"'	c #DED3CA",
")	c #EDE6E1",
"!	c #E2D7CE",
"~	c #EAE2DC",
"{	c #E5DBD3",
"]	c #E8DFD8",
"^	c #E5DCD5",
"/	c #EAE4DE",
"(	c #E2D8D0",
"_	c #EEE7E2",
":	c #E0D4CC",
"<	c #F0EBE6",
"[	c #DED1C8",
"}	c #F3EFEB",
"|	c #DACDC4",
"1	c #F6F3F0",
"2	c #D8CAC0",
"3	c #F9F7F5",
"4	c #D4C6BC",
"5	c #FBFAF9",
"....................",
"..++++++++++++++++..",
"@++++++++++++++++++@",
"#$$##############$$#",
"%&&%%%%%%%%%%%%%%&&%",
"*==**--******--**==*",
";>>;;---;;;;---;;>>;",
",'',,,---,,---,,,'',",
")!!))))------))))!!)",
"~{{~~~~~----~~~~~{{~",
"]]]]]]]]----]]]]]]]]",
"^//^^^^------^^^^//^",
"(__(((---((---(((__(",
":<<::---::::---::<<:",
"[}}[[--[[[[[[--[[}}[",
"|11||||||||||||||11|",
"2332|222222222222332",
"45555555555555555554",
"$$................$$",
"++++++++++++++++++++",
"++++++++++++++++++++",
"++++++++++++++++++++",
"....................",
"..++++++++++++++++..",
"@++++++++++++++++++@",
"#$$||||||||||||||$$#",
"%&&||||||||||||||&&%",
"*==||--||||||--||==*",
";>>||---||||---||>>;",
",''|||---||---|||'',",
")!!||||------||||!!)",
"~{{|||||----|||||{{~",
"]]]|||||----|||||]]]",
"^//||||------||||//^",
"(__|||---||---|||__(",
":<<||---||||---||<<:",
"[}}||--||[|||--||}}[",
"|11||||||||||||||11|",
"233||||||||||||||332",
"45555555555555555554",
"$$................$$",
"++++++++++++++++++++",
"++++++++++++++++++++",
"++++++++++++++++++++"};
