/* XPM */
static char * minimizeI_xpm[] = {
"20 44 34 1",
" 	c None",
".	c #FFFFFF",
"+	c #CFC0B5",
"@	c #FBFBFB",
"#	c #F9F8F7",
"$	c #D2C4B8",
"%	c #F7F4F1",
"&	c #D5C7BD",
"*	c #F5F0ED",
"=	c #D9CBC1",
"-	c #F2EDE8",
";	c #DCCFC6",
">	c #F0E9E4",
",	c #DED3CA",
"'	c #ECE6E2",
")	c #E1D7CF",
"!	c #EAE2DC",
"~	c #E4DBD4",
"{	c #E8E0D8",
"]	c #E5DCD5",
"^	c #EAE4DE",
"/	c #E2D8D0",
"(	c #EEE7E2",
"_	c #E0D4CC",
":	c #F0EBE6",
"<	c #DDD2C9",
"[	c #F3EFEB",
"}	c #000000",
"|	c #DACDC4",
"1	c #F6F3F0",
"2	c #D8CAC0",
"3	c #F9F7F5",
"4	c #D4C6BC",
"5	c #FBFAF9",
"....................",
"..++++++++++++++++..",
"@++++++++++++++++++@",
"#$$##############$$#",
"%&&%%%%%%%%%%%%%%&&%",
"*==**************==*",
"-;;--------------;;-",
">,,>>>>>>>>>>>>>>,,>",
"'))''''''''''''''))'",
"!~~!!!!!!!!!!!!!!~~!",
"{{{{{{{{{{{{{{{{{{{{",
"]^^]]]]]]]]]]]]]]^^]",
"/((//////////////((/",
"_::______________::_",
"<[[<<<}}}}}}}}<<<[[<",
"|11|||}}}}}}}}|||11|",
"23322222222222222332",
"45555555555555555554",
"$$................$$",
"++++++++++++++++++++",
"++++++++++++++++++++",
"++++++++++++++++++++",
"....................",
"..++++++++++++++++..",
"@++++++++++++++++++@",
"#$$22222222222222$$#",
"%&&22222222222222&&%",
"*==22222222222222==*",
"-;;22222222222222;;-",
">,,22222222222222,,>",
"'))22222222222222))'",
"!~~22222222222222~~!",
"{{{22222222222222{{{",
"]^^22222222222222^^]",
"/((22222222222222((/",
"_::22222222222222::_",
"<[[222}}}}}}}}222[[<",
"|11222}}}}}}}}22211|",
"23322222222222222332",
"45555555555555555554",
"$$................$$",
"++++++++++++++++++++",
"++++++++++++++++++++",
"++++++++++++++++++++"};
