/* XPM */
static char * kde_16x16_xpm[] = {
"16 16 5 1",
" 	c None",
".	c #000000",
"+	c #FFFFFF",
"@	c #8ED92F",
"#	c #D1D1D1",
"                ",
"                ",
"   .........    ",
"   .+++++++.    ",
"   .+++++++.    ",
".........++.    ",
".@@@@@@@.++.    ",
".@@@@@@@.++.... ",
".@@@@@@@.++.##. ",
".@@@@@@@.++.##. ",
".@@@@@@@....##. ",
".@@@@@@@.#####. ",
".@@@@@@@.#####. ",
".........#####. ",
"      .#######. ",
"      ......... "};
