/* XPM */
static char * maximizeA_xpm[] = {
"30 42 442 2",
"  	c None",
". 	c #5F5F5F",
"+ 	c #595959",
"@ 	c #3B8A99",
"# 	c #398898",
"$ 	c #388696",
"% 	c #388595",
"& 	c #378494",
"* 	c #378393",
"= 	c #398797",
"- 	c #398999",
"; 	c #3A8898",
"> 	c #3A8999",
", 	c #3A8899",
"' 	c #3C8B99",
") 	c #616161",
"! 	c #585858",
"~ 	c #398897",
"{ 	c #3A8998",
"] 	c #398696",
"^ 	c #388393",
"/ 	c #367E8C",
"( 	c #337988",
"_ 	c #337785",
": 	c #347989",
"< 	c #357E8C",
"[ 	c #378392",
"} 	c #398595",
"| 	c #3A8797",
"1 	c #398796",
"2 	c #398697",
"3 	c #505050",
"4 	c #398693",
"5 	c #388695",
"6 	c #388495",
"7 	c #36818F",
"8 	c #337987",
"9 	c #2E6D7A",
"0 	c #2A636F",
"a 	c #285F6B",
"b 	c #337787",
"c 	c #36808E",
"d 	c #388494",
"e 	c #398695",
"f 	c #398594",
"g 	c #388594",
"h 	c #398694",
"i 	c #515151",
"j 	c #474747",
"k 	c #398392",
"l 	c #367F8D",
"m 	c #317683",
"n 	c #2C6773",
"o 	c #24565F",
"p 	c #FFFFFF",
"q 	c #24555F",
"r 	c #2B6772",
"s 	c #317582",
"t 	c #357E8D",
"u 	c #378291",
"v 	c #398493",
"w 	c #388493",
"x 	c #388492",
"y 	c #398492",
"z 	c #484848",
"A 	c #3F3F3F",
"B 	c #397F8E",
"C 	c #398494",
"D 	c #327482",
"E 	c #2B6470",
"F 	c #22515A",
"G 	c #225059",
"H 	c #307480",
"I 	c #347C8B",
"J 	c #378090",
"K 	c #378190",
"L 	c #388292",
"M 	c #404040",
"N 	c #000000",
"O 	c #377F8E",
"P 	c #388392",
"Q 	c #388291",
"R 	c #368090",
"S 	c #357C8A",
"T 	c #307380",
"U 	c #2B636F",
"V 	c #224F58",
"W 	c #214E58",
"X 	c #2A626E",
"Y 	c #31727F",
"Z 	c #357B88",
"` 	c #37818F",
" .	c #37808F",
"..	c #126274",
"+.	c #116172",
"@.	c #115F6F",
"#.	c #0F5866",
"$.	c #0D4C58",
"%.	c #0A3C46",
"&.	c #07282E",
"*.	c #0B3E49",
"=.	c #0D4E5B",
"-.	c #105A69",
";.	c #116273",
">.	c #116576",
",.	c #116778",
"'.	c #116577",
").	c #116678",
"!.	c #116779",
"~.	c #106678",
"{.	c #106475",
"].	c #0F5D6E",
"^.	c #0D505E",
"/.	c #0B404B",
"(.	c #093942",
"_.	c #0A3F49",
":.	c #093A43",
"<.	c #0A434E",
"[.	c #0D5563",
"}.	c #0F6372",
"|.	c #0F6A7B",
"1.	c #116E7F",
"2.	c #106A7C",
"3.	c #0F7081",
"4.	c #0F6F81",
"5.	c #0E6E7F",
"6.	c #0E6A7A",
"7.	c #0C5F6F",
"8.	c #0B4B57",
"9.	c #09424D",
"0.	c #0B505D",
"a.	c #0C5765",
"b.	c #0B525F",
"c.	c #0A505C",
"d.	c #0D6272",
"e.	c #0F6E7F",
"f.	c #107486",
"g.	c #0F7084",
"h.	c #0F7184",
"i.	c #0F7285",
"j.	c #0E778A",
"k.	c #0D7588",
"l.	c #0D7082",
"m.	c #0B6373",
"n.	c #094753",
"o.	c #0B5967",
"p.	c #0D6676",
"q.	c #0E6B7B",
"r.	c #0D6776",
"s.	c #0B5B69",
"t.	c #094954",
"u.	c #0C6574",
"v.	c #0E7283",
"w.	c #0F7A8C",
"x.	c #0E7A8D",
"y.	c #0D7E92",
"z.	c #0C7C90",
"A.	c #0C788B",
"B.	c #0B6D7E",
"C.	c #0B5966",
"D.	c #09505D",
"E.	c #0A606E",
"F.	c #0D6D7D",
"G.	c #0D7586",
"H.	c #0E778B",
"I.	c #0E7688",
"J.	c #0C6F7F",
"K.	c #0A6270",
"L.	c #09535F",
"M.	c #0A5D6B",
"N.	c #0C6E7E",
"O.	c #0D798C",
"P.	c #0D8093",
"Q.	c #0C8094",
"R.	c #0C8195",
"S.	c #0C8599",
"T.	c #0B8498",
"U.	c #0B8195",
"V.	c #0B7C8E",
"W.	c #0B6B7C",
"X.	c #0B6473",
"Y.	c #0A6372",
"Z.	c #0B6A7A",
"`.	c #0C7485",
" +	c #0D7B8D",
".+	c #0D7F92",
"++	c #0C8093",
"@+	c #0D8092",
"#+	c #0C7D8F",
"$+	c #0B7787",
"%+	c #0A6C7C",
"&+	c #0A6775",
"*+	c #0B6877",
"=+	c #0B7181",
"-+	c #0C7B8C",
";+	c #0C8295",
">+	c #0D879A",
",+	c #0C889C",
"'+	c #0C899C",
")+	c #0C8CA1",
"!+	c #0B8A9F",
"~+	c #0A899C",
"{+	c #0B7A8B",
"]+	c #0C7D90",
"^+	c #0C8698",
"/+	c #0C889B",
"(+	c #0D889B",
"_+	c #0D889C",
":+	c #0C879A",
"<+	c #0C8598",
"[+	c #0B8193",
"}+	c #0A7F90",
"|+	c #0B7F90",
"1+	c #0B8294",
"2+	c #0B889B",
"3+	c #0B8A9D",
"4+	c #0C8DA0",
"5+	c #0B8FA4",
"6+	c #19788B",
"7+	c #0B93A8",
"8+	c #0A93A7",
"9+	c #0B8A9C",
"0+	c #0B899B",
"a+	c #0B899C",
"b+	c #0B899E",
"c+	c #0B8B9E",
"d+	c #0C8DA1",
"e+	c #0C8EA2",
"f+	c #0C8FA2",
"g+	c #0C8FA3",
"h+	c #0C90A3",
"i+	c #0A8EA2",
"j+	c #0A8DA1",
"k+	c #0A8DA0",
"l+	c #0B8FA1",
"m+	c #0A8FA3",
"n+	c #0B91A5",
"o+	c #0B93A7",
"p+	c #0A95AB",
"q+	c #197A8B",
"r+	c #212121",
"s+	c #020202",
"t+	c #030405",
"u+	c #020505",
"v+	c #020405",
"w+	c #010405",
"x+	c #010304",
"y+	c #000304",
"z+	c #52BECD",
"A+	c #51BCCB",
"B+	c #50BBC9",
"C+	c #50B9C8",
"D+	c #4FB8C6",
"E+	c #51BECD",
"F+	c #53BECE",
"G+	c #53BECD",
"H+	c #626262",
"I+	c #52BDCC",
"J+	c #52BDCD",
"K+	c #51BACA",
"L+	c #4CB1BF",
"M+	c #49ABB8",
"N+	c #48A7B4",
"O+	c #4CB0BF",
"P+	c #4FB7C5",
"Q+	c #51BAC9",
"R+	c #51BDCD",
"S+	c #51BDCC",
"T+	c #4DB4C3",
"U+	c #49AAB8",
"V+	c #439AA7",
"W+	c #3D8C98",
"X+	c #3A8691",
"Y+	c #3C8C98",
"Z+	c #429AA7",
"`+	c #4EB4C3",
" @	c #51B9C9",
".@	c #50BBCB",
"+@	c #51BCCC",
"@@	c #52BCCC",
"#@	c #4EB3C2",
"$@	c #3F929F",
"%@	c #357984",
"&@	c #347984",
"*@	c #3F929E",
"=@	c #4DB3C2",
"-@	c #50B8C9",
";@	c #50BBCA",
">@	c #494949",
",@	c #52B9C9",
"'@	c #52BACA",
")@	c #47A6B3",
"!@	c #3E909C",
"~@	c #31737C",
"{@	c #47A5B3",
"]@	c #4DB2C2",
"^@	c #50B8C8",
"/@	c #50BACA",
"(@	c #50B7C7",
"_@	c #48A5B3",
":@	c #3E8F9C",
"<@	c #31727C",
"[@	c #31717B",
"}@	c #4DB1C2",
"|@	c #52BBCC",
"1@	c #40ACBD",
"2@	c #3FA9BA",
"3@	c #3DA6B6",
"4@	c #389AA9",
"5@	c #318492",
"6@	c #276A74",
"7@	c #1A454C",
"8@	c #266974",
"9@	c #308492",
"0@	c #3899A8",
"a@	c #3CA5B5",
"b@	c #3EA9BA",
"c@	c #3FACBD",
"d@	c #40AEBE",
"e@	c #40AFBF",
"f@	c #3FAEBE",
"g@	c #3EAAB9",
"h@	c #39A0AF",
"i@	c #318B99",
"j@	c #276F79",
"k@	c #226069",
"l@	c #256973",
"m@	c #236069",
"n@	c #286D79",
"o@	c #328997",
"p@	c #3A9EAD",
"q@	c #3EA9B9",
"r@	c #40AEBF",
"s@	c #40ADBF",
"t@	c #40B0C0",
"u@	c #3FB2C3",
"v@	c #3EAFC0",
"w@	c #3BA8B9",
"x@	c #3699A8",
"y@	c #2B7C88",
"z@	c #266B75",
"A@	c #2E828F",
"B@	c #318C99",
"C@	c #2B7B87",
"D@	c #3698A7",
"E@	c #3CA7B8",
"F@	c #3FB1C2",
"G@	c #40B1C2",
"H@	c #3FB2C5",
"I@	c #3FB3C5",
"J@	c #3FB6C7",
"K@	c #3EB3C4",
"L@	c #3BABBB",
"M@	c #3398A7",
"N@	c #26707B",
"O@	c #308B98",
"P@	c #369EAE",
"Q@	c #39A4B5",
"R@	c #379EAD",
"S@	c #27707A",
"T@	c #3496A4",
"U@	c #3BA9B9",
"V@	c #3FB4C5",
"W@	c #3FB7C8",
"X@	c #3EB8CC",
"Y@	c #3DB5C9",
"Z@	c #3BAFC2",
"`@	c #35A0AF",
" #	c #2D8895",
".#	c #297985",
"+#	c #30919E",
"@#	c #38A4B3",
"##	c #3BAFC0",
"$#	c #3CB2C4",
"%#	c #3BAFBF",
"&#	c #37A3B3",
"*#	c #30909D",
"=#	c #2D8694",
"-#	c #3CAEBE",
";#	c #3EBACC",
">#	c #3EBBCC",
",#	c #3EBDCD",
"'#	c #3DBCCC",
")#	c #3CB8C8",
"!#	c #39ADBE",
"~#	c #349FAF",
"{#	c #3094A2",
"]#	c #30929F",
"^#	c #339CAB",
"/#	c #37A9B8",
"(#	c #3BB3C4",
"_#	c #3DB9C9",
":#	c #3DB9CB",
"<#	c #3DB8C9",
"[#	c #3BB2C3",
"}#	c #37A8B8",
"|#	c #339BAA",
"1#	c #30919F",
"2#	c #3093A0",
"3#	c #349FAC",
"4#	c #39ACBC",
"5#	c #3CB5C7",
"6#	c #3EB9CB",
"7#	c #3FBACB",
"8#	c #3EBDD0",
"9#	c #3EBED0",
"0#	c #3EBFD2",
"a#	c #3DBDD0",
"b#	c #3CBACB",
"c#	c #39B3C4",
"d#	c #37AFBF",
"e#	c #37AEBE",
"f#	c #39B3C2",
"g#	c #3CB9C9",
"h#	c #3CBBCD",
"i#	c #3EBFD0",
"j#	c #3DBED0",
"k#	c #3AB2C2",
"l#	c #38ADBD",
"m#	c #3AB1C2",
"n#	c #3CB7C9",
"o#	c #3CBBCC",
"p#	c #3EBCCF",
"q#	c #3EBDCE",
"r#	c #3DC2D3",
"s#	c #43B6C7",
"t#	c #3DC2D5",
"u#	c #3CC1D3",
"v#	c #3CBFD1",
"w#	c #3BBECF",
"x#	c #3CBDCF",
"y#	c #3CC0D1",
"z#	c #3DC1D4",
"A#	c #3EC1D3",
"B#	c #3DC1D3",
"C#	c #3DBCCF",
"D#	c #3CBDCE",
"E#	c #3BBCCD",
"F#	c #3DC0D2",
"G#	c #3DBFD1",
"H#	c #3DC4D7",
"I#	c #43B7C7",
". + @ @ # # # # # # # $ % & * & % = - ; > > ; , # # # ' + ) ",
"! + ~ ~ , { ; ; ; ; ] ^ / ( _ : < [ } | 1 | = 1 2 1 2 # + + ",
"3 + 4 4 = = 1 ] 5 6 7 8 9 0 a 0 9 b c d d } } e f g } h + i ",
"j + k k % } } d * l m n o p p p q r s t u [ v w w x ^ y + z ",
"A + B B C d [ u / D E F p p p p p G E H I J K L L u u k + M ",
"N + O O P Q R S T U V p p p p p p p W X Y Z l ` `  .J ^ + N ",
"N + ......+.@.#.$.%.p p p p &.p p p p *.=.-.;.>.,.'.).).+ N ",
"N + !.!.~.{.].^./.p p p p (._.:.p p p p <.[.}.|.1.2.2.2.+ N ",
"N + 3.4.5.6.7.8.p p p p 9.0.a.b.<.p p p p c.d.e.f.g.h.i.+ N ",
"N + j.j.k.l.m.p p p p n.o.p.q.r.s.t.p p p p u.v.w.x.x.x.+ N ",
"N + y.y.z.A.B.C.p p D.E.F.G.H.I.J.K.L.p p M.N.O.P.Q.Q.R.+ N ",
"N + S.S.T.U.V.W.X.Y.Z.`. +.+++@+#+$+%+&+*+=+-+;+>+,+,+'++ N ",
"N + )+)+)+!+~+#+{+{+]+R.^+/+(+_+:+<+[+}+|+1+2+3+4+5+5+5++ N ",
"N + 6+7+7+7+8+9+0+a+b+c+d+e+f+g+h+i+j+k+l+m+n+o+o+p+p+q++ N ",
"N r++ + + + + + + + + + + + + + + + + + + + + + + + + + r+N ",
"N N N N N N N N N N N N N N N N N N N N N N N N N N N N N N ",
"N N N N N N N N N N N N N N N N N N N N N N N N N N N N N N ",
"N N s+s+s+s+s+s+s+s+s+s+s+s+s+s+s+s+s+s+s+s+s+s+s+s+s+s+N N ",
"N s+t+u+u+u+u+u+u+u+u+u+u+u+u+u+u+u+u+u+u+u+u+u+u+u+u+t+s+N ",
"N s+u+v+u+u+u+u+v+u+u+u+u+u+u+u+u+u+u+u+u+u+u+u+u+u+u+u+s+N ",
"N s+w+w+w+w+w+w+w+w+v+v+v+x+x+y+w+w+w+w+w+w+w+w+w+w+w+w+s+N ",
". + z+z+z+z+z+z+z+z+z+A+B+C+D+C+B+A+z+E+z+z+z+F+F+F+F+G++ H+",
"! + I+I+I+J+J+z+J+z+K+D+L+M+N+M+O+P+Q+I+I+R+S+J+J+J+J+J++ + ",
"3 + I+I+I+I+I+I+A+Q+T+U+V+W+X+Y+Z+U+`+ @.@+@I+I+I+I+I+I++ i ",
"j + @@@@@@@@@@.@ @#@N+$@%@p p p &@*@N+=@-@;@A+I+I+I+I+I++ >@",
"A + ,@,@,@'@Q+C+=@)@!@~@p p p p p ~@!@{@]@^@/@I+I+@@@@@@+ M ",
"N +  @ @ @K+(@=@_@:@<@p p p p p p p [@:@{@}@(@|@@@@@@@@@+ N ",
"N + 1@1@1@2@3@4@5@6@p p p p 7@p p p p 8@9@0@a@b@c@c@d@d@+ N ",
"N + e@e@f@g@h@i@j@p p p p k@l@m@p p p p n@o@p@q@r@s@t@t@+ N ",
"N + u@u@v@w@x@y@p p p p z@A@B@A@z@p p p p C@D@E@F@G@H@I@+ N ",
"N + J@J@K@L@M@p p p p N@O@P@Q@R@O@S@p p p p T@U@V@V@W@W@+ N ",
"N + X@X@Y@Z@`@ #p p .#+#@###$#%#&#*#.#p p =#P@-#W@W@;#>#+ N ",
"N + ,#,#'#)#!#~#{#]#^#/#(#_#:#<#[#}#|#1#2#3#4#5#6#7#8#9#+ N ",
"N + 0#0#0#a#b#c#d#e#f#g#h#i#9#j#h#)#k#l#l#m#n#o#p#q#r#r#+ N ",
"N + s#t#t#t#u#v#w#w#x#y#z#z#r#A#B#v#C#D#E#x#v#F#F#G#H#I#+ N ",
"N r++ + + + + + + + + + + + + + + + + + + + + + + + + + r+N ",
"N N N N N N N N N N N N N N N N N N N N N N N N N N N N N N ",
"N N N N N N N N N N N N N N N N N N N N N N N N N N N N N N ",
"N N N N N N N N N N N N N N N N N N N N N N N N N N N N N N ",
"N N N N N N N N N N N N N N N N N N N N N N N N N N N N N N ",
"N N N N N N N N N N N N N N N N N N N N N N N N N N N N N N ",
"N N N N N N N N N N N N N N N N N N N N N N N N N N N N N N "};
