/* XPM */
static char * icewm_xpm[] = {
"40 20 37 1",
" 	c None",
".	c #868686",
"+	c #7C7C7C",
"@	c #C4C4C4",
"#	c #767676",
"$	c #0F0000",
"%	c #707070",
"&	c #140000",
"*	c #6A6A6A",
"=	c #200000",
"-	c #636363",
";	c #250000",
">	c #330000",
",	c #5C5C5C",
"'	c #2C0000",
")	c #3F0000",
"!	c #535353",
"~	c #4D0000",
"{	c #4A4A4A",
"]	c #3B0000",
"^	c #550000",
"/	c #383838",
"(	c #420000",
"_	c #640000",
":	c #252525",
"<	c #740000",
"[	c #1A1A1A",
"}	c #8C0000",
"|	c #121212",
"1	c #B50000",
"2	c #0B0B0B",
"3	c #CB0101",
"4	c #000000",
"5	c #ED0000",
"6	c #FF1414",
"7	c #FF2222",
"8	c #FF2C2C",
"........................................",
"+++++++++++++++++++@++++++++++++++++++++",
"##################@$@###################",
"%%%%%%%%%%%%%%%%%@&&&@%%%%%%%%%%%%%%%%%%",
"****************@=====@*****************",
"---------------@;;;>;;;@----------------",
",,,,,,,,,,,,,,@''')))'''@,,,,,,,,,,,,,,,",
"!!!!!!!!!!!!!@>>>~~~~~>>>@!!!!!!!!!!!!!!",
"{{{{{{{{{{{{@]]^^^^^^^^^]]@{{{{{{{{{{{{{",
"///////////@((___________((@////////////",
":::::::::::@~<<<<<<<<<<<<<~@::::::::::::",
"[[[[[[[[[[[[@}}}}}}}}}}}}}@[[[[[[[[[[[[[",
"|||||||||||||@11111111111@||||||||||||||",
"22222222222222@333333333@222222222222222",
"444444444444444@5555555@4444444444444444",
"4444444444444444@66666@44444444444444444",
"44444444444444444@777@444444444444444444",
"444444444444444444@8@4444444444444444444",
"4444444444444444444@44444444444444444444",
"4444444444444444444444444444444444444444"};
