/* XPM */
static char * dframeATL_xpm[] = {
"26 26 58 1",
" 	c None",
".	c #000000",
"+	c #8A6136",
"@	c #C58B4D",
"#	c #C68C4E",
"$	c #C48A4C",
"%	c #C48B4E",
"&	c #BF8649",
"*	c #C0874A",
"=	c #C0844A",
"-	c #BB8047",
";	c #BB8347",
">	c #BC8148",
",	c #B77C43",
"'	c #B87D44",
")	c #B77F43",
"!	c #B37941",
"~	c #B27840",
"{	c #AE753E",
"]	c #B0763E",
"^	c #AB703B",
"/	c #AA703C",
"(	c #A9713B",
"_	c #A66C38",
":	c #A66E38",
"<	c #A26936",
"[	c #9E6532",
"}	c #9D6533",
"|	c #9F6633",
"1	c #9A6230",
"2	c #9A5F30",
"3	c #955E2D",
"4	c #965D2E",
"5	c #955B2D",
"6	c #91592B",
"7	c #905A2A",
"8	c #8D5629",
"9	c #8C5528",
"0	c #884F26",
"a	c #885226",
"b	c #895225",
"c	c #894F25",
"d	c #844C22",
"e	c #854D23",
"f	c #804920",
"g	c #81491F",
"h	c #7B451D",
"i	c #7D431D",
"j	c #77401B",
"k	c #78401A",
"l	c #743D18",
"m	c #723C18",
"n	c #743B18",
"o	c #703914",
"p	c #703714",
"q	c #6C3412",
"r	c #6B3511",
"s	c #67300F",
" .........................",
".+@##@@#@##@@@#@#@@@@@@@##",
".$$$$$$$$$$$$$$%$$$$$$$$$$",
".&&&&&*&&&&&*&=&&&&*=*****",
".-;---;-;---;--;;;;;;;->--",
".,,,,,,,,,,,,'))''',''''),",
".!~!!!                    ",
".{{]{{                    ",
".^/((/                    ",
"._:___                    ",
".<<<<<                    ",
".[}|[[                    ",
".11122                    ",
".34455                    ",
".66676                    ",
".89899                    ",
".0abca                    ",
".ddded                    ",
".fgffg                    ",
".hhhih                    ",
".jjkkk                    ",
".lmmnl                    ",
".opooo                    ",
".qrqrq                    ",
".sssss                    ",
"......                    "};
