/* XPM */
static char * dframeATR_xpm[] = {
"26 26 63 1",
" 	c None",
".	c #000000",
"+	c #C68C4E",
"@	c #C58B4D",
"#	c #8B6235",
"$	c #C48A4C",
"%	c #C48B4E",
"&	c #C0874A",
"*	c #BF8649",
"=	c #C0844A",
"-	c #BB8047",
";	c #BB8347",
">	c #BC8148",
",	c #B77C43",
"'	c #B87D44",
")	c #B77F43",
"!	c #B37941",
"~	c #B47940",
"{	c #AE753E",
"]	c #AF763F",
"^	c #AB723B",
"/	c #AA723C",
"(	c #AA703C",
"_	c #A66E38",
":	c #A76D39",
"<	c #A66C38",
"[	c #A26936",
"}	c #A36935",
"|	c #9F6633",
"1	c #9D6533",
"2	c #996231",
"3	c #9A6230",
"4	c #995F31",
"5	c #9B6031",
"6	c #955E2D",
"7	c #965D2E",
"8	c #955B2D",
"9	c #91592B",
"0	c #8C5528",
"a	c #8D5629",
"b	c #885226",
"c	c #894F25",
"d	c #895225",
"e	c #844C22",
"f	c #81491F",
"g	c #804920",
"h	c #7D461D",
"i	c #7B451D",
"j	c #7D431D",
"k	c #77401B",
"l	c #79411B",
"m	c #78401A",
"n	c #723C18",
"o	c #743D18",
"p	c #743C16",
"q	c #703714",
"r	c #703914",
"s	c #6F3915",
"t	c #6B3511",
"u	c #6B3311",
"v	c #6C3412",
"w	c #682F10",
"x	c #67300F",
"......................... ",
"++@++@@@+@+@@@@@@@+++@++#.",
"$$$$$$$$$%$$$$$$$$$$$$$$$.",
"&*****&*=****&=&&&&&*****.",
"--;---;--;;;;;;;->---;---.",
",,,,,,,'))''',''''),,,,,,.",
"                    !!!!~.",
"                    {{]{{.",
"                    ^^/(^.",
"                    _:_<:.",
"                    [}[[[.",
"                    |1|1|.",
"                    23452.",
"                    67866.",
"                    99999.",
"                    0000a.",
"                    bccdc.",
"                    eeeee.",
"                    fgfgg.",
"                    hijhi.",
"                    kkklm.",
"                    noopp.",
"                    qrsqq.",
"                    tuvut.",
"                    wxxxx.",
"                    ......"};
