/* XPM */
static char * icewm_xpm[] = {
"90 30 663 2",
"  	c None",
". 	c #454545",
"+ 	c #474747",
"@ 	c #494949",
"# 	c #4A4A4A",
"$ 	c #4C4B4B",
"% 	c #4C4C4C",
"& 	c #4E4E4E",
"* 	c #504E4F",
"= 	c #515151",
"- 	c #535152",
"; 	c #555454",
"> 	c #585657",
", 	c #5A5859",
"' 	c #5E5C5D",
") 	c #615E5F",
"! 	c #635F61",
"~ 	c #646163",
"{ 	c #676365",
"] 	c #696567",
"^ 	c #6A6668",
"/ 	c #6C686A",
"( 	c #6E6A6C",
"_ 	c #6F6B6D",
": 	c #716C6E",
"< 	c #726C6F",
"[ 	c #726E6F",
"} 	c #746E71",
"| 	c #746F71",
"1 	c #767073",
"2 	c #777174",
"3 	c #797375",
"4 	c #797376",
"5 	c #7A7476",
"6 	c #7B7578",
"7 	c #7C7478",
"8 	c #7D7579",
"9 	c #7E767A",
"0 	c #7F767B",
"a 	c #7F787B",
"b 	c #80777C",
"c 	c #80787C",
"d 	c #7F787C",
"e 	c #7D767A",
"f 	c #7E7579",
"g 	c #7D7679",
"h 	c #7C7578",
"i 	c #787275",
"j 	c #767072",
"k 	c #736E70",
"l 	c #736D6F",
"m 	c #716B6E",
"n 	c #6F696C",
"o 	c #6B6768",
"p 	c #666264",
"q 	c #656063",
"r 	c #625F60",
"s 	c #605D5F",
"t 	c #5D5A5C",
"u 	c #5B585A",
"v 	c #595758",
"w 	c #565455",
"x 	c #555354",
"y 	c #525051",
"z 	c #4E4C4D",
"A 	c #4D4C4C",
"B 	c #4C4A4B",
"C 	c #4A494A",
"D 	c #494748",
"E 	c #484747",
"F 	c #474646",
"G 	c #464646",
"H 	c #444444",
"I 	c #1C1C1C",
"J 	c #1E1E1E",
"K 	c #201F20",
"L 	c #222222",
"M 	c #242323",
"N 	c #262526",
"O 	c #272526",
"P 	c #282728",
"Q 	c #2A292A",
"R 	c #2D2B2C",
"S 	c #2F2D2E",
"T 	c #323031",
"U 	c #363435",
"V 	c #393638",
"W 	c #3D3A3B",
"X 	c #3F3B3D",
"Y 	c #413D3F",
"Z 	c #444041",
"` 	c #454144",
" .	c #474345",
"..	c #494547",
"+.	c #4B4648",
"@.	c #4C4749",
"#.	c #4F494B",
"$.	c #504A4D",
"%.	c #514B4E",
"&.	c #524C4F",
"*.	c #534D4F",
"=.	c #534D50",
"-.	c #565053",
";.	c #575054",
">.	c #595155",
",.	c #595255",
"'.	c #5A5256",
").	c #5B5357",
"!.	c #5C5458",
"~.	c #5D5559",
"{.	c #5D565A",
"].	c #5E555A",
"^.	c #60565B",
"/.	c #60575C",
"(.	c #62585C",
"_.	c #62585D",
":.	c #61575C",
"<.	c #61585C",
"[.	c #61565C",
"}.	c #5F555A",
"|.	c #5E5659",
"1.	c #5A5155",
"2.	c #564F52",
"3.	c #544E51",
"4.	c #4D474A",
"5.	c #4B4547",
"6.	c #494345",
"7.	c #454143",
"8.	c #444042",
"9.	c #3E3A3C",
"0.	c #3C383A",
"a.	c #393537",
"b.	c #373335",
"c.	c #343033",
"d.	c #302E2F",
"e.	c #2E2C2D",
"f.	c #2C2A2B",
"g.	c #292728",
"h.	c #262425",
"i.	c #252324",
"j.	c #232122",
"k.	c #232121",
"l.	c #222022",
"m.	c #201E1F",
"n.	c #1E1D1E",
"o.	c #1D1D1D",
"p.	c #1B1B1B",
"q.	c #151515",
"r.	c #171717",
"s.	c #181818",
"t.	c #191919",
"u.	c #1D1B1C",
"v.	c #1E1D1D",
"w.	c #1F1D1E",
"x.	c #222122",
"y.	c #2B292A",
"z.	c #312F2F",
"A.	c #343233",
"B.	c #383436",
"C.	c #3A3638",
"D.	c #3D393B",
"E.	c #403C3F",
"F.	c #433F41",
"G.	c #454042",
"H.	c #474144",
"I.	c #494346",
"J.	c #4A4446",
"K.	c #4C4649",
"L.	c #4E484B",
"M.	c #504A4C",
"N.	c #514A4D",
"O.	c #524B4E",
"P.	c #534B4F",
"Q.	c #554D51",
"R.	c #564E52",
"S.	c #574F53",
"T.	c #585054",
"U.	c #524A4E",
"V.	c #514A4C",
"W.	c #4C4648",
"X.	c #4B4548",
"Y.	c #484244",
"Z.	c #453F42",
"`.	c #443E41",
" +	c #413B3D",
".+	c #363235",
"++	c #353133",
"@+	c #312D2F",
"#+	c #2F2B2D",
"$+	c #2C292B",
"%+	c #282627",
"&+	c #242223",
"*+	c #211F20",
"=+	c #1C1A1B",
"-+	c #1B191A",
";+	c #191718",
">+	c #181717",
",+	c #161616",
"'+	c #141414",
")+	c #1B1A1A",
"!+	c #1F1F1F",
"~+	c #201E20",
"{+	c #211F21",
"]+	c #232222",
"^+	c #262525",
"/+	c #333031",
"(+	c #363334",
"_+	c #3B3738",
":+	c #3F3B3C",
"<+	c #403C3E",
"[+	c #413E40",
"}+	c #443F41",
"|+	c #474244",
"1+	c #494447",
"2+	c #4F494C",
"3+	c #544B50",
"4+	c #554D50",
"5+	c #584F54",
"6+	c #595055",
"7+	c #595054",
"8+	c #585155",
"9+	c #564E51",
"0+	c #514B4D",
"a+	c #4F4A4C",
"b+	c #464043",
"c+	c #413C3E",
"d+	c #3B3739",
"e+	c #322E30",
"f+	c #302C2E",
"g+	c #2D2A2C",
"h+	c #2A2728",
"i+	c #1D1A1C",
"j+	c #191918",
"k+	c #1A1A1A",
"l+	c #1B1A1B",
"m+	c #1D1C1C",
"n+	c #201F1F",
"o+	c #252424",
"p+	c #312F30",
"q+	c #343232",
"r+	c #393637",
"s+	c #3B3839",
"t+	c #423D40",
"u+	c #484245",
"v+	c #494446",
"w+	c #4A4447",
"x+	c #4F484C",
"y+	c #51494D",
"z+	c #514A4E",
"A+	c #534B4E",
"B+	c #544C50",
"C+	c #564D51",
"D+	c #574E52",
"E+	c #534C4F",
"F+	c #50494C",
"G+	c #4D484A",
"H+	c #4E474A",
"I+	c #464143",
"J+	c #423D3F",
"K+	c #403B3D",
"L+	c #393538",
"M+	c #373334",
"N+	c #292627",
"O+	c #222021",
"P+	c #1E1C1D",
"Q+	c #191818",
"R+	c #1D1C1D",
"S+	c #1F1E1E",
"T+	c #222121",
"U+	c #2A2829",
"V+	c #343132",
"W+	c #363335",
"X+	c #423C3F",
"Y+	c #454043",
"Z+	c #4D4749",
"`+	c #544C4F",
" @	c #4D4649",
".@	c #443F42",
"+@	c #433D3F",
"@@	c #3F3A3D",
"#@	c #363234",
"$@	c #343032",
"%@	c #2F2C2E",
"&@	c #2C292A",
"*@	c #191819",
"=@	c #181918",
"-@	c #212020",
";@	c #232322",
">@	c #3A3839",
",@	c #3E3A3B",
"'@	c #3F3B3E",
")@	c #423E40",
"!@	c #433E41",
"~@	c #4D464A",
"{@	c #4E484A",
"]@	c #50494D",
"^@	c #51494E",
"/@	c #524A4D",
"(@	c #4D484B",
"_@	c #4E4649",
":@	c #4D4548",
"<@	c #4A4547",
"[@	c #4B4447",
"}@	c #453F43",
"|@	c #3A3639",
"1@	c #2D2A2B",
"2@	c #2A2929",
"3@	c #272627",
"4@	c #1C1B1C",
"5@	c #181817",
"6@	c #1A191A",
"7@	c #2E2D2D",
"8@	c #373536",
"9@	c #3D393A",
"0@	c #433E40",
"a@	c #4F484A",
"b@	c #50484B",
"c@	c #50484C",
"d@	c #51494B",
"e@	c #51494C",
"f@	c #4F484B",
"g@	c #474143",
"h@	c #353233",
"i@	c #2E2B2D",
"j@	c #A99C8C",
"k@	c #343133",
"l@	c #423C3E",
"m@	c #443E40",
"n@	c #9E9284",
"o@	c #5E5555",
"p@	c #4D4549",
"q@	c #4F474B",
"r@	c #A49788",
"s@	c #4E464A",
"t@	c #4D454A",
"u@	c #5E5655",
"v@	c #958A7D",
"w@	c #94897C",
"x@	c #322F30",
"y@	c #1A1919",
"z@	c #181919",
"A@	c #1F1E1F",
"B@	c #2B2A2A",
"C@	c #3B3538",
"D@	c #3E383A",
"E@	c #3E383B",
"F@	c #3F393C",
"G@	c #403A3D",
"H@	c #413B3E",
"I@	c #867C72",
"J@	c #6C625E",
"K@	c #443C40",
"L@	c #463E42",
"M@	c #5F5755",
"N@	c #5F5654",
"O@	c #453D41",
"P@	c #6C635D",
"Q@	c #867B71",
"R@	c #A89B8B",
"S@	c #423C3D",
"T@	c #383335",
"U@	c #3F3A3A",
"V@	c #2D292B",
"W@	c #1A1719",
"X@	c #242123",
"Y@	c #282326",
"Z@	c #292427",
"`@	c #292426",
" #	c #2A2628",
".#	c #2C282A",
"+#	c #2E2A2C",
"@#	c #302B2D",
"##	c #322C2F",
"$#	c #332D30",
"%#	c #342E31",
"&#	c #352F32",
"*#	c #69605B",
"=#	c #7D726A",
"-#	c #393235",
";#	c #3B3337",
">#	c #786E66",
",#	c #786D66",
"'#	c #393234",
")#	c #393135",
"!#	c #7C7269",
"~#	c #685E5A",
"{#	c #342E32",
"]#	c #59514D",
"^#	c #2E292B",
"/#	c #57504C",
"(#	c #272324",
"_#	c #252224",
":#	c #221F20",
"<#	c #1A1819",
"[#	c #171918",
"}#	c #655D56",
"|#	c #94887B",
"1#	c #A59889",
"2#	c #A69989",
"3#	c #9B8F81",
"4#	c #7D7369",
"5#	c #3D3736",
"6#	c #262224",
"7#	c #282426",
"8#	c #292527",
"9#	c #2A2527",
"0#	c #2D2729",
"a#	c #686059",
"b#	c #95897C",
"c#	c #6D645D",
"d#	c #342D2F",
"e#	c #302A2D",
"f#	c #4A4241",
"g#	c #92867A",
"h#	c #352D31",
"i#	c #362E32",
"j#	c #968A7D",
"k#	c #342C30",
"l#	c #342D30",
"m#	c #484140",
"n#	c #9E9183",
"o#	c #776D65",
"p#	c #766C64",
"q#	c #9D9182",
"r#	c #232021",
"s#	c #201D1E",
"t#	c #1D1A1B",
"u#	c #211E1F",
"v#	c #887E72",
"w#	c #443E3C",
"x#	c #272325",
"y#	c #2B2728",
"z#	c #8A7F73",
"A#	c #8E8377",
"B#	c #312B2E",
"C#	c #A39687",
"D#	c #362F32",
"E#	c #3E3839",
"F#	c #42383A",
"G#	c #2E282B",
"H#	c #7D736A",
"I#	c #978C7E",
"J#	c #282427",
"K#	c #958A7C",
"L#	c #7C7268",
"M#	c #1B191B",
"N#	c #635B54",
"O#	c #665E57",
"P#	c #57504B",
"Q#	c #908578",
"R#	c #645C56",
"S#	c #605752",
"T#	c #5F5752",
"U#	c #665D57",
"V#	c #8B7F74",
"W#	c #4B4342",
"X#	c #635A55",
"Y#	c #A29586",
"Z#	c #645B55",
"`#	c #4A4342",
" $	c #5B524E",
".$	c #373232",
"+$	c #35302F",
"@$	c #564F4A",
"#$	c #201E1E",
"$$	c #19191A",
"%$	c #33302E",
"&$	c #2A2727",
"*$	c #9A8E80",
"=$	c #7B7167",
"-$	c #59534C",
";$	c #363131",
">$	c #92877A",
",$	c #322D2E",
"'$	c #312D2E",
")$	c #8F8478",
"!$	c #6F655E",
"~$	c #645B56",
"{$	c #84796F",
"]$	c #5D5450",
"^$	c #857A70",
"/$	c #2B2729",
"($	c #2C2729",
"_$	c #343030",
":$	c #A79B8B",
"<$	c #5B544E",
"[$	c #59514C",
"}$	c #2F2B2B",
"|$	c #222020",
"1$	c #221F21",
"2$	c #252123",
"3$	c #A49888",
"4$	c #2D272A",
"5$	c #514A47",
"6$	c #7E746A",
"7$	c #A19586",
"8$	c #30282C",
"9$	c #514947",
"0$	c #2B2628",
"a$	c #7A7067",
"b$	c #918679",
"c$	c #231F21",
"d$	c #1B1919",
"e$	c #181819",
"f$	c #A79A8A",
"g$	c #211E20",
"h$	c #242022",
"i$	c #2B2528",
"j$	c #312C2D",
"k$	c #6B625B",
"l$	c #A59888",
"m$	c #312B2D",
"n$	c #6D645C",
"o$	c #6E655D",
"p$	c #988C7E",
"q$	c #2D2A29",
"r$	c #2C2928",
"s$	c #5A524C",
"t$	c #34312E",
"u$	c #93887B",
"v$	c #2F2A2B",
"w$	c #282527",
"x$	c #3D3636",
"y$	c #2C272A",
"z$	c #3B3535",
"A$	c #2A2627",
"B$	c #46403D",
"C$	c #46413D",
"D$	c #696158",
"E$	c #5F5851",
"F$	c #918678",
"G$	c #221E20",
"H$	c #675F57",
"I$	c #605852",
"J$	c #514A46",
"K$	c #776E65",
"L$	c #8E8276",
"M$	c #2C2629",
"N$	c #8D8276",
"O$	c #786E65",
"P$	c #A19485",
"Q$	c #A29686",
"R$	c #1B181A",
"S$	c #413D3A",
"T$	c #252423",
"U$	c #9F9284",
"V$	c #393333",
"W$	c #282425",
"X$	c #272326",
"Y$	c #58514C",
"Z$	c #625A54",
"`$	c #5A534D",
" %	c #81776C",
".%	c #83796E",
"+%	c #1E1C1C",
"@%	c #1C1B1B",
"#%	c #6B625A",
"$%	c #94897B",
"%%	c #A79A8B",
"&%	c #9E9283",
"*%	c #7F766B",
"=%	c #383432",
"-%	c #282726",
";%	c #71695F",
">%	c #A69A8A",
",%	c #9C9081",
"'%	c #383332",
")%	c #272125",
"!%	c #373131",
"~%	c #332F2F",
"{%	c #292526",
"]%	c #282526",
"^%	c #322E2E",
"/%	c #A59989",
"(%	c #383333",
"_%	c #262325",
":%	c #272124",
"<%	c #252023",
"[%	c #5E5751",
"}%	c #1E1B1D",
"|%	c #1F1C1E",
"1%	c #212021",
"2%	c #252223",
"3%	c #272425",
"4%	c #282225",
"5%	c #262225",
"6%	c #262324",
"7%	c #262124",
"8%	c #221E1F",
"9%	c #1D1B1B",
"0%	c #232123",
"a%	c #242122",
"b%	c #242224",
"c%	c #272224",
"d%	c #272226",
"e%	c #252323",
"f%	c #232223",
"g%	c #1F1D20",
"h%	c #242222",
"i%	c #272225",
"j%	c #262424",
"k%	c #262323",
"l%	c #1E1C1E",
"m%	c #1F1D1D",
"n%	c #232324",
"o%	c #252325",
"p%	c #252122",
"q%	c #1F1C1D",
"r%	c #1E1D1C",
"s%	c #1F1E1D",
"t%	c #1F1E20",
"u%	c #201D1F",
"v%	c #1B1C1C",
"w%	c #101010",
"x%	c #111111",
"y%	c #121212",
"z%	c #131313",
"A%	c #171718",
"B%	c #1A1619",
"C%	c #1C1A1C",
"D%	c #1A1718",
"E%	c #181618",
"F%	c #171518",
"G%	c #181617",
"H%	c #0F0F0F",
"I%	c #202020",
"J%	c #212121",
"K%	c #242424",
"L%	c #232323",
"M%	c #252525",
"N%	c #252425",
"O%	c #242524",
"P%	c #262625",
"Q%	c #262626",
"R%	c #282727",
"S%	c #272727",
"T%	c #262727",
"U%	c #262726",
"V%	c #292828",
"W%	c #292827",
"X%	c #282828",
"Y%	c #292829",
"Z%	c #282827",
"`%	c #292628",
" &	c #252526",
".&	c #212221",
"+&	c #484848",
"@&	c #4B4B4B",
"#&	c #4D4D4D",
"$&	c #504D4F",
"%&	c #4D4E4D",
"&&	c #4E4D4E",
"*&	c #514F50",
"=&	c #4F4D4E",
"-&	c #4E4E4D",
";&	c #4D4D4E",
">&	c #4D4F4D",
",&	c #4E4F4E",
"'&	c #4F4D4F",
")&	c #504D4E",
"!&	c #4C4D4C",
"~&	c #4C4B4C",
"{&	c #4B494A",
". . + @ # $ % & * = - ; > , ' ) ! ~ { ] ^ ^ / ( _ : < [ } | 1 2 2 3 4 5 6 7 8 8 9 0 a b c c b d 9 e f g h 6 4 i 2 2 1 j k l m : n / o ] p q r s t u v w x y * z A B C @ D E F G . H ",
"I I J K L M N O P Q R S T U V W X Y Z `  ...+.@.#.$.%.&.*.=.-.;.>.,.'.).!.~.{.].^./.(._._.:._.<.[.^.}.|.~.!.'.1.>.;.2.3.=.&.$.#.4.5.6.7.8.Y 9.0.a.b.c.d.e.f.g.h.i.j.k.l.K m.n.o.I p.",
"q.q.r.s.t.u.v.w.m.x.i.O y.e.z.A.B.C.D.9.E.Y F.G.H.I.J.5.K.4.L.M.N.O.P.P.Q.R.S.S.T.>.>.>.'.'.'.>.S.S.T.S.R.Q.U.P.U.V.L.4.W.X.I.Y.Z.`. +X 0.C..+++@+#+$+%+h.&+*+w.u.=+-+-+;+>+,+,+q.'+",
",+,+s.)+p.o.!+~+{+]+^+P f.e./+(+a._+D.:+<+[+}+7.|+I.1+X.K.4.2+$.V.N.P.3+4+R.S.S.5+6+>.7+>.>.>.8+7+S.S.R.9+Q.P.U.0+a+2+4.K.X.I.Y.b+`.c+X D.d+b.++e+f+g+h+O h.j.m.w.u.u.i+)+j+s.r.r.,+",
",+r.t.k+l+m+J n+n+j.o+%+y.R p+q+B.r+s+D.:+c+t+F.7.|+u+v+w+X.L.x+2+#.y+z+A+B+Q.4+C+D+S.R.S.S.S.S.R.Q.Q.B+3+E+y+F+L.G+H+K.w+I.Y.I+}+J+K+9.0.L+M+++f+#+f.N+h.i.O+m.P+P+u.u.-+Q+s.r.r.,+",
"r.r.t.k+p.R+S+!+*+T+i.O U+f.d.V+W+B.d+0.9.X X+J+8.Y+|+H.u+I.W.Z+4.4.L.L.N.U.P.A+P.B+Q.Q.Q.Q.Q.Q.P.`+A+P.U.N.H+H+ @K.W.w+u+H.b+.@+@<+@@0.d+B.#@$@%@R &@N+h.&+*+m.P+P+u.u.-+*@=@s.r.,+",
"q.,+s.t.p.I J J -@-@;@h.U+f.S T A.b.C.>@0.,@X '@)@!@8.G.H.u+w+X.W.W.@.~@{@2+y+]@y+^@A+`+P.U.A+P./@U.y+F+L.(@_@:@<@[@w+u+b+}@.@+@<+X 0.|@a.#@V+e+f+1@2@3@i.j.O+w.P+P+4@l+-+5@r.r.r.q.",
"r.r.t.6@p.m+J !+!+O+x.^+g.f.7@p+A.#@8@C.d+9@9.X Y 0@0@}+8.Y+u+6.w+w+5.X.4.K.4.a@b@c@c@d@e@e@d@c@c@c@f@H+4.K.w+I.6.I.u+g@Z.`.X+Y X 9.0.C.B.h@$@e+i@$+U+O h.j.*+w.P+P+u.=+)+=@s.s.r.,+",
",+,+s.k+k+I o.j@j@j@j@M %+U+R d.T k@U a.C.d+0.D.9.Y l@Y )@m@g@g@u+u+6.J.n@j@j@j@o@p@q@c@r@j@r@b@s@t@u@j@j@j@n@H.j@j@j@j@v@J+K+X 9.w@j@j@j@j@x@@+1@y.g.h.&+j.m.w.P+u.-+-+y@s.s.r.r.,+",
"q.r.r.z@y@)+p.j@j@j@j@A@j.i.O U+B@g+S @+e+$@$@++M+B.a.a.C.C@D@E@F@F@G@H@I@j@j@j@J@K@L@M@j@j@j@N@O@K@P@j@j@j@Q@F@j@j@j@j@R@S@T@b.U@R@j@j@j@j@V@&@%+O h.j.O+*+P+P+u.-+=+=+y@s.s.r.r.,+",
",+,+,+s.*@W@t.j@j@j@j@k+R+w.m.O+j.X@h.Y@Z@`@ # #.#V@+##+f+@###$#$#%#%#&#*#j@j@j@=#-#;#>#j@j@j@,#'#)#!#j@j@j@~#{#j@j@j@j@j@]#^#V@/#j@j@j@j@j@(#_#O+:#*+w.w.P+=+=+-+-+=+=+<#r.s.r.r.,+",
",+r.s.s.=@[#r.j@j@j@j@r.y@=+u.:#}#|#1#2#3#4#5#6#7#8#9#0#a#w@1#1#b#c#d#e#f#j@j@j@g#h#i#b#j@j@j@j#k#l#g#j@j@j@m#e#j@j@j@n#j@o#9#8#p#j@q#j@j@j@r#:#s#A@n.P+u.=+=+=+=+=+=+=+Q+z@s.r.r.,+",
"q.r.r.s.s.s.s.j@j@j@j@s.y@t#u#v#j@j@j@j@j@j@r@w#x#7#y#z#j@j@j@j@j@j@A#B###C#j@j@2#D#E#j@j@j@j@j@F#&#2#j@j@C#e#G#j@j@j@H#j@I#8#J#K#j@L#j@j@j@*+m.m.w.P+u.u.=+=+M#-+=+=+=+Q+*@r.r.r.q.",
",+,+r.s.t.t.r.j@j@j@j@s.t.=+N#j@j@j@O#P#j@j@j@Q#x#x#R#j@j@j@S#T#j@j@j@U#e#V#j@j@j@W#X#j@j@Y#j@j@Z#`#j@j@j@V#G#G#j@j@j@ $j@j@.$+$j@j@@$j@j@j@O+*+#$w.P+P+u.=+=+-+-+<#-+-+$$*@r.r.r.,+",
",+r.r.s.t.t.r.j@j@j@j@s.t.l+|#j@j@j@%$&$*$=$-$;$6#6#>$j@j@j@,$'$j@j@j@)$G#!$j@j@j@~${$j@j@]$j@j@^$~$j@j@j@!$/$($j@j@j@_$:$j@<$[$j@:$}$j@j@j@*+m.w.P+P+P+u.u.-+-+*@=@y@-+t.Q+r.r.r.,+",
",+,+,+s.t.t.r.j@j@j@j@r.t.)+2#j@j@j@|$m.*+:#1$r#2$6#3$j@j@j@j@j@j@j@j@Y#4$5$j@j@j@6$7$j@b#8$b#j@C#6$j@j@j@9$h+0$j@j@j@8#Q#j@4#a$j@b$c$j@j@j@m.m.P+u.u.=+u.=+-+Q+=@j+<#d$e$s.r.r.r.,+",
",+r.r.r.s.t.r.j@j@j@j@r.t.6@f$j@j@j@m.m.s#m.g$:#h$2$2#j@j@j@j@j@j@j@j@R@i$j$f$j@j@r@j@j@k$G#k$j@j@l$j@j@f$m$ #8#j@j@j@7#n$j@q#*$j@o$:#j@j@j@#$w.u.u.=+u.u.=+-+s.t.=@t.y@z@s.r.r.r.,+",
"q.r.s.r.s.s.r.j@j@j@j@r.s.t.p$j@j@j@q$r$*$=$s$t$c$h$u$j@j@j@v$(#7#x#7#w$9#i$>$j@j@j@j@R@x$y$z$R@j@j@j@j@u$A$J#7#j@j@j@2$B$j@j@j@j@C$m.j@j@j@P+u.P+u.=+=+=+-+<#Q+z@z@*@y@e$s.r.r.,+q.",
"q.,+,+r.s.s.,+j@j@j@j@r.r.s.D$j@j@j@E$E$j@j@j@F$G$-@H$j@j@j@I$J$j@j@j@z#8#`@K$j@j@j@j@L$M$i$i$N$j@j@j@j@O$8#x#6#j@j@j@6#2$P$j@j@Q$r#m.j@j@j@P+P+=+-+=+-+-+R$[#t.s.s.z@Q+s.r.s.,+q.,+",
",+,+r.s.s.r.r.j@j@j@j@r.r.t.n+Q#j@j@j@j@j@j@r@S$*+1$T$Q#j@j@j@j@j@j@U$V$W$X$Y$j@j@j@j@N#8#8# #Z$j@j@j@j@`$(#6#6#j@j@j@2$r# %j@j@.%*+s#j@j@j@+%P+=+u.@%)+=+t.t.t.s.s.t.t.t.t.s.,+r.,+",
",+,+r.s.s.s.,+j@j@j@j@,+s.t.6@:##%$%r@%%&%*%=%m.K :#-@-%;%p$>%f$,%L#'%)%x#6#!%j@j@j@>%~%8#{%]%^%/%j@j@j@(%_%:%6#j@j@j@<%T+<$j@j@[%*+w.j@j@j@u.P+l+=+-+=+y@Q+t.s.r.r.s.t.t.s.r.,+q.,+",
",+,+r.r.r.s.,+,+q.r.s.r.t.*@6@=+=+u.P+}%|%w.w.m.*+O+:#1%x.O+X@h$2$_#2%6#x#3%7#x#(#W$7#7#8#7#x#7#x#4%Y@X$5%(#6%2%7%2$h$X@T+x.1%:#8%*+w.w.P+P+u.}%=+=+-+R$y@s.t.s.r.s.t.t.s.r.r.r.,+q.",
",+,+r.r.s.s.r.,+r.r.,+r.s.t.6@6@9%t#R+v.v.S+w.m.*+*+O+O+k.k.j.0%a%2%b%2%x#c%_%3%7#x#8#7#W${%7#W$d%3%x#7#6%6#e%&+2$a%a%f%r#O+*+*+m.w.w.P+P+u.P+u.i+@%)+<#R$t.s.r.s.r.s.t.t.s.r.r.,+q.",
",+,+r.r.s.s.s.r.,+r.,+r.s.k+)+p.I R+P+w.S+J A@g%*+O+O+O+*+O+j.a%&+0%h%e%6%e%6%i%x#j%7#7#7#7#7#3%x#x#i%_%i.k%i.&+]+&+a%r#O+*+m.*+*+m.w.P+w.w.l%u.@%)+<#R$6@k+s.r.s.r.s.t.s.r.r.r.,+q.",
",+,+,+,+s.s.r.,+q.,+r.r.t.k+k+p.I o.v.w.s#m%S+w.*+O+O+O+O+O+O+j.&+0%j.a%n%&+j._#o%_%e%j%e%6%j%k%_%_#_#&+j.f%p%j.l.0%O+O+*+K *+m.m.m.q%l%o.r%u.@%4@)+<#y@k+k+s.r.,+,+s.t.r.s.r.r.q.q.",
",+,+r.r.s.s.r.,+r.,+r.r.t.k+)+p.I p.v.w.s%n.A@S+*+m.*+O+O+*+j.O+j.&+]+X@i.i.M i._%5%h.h.h.h.h.h._%5%i.M i.i.h%0%&+j.O+j.*+O+O+K t%u%S+v.|%}%m+I k+)+d$6@t.s.s.r.s.s.r.s.s.r.r.r.q.q.",
",+,+r.r.s.s.r.,+,+r.s.r.t.t.p.I I v%m+J m.m.w.m.*+*+m.*+O+O+O+O+j.O+j.&+&+j.&+e%o+i.i.i.i.i.i.i.i.o+i.&+j.&+j.O+j.j.j.O+O+*+g$*+*+m.m.w.P+n.I p.p.p.k+k+t.s.t.s.,+r.s.r.t.s.r.r.,+q.",
"w%w%x%x%y%z%x%w%w%x%y%x%z%z%q.q.'+q.,+r.A%;+B%W@<#y@Q+Q+y@j+-+-+=+=+=+=+=+u.C%u.u.C%u.u.u.u.u.u.u.u.u.=+=+=+=+=+=+-+-+y@Q+*@*@y@y@D%E%F%G%r.,+q.q.q.'+y%z%z%y%x%w%x%y%x%z%x%x%x%w%H%",
"I%I%!+I%I%J%I%!+!+I%J%I%L L K%K%L%K%M%N%O%P%Q%3@%+R%S%T%S%U%P P V%W%X%Y%U+y.y.y.y.y.y.y.y.y.y.y.y.y.y.U+V%U+U+V%Z%g.`%P U%T%S%R%R%O N  &M%O%M%K%K%K%L%x..&L L J%!+I%J%I%L I%I%!+I%I%",
"+&+&+ +&+&@ +&+ +&+&@ @ @ # @&% @&@&% % % #&#&& & * $&$&$&* & %&& #&&&* y y *&*&y y *&*&y y *&* *&y *&*&y *&=&-&;&& >&,&'&)&* * * & % % !&#&#&~&% B {&@ # # +&+&+ + +&+&@ +&+ +&+ + "};
