/* XPM */
static char * closeO_xpm[] = {
"12 44 26 1",
" 	c None",
".	c #767574",
"+	c #565656",
"@	c #4E4E4E",
"#	c #353535",
"$	c #363636",
"%	c #373737",
"&	c #383838",
"*	c #2F2F2F",
"=	c #2D2D2D",
"-	c #C8C8C8",
";	c #2E2E2E",
">	c #C1C1C1",
",	c #C0C0C0",
"'	c #C6C6C6",
")	c #BEBEBE",
"!	c #343434",
"~	c #C4C4C4",
"{	c #C7C7C7",
"]	c #333333",
"^	c #C2C2C2",
"/	c #BABABA",
"(	c #B8B8B8",
"_	c #B9B9B9",
":	c #323232",
"<	c #303030",
"............",
"++++++++++++",
"@@@@@@@@@@@@",
"@@@@@@@@@@@@",
"##$$$$%%%%&&",
"%&**$$$%==$&",
"$*--*##;>,=$",
"#*-'-;;--)=#",
"!#*-~-{-~=#!",
"]##*-^--=##]",
"#$$*----=&&&",
"#$*------=&&",
"#*---;;--/=&",
"#*--*%%;(_=&",
"#&**$%%%==$&",
"$$$$$$$$$$$$",
"############",
"!!!!!!!!!!!!",
"]]]]]]]]]]]]",
"::::::::::::",
"<<<<<<<<<<<<",
"############",
"............",
"++++++++++++",
"@@@@@@@@@@@@",
"@@@@@@@@@@@@",
"##$$$$%%%%&&",
"%&**$$$%==$&",
"$*--*##;>,=$",
"#*-'-;;--)=#",
"!#*-~-{-~=#!",
"]##*-^--=##]",
"#$$*----=&&&",
"#$*------=&&",
"#*---;;--/=&",
"#*--*%%;(_=&",
"#&**$%%%==$&",
"$$$$$$$$$$$$",
"############",
"!!!!!!!!!!!!",
"]]]]]]]]]]]]",
"::::::::::::",
"<<<<<<<<<<<<",
"############"};
