/* XPM */
static char * frameAL_xpm[] = {
"6 1 5 1",
" 	c None",
".	c #767574",
"+	c #5F5E5E",
"@	c #484848",
"#	c #474747",
".+@@##"};
