/* XPM */
static char * minimizeO_xpm[] = {
"12 44 14 1",
" 	c None",
".	c #767574",
"+	c #565656",
"@	c #4E4E4E",
"#	c #383838",
"$	c #363636",
"%	c #373737",
"&	c #353535",
"*	c #343434",
"=	c #333333",
"-	c #323232",
";	c #303030",
">	c #C8C8C8",
",	c #C9C9C9",
"............",
"++++++++++++",
"@@@@@@@@@@@@",
"@@@@@@@@@@@@",
"############",
"$$$$$%%%%##$",
"&$$$$%%%%##&",
"************",
"============",
"------------",
";;;;;;;;;;;;",
";&&&$&&&&&&;",
"&&>>,>>>>>&&",
"#&>>,>>>>>&#",
"%&&&$&&&&&&%",
"$$$$$%%%%##$",
"&$$$$%%%%##&",
"************",
"============",
"------------",
";;;;;;;;;;;;",
"&&&&&&&&&&&&",
"............",
"++++++++++++",
"@@@@@@@@@@@@",
"@@@@@@@@@@@@",
"############",
"$$$$$%%%%##$",
"&$$$$%%%%##&",
"************",
"============",
"------------",
";;;;;;;;;;;;",
";&&&$&&&&&&;",
"&&>>,>>>>>&&",
"#&>>,>>>>>&#",
"%&&&$&&&&&&%",
"$$$$$%%%%##$",
"&$$$$%%%%##&",
"************",
"============",
"------------",
";;;;;;;;;;;;",
"&&&&&&&&&&&&"};
