/* XPM */
static char * collapse_xpm[] = {
"17 24 35 1",
" 	c #080000",
".	c #ABABAB",
"+	c #FFFFFF",
"@	c #ACACAC",
"#	c #AAAAAA",
"$	c #A9A9A9",
"%	c #949284",
"&	c #000000",
"*	c #908D80",
"=	c #8D8B7D",
"-	c #878478",
";	c #737166",
">	c #7E7B6F",
",	c #57554D",
"'	c #757267",
")	c #494841",
"!	c #6B685F",
"~	c #2E2D29",
"{	c #625F56",
"]	c #B1B1B1",
"^	c #59554D",
"/	c #B5B5B5",
"(	c #504C45",
"_	c #BBBBBB",
":	c #47433D",
"<	c #C0C0C0",
"[	c #3E3A35",
"}	c #C4C4C4",
"|	c #34302C",
"1	c #C9C9C9",
"2	c #D0D0D0",
"3	c #D4D4D4",
"4	c #D8D8D8",
"5	c #E0E0E0",
"6	c #E2E2E2",
"                 ",
" ...............+",
" @@@@@@@@@@@@@@@+",
" ...............+",
" ###############+",
" $$$$$%$$$$$$$$$+",
" ####%&%########+",
" ....*&&=.......+",
" ....-&&&;......+",
" ....>&&&&,.....+",
" ####'&&&&&)####+",
" ....!&&&&&&~...+",
" @@@@{&&&&&&@@@@+",
" ]]]]^&&&&&]]]]]+",
" ////(&&&&//////+",
" ____:&&&_______+",
" <<<<[&&<<<<<<<<+",
" }}}}|&}}}}}}}}}+",
" 111111111111111+",
" 222222222222222+",
" 333333333333333+",
" 444444444444444+",
" 555555555555555+",
" 666666666666666+"};
