/* XPM */
static char *menubg[] = {
/* columns rows colors chars-per-pixel */
"35 23 26 1",
"  c #9F9F9F",
". c #DFDFDF",
"X c gray88",
"o c #E1E1E1",
"O c #E2E2E2",
"+ c gray89",
"@ c #E4E4E4",
"# c gray90",
"$ c #E6E6E6",
"% c #E7E7E7",
"& c gray91",
"* c #E9E9E9",
"= c #EAEAEA",
"- c gray92",
"; c #ECECEC",
": c gray93",
"> c #EEEEEE",
", c #EFEFEF",
"< c gray94",
"1 c #F1F1F1",
"2 c gray95",
"3 c #F3F3F3",
"4 c #F4F4F4",
"5 c gray96",
"6 c #F6F6F6",
"7 c gray97",
/* pixels */
"                                   ",
" 677676776776776676776676766666766 ",
" 666656666565565555655555555655555 ",
" 444444554444444444454444444444444 ",
" 333434334343333333333333333333333 ",
" 232222222222222222222222222222222 ",
" 1112111111111111<111<11111111111< ",
" <<<<<<<<<<<<<<<<,<<<<<<<,<<<,<,,, ",
" ,,,,,,,,>,,,,,,,>,,,>>,>,>>>>>,>, ",
" >>>>>:>>::::>:::::>:>::>>::>::::: ",
" :::::;;:;;;:;;:;;;;;;:;;;;;;;;;;; ",
" ---------;-;-----;-------------=- ",
" ==-======-============*=*======== ",
" **************************&****&& ",
" &&&&&&&&&&&%&&%&&&&%&%%&&&&&&&&%% ",
" %%%$%$%%%%%%%%%$$%%%$%$$%$%$$%$$$ ",
" $$$$#$$$$#$$#$#$$###$$#$##$$##### ",
" #@##@@##@##@@@@@@@@#@@@@@@#@@@@@@ ",
" ++++@@++@++++++++@+++++++++++O+++ ",
" OO++++OO+OOOOO+OOO+OOOOOOOOOOOoOO ",
" ooooooooooooooooooooooooooooXoooo ",
" XXXXXXXXXXXXXXXXXXXXXXXXXXXXXX..X ",
"                                   "
};
