/* XPM */
static char * taskbarbg_xpm[] = {
"4 21 12 1",
" 	c None",
".	c #E3E3E3",
"+	c #9EB3B6",
"@	c #849597",
"#	c #292929",
"$	c #2E2E2E",
"%	c #282828",
"&	c #222222",
"*	c #1C1C1C",
"=	c #151515",
"-	c #0E0E0E",
";	c #0A0A0A",
"....",
"++++",
"++++",
"@@@@",
"####",
"$$$$",
"%%%%",
"&&&&",
"****",
"====",
"----",
";;;;",
";;;;",
";;;;",
";;;;",
";;;;",
";;;;",
";;;;",
";;;;",
";;;;",
";;;;"};
