/* XPM */
static char * windows_xpm[] = {
"20 20 4 1",
" 	c None",
".	c #503B20",
"+	c #F5F6F0",
"@	c #8EBDA5",
"                    ",
"                    ",
"  ............      ",
"  ........+.+.      ",
"  ............      ",
"  .++++++++++.      ",
"  .+++............  ",
"  .+++........@.@.  ",
"  .+++............  ",
"  .+++.++++++++++.  ",
"  .+++.++++++++++.  ",
"  .+++.++++++++++.  ",
"  .+++.++++++++++.  ",
"  .....++++++++++.  ",
"      .++++++++++.  ",
"      .++++++++++.  ",
"      .++++++++++.  ",
"      ............  ",
"                    ",
"                    "};
