/* XPM */
static char * taskbuttonbg_xpm[] = {
"12 20 47 1",
" 	c None",
".	c #EFF2F8",
"+	c #EDF0F6",
"@	c #EAEDF4",
"#	c #E6E9F4",
"$	c #E5E9F3",
"%	c #E5E9F4",
"&	c #E6E9F3",
"*	c #E1E5F1",
"=	c #E0E5F1",
"-	c #E0E6F1",
";	c #DCE2F1",
">	c #DCE1F1",
",	c #DCE3F1",
"'	c #DDE1F1",
")	c #D7DDEF",
"!	c #D6DDEF",
"~	c #D7DDEE",
"{	c #D6DDEE",
"]	c #D6DEEE",
"^	c #D7DEEE",
"/	c #D0D8EC",
"(	c #D1D8EC",
"_	c #D1D8EB",
":	c #D0D8EB",
"<	c #CCD5EB",
"[	c #CCD6EB",
"}	c #CDD5EB",
"|	c #C7D1E9",
"1	c #C7D0E9",
"2	c #C7D1E8",
"3	c #C8D1E9",
"4	c #C7D2E8",
"5	c #C2CCE8",
"6	c #C2CDE8",
"7	c #BDC9E5",
"8	c #BDC9E6",
"9	c #BDC8E6",
"0	c #B7C4E2",
"a	c #B7C4E3",
"b	c #B7C3E3",
"c	c #B7C3E2",
"d	c #B6C4E3",
"e	c #B6C3E3",
"f	c #B3C0E2",
"g	c #ADBCE0",
"h	c #ADBBE0",
"............",
"............",
"............",
"............",
"............",
"............",
"++++++++++++",
"@@@@@@@@@@@@",
"#$$#%$&&$$&$",
"*==*==--====",
";;;;;>>;,;'>",
")!)~{]^~{~^^",
"/(_:((/__//(",
"<<<[<<[<}[<<",
"||||11213|24",
"555555556656",
"788889988899",
"0aaaabc0dbbe",
"ffffffffffff",
"ggghhggggggg"};
