/* XPM */
static char * iucedock2_xpm[] = {
"64 64 65 1",
" 	c None",
".	c #FFFFFF",
"+	c #FEFFFF",
"@	c #FEFEFE",
"#	c #FDFEFE",
"$	c #FDFDFD",
"%	c #FCFDFD",
"&	c #FCFCFC",
"*	c #FBFCFC",
"=	c #FBFBFC",
"-	c #FAFBFB",
";	c #FAFAFB",
">	c #FBFAFB",
",	c #F9FAFA",
"'	c #FAFAFA",
")	c #FAF9FA",
"!	c #F9FAF9",
"~	c #F9F9F9",
"{	c #F8F8F8",
"]	c #F7F7F7",
"^	c #F6F6F6",
"/	c #F5F5F5",
"(	c #F4F4F4",
"_	c #F4F3F4",
":	c #F3F3F3",
"<	c #F3F2F3",
"[	c #F2F2F2",
"}	c #F2F1F2",
"|	c #F1F1F1",
"1	c #F1F0F1",
"2	c #F0F0F1",
"3	c #F0F0F0",
"4	c #F0EFF0",
"5	c #EFEFF0",
"6	c #EFEFEF",
"7	c #EEEEEF",
"8	c #EEEEEE",
"9	c #EDEDEE",
"0	c #EDEDED",
"a	c #ECECEE",
"b	c #ECECED",
"c	c #EBEBED",
"d	c #ECECEC",
"e	c #EAEAEC",
"f	c #EBEBEC",
"g	c #EBEBEB",
"h	c #EAEAEB",
"i	c #E9E9EA",
"j	c #E8E8E9",
"k	c #E7E7E9",
"l	c #E7E8E9",
"m	c #E6E6E8",
"n	c #E6E7E8",
"o	c #E6E6E7",
"p	c #E5E5E7",
"q	c #E5E6E7",
"r	c #E5E5E6",
"s	c #E4E4E5",
"t	c #E3E3E4",
"u	c #E0E0E1",
"v	c #DCDCDD",
"w	c #D5D5D6",
"x	c #C7C7C8",
"y	c #BABABA",
"z	c #B2B2B2",
"................................................................",
"................................................................",
"................................................................",
"................................................................",
"................................................................",
"................................................................",
"................................................................",
"................................................................",
"................................................................",
"................................................................",
"................................................................",
"................................................................",
"................................................................",
"................................................................",
"................................................................",
"................................................................",
"................................................................",
"................................................................",
"................................................................",
"................................................................",
"................................................................",
"................................................................",
"................................................................",
"................+++++++............................++++++.......",
"@@@@@@@@@@@@@@@@@@@@@@@@@@@@@@@@@@@@@@@@@@@@@@@@@@@@@@@@@@@@@@@@",
"@@@@@@@@@@@@@@@@#######@@@@@@@@@@@@@@@@@@@@@@@@@@@@######@@@@@@@",
"$$$$$$$$$$$$$$$$$%%%%%%$$$$$$$$$$$$$$$$$$$$$$$$$$$$%%%%%%$$$$$$$",
"&&&&&&&&&&&&&&&&&&***&&&&&&&&&&&&&&&&&&&&&&&&&&&&&&&&**&&&&&&&&&",
"================================================================",
"----------------;;;>;;;;--------------------------;;;;;;;;------",
",,,,,,,,,,,,,,,,''')''',,,,,,,,,,,,,,,,,,,,,,,,,,,''')''',,,,,,,",
"!!!!!!!!!!!!!!!!~~~~~~~~!!!!!!!!!!!!!!!!!!!!!!!!!!~~~~~~~~!!!!!!",
"{{{{{{{{{{{{{{{{{{{{{{{{{{{{{{{{{{{{{{{{{{{{{{{{{{{{{{{{{{{{{{{{",
"]]]]]]]]]]]]]]]]]]]]]]]]]]]]]]]]]]]]]]]]]]]]]]]]]]]]]]]]]]]]]]]]",
"^^^^^^^^^^^^^^^^^^^^^^^^^^^^^^^^^^^^^^^^^^^^^^^^^^^^^^^^^^^^^^^^",
"////////////////////////////////////////////////////////////////",
"((((((((((((((((((((((((((((((((((((((((((((((((((((((((((((((((",
"_________________::::::____________________________::::::_______",
"<<<<<<<<<<<<<<<<<<[[[<<<<<<<<<<<<<<<<<<<<<<<<<<<<<<<[[[<<<<<<<<<",
"}}}}}}}}}}}}}}}}}}}||}}}}}}}}}}}}}}}}}}}}}}}}}}}}}}}}||}}}}}}}}}",
"1111111111111111112331111111111111111111111111111111233111111111",
"4444444444444444455665544444444444444444444444444445566554444444",
"7777777777777777778887777777777777777777777777777777888777777777",
"9999999999999999999099999999999999999999999999999999999999999999",
"aaaaaaaaaaaaaaaaab000bbaaaaaaaaaaaaaaaaaaaaaaaaaaaab0000baaaaaaa",
"cccccccccccccccccbddddcccccccccccccccccccccccccccccbddddcccccccc",
"eeeeeeeeeeeeeeeefffgfffeeeeeeeeeeeeeeeeeeeeeeeeeeefffggffeeeeeee",
"hhhhhhhhhhhhhhhhhhhhhhhhhhhhhhhhhhhhhhhhhhhhhhhhhhhhhhhhhhhhhhhh",
"iiiiiiiiiiiiiiiiiiiiiiiiiiiiiiiiiiiiiiiiiiiiiiiiiiiiiiiiiiiiiiii",
"jjjjjjjjjjjjjjjjjjjjjjjjjjjjjjjjjjjjjjjjjjjjjjjjjjjjjjjjjjjjjjjj",
"kkkkkkkkkkkkkkkkkkklkkkkkkkkkkkkkkkkkkkkkkkkkkkkkkkkkllkkkkkkkkk",
"mmmmmmmmmmmmmmmmmmnnnnmmmmmmmmmmmmmmmmmmmmmmmmmmmmmmnnnnmmmmmmmm",
"oooooooooooooooooooooooooooooooooooooooooooooooooooooooooooooooo",
"pppppppppppppppppppqqppppppppppppppppppppppppppppppppqqppppppppp",
"rrrrrrrrrrrrrrrrrrrrrrrrrrrrrrrrrrrrrrrrrrrrrrrrrrrrrrrrrrrrrrrr",
"rrrrrrrrrrrrrrrrrrrrrrrrrrrrrrrrrrrrrrrrrrrrrrrrrrrrrrrrrrrrrrrr",
"ssssssssssssssssssssssssssssssssssssssssssssssssssssssssssssssss",
"tttttttttttttttttttttttttttttttttttttttttttttttttttttttttttttttt",
"uuuuuuuuuuuuuuuuuuuuuuuuuuuuuuuuuuuuuuuuuuuuuuuuuuuuuuuuuuuuuuuu",
"vvvvvvvvvvvvvvvvvvvvvvvvvvvvvvvvvvvvvvvvvvvvvvvvvvvvvvvvvvvvvvvv",
"wwwwwwwwwwwwwwwwwwwwwwwwwwwwwwwwwwwwwwwwwwwwwwwwwwwwwwwwwwwwwwww",
"xxxxxxxxxxxxxxxxxxxxxxxxxxxxxxxxxxxxxxxxxxxxxxxxxxxxxxxxxxxxxxxx",
"yyyyyyyyyyyyyyyyyyyyyyyyyyyyyyyyyyyyyyyyyyyyyyyyyyyyyyyyyyyyyyyy",
"zzzzzzzzzzzzzzzzzzzzzzzzzzzzzzzzzzzzzzzzzzzzzzzzzzzzzzzzzzzzzzzz"};
