/* XPM */
static char * minimizeI_xpm[] = {
"20 40 55 1",
" 	c None",
".	c #5A7142",
"+	c #000000",
"@	c #8F7763",
"#	c #685648",
"$	c #5F6F48",
"%	c #675547",
"&	c #665346",
"*	c #8F7663",
"=	c #635145",
"-	c #615043",
";	c #8C7460",
">	c #876F5C",
",	c #604F42",
"'	c #836B59",
")	c #5F4E41",
"!	c #7E6655",
"~	c #5E4D40",
"{	c #796251",
"]	c #5D4C3F",
"^	c #755D4D",
"/	c #5B4A3D",
"(	c #6F5949",
"_	c #5A493C",
":	c #6B5546",
"<	c #57473B",
"[	c #665042",
"}	c #554539",
"|	c #624B3D",
"1	c #544438",
"2	c #5D473A",
"3	c #524236",
"4	c #584236",
"5	c #504034",
"6	c #543E32",
"7	c #4F3F33",
"8	c #7A7A7A",
"9	c #787878",
"0	c #767676",
"a	c #747474",
"b	c #717171",
"c	c #6F6F6F",
"d	c #6D6D6D",
"e	c #6B6B6B",
"f	c #686868",
"g	c #656565",
"h	c #636363",
"i	c #616161",
"j	c #5F5F5F",
"k	c #5C5C5C",
"l	c #5A5A5A",
"m	c #585858",
"n	c #565656",
"o	c #535353",
"p	c #515151",
"..........++++++++++",
".........+@@@@+@@@@@",
"........+@####+@####",
"$$++++++@%%%%%+@%%%%",
"$+@@@@@@&&&&&&+@&&&&",
"+*=-===========+@===",
"+;--------------+@--",
"+>,,,,,,,,,,,,,,,+@,",
"+'))))))))))))))+'))",
"+!~~~~~~~~~~~~~+!~~~",
"+{]]]]]]]]]]]]+{]]]]",
"+^///////////+^/////",
"+(__________+(______",
"+:<<<<<<<<<<<+:<<<<<",
"+[}}}}}}++++++[}}}}}",
"+|11111+||||||111111",
"+233333+233333333333",
"+455555+455555555555",
"+677777+677777777777",
"++++++++++++++++++++",
"88888888888888888888",
"99999999999999999999",
"00000000000000000000",
"aaaaaaaaaaaaaaaaaaaa",
"bbbbbbbbbbbbbbbbbbbb",
"cccccccccccccccccccc",
"dddddddddddddddddddd",
"eeeeeeeeeeeeeeeeeeee",
"ffffffffffffffffffff",
"gggggggggggggggggggg",
"hhhhhhhhhhhhhhhhhhhh",
"iiiiiiiiiiiiiiiiiiii",
"jjjjjjjjjjjjjjjjjjjj",
"kkkkkkkkkkkkkkkkkkkk",
"llllllllllllllllllll",
"mmmmmmmmmmmmmmmmmmmm",
"nnnnnnnnnnnnnnnnnnnn",
"oooooooooooooooooooo",
"pppppppppppppppppppp",
"++++++++++++++++++++"};
