/* XPM */
static char * workspacebuttonactive_xpm[] = {
"10 24 15 1",
" 	c #080000",
".	c #B89458",
"+	c #B89460",
"@	c #B89860",
"#	c #B89868",
"$	c #B89C68",
"%	c #B89C70",
"&	c #B8A078",
"*	c #B8A480",
"=	c #B8A488",
"-	c #B8A888",
";	c #B8A890",
">	c #B8AC90",
",	c #B8AC98",
"'	c #B8B098",
"          ",
" .........",
" +++++++++",
" @@@@@@@@@",
" #########",
" #########",
" $$$$$$$$$",
" %%%%%%%%%",
" %%%%%%%%%",
" %%%%%%%%%",
" &&&&&&&&&",
" &&&&&&&&&",
" &&&&&&&&&",
" *********",
" *********",
" =========",
" ---------",
" ---------",
" ;;;;;;;;;",
" >>>>>>>>>",
" >>>>>>>>>",
" ,,,,,,,,,",
" ,,,,,,,,,",
" '''''''''"};
