/* XPM */
static char * frameATL_xpm[] = {
"26 26 99 2",
"  	c None",
". 	c #080808",
"+ 	c #000000",
"@ 	c #6D4242",
"# 	c #9B5F5F",
"$ 	c #9C5F5F",
"% 	c #9B5E5E",
"& 	c #9C5E5F",
"* 	c #9B5E5F",
"= 	c #9B5F5E",
"- 	c #9C5F5E",
"; 	c #9B5D5E",
"> 	c #9A5D5E",
", 	c #9A5E5D",
"' 	c #9A5D5D",
") 	c #995D5D",
"! 	c #985C5C",
"~ 	c #985C5B",
"{ 	c #985B5B",
"] 	c #975B5B",
"^ 	c #985B5C",
"/ 	c #975A5A",
"( 	c #975A5B",
"_ 	c #975B5A",
": 	c #965858",
"< 	c #955959",
"[ 	c #955859",
"} 	c #955958",
"| 	c #965958",
"1 	c #955858",
"2 	c #945858",
"3 	c #945958",
"4 	c #945857",
"5 	c #935757",
"6 	c #935756",
"7 	c #935656",
"8 	c #925656",
"9 	c #925655",
"0 	c #925556",
"a 	c #935555",
"b 	c #925555",
"c 	c #915555",
"d 	c #905353",
"e 	c #915453",
"f 	c #905454",
"g 	c #915454",
"h 	c #8E5251",
"i 	c #8E5152",
"j 	c #8D5151",
"k 	c #8E5151",
"l 	c #8C4F4F",
"m 	c #8C4F4E",
"n 	c #8B4F4F",
"o 	c #894C4C",
"p 	c #894C4D",
"q 	c #884C4C",
"r 	c #874A4A",
"s 	c #864A4A",
"t 	c #864A49",
"u 	c #844747",
"v 	c #844847",
"w 	c #834747",
"x 	c #814545",
"y 	c #814444",
"z 	c #7F4242",
"A 	c #7F4343",
"B 	c #7E4343",
"C 	c #7E4243",
"D 	c #7C4040",
"E 	c #7C3F40",
"F 	c #7A3D3D",
"G 	c #7A3E3D",
"H 	c #7A3D3E",
"I 	c #783B3B",
"J 	c #773B3B",
"K 	c #753839",
"L 	c #743838",
"M 	c #743839",
"N 	c #753838",
"O 	c #733636",
"P 	c #723536",
"Q 	c #723535",
"R 	c #723636",
"S 	c #723635",
"T 	c #703433",
"U 	c #6F3334",
"V 	c #6F3434",
"W 	c #703333",
"X 	c #6D3131",
"Y 	c #6B2F2F",
"Z 	c #6A2F2E",
"` 	c #6B2E2F",
" .	c #6A2E2E",
"..	c #6B2E2E",
"+.	c #682C2C",
"@.	c #66292A",
"#.	c #652A2A",
"$.	c #662929",
"%.	c #632727",
"  . . . . . + + + + + + + + + + + + + + + + + + + + ",
"+ @ # $ $ # # $ $ # % $ $ & * = $ $ # # $ # & # * - ",
"+ ; > % > > > % > > , ' ' > ' ' > , ' ' ) ' ) ' ) ' ",
"+ ! ~ ! ! { ~ ! ! { ] ^ ] ] { ] ] { ] / ( / { ( ] _ ",
"+ : < < [ } < < [ } < [ : | [ 1 [ 1 2 3 1 [ 1 1 2 4 ",
"+ 5 6 7 7 8 6 7 7 8 7 7 7 7 8 7 9 8 9 9 9 0 a 0 b c ",
"+ d e f f g                                         ",
"+ h h i j k                                         ",
"+ l l m l n                                         ",
"+ o p q o o                                         ",
"+ r s s t s                                         ",
"+ u v w u u                                         ",
"+ x x x x y                                         ",
"+ z A B C z                                         ",
"+ D E D D D                                         ",
"+ F G H H G                                         ",
"+ I J I J I                                         ",
"+ K L M N N                                         ",
"+ O P Q R S                                         ",
"+ T T U V W                                         ",
"+ X X X X X                                         ",
"+ Y Z `  ...                                        ",
"+ +.+.+.+.+.                                        ",
"+ @.@.#.#.$.                                        ",
"+ %.%.%.%.%.                                        ",
"+ + + + + +                                         "};
