/* XPM */
static char * start_menu_xpm[] = {
"60 24 389 2",
"  	c None",
". 	c #EFF2F8",
"+ 	c #EEF1F7",
"@ 	c #F1F4FA",
"# 	c #FDFFFF",
"$ 	c #FFFFFF",
"% 	c #F8FBFF",
"& 	c #F0F3F9",
"* 	c #F2F5FC",
"= 	c #FEFFFF",
"- 	c #F6F9FF",
"; 	c #EDF0F6",
"> 	c #FCFFFF",
", 	c #EEF1F8",
"' 	c #F9FCFF",
") 	c #F4F7FE",
"! 	c #EDF0F7",
"~ 	c #F3F6FD",
"{ 	c #ECEFF5",
"] 	c #EBEEF6",
"^ 	c #EBEDF6",
"/ 	c #DCDEE6",
"( 	c #939499",
"_ 	c #888A8E",
": 	c #B3B6BC",
"< 	c #DFE2EA",
"[ 	c #ECEFF7",
"} 	c #D9DBE3",
"| 	c #929499",
"1 	c #8C8E92",
"2 	c #8E9094",
"3 	c #BABCC2",
"4 	c #F0F3FC",
"5 	c #DCDEE7",
"6 	c #939599",
"7 	c #8A8C90",
"8 	c #86878B",
"9 	c #828487",
"0 	c #828488",
"a 	c #919297",
"b 	c #E6E9F0",
"c 	c #EAEDF5",
"d 	c #ABADB3",
"e 	c #989A9F",
"f 	c #C9CCD3",
"g 	c #DDE0E7",
"h 	c #9D9EA3",
"i 	c #F0F3FB",
"j 	c #DADDE5",
"k 	c #8D8E93",
"l 	c #F5F8FF",
"m 	c #DBDEE5",
"n 	c #95979B",
"o 	c #8B8D91",
"p 	c #CBCDD4",
"q 	c #E9ECF4",
"r 	c #E6E9F5",
"s 	c #E6E9F4",
"t 	c #E8ECF7",
"u 	c #E1E4EF",
"v 	c #AAACB4",
"w 	c #000000",
"x 	c #47484C",
"y 	c #C0C3CC",
"z 	c #898B91",
"A 	c #72747A",
"B 	c #EFF2FF",
"C 	c #AAACB5",
"D 	c #111213",
"E 	c #1E1F21",
"F 	c #1C1D1F",
"G 	c #38383C",
"H 	c #DEE1EB",
"I 	c #D2D5DF",
"J 	c #343538",
"K 	c #010102",
"L 	c #7B7C82",
"M 	c #E9EDF7",
"N 	c #ADAFB7",
"O 	c #0F0F10",
"P 	c #F0F3FF",
"Q 	c #ADB0B8",
"R 	c #93969D",
"S 	c #B5B8C1",
"T 	c #9B9DA5",
"U 	c #E8EBF6",
"V 	c #E2E6F3",
"W 	c #E1E6F3",
"X 	c #E6ECF9",
"Y 	c #CFD4E0",
"Z 	c #707379",
"` 	c #050606",
" .	c #333437",
"..	c #A2A5AF",
"+.	c #BEC2CD",
"@.	c #1B1C1D",
"#.	c #020203",
"$.	c #343539",
"%.	c #A4A7B1",
"&.	c #D9DDE9",
"*.	c #717279",
"=.	c #030303",
"-.	c #36383B",
";.	c #B3B7C2",
">.	c #F5FAFF",
",.	c #EAEFFD",
"'.	c #E9EEFB",
").	c #E6EBF8",
"!.	c #989BA3",
"~.	c #29292C",
"{.	c #4C4E53",
"].	c #E2E7F3",
"^.	c #71747B",
"/.	c #0A0B0B",
"(.	c #2F3033",
"_.	c #A2A6AF",
":.	c #DDE2EF",
"<.	c #858990",
"[.	c #040405",
"}.	c #2B2C2E",
"|.	c #AAADB7",
"1.	c #EDF3FF",
"2.	c #9FA3AB",
"3.	c #060607",
"4.	c #B7BBC6",
"5.	c #ECF1FF",
"6.	c #DEE3F2",
"7.	c #E6EBFA",
"8.	c #C0C5D1",
"9.	c #3A3C3F",
"0.	c #020202",
"a.	c #030304",
"b.	c #212224",
"c.	c #5F6268",
"d.	c #71757C",
"e.	c #0C0C0D",
"f.	c #1B1C1E",
"g.	c #56585E",
"h.	c #C8CCD9",
"i.	c #C5CAD7",
"j.	c #393B3F",
"k.	c #686A71",
"l.	c #CACEDC",
"m.	c #EDF2FF",
"n.	c #E5EAFA",
"o.	c #E0E5F4",
"p.	c #E4E9F8",
"q.	c #676A70",
"r.	c #121314",
"s.	c #2D2E31",
"t.	c #C6CBD7",
"u.	c #55575D",
"v.	c #CDD3E0",
"w.	c #010101",
"x.	c #4B4D51",
"y.	c #BABFCB",
"z.	c #D6DCE9",
"A.	c #7B7E86",
"B.	c #2A2B2E",
"C.	c #BCC1CD",
"D.	c #E7ECFB",
"E.	c #D9DFF1",
"F.	c #D9E0F1",
"G.	c #E2E9FB",
"H.	c #AEB4C1",
"I.	c #080809",
"J.	c #424449",
"K.	c #2B2C30",
"L.	c #0C0D0E",
"M.	c #5C5E66",
"N.	c #0B0B0C",
"O.	c #787B84",
"P.	c #E5EDFE",
"Q.	c #AFB5C2",
"R.	c #090909",
"S.	c #18191A",
"T.	c #171718",
"U.	c #3C3D41",
"V.	c #BDC3D1",
"W.	c #DCE3F3",
"X.	c #3A3C41",
"Y.	c #1C1E1F",
"Z.	c #7F838C",
"`.	c #0E0E0F",
" +	c #E4ECFC",
".+	c #BDC4D2",
"++	c #686C74",
"@+	c #C8CFDE",
"#+	c #BFC5D4",
"$+	c #595C63",
"%+	c #4C4E54",
"&+	c #C1C7D5",
"*+	c #E1E7F7",
"=+	c #DAE0F0",
"-+	c #D5DCEF",
";+	c #D8DFF2",
">+	c #D0D7E8",
",+	c #898E9A",
"'+	c #171719",
")+	c #757A83",
"!+	c #333539",
"~+	c #303236",
"{+	c #838893",
"]+	c #9398A5",
"^+	c #DCE4F7",
"/+	c #8A8E9A",
"(+	c #101012",
"_+	c #656972",
":+	c #7B808B",
"<+	c #70747F",
"[+	c #848996",
"}+	c #C5CCDD",
"|+	c #B8BFCE",
"1+	c #212225",
"2+	c #040404",
"3+	c #1C1D20",
"4+	c #242529",
"5+	c #27282B",
"6+	c #0E0E10",
"7+	c #9096A2",
"8+	c #EBF4FF",
"9+	c #B0B7C5",
"0+	c #141517",
"a+	c #DBE3F6",
"b+	c #ABB1C0",
"c+	c #35373C",
"d+	c #71757F",
"e+	c #C6CDDE",
"f+	c #D9E2F4",
"g+	c #D5DDEF",
"h+	c #D1D9EE",
"i+	c #D7DFF4",
"j+	c #B6BCCE",
"k+	c #5B5E67",
"l+	c #42454A",
"m+	c #9CA3B2",
"n+	c #4C4F56",
"o+	c #292A2E",
"p+	c #6E727D",
"q+	c #6A6E78",
"r+	c #37393E",
"s+	c #AAB0C1",
"t+	c #BFC6D9",
"u+	c #5B5E68",
"v+	c #404249",
"w+	c #CCD4E8",
"x+	c #F3FDFF",
"y+	c #E7F0FF",
"z+	c #CFD7EB",
"A+	c #858A97",
"B+	c #121214",
"C+	c #212326",
"D+	c #53565E",
"E+	c #42444B",
"F+	c #3A3C42",
"G+	c #A4AABA",
"H+	c #E5EDFF",
"I+	c #A8AEBE",
"J+	c #9499A8",
"K+	c #D6DEF3",
"L+	c #868B98",
"M+	c #0A0C0C",
"N+	c #0A0A0B",
"O+	c #A0A6B6",
"P+	c #CDD5E9",
"Q+	c #D3DBF0",
"R+	c #CCD5EC",
"S+	c #CCD6EC",
"T+	c #D6E0F8",
"U+	c #9AA0B1",
"V+	c #28292E",
"W+	c #6E737F",
"X+	c #BAC2D6",
"Y+	c #878C9B",
"Z+	c #878D9C",
"`+	c #A6ACBE",
" @	c #2A2C30",
".@	c #616671",
"+@	c #C0C9DE",
"@@	c #9FA5B7",
"#@	c #292A2F",
"$@	c #484C54",
"%@	c #9197A7",
"&@	c #A3A9BB",
"*@	c #9FA6B7",
"=@	c #B0B7CA",
"-@	c #C8D0E6",
";@	c #4D4F58",
">@	c #8A909F",
",@	c #686D78",
"'@	c #636872",
")@	c #B7BFD3",
"!@	c #DBE4FC",
"~@	c #ADB3C7",
"{@	c #202125",
"]@	c #60646E",
"^@	c #4A4D55",
"/@	c #070809",
"(@	c #42454C",
"_@	c #C6CDE3",
":@	c #D1D9F0",
"<@	c #CDD5EC",
"[@	c #C8D2EB",
"}@	c #C9D2EB",
"|@	c #D5DEF9",
"1@	c #888EA0",
"2@	c #0E0E11",
"3@	c #101113",
"4@	c #99A0B2",
"5@	c #C5CEE6",
"6@	c #CFD8F1",
"7@	c #D5DFF8",
"8@	c #A4ABBF",
"9@	c #8B92A4",
"0@	c #D2DDF7",
"a@	c #8990A2",
"b@	c #121215",
"c@	c #09090A",
"d@	c #060708",
"e@	c #41444C",
"f@	c #C6D0E8",
"g@	c #2C2E34",
"h@	c #626773",
"i@	c #B8C2D8",
"j@	c #8D95A6",
"k@	c #030404",
"l@	c #8C93A3",
"m@	c #C7D1E8",
"n@	c #CED7F0",
"o@	c #C0C9E0",
"p@	c #8B92A3",
"q@	c #2F3137",
"r@	c #0C0D0F",
"s@	c #0B0B0D",
"t@	c #26282C",
"u@	c #636773",
"v@	c #B7C0D6",
"w@	c #C7D2EA",
"x@	c #C9D3EB",
"y@	c #C8D2EA",
"z@	c #C4CFE9",
"A@	c #C4CEE9",
"B@	c #C5CEE9",
"C@	c #C0CAE5",
"D@	c #BAC3DD",
"E@	c #C1CBE6",
"F@	c #C4CEE8",
"G@	c #C5CFEA",
"H@	c #C2CCE6",
"I@	c #BAC4DD",
"J@	c #B9C4DC",
"K@	c #C1CBE5",
"L@	c #C5CFE9",
"M@	c #C0CBE5",
"N@	c #BAC4DC",
"O@	c #B9C3DC",
"P@	c #B9C2DC",
"Q@	c #BCC6E0",
"R@	c #BBC5DF",
"S@	c #BEC8E2",
"T@	c #C3CDE8",
"U@	c #BCC6DF",
"V@	c #BBC5DE",
"W@	c #BFC9E2",
"X@	c #C3CEE8",
"Y@	c #C0CBE7",
"Z@	c #C0CCE7",
"`@	c #C0CCE8",
" #	c #C0CBE8",
".#	c #C1CDEA",
"+#	c #C4D0ED",
"@#	c #C1CDE9",
"##	c #C1CCE9",
"$#	c #C5D1ED",
"%#	c #C3CFEC",
"&#	c #C4CFEC",
"*#	c #C5D1EE",
"=#	c #C2CEEB",
"-#	c #C4D0EC",
";#	c #BCC8E6",
">#	c #BCC8E5",
",#	c #BBC8E6",
"'#	c #BCC7E6",
")#	c #BBC7E6",
"!#	c #B7C4E5",
"~#	c #B7C4E4",
"{#	c #B3C0E3",
"]#	c #B3C1E3",
"^#	c #AFBDE2",
". . . . . . . . . . . . . . . . . . . . . . . . . . . . . . . . . . . . . . . . . . . . . . . . . . . . . . . . . . . . ",
". . . . . . . . . . . . . . . . . . . . . . . . . . . . . . . . . . . . . . . . . . . . . . . . . . . . . . . . . . . . ",
". . . . . . . . . . . . . . . . . . . . . . . . . . . . . . . . . . . . . . . . . . . . . . . . . . . . . . . . . . . . ",
". . . . . . . . . . . . . . . . . . . . . . . . . . . . . . . . . . . . . . . . . . . . . . . . . . . . . . . . . . . . ",
". . . . . . . . . . . . . . . . . . . . . . . . . . . . . . . . . . . . . . . . . . . . . . . . . . . . . . . . . . . . ",
". . . . . . . . . . . . . . . . . . . . . . . . . . . . . . . . . . . . . . . . . . . . . . . . . . . . . . . . . . . . ",
". . . . . . . . . . . . . . . . . . . . . . . . . . . . . . . . . . . . . . . . . . . . . . . . . . . . . . . . . . . . ",
". . . . . . . . . . . . . . . . . . . . . . . . . . . . . . . . . . . . . . . . . . . . . . . . . . . . . . . . . . . . ",
"+ + + + + + + + + + + @ # $ % & + * # $ = - ; @ # = = = = > , , ' # ) ! @ > = - ; @ # = ~ { @ # $ ~ + ! + + + + + + + + ",
"] ] ] ] ] ] ] ] ] ] ^ / ( _ : < [ } | 1 2 3 4 5 6 7 8 9 0 a b c d e f [ g h 7 3 i j | k f l m n o p q [ ] ] ] ] ] ] ] ] ",
"r r r r r r s s s t u v w w x y u z w w w A B C w w D E F G H I J K L M N O w A P Q w w R = S w w T s U s s s s s s s s ",
"V V V V V V W W W X Y Z ` w  ...+.@.#.w $.%.&.*.=.-.;.>.,.'.).!.~.w {.].^./.(._.:.<.[.}.|.1.2.w 3.4.5.W W W W W W W W W ",
"6.6.6.6.6.6.6.6.6.7.8.9.0.a.b.c.d.e.f.w g.h.i.j.w k.l.m.n.o.p.q.r.w s.t.j.w u.t.v.c.w.x.y.z.A.w B.C.D.6.6.6.6.6.6.6.6.6.",
"E.E.E.E.E.E.E.E.F.G.H.I.w J.K.L.s.M.N.w O.P.Q.I.w R.S.T.U.V.W.X.w w Y.Z.`.w O. +.+X.w ++@+#+$+w %+&+*+=+=+=+=+=+=+=+=+=+",
"-+-+-+-+-+-+-+-+;+>+,+w '+)+!+w ~+{+[.e.]+^+/+w (+_+:+<+[+}+|+1+2+3+4+5+w 6+7+8+9+0+w /+a+b+c+w.d+e+f+g+g+g+g+g+g+g+g+g+",
"h+h+h+h+h+h+h+h+i+j+k+w l+m+n+o+p+q+#.r+s+t+u+w v+w+x+8+y+z+A+B+C+D+E+w w F+G+H+I+w w J+K+L+M+N+O+P+Q+h+h+h+h+h+h+h+h+h+",
"R+R+R+R+R+R+R+S+T+U+V+w W+X+Y+Z+`+ @w .@+@@@#@w $@%@&@*@=@-@;@w v+>@,@w w '@)@!@~@{@w ]@Y+^@/@(@_@:@<@<@<@<@<@<@<@<@<@<@",
"[@[@[@[@[@[@[@}@|@1@2@3@4@5@6@7@8@6+[.9@0@a@b@c@d@a.w.0.e@f@g@w h@i@j@k@k@l@m@n@o@p@q@r@s@t@u@v@w@x@y@y@y@y@y@y@y@y@y@y@",
"z@z@z@z@z@z@z@A@B@C@D@D@E@F@A@G@H@I@J@K@L@M@I@N@J@O@P@P@Q@F@R@P@S@T@K@J@J@K@z@z@F@K@U@I@J@V@W@X@z@z@z@z@z@z@z@z@z@z@z@z@",
"Y@Y@Y@Y@Y@Z@`@ #Y@.#+#+#@# # # ###+#$#.# #.#+#+#+#+#+#+#%# #&#*#=#`@.#*#*#.#`@ #`@.#-#+#+#-#=#`@`@ # #`@ # # # # # # # #",
";#>#;#;#;#;#;#,#,#,#,#;#;#;#;#;#;#;#;#,#,#,#,#;#;#;#;#;#;#;#;#;#;#;#;#;#;#;#,#,#,#,#,#,#,#,#;#;#;#;#;#;#'#'#'#'#)#)#)#)#",
"!#~#~#!#!#!#!#!#!#!#!#!#!#!#!#!#!#!#!#!#!#!#!#!#!#!#!#!#!#!#!#!#~#~#~#~#~#~#~#~#!#!#!#!#!#!#!#!#!#~#~#~#~#!#!#!#!#!#!#!#",
"{#{#{#{#{#{#{#{#{#{#{#{#]#]#{#{#{#{#{#{#{#{#{#{#{#{#{#{#]#]#{#{#{#{#{#{#{#{#{#{#{#{#{#{#{#{#{#{#{#{#{#{#{#{#{#{#{#{#{#{#",
"^#^#^#^#^#^#^#^#^#^#^#^#^#^#^#^#^#^#^#^#^#^#^#^#^#^#^#^#^#^#^#^#^#^#^#^#^#^#^#^#^#^#^#^#^#^#^#^#^#^#^#^#^#^#^#^#^#^#^#^#"};
