/* XPM */
static char * taskbarbg_xpm[] = {
"12 34 145 2",
"  	c None",
". 	c #EFF2F8",
"+ 	c #EEF1F7",
"@ 	c #EDF0F6",
"# 	c #ECEFF5",
"$ 	c #EBEEF4",
"% 	c #EAEDF3",
"& 	c #E8EBF1",
"* 	c #E5E8F0",
"= 	c #E0E4EE",
"- 	c #E1E4EF",
"; 	c #E0E4EF",
"> 	c #DFE4EF",
", 	c #E1E4EE",
"' 	c #DBE0ED",
") 	c #DBE0EE",
"! 	c #DCE0EF",
"~ 	c #DCDFEE",
"{ 	c #DCE1EF",
"] 	c #DCE2EE",
"^ 	c #DBE3EE",
"/ 	c #DCE3EF",
"( 	c #DBE1F1",
"_ 	c #DAE0F1",
": 	c #DBDFF1",
"< 	c #DBE0F1",
"[ 	c #DEE3ED",
"} 	c #DDE3EE",
"| 	c #DDE3F0",
"1 	c #DDE3EF",
"2 	c #DCE3F0",
"3 	c #DDE3F1",
"4 	c #DEE3F2",
"5 	c #D9DFF0",
"6 	c #D8DEF0",
"7 	c #D7DFF0",
"8 	c #D9DEF0",
"9 	c #D9E0F0",
"0 	c #D4DCEF",
"a 	c #D3DCEE",
"b 	c #D4DBED",
"c 	c #D5DCEE",
"d 	c #D5DDEE",
"e 	c #D5DBEE",
"f 	c #D4DCED",
"g 	c #D4DBEE",
"h 	c #D1D9ED",
"i 	c #D0D9EC",
"j 	c #D0D9ED",
"k 	c #D1D8ED",
"l 	c #D2DAED",
"m 	c #D2D9ED",
"n 	c #D0D8ED",
"o 	c #CFD5EB",
"p 	c #CED6EB",
"q 	c #CDD7EB",
"r 	c #CED6EA",
"s 	c #CFD7EC",
"t 	c #CED7EC",
"u 	c #D0D6EC",
"v 	c #CFD7EA",
"w 	c #CED7EB",
"x 	c #CCD3EA",
"y 	c #CCD4EA",
"z 	c #CCD5EA",
"A 	c #CBD4EA",
"B 	c #CDD4EA",
"C 	c #CDD5EA",
"D 	c #CDD3EA",
"E 	c #CCD5E8",
"F 	c #CBD5E9",
"G 	c #C9D1E9",
"H 	c #CAD2E9",
"I 	c #CAD3E9",
"J 	c #C9D2E9",
"K 	c #C8D1E9",
"L 	c #C9D2E8",
"M 	c #CAD2E8",
"N 	c #C9D3E9",
"O 	c #C8D3E8",
"P 	c #C9D3E7",
"Q 	c #C6D0E8",
"R 	c #C7D0E8",
"S 	c #C6CFE8",
"T 	c #C5CEE7",
"U 	c #C6CEE6",
"V 	c #C6D1E8",
"W 	c #C5D1E8",
"X 	c #C6D0E7",
"Y 	c #C6CFE6",
"Z 	c #C3CDE7",
"` 	c #C4CCE7",
" .	c #C3CCE7",
"..	c #C3CCE6",
"+.	c #C2CBE5",
"@.	c #C3CEE7",
"#.	c #C2CEE7",
"$.	c #C3CDE6",
"%.	c #C3CCE5",
"&.	c #C0CBE6",
"*.	c #C1CBE6",
"=.	c #C1CAE6",
"-.	c #C0CAE6",
";.	c #C0C9E6",
">.	c #BFC9E6",
",.	c #BFCBE6",
"'.	c #C0CAE5",
").	c #C0C9E4",
"!.	c #BDC8E5",
"~.	c #BDCAE5",
"{.	c #BDC9E5",
"].	c #BDC7E5",
"^.	c #BDC8E4",
"/.	c #BDC7E3",
"(.	c #BAC6E4",
"_.	c #BAC8E4",
":.	c #BAC7E4",
"<.	c #B9C7E4",
"[.	c #B8C7E4",
"}.	c #BAC5E4",
"|.	c #B8C4E2",
"1.	c #B8C5E1",
"2.	c #B8C5E3",
"3.	c #B8C4E3",
"4.	c #B7C3E3",
"5.	c #B6C4E3",
"6.	c #B6C5E3",
"7.	c #B7C4E3",
"8.	c #B6C3E3",
"9.	c #B5C2E0",
"0.	c #B5C1E0",
"a.	c #B5C0E0",
"b.	c #B4C1E0",
"c.	c #B3C1E0",
"d.	c #B4C0E0",
"e.	c #B3C2E0",
"f.	c #B4C2E0",
"g.	c #B2BFDE",
"h.	c #B2BEDF",
"i.	c #B1BEDF",
"j.	c #B0BEDF",
"k.	c #B1BFDF",
"l.	c #B1BDDF",
"m.	c #AEBBDD",
"n.	c #A9B7DC",
". . . . . . . . . . . . ",
". . . . . . . . . . . . ",
". . . . . . . . . . . . ",
". . . . . . . . . . . . ",
". . . . . . . . . . . . ",
". . . . . . . . . . . . ",
". . . . . . . . . . . . ",
". . . . . . . . . . . . ",
"+ + + + + + + + + + + + ",
"@ @ @ @ @ @ @ @ @ @ @ @ ",
"# # # # # # # # # # # # ",
"$ $ $ $ $ $ $ $ $ $ $ $ ",
"% % % % % % % % % % % % ",
"& & & & & & & & & & & & ",
"* * * * * * * * * * * * ",
"= = - ; ; ; ; > , ; > ; ",
"' ) ! ~ { ] ^ / ( _ : < ",
"[ } / | 1 / 2 3 4 4 4 4 ",
"5 5 6 7 8 5 5 5 5 6 5 9 ",
"0 a b c d d d d e f g 0 ",
"h i j k l l l m m h n h ",
"o p q r s t s u v w w w ",
"x y z A B C B D E F F E ",
"G H I J J J K L M N O P ",
"Q R R Q Q S T U V W X Y ",
"Z ` ` Z  ...+...@.#.$.%.",
"&.*.=.&.-.;.>.-.&.,.'.).",
"!.~.{.!.!.].].!.{.!.^./.",
"(._.:.(.:.:.<.[.<.(.(.}.",
"|.1.|.2.3.4.5.4.6.7.3.8.",
"9.9.0.9.a.b.c.d.e.f.0.d.",
"g.h.h.h.i.j.i.i.j.k.h.l.",
"m.m.m.m.m.m.m.m.m.m.m.m.",
"n.n.n.n.n.n.n.n.n.n.n.n."};
