/* XPM */
static char * taskbuttonbg_xpm[] = {
"12 28 60 1",
" 	c None",
".	c #EFF2F8",
"+	c #EEF1F7",
"@	c #ECEFF6",
"#	c #E8EBF5",
"$	c #E5E9F4",
"%	c #E4E9F3",
"&	c #E4E9F4",
"*	c #E5E9F3",
"=	c #E1E5F2",
"-	c #E0E5F2",
";	c #E0E6F2",
">	c #DEE3F2",
",	c #DDE3F2",
"'	c #DEE4F2",
")	c #DAE0F1",
"!	c #D9E0F1",
"~	c #DAE0F0",
"{	c #D9E0F0",
"]	c #DBE0F0",
"^	c #D6DDEF",
"/	c #D6DEEF",
"(	c #D2DAEE",
"_	c #D3DAEE",
":	c #D3DAED",
"<	c #D2DAED",
"[	c #CFD7ED",
"}	c #CFD7EC",
"|	c #CFD8EC",
"1	c #CFD8ED",
"2	c #CBD5EB",
"3	c #CBD4EB",
"4	c #CCD4EB",
"5	c #C7D1EA",
"6	c #C8D1EA",
"7	c #C7D1E9",
"8	c #C8D2EA",
"9	c #C7D2EA",
"0	c #C7D2E9",
"a	c #C4CEE9",
"b	c #C4CEE8",
"c	c #C4CFE9",
"d	c #C4CFE8",
"e	c #C0CBE7",
"f	c #C0CBE8",
"g	c #BDC9E6",
"h	c #BCC9E6",
"i	c #BDC8E6",
"j	c #BCC7E6",
"k	c #B9C6E4",
"l	c #B9C6E5",
"m	c #B9C5E5",
"n	c #B9C5E4",
"o	c #B8C6E5",
"p	c #B8C5E5",
"q	c #B5C2E3",
"r	c #B5C2E4",
"s	c #B2C0E2",
"t	c #B2BFE2",
"u	c #AEBCE1",
"............",
"............",
"............",
"............",
"............",
"............",
"............",
"............",
"............",
"++++++++++++",
"@@@@@@@@@@@@",
"############",
"$%%$&%**%%*%",
"=--==-;;----",
">>,,>>>''>>>",
")!)~{{~~{~]~",
"^^^^^//^^^//",
"(_:<__(::((_",
"[}}|}[1}}|}}",
"222233234222",
"566655768970",
"aaaaaabaccbd",
"efffffffffff",
"ghgghiihhhij",
"kllllmnkommp",
"qrrrrrqqrrqr",
"sssttsssssss",
"uuuuuuuuuuuu"};
