/* XPM */
static char *taskbuttonminimized[] = {
/* columns rows colors chars-per-pixel */
"15 22 21 1",
"  c gray100",
". c #FEFEFEFEFEFE",
"X c #FDFDFEFEFEFE",
"o c #FBFBFBFBFCFC",
"O c #F9F9FAFAF9F9",
"+ c #FAFAF9F9FAFA",
"@ c gray97",
"# c #F4F4F4F4F4F4",
"$ c #F2F2F1F1F2F2",
"% c #F1F1F1F1F1F1",
"& c #EEEEEEEEEFEF",
"* c #EEEEEEEEEEEE",
"= c #EBEBEBEBEDED",
"- c #ECECECECECEC",
"; c #E9E9E9E9EAEA",
": c #E6E6E6E6E8E8",
"> c #E6E6E7E7E8E8",
", c #E5E5E5E5E6E6",
"< c #E4E4E4E4E5E5",
"1 c #DADADADADBDB",
"2 c #B2B2B2B2B2B2",
/* pixels */
"               ",
"               ",
"               ",
"               ",
"               ",
"               ",
"               ",
"               ",
"....X.......X..",
"ooooooooooooooo",
"OOOO+OOOOOOO+OO",
"@@@@@@@@@@@@@@@",
"###############",
"$$$$%$$$$$$$%$$",
"&&&&*&&&&&&&*&&",
"====-=======-==",
";;;;;;;;;;;;;;;",
"::::>:::::::>::",
",,,,,,,,,,,,,,,",
"<<<<<<<<<<<<<<<",
"111111111111111",
"222222222222222"
};
