/* XPM */
static char * windows_xpm[] = {
"28 21 103 2",
"  	c #FFFFFF",
". 	c #F7F7F7",
"+ 	c #B9B9B9",
"@ 	c #838383",
"# 	c #575757",
"$ 	c #393939",
"% 	c #C6C6C6",
"& 	c #737373",
"* 	c #2E2E2E",
"= 	c #B6B6B6",
"- 	c #505050",
"; 	c #636363",
"> 	c #ABABAB",
", 	c #E6E6E6",
"' 	c #626262",
") 	c #D4D4D4",
"! 	c #F8F8F8",
"~ 	c #C2C2C2",
"{ 	c #C1C1C1",
"] 	c #F9F9F9",
"^ 	c #5F5F5F",
"/ 	c #2F2F2F",
"( 	c #FEFEFE",
"_ 	c #828282",
": 	c #AAAAAA",
"< 	c #6D6D6D",
"[ 	c #444545",
"} 	c #3F3F3F",
"| 	c #676868",
"1 	c #F7F8F8",
"2 	c #A9A9A9",
"3 	c #FBFBFC",
"4 	c #565656",
"5 	c #2D2D2D",
"6 	c #E2E2E3",
"7 	c #BEBEBF",
"8 	c #323232",
"9 	c #C3C3C4",
"0 	c #E0E0E1",
"a 	c #F9FAF9",
"b 	c #383838",
"c 	c #E1E1E1",
"d 	c #B8B8B8",
"e 	c #373737",
"f 	c #BBBBBB",
"g 	c #E0DFE0",
"h 	c #A6A6A6",
"i 	c #F1F1F1",
"j 	c #F2F2F2",
"k 	c #A4A4A4",
"l 	c #F4F4F4",
"m 	c #535353",
"n 	c #2C2C2C",
"o 	c #5E5E5E",
"p 	c #CBCBCB",
"q 	c #EEEEEE",
"r 	c #BABABA",
"s 	c #F0F0F0",
"t 	c #EFEFEF",
"u 	c #D1D1D1",
"v 	c #F2F1F2",
"w 	c #7C7C7C",
"x 	c #2C2B2C",
"y 	c #595959",
"z 	c #9E9D9E",
"A 	c #D7D7D7",
"B 	c #9C9C9C",
"C 	c #C0C0C0",
"D 	c #C2C1C2",
"E 	c #2B2B2B",
"F 	c #2B2B2C",
"G 	c #EEEEEF",
"H 	c #ADADAD",
"I 	c #BDBDBD",
"J 	c #EBEBED",
"K 	c #E4E4E6",
"L 	c #6A6A6B",
"M 	c #2A2A2B",
"N 	c #AAAAAB",
"O 	c #797979",
"P 	c #2B2A2B",
"Q 	c #6A6A6A",
"R 	c #E9E9EA",
"S 	c #B5B5B6",
"T 	c #494949",
"U 	c #2A2A2A",
"V 	c #E6E6E8",
"W 	c #A4A4A6",
"X 	c #484849",
"Y 	c #29292A",
"Z 	c #292A2A",
"` 	c #E6E7E8",
" .	c #E5E5E6",
"..	c #B2B2B3",
"+.	c #676768",
"@.	c #292929",
"#.	c #E4E4E5",
"$.	c #DDDDDE",
"%.	c #A5A5A6",
"&.	c #757576",
"*.	c #4E4E4E",
"=.	c #333333",
"-.	c #DADADB",
"                                                        ",
"                                                        ",
"                  . + @ # $ $ # @ + .                   ",
"                % & * * * * * * * * & %                 ",
"              = - * * * * * * * * * * - =               ",
"            % - * * * * * * * * * * * * - %             ",
"          . & * * * ; > , , > ' * * * * * & .           ",
"          + * * * ; ) ! ~ { ] ) ^ / * * * * +           ",
"( ( ( ( ( _ * * * : ! < [ } | 1 2 * * * * * _ ( ( ( ( ( ",
"3 3 3 3 3 4 5 5 5 6 7 $ 5 5 8 9 0 5 5 5 5 5 4 3 3 3 3 3 ",
"a a a a a b 5 5 5 c d e 5 5 5 f g 5 5 5 5 5 b a a a a a ",
". . . . . e 5 5 5 h i # 8 5 # j k 5 5 5 5 5 e . . . . . ",
"l l l l l m n n n o p q r r s t u n n n n n m l l l l l ",
"v v v v v w x x x x y z A A B C i D E F x E w v v v v v ",
"G G G G G H E E E E E E E E E E H G I E E E H G G G G G ",
"J J J J J K L M M M M M E E E E E N O P M Q K J J J J J ",
"R R R R R R S T U U U U U U U U U U U U T S R R R R R R ",
"V V V V V V V W X Y Y Y Y Z Z Z Z Y Z X W ` V V V V V V ",
" . . . . . . . ...+.@.@.@.@.@.@.@.@.+... . . . . . . . .",
"#.#.#.#.#.#.#.#.#.$.%.&.*.=.=.*.&.%.$.#.#.#.#.#.#.#.#.#.",
"-.-.-.-.-.-.-.-.-.-.-.-.-.-.-.-.-.-.-.-.-.-.-.-.-.-.-.-."};
